<svg viewBox="0 0 56.3 79.7" xmlns="http://www.w3.org/2000/svg"><path d="m18 77-4.1.2c-.4 0-.9-.1-1.2-.4s-.8-.5-1.2-.4c-.7 0-1.3-.1-1.9-.3-.6-.3-1.2-.5-1.9-.6-.3 0-.6-.2-.7-.6.2-.2.4-.3.7-.3.4 0 .7-.2.6-.7s.1-.7.6-1c1.2-.6 1.3-.6 2.4.3s2 1.8 3.5 1.1c0-.1-.1-.2-.1-.2-.2-.4-.8-.7-.5-1.2s.9-.1 1.3-.1c.6.1 1.1-.2 1.4-.7s.7-.7 1.3-.4c.1.1.3.2.4.1 1-.8 1.8-.3 2.7.2.2.1.4 0 .5-.1.1 0 .1-.1 0-.2-.3-.2-.9-.2-.8-.7.1-.7.9-.3 1.2-.7.1-.1.3-.2.4-.2.1-.1.3-.1.4-.1s.2.1.3.1c.4.8 1.3 1.4 1.2 2.5-.9.1-1.7.4-2.5.8-.9.5-2 1-2.4 2-.3.7-.9 1.3-1.6 1.6z" fill="#f7f2ef"/><path d="m1.6 66.5c-.6-1.5-.6-3.2-1.4-4.8-.1-.2-.3-.6-.1-.7.6-.6.4-1.5.7-2.1.5-1 1.2-1.9 2.1-2.5.4 1-.6 1.3-1 2.1.3-.2.6-.5 1-.6 1-.4 1.7 0 1.8 1.1 0 .3-.2.7.4 1-.1-.6.4-.9.8-1.1-.6.1-1.2-.3-1.3-.9 0-.3 0-.5.2-.8.1-.3.4-.5.8-.4.1 0 .1 0 .2.1.3.2.6.4 1 .4 1.9.8 2.1 1.4.7 3.3-.3.4-.5.7-.8.9-.5.2-1.1.3-1 1.1 0 .3-.2.4-.5.5s-.7-.1-1 0-1.3.2-.4 1c.1.1.2.3.1.4-.9.5-.9 1.6-1.6 2.1-.3.2-.5.3-.7-.1z" fill="#f7f2ef"/><path d="m37.7 22.1c1.6-.5 2.7.5 4 1.1 1.5.8 2.7 2 4.2 2.9.1.1.1.2.2.4.4 1.2.4 1.3-.9 2.3-.2.1-.6-.1-.6.3s.2.4.5.6c.1.1.3.2.5.1 1.2-.4 1.2.3 1.1 1.1 0 .1.1.1.3.2.4.3.6-1.8 1.3-.2.4.6.6 1.3.4 2-.2.3-.3.6-.6.7-.8.1-1.6.6-2 1.3-.3.4-.8.4-1.2.1-.1-.1-.1-.1-.2-.2-.3-.2-.5-.3-.9-.2l-.2.1c-.8.2-1-.1-.9-.8.1-.4 0-.9-.3-1.2-.1-.3.1-.5.3-.6.3-.1.7-.1 1 .1.5.3 1 .6 1.3 1 0-.5-.5-1 .1-1.4s.7.4 1 .6c-.3-1.1-1.5-1-2.1-1.7l-.2-.2c-.2-.2-.6-.1-.8-.4-.1-.1-.1-.3 0-.4.5-.6.2-1.3.5-1.9-.5-.2-.7.3-1 .2s-.8-.2-.9-.7c.5-.4 1.3-.1 1.5-.9 0-.1.2-.2.2-.4-.5.1-.9-.4-1.3 0-.4.3-.7.6-1 1-.3 0-.4-.2-.5-.5s.1-.7 0-1c-.1-.5-.1-1 .7-.9-.4-.2-.6.1-.8.4-.3.3-.7.6-1.1.7-.3.1-.6 0-.5-.4 1.2-1.2 1-1.8-.8-2.3h-.2c-.1 0-.2-.1-.2-.2-.1-.3-.1-.5.1-.7z" fill="#f8f4f2"/><path d="m53.7 42.9c.7 1.1 1.3 2.3 2.1 3.4.3.4.4.9.3 1.4 0 .1-.1.2-.1.3.4.8.5 1.8.2 2.6 0 .6-.3 1.1-.7 1.5-.7-.5-1.5-.8-2.3-.8-.6-.4-.7-1.3-1.6-1.5-.4-.1-.6-.5-.5-.9 0-.1.1-.1.1-.2.3-.5.9-.6 1.3-.4s.7.7 1.3.5c-.6-.8-1.7-.5-2.4-1-.8-1.3-1-1.3-1.9 0-.3.5-.7.8-1.2.5s-.3-.8 0-1.2c.4-.5.1-1.4.9-1.8.5.2 1 1 1.3-.2 0-.2.1-.4.1-.6s.1-.6.4-.7.4.3.5.5.3.6.6.4.7-.6.3-1-.4-.7 0-1.1.8.3 1.3.3z" fill="#f9f5f3"/><path d="m4 55.4c.5-.9 1.2-1.6 2-2.2.4-.4.9-.7 1.4-1.1s.4-.5.1-.9c-.8-1.2-1.5-2.5-2.2-3.7.5-.1.7.2 1 .4s.3.4.6.2.5-.5.2-.7c-.3-.5-.4-1.2-.1-1.7.1-.9-.6-1.7-1.5-1.7h-.1c-.6.1-1.1-.3-1.3-.9-.2-.5-.1-1.1.3-1.2.8-.3.9-1 1.2-1.5.8 0 .7.6.9 1.1.4-.9 1.1-.9 1.8-.7 1.1 1.2 1.2 1.8.5 2.8 0 .1-.4 0-.1.2.5.5.3 1.2.2 1.8-.2 1-.2 1.2.8 1.6.1.2.2.5.1.8-.2.8-.8 1.3-1.6 1.5 1.2.8 1.2.8.5 1.9-.3.3-.5.8-.4 1.3-.1.5-.2 1.1-.8 1.4s-.1 1.3-.9 1.5c.1.3.4.4.6.3.3 0 .7-.3 1 .1-.1 1-1.1 1.1-1.8 1.6-.5 0-.6-.5-.7-.8 0-.3-.1-.6-.2-.9-.2-.5-.4-.8-.9-.3-.1-.2-.4-.1-.6-.2z" fill="#f7f2ef"/><path d="m47.1 73.8c-.2.9-1.1 1.2-1.8 1.8-.4-.1-.8-.2-1.1.2-.1.3-.4.4-.7.3-.1 0-.2-.1-.2-.2-.3-.3-.6-.7-.1-1 .7-.1 1.4-.4 2-.9.5-.3.6-.9.2-1.4 0 0-.1-.1-.1-.1-.4-.5-.9-.9-.4-1.9-.6.5-.8 1.1-1.5 1-.9-.2-2.1 0-2.4-1.3-.1-.5-.7-.5-.7-1-.3.2-.3.5-.5.7s-.3.3-.3.2c-.5-.4-1-.9-1.4-1.5-.3-.3.1-1 .3-1.4.1-.2.5-.2.6 0 .7 1 1.5.3 1.9-.1.7-.6 1-.4 1.5.2.2-1.3 1.5-.9 2.1-1.5.1.1.2.1.2.2.2.6-.3 1.3.3 1.7.1.1.1.3.1.4-.3.8.2 1.1.9 1.2.1.1.1.2.2.2.8.3 1.2 1.3.8 2.1 0 .1-.1.1-.1.2 0 .6 0 1.3.2 1.9z" fill="#faf7f5"/><path d="m11.2 73.3c-.4-.2-.9-.5-1.4-.7-.3-.1-.6-.2-.4.3s0 .7-.4.4-.5-.2-.6.2.4.8.1 1.1-1 .1-1.5.2c-.2-.1-.5-.2-.7-.4 0-.4-.2-.7-.2-1 0-.1 0-.3 0-.4-.2.2-.2.5-.5.6-1.1-1.5-2-3.2-2.8-4.8.6-.4 1.6-.2 1.7-1.2 0-.1.1-.2.1-.3.8-.3 1.1.5 1.7.7.2.2.3.4.3.7.1.2 0 .5-.1.7-.1.4 0 .6.4.8.3.2.8.2 1-.2 0 0 0-.1.1-.1.4-.1.7.1 1 .3.1.1.1.1.2.2 0 .1.1.2.1.3.1.2.2.4.4.6.6.6 1.6 1 1.5 2.1z" fill="#f8f4f1"/><path d="m7.5 32.6 1.2-1.5c.8-.7 1.9-1.1 3-1.1.2.3-.2.6 0 .9s.2.3.2.5c0 .9.1 1.3 1.2.8.5-.2 1.1.1 1.3.5.4.8-.4.8-.8 1.1-.7-.5-1.1.1-1.6.4-.2 0-.4 0-.5 0-.8.2-.9.2-1-.7-.3.8-.2 1.8-1 2.3-.4.7-1.3.9-2 .6-.3-.1-.8-.2-1 .2s.2.4.3.7c.1.1.1.2.1.3-.4.8-1.3 1.3-1.2 2.3 0 .1-.1.2-.1.3-.9 1.3-1.3 1.2-2.2-.3.4-1.6 1.2-3.1 2.2-4.4 1 0 1.8-.6 2.7-.5.6 0 1.3-1.5 1-2.1-.3-.5-.3-1-.2-1.4-.1.4-.2.7-.4 1.1-.5.7-.6.7-1.2 0z" fill="#f8f4f2"/><path d="m40.8 79c-.5.6-1.1.9-1.8.2-.3-.3-.2-.8-.5-1.1-.4.3-.8.5-1.2.7 0 .5.5.4.6.7-.2.3-.6.3-.9.2-1.8-.2-3.5-.6-5.3-1.1-.9-.4-1.7-.9-2.4-1.6.8-.3 1.4.3 2 .6.4.4.9.3 1.3.5.8.5 1.7.3 2.5.6-.3-.2-.9-.1-.9-.7.2-.5.6-.4 1-.4s.6-.2.6-.7c-.1-1.8-.1-1.8 1.6-2 .2-.1 0-.3 0-.4-.2-.3-.1-.8.2-1 .4-.2.7.1 1 .3s.4.5.6.8c.2.4.4.7 1 .5s.8.3.9.8v.3c-.1.4-.4.5-.7.4.6.2 1 .8 1 1.4-.1.5-.4.7-.6 1z" fill="#f9f6f4"/><path d="m44.7 34.3c.3.1.2.7.8.5.3-.2.7 0 .6-.6s.5-.7.9-.7c.6 0 1.2-.3 1.6-.7.2.7.6 1.3.2 2-.9.5-1.6 1.3-2 2.3-.2.4-.3.6.2.8.5.1.9.7.7 1.2 0 .2-.1.4-.3.5-.1.1-.2.1-.3.1-.2 0-.4 0-.6 0h-.8c-.3 0-.5-.1-.7-.3-.2-.8.2-1.7-.1-2.5-.4.8-1 1.5-1.7 2-.1 0-.2.1-.3.1-.2 0-.4 0-.6-.1 0 0-.1-.1-.1-.1 1-.9.3-2 .3-3.1.1-.6.8-.8 1-1.3s.8.6 1.2-.1z" fill="#f7f2ee"/><path d="m21.7 30c-.1-.6.3-.8.7-1.1 1.1-.1 2-.5 2.7-1.3.1-.2.4-.3.6-.2.1 0 .1.1.1.1.4.5.7.1 1 0 .7.2 1.3-.3 2-.3.4 0 .3-.3.3-.5-.3-.7.1-1.4.7-1.7h.1c.5-.2.9-.7 1-1.2.5-.3 1-1.4 1.5 0 0 .1.1.1.2.1 1.7 0 .7 1.1.8 1.8-.5.6-1 .3-1.6.1-.2-.1-.3-.1-.5-.1-.1 0-.1.1-.2.1v.2c.1.2.1.3 0 .5-.1.1-.1.3-.2.4 0 .3-.7.6 0 .9.3.2.2.5-.1.6-.3.3-.7.5-1.1.7-.1 0-.2.1-.3.1-.3 0-.7-.1-.9.2-.3.6-.9.5-1.4.4-.2-.1-.4-.3-.6-.4-.9-.4-2.1-.2-2.8.5 0 .1 0 .2-.1.3s0 .2 0 .4c0 .1-.1.2-.2.2-.5.1-.9-.4-1.4-.4 0-.1-.2-.2-.3-.4z" fill="#f7f2ee"/><path d="m3.3 39.8c.2 0 .7-.5.5.1s.2.7.6.8.6-.2.6-.5.3-.2.5-.2c.1 0 .2.1.2.2-.1.7 0 1.5-1 1.6-.5 0-.6.7-.4 1.1s.4 1 1 .7c.9-.4 1.3-.1 1.4.7.1.2.2.3.3.4.3.2.4.6.2.9v.1c-.3.4-.3 1.1.2 1.4 0 0 .1 0 .1.1.1.1.2.3.3.4-.1.4-.8.2-.7.8 0 .3-.4.4-.6.1-.3-.5-.8-.7-1.2-1l-.8-1.3c-.1-.2-.3-.3-.3-.5 0-1.5-.8-2.7-1.1-4.1-.1-.6.2-1.2.2-1.8z" fill="#f6f0ec"/><path d="m53.2 56.7c-.5.9-1.3 1.7-2.2 2.2-.8-.2-1.6-.3-1.8-1.3 0-.1 0-.2 0-.3.1-.1.2-.1.3-.1.7.2 1.1.1.8-.8 0-.1 0-.2.1-.3.2-.4.3-.8.6-1.2.8-.3.9-1 1.1-1.7.4-.5.9-.9 1.5-1.2.9-.4 1.3.2 1.8.8 0 .1.1.2.1.2-.6.9-1.2 1.9-1.6 2.9-.1.2-.3.3-.5.4-.5-.1-.8-.7-1.4-.5.4.2 1.1.2 1.2.9z" fill="#faf7f5"/><path d="m11.4 30.8c-.5-.4.2-.6.2-.9 1-.6 2.1-.9 3.3-.8.5.1 1.1 0 1.5-.3.2-.1.3 0 .4.1s.1.3.1.5v.9c0 .4.1.7.6.7.6.1 1.3.3 1.9.5.5.1.9.6.9 1.1 0 .4-.1.8-.3 1.2 0 .1-.1.2-.2.2-.2 0-.5 0-.5-.1-.3-1.3-1.5-1.2-2.4-1.3-1-.2-2-.6-3-1-.8-.5-1.7-.4-2.5-.8z" fill="#f6f0ed"/><path d="m4 55.4c.4-.2.9-.2 1.2-.7.1-.2.4-.1.5 0 .3.4.5.9.6 1.4-.1.5.1.9.4 1.3.1.1.1.2 0 .2-.4.2-.7.4-.9-.2-.1-.3-.3-.2-.6-.2-.2 0-.3.2-.3.4 0 .1 0 .1.1.1.2.3-.1.6-.1 1 .6 0 1.2-.2 1.6.3-.1.4-.3.2-.5.2-.3.1-.6.2-.7.5-.3.3.2.3.3.5s.1.3 0 .4c-.5.1-.8-.3-1.2-.4s-.1-.3 0-.5c.2-.2.2-.6.1-.8s-.3-.5-.6-.6c-.3-.3-.5.1-.8.2-.4 0-.8.2-1 .6-.2.2-.4.5-.6.2s-.2-.6.2-.8c.4-.3.8-.7 1-1.1.1-.2.2-.4.2-.6.1-.9.5-1.4 1.1-1.4z" fill="#f6f0ed"/><path d="m45.1 67.8c-.6 0-.7-.4-.6-.9.1-.3.2-.6.2-.8.6-.4 1-1 1.2-1.6.2-.3.2-.7-.2-.9-.8-.5-.2-.8.2-1s1-.4 1.2-1c.8-.7 1.2 0 1.6.5v.2c.1.2-.1.5.2.7 0 .1.3.3 0 .4-.2.2-.6.3-.9 0-.7-.6-.9-.2-.8.5v.5c.1.3-.7.4-.1.8 0 .4-.6.8.1 1.2.3.2.2.6 0 .9-.2.2-.2.6 0 .8.1.1.3.1.4.1.3-.2.4-.5.4-.8 0-.4-.2-.9.5-.9.2.4.3.9.1 1.3-.3.6-.4 1.3-.3 2-.7.6-1.3.3-2 0-.5-.8-1.2-1.2-1.2-2z" fill="#f8f4f1"/><path d="m31.1 23.8c.1.5-.1 1-.6 1.3-1.4.7-1.5.8-.8 2.2-.7.3-1.6-.1-2.2.5-.1.1-.4-.1-.5-.3-.8.1-1.5-.2-2-.9.1-.1.1-.2.2-.2.9-.4 1.5-1.3 2.4-1.7s1.8-1.3 3-1.2c.2.2.4.2.5.3z" fill="#f5efeb"/><path d="m18 77c0-.2 0-.6.2-.6.9.3.9-.4 1-.9.2-.4.5-.7.8-1 .5-.4 1.4-.4 1.4-1.4 0-.2.3-.2.5-.1.5.2 1.1 0 1.5-.3.4-.4.8 0 1.1-.1s.6.3.8.5c.1.2.1.4.1.6-.7.3-1.5.6-2.1 1.1-1.5 1-3.4 1.4-5 2.2-.1 0-.2 0-.3 0z" fill="#f6f1ee"/><path d="m25.4 73.8c-.1-.1-.1-.3-.2-.4.2-.2.4-.3.6-.4.1-.1.3-.1.5 0 .6.5 1.4.9 2.2 1.1 1.1.2 1.7 1.4 2.8 1.6.2 0 .3.3.2.6-.1.6.1 1.2-.2 1.8-.6-.4-1.3-.7-2-.9-1.1-.6-2.1-1.4-3-2.4-.3-.4-.6-.7-.9-1z" fill="#f6f0ec"/><path d="m20.2 32.6c-.1-.5-.5-.9-1.1-.9-.4-.1-.8.1-1.1-.4s-.6.3-.9.2c-.5-.6-.2-1.3-.3-2 .2-.1.4-.2.6-.1 1.4.1 2.8.4 4.2.7-.1.9-.6 1.9-1.4 2.5z" fill="#f5efeb"/><path d="m48.4 66.3c-.2.1-.4.2-.3.5 0 .2.1.4.1.6 0 .5-.3.9-.7 1.1-.3.2-.6-.3-.8-.6s-.5-.7.2-1c.4-.2.1-.6-.7-.9.1-.4.6-.6.8-1 .1-.2.2-.4 0-.7 0-.4 0-.7-.1-1.1s.3-.6.5-.7.4.1.5.3c.2.5.6.5 1 .4-.2 1.1-.3 2.1-.5 3.1z" fill="#f7f3f0"/><path d="m4.8 67.2v.2c-.7.4-1.6.3-2.2.9-.6-.4-1-1-1.1-1.8.7.1 1-.3 1.1-.8s.4-1.2 1.2-1.1c-.1-.6-.5-.4-.8-.5.7-1.5 1.1-1.3 2.3-1v.1c-.6.6-.8 1.4-.5 2.2.1.5-.2 1.2 0 1.8z" fill="#f8f4f1"/><path d="m7.5 32.6c.4.4.7.5 1-.2.2-.6.3-1.3 1-1.6.2.1.1.3.1.4-.4.3-.5 1-.2 1.4l.2.2c.2.2.4.5 0 .8-.3.2-.4.5-.4.8-.1.4-.4.6-.7.8s-.6.2-.8-.1-.4.1-.5.2c-.5.2-1.1.5-1.6.1.5-.6.9-1.3 1.2-2 0-.4.3-.7.7-.8z" fill="#f9f6f4"/><path d="m37.7 22.1v.7l-.2.2s.1-.1.1-.1 0-.2.1-.1 0 0 0 0h.3c.2.2.4.4.4.7 0 .2 0 .3-.1.4-.6.4-1.5.1-1.8 1-.3.3-.7.3-1 0-.3-.4-.7-.1-1-.2-.6-.3-1-.8-1.2-1.4 0-.4.4-.4.6-.5z" fill="#f9f5f2"/><path d="m47.3 39.6c.3-1.1.3-1.2-.8-1.6-.5-.2-.5-.5-.1-.8.2-.2.5-.2.5-.5.1-1 1-1.8 2-1.8.1.1.1.2.2.2v.2c-.3.4.1.9-.2 1.3 0 1-.3 2-.7 2.8-.2.1 0 .4-.2.5-.3 0-.5-.1-.7-.3z" fill="#f6f0ec"/><path d="m48.6 60.2v.2c-.2.2-.5.4-.8.3-.2-.8-1-1-1.5-1.5-.1-.1-.1-.2-.2-.2 0-.2 0-.3.1-.4.2-.2.5-.3.8-.2-.6-.2-1.3 0-1.8-.6-.3-.3-.7-.2-.9.2-.4.5-.8.5-1.1-.1s-.9-.6-.7-1.2c.2-.3.4-.5.6-.7.3-.3.7-.3.8 0 .4.8 1.1.7 1.7.8.6 0 1.1.1 1.7.3 1.1.6 1.6 1.9 1.3 3.1z" fill="#f4ede8"/><path d="m48.2 30.8c-.2-.1-.5-.8-.7 0-.1.2-.2.3-.3.4-.2.2-.5.3-.7.2-.3-.1-.2-.4-.2-.6s.1-.6.1-1c-.8.2-1.5.6-2-.2-.2-.3-.5-.5-.3-.9s.5 0 .8-.1h.2.1c.2 0 .4 0 .6-.1l1.2-.3c.6.5.7 1.3 1.2 1.9.3.3.1.5 0 .7z" fill="#f9f6f4"/><path d="m48 39.8c0-.2 0-.4.2-.4 0 .5.4.5.7.6s.8.2 1 .7-.4.4-.2.7c-.2.2-.5.4-.7.7-.2.1-.2.2-.2.4.2.9-.3.9-.9.7.6.2.7.6.5 1.2-.1.3-.2.6-.6.6s-.4-.3-.5-.5c-.1-.5-.5-.9-.7-1.3.2-1.4.7-2.5 1.4-3.4z" fill="#f8f4f1"/><path d="m43.4 74.8c-.6.7.3.7.4 1.1.5-.2.4-.9.9-1s.5.3.7.6c-.6.7-1.3 1.3-2.2 1.8-.3.2-.5.4-.8.3-.5-.4-1-.9-1.3-1.4.3-.8 1.2-1 1.7-1.7l.2-.2.3-.3c.2-.1.4-.2.6-.1.2.5-.1.8-.5.9z" fill="#f9f5f2"/><path d="m48.6 60.2c-.3-1.1-.4-2.2-1.3-3.1-.2-.1-.2-.4-.1-.6.5-.4.8 0 1.1.2s.6.6 1 .8c.4.7 1.2.8 1.8 1.3-.9.4-1.5 1.2-2.5 1.4z" fill="#fbf8f7"/><path d="m20.2 32.6c.6-.8.8-1.8 1.3-2.6h.2c.2 0 .4 0 .4.2.3.1.4.4.3.7-.2 1.5-.6 2.8-2.1 3.4-.2 0-.4 0-.4-.4.1-.4.1-.9.3-1.3z" fill="#efe5de"/><path d="m49.7 41.3c-.3-.3.1-.5.2-.7h.2c.4.3.9 0 1.3.2 1 .3 1.5 1.3 2.2 2 0 .2 0 .4-.3.3s-.5-.3-.8-.5c-.6.5-1.2 1-2.1.8-.1 0-.2-.1-.2-.2-.1-.4-.1-.8.2-1.1.3-.5-.1-.5-.4-.6-.1 0-.2-.1-.3-.2z" fill="#f7f2ef"/><path d="m46.2 69.6h2c0 .9-.1 1.9-.2 2.8 0 .6-.6.9-.8 1.4-.1 0-.5.2-.4-.1.3-.9-.3-1.9.4-2.8.2-.2-.4-.7-.8-.8-.1 0-.3.1-.4 0s.2-.3.2-.5z" fill="#f9f6f3"/><path d="m25 26.7c.6.3 1.3.6 2 .9-.4.1-.4.6-.7.8-.5 0-.2-.6-.7-.9-.9.8-1.7 2-3.2 1.4.6-1 1.2-2.1 2.6-2.2z" fill="#f6f0ec"/><path d="m33.8 22.7c-.6.4-.3.8-.1 1.2s.6.5 1 .4.7-.4.8.3c-.1.1-.1.3-.2.3-.4.2-.7.4-1 .7-.4.3-.8.6-.9-.2.3-.4-.3-1 .1-1.4-.4-.4-.6.1-.9.2-.3-.3-.1-.8-.4-1.1-.5-.1-.7.4-1 .5-.2 0-.4 0-.4-.2.8-.4 1.9-.7 3-.7z" fill="#f8f3f0"/><path d="m37.9 79.4c-.2 0-.5 0-.8 0-.3-.1-.5-.8-.2-.9.6-.2 1.2-.2 1.5-.9.1-.2.5.1.5.3v1.3c-.3.2-.6.3-1 .2z" fill="#f8f4f1"/><path d="m10.6 4.8c-.1-.5 0-1.1.2-1.6.1.1.2.2.2.4s0 .4.1.6h.1s.1-.1.1-.1c0-.1 0-.1-.1-.2s-.2-.2-.2-.3c0-.2-.2-.4 0-.7.2-.1.4-.1.5 0 .2.2.3.4.6.5v.3c0 .1 0 .3-.1.4 0 .4-.2.6-.5.9v.1.1c-.1.4-.1.7-.2 1.1-.5.3-.7 0-.9-.4 0-.1-.1-.2-.2-.2-.2-.2-.2-.4 0-.6.1 0 .2 0 .3-.1s.1-.2.1-.2z" fill="#47717a"/><path d="m16.7 29.1c-.1-.1-.1-.2-.3-.2v-.1c-.1-.1-.1-.3-.2-.4-.1-.6-.4-1.2-.8-1.6-.5-.5-.8-1-1-1.7 0-.1-.1-.2-.1-.3s0-.2.1-.3h.2c.1 0 .1.1.2.2.6.7 1.1 1.5 1.4 2.4l.2.2.5.9c.1.1.1.2.2.2s.1.1 0 .2c.1.2.1.4 0 .5s-.3.2-.4 0z" fill="#38656f"/><path d="m47.1 28.2c0 .2-.1.4-.3.4h-.1c-.3 0-.6.1-.8.2-.2-.2-.5 0-.7-.2.4-.7 1.2-1.2.9-2.2.5.4 1 .6 1.1 1.3-.1.2-.2.4-.1.5z" fill="#f7f3f0"/><path d="m2.7 68.3c.4-.8 1-1 2.2-.9-.1.9-.4 1.2-1.2 1.3-.3 0-.5 0-.8 0z" fill="#f7f2ef"/><path d="m14.5 24.7v.2c0 .1-.1.1-.2 0 0-.1 0-.2 0-.4 0-.1-.1-.2-.2-.3s-.1-.1-.1-.2c0-.5-.3-1-.7-1.4-.5-.4-.7-1.1-.4-1.7 0-.1.1-.1.2 0 .2.7.9 1.1 1 1.9.2.2 0 .5.2.7.1 0 .1.1.2.2.1 0 .1.1.1.2l.2.2v.2c-.2.3-.2.3-.3.4z" fill="#3f6a74"/><path d="m9.9 12v-.7c.2-.7-.1-1.5.2-2.2.1 0 .2 0 .3.1.1.2.1.3.1.5 0 .1-.1.2 0 .3.1-.1.1-.1.2-.2.2 0 .4 0 .5.2s-.3.2 0 .4v.3c0 .3-.1.5-.1.8-.1.1-.1.2-.2.4-.2.3-.7.3-1 .1z" fill="#557b84"/><path d="m10.5 5.7c.3.2.3.8.8.7.1.4 0 .8-.1 1.1-.2.2-.2.5 0 .8v.2c-.1.1-.2.2-.4.1s-.4-.3-.5-.4c0-.1-.1-.2-.1-.3.1-.2 0-.2-.1-.2-.1-.1-.1-.4 0-.5.2-.1.2-.4.1-.6 0 0-.1-.1-.1-.1-.1-.2 0-.5.2-.7.2.1.1-.1.2-.1z" fill="#436e77"/><path d="m12.7 0h.3c.1 0 .1.1.2.2.1.2.1.5 0 .8.1.1 0 .3-.1.3-.3.1-.6.3-.6.6 0 .2-.3.2-.5.2s-.6.1-1 0c0-.6.5-.7.8-1.1s.4-.8.9-1z" fill="#3b6771"/><path d="m55.4 52.7c-.1 0-.3 0-.3 0-.3-.7-.9-.6-1.5-.6.1-.4-.4-.5-.4-.7v-.2l.1-.3c.6.4 1.7-.1 1.9 1 0 .1.1.1.2.1z" fill="#f8f3f0"/><path d="m47.8 60.6.9-.2c.1.5.1 1 0 1.5-.2 0-.5.3-.5.1.1-1-.6-.4-1-.5-.2-.1-.2-.3-.2-.5.2-.2.4-.5.8-.4z" fill="#f7f3f0"/><path d="m53.2 56.7c-.6-.6-1.6-.5-1.9-1.4.7.3 1.7 0 2.1 1 .1.1 0 .3-.2.4z" fill="#f8f3f0"/><path d="m12.1 19.9s-.1-.1-.1-.2-.1-.2-.2-.3c-.2-.3-.3-.7-.3-1.1.1-.4.1-.8.7-.7.1.2.1.3.1.5v.2c0 .2.1.3.2.4l.1.4c.1.3.1.6 0 .9v.2c-.3.3-.2-.2-.5-.3z" fill="#315f6a"/><path d="m11.9 1.9c.2 0 .6.1.6-.2 0-.7.5-.2.7-.4-.3.8-.6 1.6-.8 2.4-.1.1-.2.1-.2 0v-.2c-.2-.1-.3-.2-.3-.4 0-.1 0-.3-.1-.4s-.2-.3-.2-.5.1-.2.3-.3z" fill="#3c6872"/><path d="m42.3 77.5.9-.2c-.6.8-1.4 1.5-2.4 1.7 0-.4.3-.6.4-.9.2-.4.6-.6 1.1-.6z" fill="#fcfaf9"/><path d="m5.7 73.5c0-.4.1-.7.3-1 .1-.1.2-.2.3-.1s.2.2.2.2c-.3.6.2 1.2-.2 1.8z" fill="#f7f2ef"/><path d="m10.3 7.8v.2c.2.3.1.6.1.9 0 .1-.1.2-.1.3-.4.3-.2.6-.2 1s.2.9-.2 1.2c-.1-1.4 0-2.8.2-4.2 0 .2 0 .4.2.5.1 0 .1 0 0 .1z" fill="#5a7f88"/><path d="m11.2 16.9-.3-.9c0-.2.1-.3.3-.5l.1-.1h.3.1s.1.1.1.1c0 .1.1.2.1.2.2.1.2.3.2.4-.2.4-.6.7-.9.8z" fill="#446e77"/><path d="m10.8 15.8c-.3-.2-.2-.4-.2-.7.1-.2.1-.4.1-.6s0-.4 0-.6c0-.1.1-.1.2-.2.1 0 .2 0 .2.1.2.3.2.6.5.8l.1.4v.2c-.1.1-.1.1-.2.1-.2-.1-.2.1-.3.1-.3-.1-.3.2-.4.4z" fill="#446e77"/><path d="m11.9 2.6c.1.1.4.1.3.3 0 0-.2.1-.3.1s-.1.1-.2 0h-.7c-.1-.1-.1-.3 0-.5v-.4c.3-.1.5-.5.8-.2l-.2.2c-.1.3.1.4.3.5z" fill="#2d5c67"/><path d="m12.3 17.7c-.4.1-.4.5-.7.7 0-.1-.1-.1-.1-.2s0-.2-.1-.2c-.2-.3-.3-.6-.2-.9.1-.1.2 0 .3.1s-.1 0 .1 0 0 0 0 0v-.1c0-.3.1-.5.5-.5v.4c.1.1.1.2.1.2z" fill="#406b75"/><path d="m11.6 14.6c-.5-.1-.5-.5-.6-.9-.1-.1-.2-.1-.3-.3 0-.2 0-.5.1-.7 0-.1 0-.3.1-.4s.2-.2.3-.2c0 .9.1 1.8.4 2.5z" fill="#4a727c"/><path d="m11.2 10.8-.1-.3c-.1-.1-.1-.1-.1-.1s0-.1.1-.1c0-.3-.2-.3-.4-.3-.1-.1-.1-.2-.1-.3 0-.3.1-.7.2-1 .1-.1.2-.1.3 0 .2.7.5 1.4.1 2.1z" fill="#668990"/><path d="m12 16.6c-.2.2-.4.5-.4.9l-.4-.5c0-.1 0-.1 0-.2.1-.5.7-.4.9-.7-.1.2-.1.4-.1.5z" fill="#2c5c67"/><path d="m11.2 12.2-.2.2c-.1.1-.1.1-.2.1h-.2-.4-.2s-.1 0-.1-.1v-.4c.3-.2.8.1 1.1-.2.1 0 .2.1.2.2z" fill="#3f6a74"/><path d="m12.1 19.9c.4 0 .4.4.7.4s.2.5.3.7h-.2c-.4-.3-.7-.7-.8-1.1z" fill="#406b75"/><path d="m11 12.9c0 .3-.1.4-.2.7.1.1.1.1.1.1s0 .1-.1.1c0 .1-.1.1-.2.1s0-.2-.2-.1h-.1c-.3-.2-.2-.4-.1-.7l.6-.3s.1 0 .2.1z" fill="#3b6771"/><path d="m12.7 18.8c-.2-.1-.8.1-.4-.5v-.7c.3.4.4.8.4 1.2z" fill="#517880"/><path d="m12.7 0c-.4.3-.4.9-.9 1 .1-.5.3-.9.9-1z" fill="#3f6a74"/><path d="m10.8 12.9c-.1.3-.3.4-.6.2v-.2c-.1-.1-.1-.3 0-.4.1-.1.3-.1.4 0 .1.1.2.2.2.3z" fill="#2c5c67"/><path d="m48.9 62.8c-.2-.1-.5.2-.6 0s.3-.4.4-.7c.2.2.1.5.2.7z" fill="#f7f3f0"/><path d="m11 2.5v.5s.2.4.2.6c-.1.1-.1.1-.2.1s-.2-.1-.2-.1l-.1-.5c0-.2.1-.4.3-.6z" fill="#315f6a"/><path d="m10.6 4.8c.2.1.5.3.3.5s-.4-.1-.6-.3z" fill="#446e78"/><path d="m16.7 29.1c.4.2.4 0 .4-.3.1.2.1.3.2.5-.2.3-.4.3-.6.1 0-.1 0-.2 0-.3z" fill="#3e6973"/><path d="m51.5 40.9c-.4-.1-.9.2-1.3-.2.4.1.9-.2 1.3.2z" fill="#f8f4f1"/><path d="m48.9 36.5c.1-.4-.2-.9.2-1.3-.1.4.2.9-.2 1.3z" fill="#f7f2ee"/><path d="m10.1 6.5c.2 0 .4 0 .4.3s-.2.3-.4.4c0-.2 0-.4 0-.7z" fill="#2d5d67"/><path d="m10.5 13.8h.2v.6c-.1.1-.1.1-.2 0-.2-.2-.3-.4-.3-.6h.1z" fill="#2e5d68"/><path d="m11.2 8.3c-.3-.3-.4-.6 0-.9z" fill="#5a7f88"/><path d="m12.7 20.1c0-.3 0-.6 0-.9.3.2.3.5.1.8 0 .1 0 .1-.1.1z" fill="#406b75"/><path d="m10.8 15.8c0-.4.2-.4.4-.2-.1.2-.2.3-.4.4 0-.1 0-.2 0-.2z" fill="#2d5c67"/><path d="m14.2 23.6c-.2-.2-.2-.4-.2-.7.3.2.1.5.2.7z" fill="#436d77"/><path d="m10.6 14.4h.2c0 .2.1.5-.2.6z" fill="#4a727c"/><path d="m13.2.9c0-.2 0-.5 0-.8.2.1.3.4.1.6 0 .2 0 .2-.1.2z" fill="#3f6a74"/><path d="m47.1 28.2c-.2-.1-.2-.3 0-.4.3.1 0 .3 0 .4z" fill="#f9f6f4"/><path d="m12.1 3.7h.2c0 .2-.1.3-.2.4z" fill="#577d85"/><path d="m10.5 5.7v.3l-.2-.1c0-.1 0-.1 0-.2z" fill="#32606b"/><path d="m11.2 8.7h-.2c-.2.1-.3 0-.2-.2h.4z" fill="#5a7f88"/><path d="m11.2 12-.2-.2.2-.2z" fill="#34616c"/><path d="m10.1 12.4v.4c-.1-.1-.2-.3-.2-.4z" fill="#426d76"/><path d="m11.6 15.3v-.2c.1.1.2.3.2.5-.1.1-.1.1-.2 0s-.1-.2 0-.3z" fill="#4a727c"/><path d="m16.3 28.4c.1.1.2.2.2.4-.3 0-.3-.2-.2-.4z" fill="#3e6973"/><path d="m11.6 5.2s0-.1-.1-.2h.1z" fill="#386570"/><path d="m11.6 15.5h.2v.2z" fill="#32616b"/><path d="m12.2 17.3-.1-.3c.1.1.1.1.1.3z" fill="#4a737c"/><path d="m11.4 17.9.2.2c-.1.1-.1.1-.2 0z" fill="#33616c"/><path d="m11.5 18.1h.2v.2c-.1.1-.3 0-.2-.2z" fill="#4a737c"/><path d="m11.9 19.5c.1.1.2.2.2.3-.2-.1-.2-.2-.2-.3z" fill="#406b75"/><path d="m14.4 23.8-.2-.2c.2 0 .2.1.2.2z" fill="#436d77"/><path d="m13.9 24.1.1.2z" fill="#436d77"/><path d="m14.6 24.3c-.1 0-.2-.1-.2-.2.2 0 .3 0 .2.2z" fill="#436d77"/><path d="m14 24.3c.1 0 .2.2.2.3-.1-.1-.2-.2-.2-.3z" fill="#436d77"/><path d="m14.9 24.9-.2-.2z" fill="#436d77"/><path d="m14.3 24.9h.2v.2c-.1.1-.2 0-.2-.2z" fill="#436d77"/><path d="m49.1 35-.2-.2c.1 0 .1.1.2.2z" fill="#f7f2ee"/><path d="m13.2.2-.2-.2c.1 0 .1.1.2.2z" fill="#3f6a74"/><path d="m14.5 24.7.2-.2v.2z" fill="#436d77"/><path d="m17.1 28.6c-.1 0-.2-.1-.2-.2.1 0 .2.1.2.2z" fill="#3e6973"/><path d="m16.4 27.5c-.1 0-.2-.1-.2-.2.2 0 .2.1.2.2z" fill="#3e6973"/><path d="m25.2 26.5c-.1.1-.2.1-.2.2 0-.1.1-.2.2-.2z" fill="#f6f0ec"/><path d="m22.4 70.5c-.2.2-.3.8-.8.3-.2-.2-.4 0-.4.2s0 .3.2.4l1 .3c0 .2-.2.4-.4.5-.4.4-.7.6-1.1.1-.3-.3-.7-.5-1.1-.5-.5 0-1.2-.2-.9.7-.4.1-.5-.2-.6-.3-.7-.6-.7-.6-1.2.2-.4.7-1.3.9-2 .6-.2-.1-.5-.2-.7 0s.1.5.3.6c.4.4.6.9.5 1.5-.4-.4-1.1-.5-1.6-.1-.3.2-.7.2-.9-.1 0 0-.1-.1-.1-.1-.2-.4-.6-.7-1-.7s-.4-.4-.4-.6c.6-.4 0-.9.3-1.4.4-.7-.4-.7-.7-.9-.6-.3-.1-1-.6-1.3-.1-.2-.1-.3 0-.5.3-.4.8-.5 1.2-.2.4.2.2.6.4 1-.1-.3-.1-.6-.2-.8 0 0 0-.1-.1-.1v-.2c.2-.6.7-.5 1.2-.4.2 0 .3.1.4.2.4.6.9 1.1 1.4 1.6.4.3.9.5.7 1.1s-.7.3-1.2.5c.7.4 1.4 0 2.1.3.2.1.3-.2.4-.3.1-.6.5-1.1.9-1.6.3-.2.3-.6.1-.9 0-.1-.1-.1-.2-.1-.3-.2-.5-.5-.5-.9.1-1.2.1-1.2 1.2-.7.4.2.9.5 1.3.2s.2-.8.1-1.2.1-1 .6-.9.7-.5 1.2-.4c.2.2.4.4.5.7 0 .2 0 .4-.1.6-.4 1-1.3 1.8-1.4 3 .2-.6.6-.8 1-.4.4.2.7.5 1 .8.1.1.1.1.2.2z" fill="#f8f4f1"/><path d="m23.2 70.2h-.2c-.2-.2-.5-.2-.6-.5-.1-.2-.1-.4-.1-.6 0-.1 0-.2 0-.3 0-.5-.2-1.1.5-1.2s.7.5.8 1c0 .4.4.7.8.7.5 0 .2-.4.2-.7 0-.5.2-.9.8-.6.4.1.8.2 1.2.2 1.6.4 1.6.5 1.6 2.1 0 .2-.1.3-.3.3-1-.2-2-.1-2.9.2-.7.2-1.4 0-1.8-.6z" fill="#f2e9e4"/><path d="m23.2 70.2c.1-.2.4-.2.4-.2.1.9.7.6 1.1.4.1 0 .3.1.4 0 .8-.5 1.8-.5 2.6-.1.3.6-.1.8-.5 1-.1 0-.3 0-.4-.1-.5-.2-1 0-1.3.5-.4.5.1.9.3 1.2-.1.3-.4.2-.6.2l-.7-.7c-.5-.5-.9-1.3-1.3-2.2z" fill="#f0e6e0"/><path d="m22.6 69.8c.2.1.4.2.4.4h-.4l-.1-.1c-.1-.1 0-.2.1-.3z" fill="#f8f4f1"/><path d="m22.6 70.2-.2.2c-.1-.1 0-.2.2-.2z" fill="#f8f4f1"/><path d="m6.6 57.5v-.2c.4-.4.9-.8 1.4-1 .2-.1.4-.2.4-.5h.1c.5.7.8 1.5 1.1 2.4 0 .1 0 .2-.1.3-1.1.7-.9 1.7-.7 2.7v.3c0 .3-.4.6-.2.9l.2.2c.2.3.3.6.2.9 0 .2-.2.4-.4.5-.1 0-.2 0-.3 0s-.2-.1-.2-.1c0-.3-.2-.1-.3-.1s-.2 0-.2-.1c.1-.9-1-1.3-.8-2.2.1-.6.7-1 1-1.5.7-1.1.6-1.5-.6-2-.5-.1-.6-.2-.6-.5z" fill="#f8f3f1"/><path d="m6.6 61.5c.1.2.2.6.4.7.6.3.6.7.4 1.2 0 .1.1.2.2.2.3.4 0 .7-.2 1.1-.1.1-.2.1-.2.1-.2 0-.4 0-.5.2-.1.1-.3.1-.4.1-.6-.1-.8-.5-.9-1-.1-.3 0-.7-.2-1 .1-.1.3-.3.3-.4-.1-.3-.4-.5-.1-.8.4-.3.8-.4 1.2-.4z" fill="#f8f5f2"/><path d="m3.9 62.2c-.2 0-.7-.1-.5-.4s0-.9.5-.8.6.5.6.8-.3.3-.6.4z" fill="#f9f5f3"/><path d="m26.7 29.3c.2.1.4.2.4.4.4.3-.4 1.1.4 1.1.5 0 1.3.1 1.5-.8.1-.3.3-.7.5-.9 1.6-.4 1.6-.4 1.5-2-.1-.4.1-.7.4-.9.1 0 .2 0 .3.1l.1.1c.3.2.5.5.6.9.3 1.1 1.4 1.2 2.2 1.7.1.1.3.1.4-.1v-.1c0-.2-.1-.5-.3-.5-1.1-.2-.9-.9-.5-1.5.2-.2.6-.2.7-.6.3-.5 1.3.1 1.2-.9.8-.3 1.6-.4 2.4-.3l.1.1c0 .2 0 .4.3.3.4-.2.7-.4 1-.8.3-.3.6-.4 1-.4.3 0 .5.1.5.4s0 .5-.2.5-.2-.1-.2-.3-.1-.3-.3-.1 0 .5 0 .7c-.1.1-.3.1-.3.2-.3.7-.8 1-1.5.6-.2-.1-.5-.1-.2.3 0 .2-.2.3-.1.5.3-.1.1-.5.4-.7.9.4.8 1.1.8 1.9-.8 1.1-.8 1.2-1.8.3-.2-.2-.2-.3-.5-.1s-.2.2 0 .5.3.8 0 1c-.9.4-.6 1.2-.7 1.8 0 0-.1.1-.1.1-.5.4-1.4-.3-1.5.5s1.6 2 2.4 2c.5.4.9 1 1.1 1.6.3-.6.1-1.4-.4-1.8-.2-.2-.3-.5-.1-.8.5.1 1-.2 1.3-.6.2-.3.5-.7 1-.6.3.2.4.5.3.8-.5.3-.6.9-.3 1.4.1.1.1.2.2.2.6.6.8 1.2.1 1.9-.4.4-.2 1.1-.9 1.3-.5-.1-.7.3-1 .6-.5 0-.5-.3-.5-.7s-.2-.7-.6-.8c.2.8 1 1.4 1.1 2.3-.8.5-1.7.1-2.5.4-.5.1-1 .1-1.4.2s-.8.3-1.2.6c-.3.2-.5.3-.8 0-.1-.1-.1-.2-.1-.3s.1-.2.1-.2l.3-.3c.1-.4.7-.5.8-.9.1-.2.3-.3.5-.3h.3c.4.2.8 0 1-.4v-.1c.1-.4-.1-.8-.4-.9 0 0 0 0-.1 0-.7-.1-1-1.2-1.8-.8-.4.5-.7 1.2-.9 1.9-.6.6-1.3.4-1.9 0-.5-.6.1-.8.4-1.1s.8-.3.8-.9-.1-1.3 1-1.1c.3 0 .3-.7.6-1-.8-.1-1.6.3-2-.7-.1-.2-.4-.1-.6 0-.4.3-1 .2-1.4-.2s-.6-.2-.7.3c-.2 1-.3 1-1.1.4-.2-.2-.4-.3-.6-.4-.2 0-.4-.2-.5-.3-.1-.4.5-1.4-.7-.9-.1 0-.2.1-.3.1-.5-.1-.9-.4-1.3-.8-.1-.1-.2-.2-.3-.2l-.3-.2c-.1 0-.1-.1-.2-.2s-.1-.1-.1-.2v-.1-.2-.1-.1c.3-.4.7-.6.9-.1.4.8.7.4 1 0s.7-.9 1.3-.7z" fill="#f9f5f2"/><path d="m36.8 31.7c-.1-.2-.1-.5-.2-.7-.2-.5-.5-1.1.5-1 .3 0 .3-.2.3-.5s0-.5-.3-.6-.6 0-.5-.4.3-.1.5-.1c.4 0 .3-.8.9-.6-.3.7.5.8.9 1.2.2.2.2-.6.5-.7s.7-.1 1.1 0c.5.9 1.2.1 1.8.2s1 .2.5.9c-.1.1.5 0 .3.4v.4c-.1.1-.2.1-.3.1 0 .1.1 0 .1 0 .3.3.7-.1 1 .1.2.4.3.9.3 1.4-.1.5-.3.9-.9.6-.1-.4-.5.1-.7-.2-.2-.1-.3-.4-.6-.5-.2 0-.4 0-.5.1-.4 0-.9 0-.6-.7.1-.3.2-.7-.2-.8s-.5.3-.7.5c-.3.2-.5.6-.5.9.3 0 .5-.3.7-.2s.4.3.1.7c-.6.4-1.2 1-1.5 1.7-.5 0-.4-.5-.7-.6-.1.1-.2.1-.3.1-.6-.3-1-.9-1.3-1.5z" fill="#faf8f6"/><path d="m39.9 37.6c.3-.1.6-.5.5-.9 0-.2 0-.3.1-.5.7-.8.7-.8 0-1.7-.4-.5-.4-1.2-.1-1.7 0 0 .2 0 .3.1.2.1.3.2.3.4v.4c-.1.1 0 0-.1.1l.1-.1c.1-.2 0-.4.1-.5.3-.3.9-.2 1.2-.7.5.2.9.5.5 1.1-.1.2-.1.5.1.7.3.3.5 0 .8-.1 0 .6-.7.8-.9 1.3-.8.5-1.4 1.1-1.8 1.9-.2.3-.3.7-.8.6-.3 0-.4-.1-.3-.4z" fill="#f8f3f0"/><path d="m42.3 32.6c0 .5-.1.9-.8.7-.1 0-.3.1-.3.2s-.1.1-.2 0-.2-.2-.2-.4c0-.3 0-.6-.2-.9.3-.2.2-.4 0-.5s-.3-.1-.4 0c-.2.3-.4.5-.8.6-.4-1.1.8-1.7 1-2.5 1.4.6 1.4.6.7 1.7.2.2.5.1.7.1s.3-.1.4-.2c.3.2.4.5.4.9-.1-.1-.2.1-.3.3z" fill="#f9f6f4"/><path d="m43.4 32.4c.4 0 .7-.1.7-.6s0-.9 0-1.4c.5.4.8 1 1.5.6.1 0 .2 0 .2.1v.1c-.2.9.7.8 1 1.2-.6.7-.7.7-1.2-.2-.1-.2-.2-.3-.4-.2-.2 0-.2.2-.1.4s.1.5.2.7.5.4.1.6-.4-.2-.5-.3c-.5-.4-1-.8-1.5-1z" fill="#faf6f4"/><path d="m40.5 28.4c-.4.1-.7-.2-1.1-.2.1-.7-.2-1.3-.7-1.8-.1.1-.1.1-.2 0s-.4.1-.5-.1.1-.3.3-.4c.6-.3 1 0 1.5.5.2-.6-.1-1.5 1-1 .1.4 0 .8-.2 1.1 0 .4 0 .9.2 1.3.2.2.1.5-.3.6z" fill="#faf6f4"/><path d="m40.5 28.4c0-.2.3-.4.1-.6-.7-.5-.3-.9-.1-1.4l.4.4c.4-.2.8-.3.7.4.2.4.9 0 .9.7.3.3 0 .5-.2.7-.5.1-1.1.3-1.5.6-.5-.1 0-.6-.3-.8z" fill="#f8f4f1"/><path d="m42.3 28.6c.1-.2.2-.4.2-.7.2-.1.3-.4.7-.5.2-.1.5-.1.7.1.2.3.1.5-.1.6s-.4.2-.2.4c.6.6 0 .9-.4 1.1-.3-.5-.9.4-1.2-.2.1-.5.9.1.9-.5 0-.2-.3-.2-.6-.3z" fill="#faf6f4"/><path d="m38.1 23.4c-.1-.2-.2-.4-.2-.6.4-.2.8-.1 1 .2v.1c.1.2.3.3.5.4.8.5.8.9 0 1.4-.2.1-.4.2-.7.3-.3-.2-.5-.4-.3-.7.4-.6 0-.8-.3-1.1z" fill="#f7f2ef"/><path d="m41.8 25.8c.3-.3.5-.5.9-.1.1.1.2.3.5.2s.2-.6.5-.2-.1.5-.2.6l-.1.2c-.1.1-.2.1-.4.2-.3.2-.5.7-1 .4-.4-.3-.5-.8-.3-1.2.1 0 .1-.1.1-.1z" fill="#fbf8f7"/><path d="m41.8 25.8c-.1.5.1.9.4 1.3.3-.4.6-.8 1.1-.6-.2 1-1 .9-1.8.9 0-.5-.3-.4-.7-.4.1-.8.7-.9 1-1.2z" fill="#faf6f4"/><path d="m44 30.4c-.3.1-.7.1-1 .1-.2-.1-.4 0-.6-.2.2-.2.5-.1.7-.1s.7-.2.9.2z" fill="#faf6f4"/><path d="m44.7 34.3c-.1.2-.2.3-.2.5s-.2.4-.4.3c-.4-.1-.1-.3-.1-.5s-.2-.2-.4-.3c.4-.5.7.1 1.1 0z" fill="#f8f3f0"/><path d="m46.9 43.1c.5.3.9.7.8 1.3 0 .2 0 .3.2.3s.3-.1.3-.2c.1-.5.5-1-.3-1.2-.2-.1-.3-.3-.4-.5-.1-.1 0-.3.1-.4.2-.1.3 0 .4.1 0 .1.1.2.1.3.1.2.3.4.5.3h.1c.4-.2.1-.4 0-.6 0-.1-.1-.2-.2-.3-.1-.2-.2-.3 0-.5s.3.1.5.2l.2.1c1 .2 1.2.7.7 1.7-.2.5-.5.9 0 1.4 0 .3-.1.5-.5.5-.2.1-.4.4-.4.6 0 .5-.2 1.1-.6 1.5-.2.2.1.4-.1.7.6-.2 1-.2 1.1-.8s.8-.8 1.3-1.2c.3-.2.7.3.7.6 0 .2 0 .5.1.7-.8 1.4-.7 1.9.4 3 .4.4.6.9.6 1.4-.1.7-.5 1-1.2.9-.1 0-.2-.1-.2-.2s0-.2 0-.3c.4-.7 0-.8-.5-.8-.7 0-1.3.8-2 0-.1-.1-.1.2-.1.2-.1.3-.2.5-.4.7.9-.2 1 0 1.4 1.4 0 .1-.1.2-.1.3-.1.1-.3.2-.4.2-.8.5-1.6.1-2.4.1-.7-.6-1.3-1.3-1.8-2.1-.7-1.2-1.7-2.2-2.9-2.8-.2-.1-.4-.3-.5-.5 0-.6.7-.5 1-.8.7-.6 1.4-1.3 2.1-1.9.1-.1.3-.3.4-.4s.2-.1.3-.1c.5.4 1.3 0 1.1-.6-.3-.8.2-1.4.3-2.1 0-.2.1-.3.3-.2z" fill="#f9f6f4"/><path d="m52.4 52.1c-.3-.8-.5-1.6-1.7-1.6.3-.4.8-.7.1-1s-.5-.6-.1-.9.2-.9.8-.9c.7.1 1.4.3 2.1.5.3.1.7 0 .7.5 0 .2 0 .4-.1.4-.4-.1-.8.2-1.2 0 0 0-.1-.1-.2-.2-.8-.7-.8-.7-1.7 0 .4.5.6 1.2 1.5.8.1 0 .3.1.2.3-.4.6.2.8.4 1.2.2.7-.1 1.1-.8.9z" fill="#faf7f5"/><path d="m50.4 43.3c.8-.1 1.5-.3 2.2-.7-.1.3-.9.8.2.9.2 0 .1.2.1.3 0 .5-.4.8-.6 1.2-.1.2-.4.2-.6.1s-.6-.3-.5-.7c0-.2.2-.3-.1-.5-.5.3.1 1-.4 1.2-.2-.1-.4-.3-.5-.5 0-.4.3-.7.2-1.1v-.1c-.1.1-.1 0 0-.1z" fill="#f8f4f1"/><path d="m50.2 44.8c.2 0 .4.1.4.3v.1c.3.5 0 .6-.3.9s-.5 0-.7-.2-.3-.3-.3-.5c.2-.1.4-.2.4-.4.1-.1.2-.3.5-.2z" fill="#f7f2ee"/><path d="m12.1 34.1s.1-.1.1-.2c.4-1 .7-1.1 1.4-.3.3-.1.5.1.8.3.4.2.9.4.9 1v.3c-.1.1-.2.2-.3.3-.1 0-.3 0-.4 0s-.2-.1-.2-.1c-.1-.1-.1-.1-.2-.2s-.1-.2-.2-.3l-.1-.2c0-.1-.1-.1-.1-.2v-.1c-.1-.1 0 0 0 .1s0-.1 0 .1 0 .2 0 .4 0 .3.1.4.1.5-.1.7h-.1c-.1 0-.1 0 0 .1.7.7.7.7-.2 1.3.6 0 .8.5 1 .9 0 .1.1.3.2.4.5.8.6.8 1.1-.1.1-.1.1-.3.2-.4.2-.2.5-.3.7-.1.3.3.2.6 0 .9-.3.4-.3.9 0 1.3 0 .6-.2 1-.9 1-.3-.1-.2-.3-.2-.6-.1.4-.3.8-.6 1.1-.1.2-.3.3-.5.3.4 0 .4-.2.5-.3s.2-.3.5-.3.3.5.3.9c.1-.7.3-1.1.7-1.3s.7.1.9.3c-.1-.4-.7-.9-.1-1.4.3-.2.6-.2.9.1v.1c-1-.2-1.1-1.3-1.5-2.1-.1-.8-.9-1.3-.8-2.2.5-.2 1-.1 1.4.1.3.7 1 1 1.3 1.7 0-.3.4-.5.5-.8-.6-.1-1.2 0-1.5-.7-.1-.1-.1-.3-.1-.5.1-.3.3-.6.5-.8.6-.3 1.3.1 1.9 0 .1.2.2.5.2.8-.1.7.2 1.3.6 1.8.1.3-.1.6-.2.9.3-.2.4-.4.7-.3s.5.3.4.5c-.4 1.2.2 2.2.5 3.2-.1.1-.3.2-.6.1s-.7-.2-.7.3c0 .3-.2.8.4.9.5 0 .9.5.9 1-.3.6-.7.7-1.2.3-.2-.6-.3 0-.4 0-.2.2-.1.5.1.6 0 0 .1 0 .1.1.6.3.5.7.4 1.2.4-.3 0-.7.1-1 1.2.5 2-.3 3-.7.2 0 .3.2.3.3.2.6.3 1.3.3 1.9-.3.6.3 1.5-.7 1.8s-1.8.1-2.6.3c-.3.1-.7.2-1 .2-.9-.3-1.9-.3-2.9-.2-.1 0-.2 0-.3-.1s-.1-.2-.2-.2c-.2-.3-.2-.6 0-.9.5-.1.9.1 1.4.1s.9-.4 1-.9-.1-.8-.6-.8c-.4 0-.5-.3-.5-.6 0-.5-.4-.2-.6-.2-.5-.3-.5-.7-.1-1.1.1-.2.4-.2.2-.5-.1-.2-.3-.3-.6-.3-.4 0-.2.4-.2.6 0 .1 0 .2-.1.3-.4.2-.6 0-.9-.3s-.4-.4-.7-.2c-.1.1-.4.2-.4.3s.2.1.4.1c.7.1 1.1.4.9 1.2-.1.6.1 1.2.7 1.4.1.1.2.1.2.2.1.1 0 .3-.1.4-.3.2-.4.7-.8.5-.6-.2-1.1-.5-1.7-.8-.4-.3-.2-.9.3-1.2-.5-.4-.9-.8-1.4-1.1-.1-.1-.1-.3 0-.4.3-.2.5-.5.5-.9 0-.3-.2-.2-.3-.1-.5.2-1 .6-1.3 1 .5 0 .9 0 1.2.4s.3.8-.2 1 0 .4 0 .5c-.3.5-.9.6-1.4.3-.1-.1-.2-.1-.2-.2-.1-.2 0-.5-.4-.5s-.4.3-.4.6-.1.6-.2.8c-.2.5-.5.6-.9.1v-.5c-.2-.3 0-.6.1-.9.9-1 1.2-2.4.8-3.7.1-.6.3-.6.7-.2.6.6 1.2.4 1.6-.5.1-.5.1-1 .8-1.2.1 0 .3-.1.3-.2.1-.1 0 .1.1-.1l-.1.1c-.1.1-.2.2-.4.2-.4.1-.7 0-1.1-.1-.4-.2-.7-.4-.3-.8l.2-.1c.2-.1.6.1.7-.3 0-.1 0-.1-.1-.2-.4-.1-.4.3-.7.5-.1.1-.2.1-.3.1-.9-.5-.9.6-1.5.8-.8-.1-.9-.2-.6-1.2.1-.5 0-1.1.8-1.2.3 0 .2-.3.1-.5-.1-.3-.2-.5-.1-.8s.1-.7.2-1c.4-.4.6-1.1 1-1.6z" fill="#f9f5f3"/><path d="m9.9 46.2c0 .3-.1.6-.2.9l-.7.4c-.1-.7-.4-1.3-.8-1.8.4-.2 1.1-.2.5-.8.3-.4.3-.9 0-1.3.7-.6.7-1.6.1-2.3-.1-.1-.1-.1-.2-.2s-.1-.3-.1-.4l.1-.1c.2-.2.5.1.7-.1-.2-.7-.6-1.3.5-1.6.3 0 .6.2.7.5-.3.2-.4.5-.2.8.1.3.3.1.4 0 .3.3.6.6.8-.1.1-.4.3-.7.8-.5h.2c-.2.5 0 .6.4.7.4 0 .8 0 1.1.2-.8.4-.6 1.3-.9 1.9-.1.3 0 .5-.5.3-.1-.1-.3-.1-.4 0-.5.3-.5.3-.8-.2-.2-.3-.2-.3-.4 0-.1 0-.2.1-.2.1-.2 1.2-.5 2.4-.9 3.6z" fill="#f8f4f1"/><path d="m9.7 47.9c.3.1.6.3.7-.2 0-.5.2-.9.4-1.3.1-.2.2-.3.5-.3.7.1.8.2.6 1 .4-.6 1 .6 1.4-.2.7.4.7.6.2 1-.4.2-.7.6-.9 1.1-.1.2-.3.1-.5.1-1.5-.2-1.5-.2-1 1.1 0 .2-.1.4-.3.5s-.3.2-.5.3c-.2.2-.4.3-.6.5-.3.2-.7.1-.9-.2 0-.4.3-.6.7-.9-.5-.2-.6-.7-1.2-.6-.2 0-.3 0-.4-.2v-.1c0-.2.1-.4.3-.4.8 0 1-.7 1.5-1.2z" fill="#f8f4f1"/><path d="m8.4 55.8c-.1 0-.2 0-.3 0-1.1.3-1.1.3-1.8-.7.3-.3.4.1.7.1 0-.7-.1-1.5.9-1.7.3-.1.3-.3.2-.6s.1-.3.4-.4h.1c.6.3 1.3.5 1.5 1.3 0 .1 0 .2-.1.3-1.2 0-1.1 1.2-1.6 1.7z" fill="#f8f3f1"/><path d="m5.7 40.2-.2-.2c.4-.3.3-.8.4-1.2.3-.8.4-.8 1.1-.3.3.2.5.4.6.7-.1.2 0 .4.3.5s.9.4.5 1c-.2.1-.5.2-.7.2-.4 0-.7.1-.7.6 0 .2-.2.5-.5.5-.1 0-.1 0-.2 0-.4-.1-.2-.4-.1-.7.3-.5-.3-.7-.5-1.1z" fill="#f8f4f1"/><path d="m8.6 51.2c.3-.1.6.5.9 0 1 .1.6 1 .6 1.4s-.8.4-1.2.2c-.2-.1-.4-.2-.6-.3-.6-.5 0-.9.3-1.3z" fill="#f1e8e2"/><path d="m8.7 42.8c-.8-.8-1.3.9-2.1-.2.6 0 .9-.7 1.5-.7.3 0 .5.3.6.9z" fill="#f8f4f1"/><path d="m8.4 43.6c-.1 0-.2 0-.2-.1s.1-.1.1-.1.2.1.2.2z" fill="#f8f4f1"/><path d="m43.4 74.8c0-.3.7-.4.2-.9-.1-.3.2-.6.1-.9-.3.2-.5.7-.8 0-.4-1-.7-1.1-1.8-.4.5.3 1.1-.3 1.5.3.2.5.4.9.4 1.4-.2.5-.8.8-.9 1.3-.1.2-.3.1-.5 0s-.5.1-.6.4c-.1-.1-.2-.2-.2-.2 0-.8-.5-.7-.9-.4-.2.1-.2.3-.4.3-.3-.9-.6-1.8-1.6-2.1-.2.7-.2.7.5 1.4-.4.3-.8.2-1.2.2-1.2.1-1.4.4-.9 1.4.2.5 0 .8-.2 1.1s-.5.2-.7.1-.7-.2-.9.2c-.1.1-.2.1-.3.1-.7-.7.4-.8.5-1.2-.2-.2-.7-.1-.8-.6 0-.1 0-.2 0-.3.5-.6 0-1.6 1-2 .3 0 .6-.1.7-.4.3-.7 1.4-.8 1.4-1.7 0-.1.6.1.2-.3-.2-.2-.3-.3-.5 0-.1.1-.2.2-.4.2-.4-.1-.8 0-.9.4-.3.2-.5.2-.8-.1.1-.3.2-.7.2-1.1.1-.4 0-.8-.3-1-.7-.5-.6-1 0-1.4-.3-.3-.7-.2-1-.2s-.5-.2-.3-.6c.1-.1.1-.2.2-.2s.2-.1.3-.1h.3.3c.4-.1.6-.5 1-.6.5.2.9-.2 1.3-.3s.5.3.7.6.3.1.4-.1c.2-.6.9-1.2.4-2 .6-.3 1.2-.5 1.9-.4.3 0 .7 0 .8.4s-.4.3-.8.5c1.5.9 2.6 0 3.8-.4.2-.1.3-.3.5-.3.3-.1.6 0 .8.2.5.4.4.7-.2.8-.3.1-.5.3-.6.6-.1.5-.3.4-.6.2s-.7-.2-.6.4c.1.3-.1.7-.4.9-.3-.4-.3-1.3-1.2-.9-.1.2.4.4.2.7s-.6-.6-1-.1c-.3.3-.6.6-1 .8 0-.6-.2-1.1-.9-1.1.1.4.1.9-.4 1.2.3.4.6.4 1 .5.5.1-.1.7.3.9.6-.3.2-1.3 1.2-1.2-.1.4-.2.9.5.9s-.4.3 0 .5.6.7.9 1c.2 0 .4-.1.5-.3.2-.4.5-.5.7 0s.6.3.8 0c.5-.6.5-.6 1.2-.4.1.4-.6.2-.5.7s.3.6.6.8c.2.3.4.6.6 1 .1.2 0 .4-.1.6-.6.8-1.7 1-2.4 1.6-.2 0-.3-.2-.3-.4z" fill="#faf8f6"/><path d="m44.7 65.9c.3-.3.8-.5-.1-.7-.2-.1-.4-.1-.6-.2v-.1c.1-.3.4-.6.2-1l-.2-.3c-.9-.1-1.2-1.1-2-1.5.3-.7 1-.5 1.5-.5.9.2 1.8-.1 2.4-.7.4.1.8-.5 1.2 0v.4c0 .5.1 1.1-.8 1-.3 0-.5.5-.9.6 1.1.5 1.1.7.6 1.7-.3.6-.3 1.4-1.3 1.3z" fill="#f9f5f3"/><path d="m45.1 67.8c.2.7 1.1 1 1.1 1.8-.1 0-.1 0-.2-.1-.3-.2-.6.5-.9 0s-.5-.9-.1-1.3c.1-.1.1-.2.1-.4z" fill="#f9f6f3"/><path d="m7.2 64.8c.2-.3.4-.7.4-1.1h.2c0-.1.1-.1.2 0v.2c.1.1.1.2.1.4 0-.1 0-.3.1-.4.2-.1.4-.2.4-.4.7.1.7.1.6.8-.1.9.1 1.1 1.2 1.3.7.1 1 .6 1.4 1.1 0-.4.3-.7.6-1 .1-.1.3-.1.4-.1.7.5 1.5.8 2.4.9 1.2.3 1.5 1.2.7 2.2-.2 0-.4 0-.6-.1-.6-.4-1.1-.8-1.6.1-.1.2-.4.3-.7.2h-.4c-.1-.1-.1-.2-.1-.3s.1-.2.2-.2c0-.1 0-.1 0-.2-.2-.1-.4-.2-.6-.2-.4 0-.7.1-1.1.2 0 .4.7.5.4 1-1.4.2-1.4.2-2-.5.1.4.3.7.7.9v.4c-.3.4.1 1.2-.7 1.3-.5 0-.4-.3-.4-.7.1 0 .1-.1.1-.2s0-.1-.1-.1c-.1-.5-.6-.3-.9-.4-.2.1-.2.4-.2.6s-.2.3-.5.3c-.1 0-.1-.1-.2-.1-.3-.4-1.1 0-1.2-.7 0-.4.4-.8.4-1.3l.1-.1c.6-.2 1.1-.3 1.7-.4.4 0 .6-.3.4-.6s-.4 0-.6.1-.2.2-.4.2c-.5.2-1.1.3-1.4-.2s.1-.9.6-1.2c.1.1.3.2.5.2s.1-.1.1-.1c-.1.1-.3.1-.4 0-.3-.9.1-1.3.2-1.8z" fill="#faf7f4"/><path d="m5.3 63c.6 0 .4.5.4.8 0 .6.2 1.1.9 1.2.3.8.2 1.5-.7 1.7.1.4.5.6.6 1v.1c-.2.1-.4.2-.6 0-.3-.3-.6-.5-1-.6-.7-.3-.4-1.2-.9-1.5.4-.4.4.2.8 0 .2-.4-.3-.6-.3-.9-.1-.6-.3-1.2.5-1.5 0 0 .1-.1.3-.3z" fill="#faf7f5"/><path d="m9.7 71.1c.2-.1.2-.3.2-.6-.1-.3.1-.7.4-.8l.8.4c-.2.4-.5 0-.7.2.1.6.7.6 1.1.7.6.2.5.4.3.8s-.4.5-.1.9-.2.5-.5.6c.1-.8-.5-1.1-1-1.6-.2-.1-.4-.3-.5-.6z" fill="#f9f6f3"/><path d="m8.4 69.8c.1-.1.2-.1.4-.2s.4-.2.6 0 0 .4-.1.7c-.4 0-.8-.2-.9-.5z" fill="#f9f6f3"/><path d="m6.3 68.8c0 .1-.1.3-.2.3s-.2-.1-.3-.2c0 0 0 0 0-.1s0-.3.2-.3c.1.1.2.2.3.3z" fill="#faf7f4"/><path d="m6.6 68.5c-.3-.2-.2-.4-.2-.7.5.1.4.4.2.7z" fill="#faf7f4"/><path d="m9.2 70.2c.2.1.2.2 0 .2z" fill="#f9f6f3"/><path d="m14.3 34.1-.7-.4c0-.5 1-.2.7-.8-.1-.4-.7-.3-1-.5-.1 0-.1-.1-.2-.1-.3.1-.1.9-.7.5-.4-.2-1.4-.2-.8-1.1.3-.4-.4-.5-.3-.8.4.1.8-.8 1.2 0 .1.2.2 0 .4-.1.7-.4.7-.4.8.4 0 .1.1.3.2.3.4-.2.7-.6 1.2.1.3.5.9.7 1.4.4.1-.1.2-.1.3 0 .5.6 1.4.7 2.1.3.2-.1.5.2.4.3-.6.8.1.9.5 1.3v.1c-.9.7-1.1-.4-1.7-.6-.1 0-.2-.1-.2 0s.2.3.2.4c0 .3-.1.6-.5.6s-.5-.7-1-.2c-.2.1-.5.2-.7.2-.9-.2-.1-.7-.3-1.1-.4.5-.6 1.1-1.3.8z" fill="#f7f2ef"/><path d="m7.5 39.4c-.2-.5-.8-.5-1.1-1.2-.3.4-.4.8-.3 1.3-.1.5-.3.5-.6.5-.1-.3-.1-.6 0-.9.2-.4 0-1.2.8-1.2.2 0 .3-.4.4-.6.6-.5 1-.3 1.3.4-.1-.8-.3-.9-1.2-.4-.3-.2-.9-.5-.8-.9.2-.6.8-.3 1.2-.4.4 0 .8.1 1.2.2.3.1.4-.8.9-.7.1 0 .1.1.2.2l.3.3.1.1c.2.1.3.2.4.4.1.3.5.7.2 1s-.9-.1-1.3 0c0 .5.2 1 .5 1.5-.6.4-.8.7-.2 1.3.3.3 0 .4-.3.5-.7-.4-1-1.2-1.7-1.4z" fill="#f9f6f4"/><path d="m9.4 35.9v-.2c.6-.5.5-1.2.7-1.8.1-.3.1-.5.4-.7s.3-.4.5-.1.1.3-.1.5-.3.5 0 .6.2-.2.4-.3c.4-.2.7-.2.8.3 0 .1-.1.1-.1.2 0 1 0 1-.8 1.3-.5 0-1.1.1-1.5.4-.1-.1-.2-.2-.3-.2z" fill="#f7f3ef"/><path d="m27.2 71.3c.4-.1.6-.5.7-.9.1 0 .2-.1.2-.2l.1-.1c.1-.1.3-.1.5 0 .8.3 1.3 1.2 1.1 2-.1.7.6.9 1 1.3s.8.1 1.2.2c.2.1.3.3.3.5 0 .1.1.2 0 .3-.2.7 0 1.5-.2 2.2-.2.3-.1.7.1.9s.4.4.1.7c-.3-.2-.9.2-1.1-.4s-.4-1-.1-1.6-.1-.8-.6-.8c-.5.1-.9-.2-1.1-.6-.3-.4-.7-.7-1.3-.7-.9-.1-1.7-.6-2.1-1.3 0-.7.5-1.3 1.2-1.5z" fill="#f7f2ee"/><path d="m32.4 78.3c0-.4-.3-.6-.6-.8-.5-.3-.1-.5.1-.7.2 0 .5.1.7.2.6.2 1.1.6 1.5 1.1h.2c0 .2.3.4.5.3h.1c.5-.1.7.2.8.8-1-.5-2.2-.2-3.3-.9z" fill="#f7f3f0"/><path d="m42.3 77.5c-.3.4-.7.4-1.1.7-.2-.7-.6-1.2-1.2-1.5.3-.5.9.4 1-.4.6.1 1 .6 1.3 1.2z" fill="#faf8f6"/><path d="m46.9 43.1-.2.2c-.6.9-.5 2.3-1.8 2.8-.1.1-.2.3-.3.3-.6.1-1 0-.8-.8 0-.1 0 0 0-.1.4-1.2.6-2.4-1-3.1-.4-.2-1.4-1-.4-1.8-.1-.3-.4-.5-.7-.6s-.6-.3-.5-.7.3-.3.6-.3.1-.3.2-.4.2-.1.3 0h.7c.5.4.8 1 1.4 1.2.3.6.4 1.3.2 2-.1.1-.2.1-.3 0 .2.2.4.1.5.2.2.1.4 0 .6-.1-.2-.4-1.1-.6-.7-1.3.4-.5.7-.9 1.1-1.3h.9c.1.1.3.1.4.2h.2c.2 0 .5.1.7.2-.2.7-.4 1.5-.8 2.1-.3.5-.3.9-.3 1.3z" fill="#f2e9e4"/><path d="m42.3 38.7h-.2c-.4.3-.8.3-1.3.4-.4.1-.9.1-1.4 0-.1 0-.2-.1-.3-.2s-.1-.3 0-.5c.2-.3.6-.5 1-.4.7-.3.8-1.1 1.2-1.6s.7-.9 1.4-.8c.1.4 0 .9.5 1.3s0 .9-.3 1.2-.5.3-.6.6z" fill="#f9f5f2"/><path d="m45.8 39.4c.1.7-.5.9-.8 1.3s-.2.9.2.8c.9-.2.6.3.4.7 0 .1-.1.3-.1.4l-2-.7c.4-.3.8.1 1.1-.3-.4-.3-.8-.6-.2-1.1.3-.3-.2-.4-.4-.4-.6-.2-1-.7-1.1-1.3h.2c.7-.3 1.5-.1 2 .4.2.2.4.2.7.2z" fill="#f3ebe6"/><path d="m45.1 39.2-2-.4c.4-.9 1.6-1.2 1.8-2.3.5.7.6 1.8.2 2.7z" fill="#f8f4f1"/><path d="m47.1 39.6c-.2 0-.3 0-.4-.2.1 0 .3 0 .4.2z" fill="#f6f0ec"/><path d="m20.4 34.1c.3-.2.5-.5.8-.8s1.1-.5.6-1.3c-.1-.1.1-.4.3-.5.3-.4.3-.9.1-1.3.6-.2 1 .5 1.5.4l.2.2c.6 1 .5 1.3-.5 1.7-.3.2-.6.2-.6.7-.1 1-.3 2-1.5 2.2-.2 0-.2.4-.3.6s-.4.2-.7.1c-.9-.8-.3-1.4.1-2z" fill="#f0e6e0"/><path d="m31.6 26.2c-.3.2-.4.7-.2.8.8.7 0 1.3-.2 1.8s-1 .4-1.5.3c.4-.4.9-.7 1.4-1 0-.1-.1-.1-.1-.2-.2-.3-.7.3-.8-.1s.5-.4.6-.6.1-.4.3-.4l.2-.2c0-.2-.1-.4-.2-.7.1-.1.2-.1.2-.2.2-.2.5-.2.7 0 .2 0 .6-.1.7.1.4.5.5 0 .8-.1.3.7.6.1.9 0s.3 0 .5.1c0 .1.1.1.1.2s.1.2.2.2.1.1.2.1c0 .2.3.4.1.5-.3.3-.5-.1-.8 0-.4.6-1.1.7-1.7.4-.1 0-.1-.1-.2-.2-.2-.2-.5-.2-.8-.4s-.4-.3-.4-.4z" fill="#f8f3f0"/><path d="m29.6 29.1c.3.5-.4 1-.3 1.1.2.7-.5.5-.7.9-.4-.2-.8-.2-1 .3-.3-.3-.6-.6-1-.8.2-.3.6-.5.6-.9.3-.3 1 .3 1.1-.2.2-1 .8-.6 1.3-.4z" fill="#f8f3f0"/><path d="m26.7 29.3c-.8.1-.8.9-1.3 1.3s-1 .5-1-.2c-.1-1-.5-.2-.8-.2-.3-.4-.2-.9.3-.9.8-.3 1.7-.4 2.6-.2.2-.1.2.1.2.2z" fill="#f8f3f0"/><path d="m31.8 25.6h-.7c.2-.3.5-.3.7 0z" fill="#f8f3f0"/><path d="m31.1 25.6-.2.2z" fill="#f8f3f0"/><path d="m23.7 30.2v.2c-.2-.1-.2-.2 0-.2z" fill="#f8f3f0"/><path d="m31.1 26.5-.2.2z" fill="#f8f3f0"/><path d="m51.3 52.7v.3c.2.6.6 0 .9.2.1.3.4.6.1.8-.5.2-.3 1.3-1.2 1-.2-.2-.3-.3-.5-.1-.9.6-.9.6-1.2-.5 0-.3-.1-.5-.2-.7-.4-.9-.4-.9-1.2-.4-.2.1-.3.2-.5 0-.1-.1-.1-.3.1-.4h.1c.6-.1.7-.7.8-1.1s.4-.6.8-.7c.2.5-.3.5-.3.8.5.1.9 0 1.3-.2.4-.3 1-.3 1.4.1.5.5.3.7-.3.8-.2 0-.2 0-.1.1-.1 0-.1 0 0 0z" fill="#faf8f6"/><path d="m49.3 54.3c.5.1 1 .1 1.4 0 .1-.1.2-.1.4 0s0 .5 0 .7c.1.5-.1 1-.4 1.3-.5.3-.7 1-1.3 1.1v.2c-.2.3-.4.2-.5 0-.4-.5-.9-.9-1.5-1.1-.1-.1-.1-.2-.2-.2-.1-.3.4-.8-.2-.9-.1 0-.3-.1-.3-.2-.1-.1-.2-.2-.2-.4 0-.1 0-.2.1-.2.5-.1 1.1 0 1.6.1.4.2.5-.3.8-.3 0 0 .2 0 .3-.1z" fill="#fcfaf9"/><path d="m52.1 53.2-.3.2c-.2.1-.3.5-.6.3s0-.5.1-.8c.5.1 1-.2 1.1-.7v-.1c.5 0 .9-.4.9-.9.1.1.1.2.2.2.7 0 .5.4.2.7-.6.2-.8 1-1.6 1.1z" fill="#f9f5f3"/><path d="m49.3 57.3c.4-.4.6-1.1 1.3-1.1 0 .2-.2.3 0 .5s.4.3.2.6-.3.5-.7.3c-.3-.1-.5-.2-.8-.3z" fill="#fbf8f7"/><path d="m20.4 34.1c0 .3 0 .6-.2.9-.3.4 0 .6.2.8-.2.2-.2.5-.5.5s-.1-.5-.4-.7v-.9c-.3-.4.1-.6.2-.9h.3c0 .3.2.3.4.3z" fill="#f1e9e3"/><path d="m46.9 64.3c.3 0 .6.1.6.4s-.4.3-.6.3c-.8-.2.2-.4 0-.7z" fill="#f9f5f3"/><path d="m27.2 71.3c-.4.5-.8 1-1.1 1.5l-.2.2c-.8-.4-1-.7-.7-1.2.3-.7 1-1 1.7-.7.1.1.2.2.3.2z" fill="#efe5de"/><path d="m8.5 34.2c0 .2-.1.3-.3.3s-.5-.2-.5-.5c0-.1 0-.3.2-.3s.6.2.6.5z" fill="#f7f2ef"/><path d="m38.1 23.4 1 .3c-.2.5-.8.8-.4 1.4-.5-.1-.9 0-1.3.3s-.7-.6-1.1 0c-.4.1-.8.1-1.1-.1-.1-.1-.1-.2 0-.3l.2-.2c.3.4.6.1.9 0 .5-.5 1.3-.3 1.8-.9z" fill="#f8f4f2"/><path d="m38.1 23.8c.1.3-.1.6-.5.7-.4.1-.8.2-1.3.2-.1-.3-.3-.5.2-.7.6-.1 1.1-.2 1.6-.2z" fill="#faf7f5"/><path d="m37.7 22.9c-.1.2-.2.4-.3.4s-.2-.1-.2-.3.2-.2.4-.2.1 0 .1.1z" fill="#fbf9f7"/><path d="m46.7 54.9.2.2c.4.3.2.8.4 1.1v.2.7l-2.9-.2c-.4 0-.7-.2-.6-.6.1-.2 0-.3-.2-.4 0 0 0 0-.1 0-.2-.1-.4.1-.5.3v.1c-.1.4-.3.5-.7.5l-.1-.1c-.2-.4-.5-.8-.9-1-.1 0-.1-.1-.2-.2-.7-1.6-2.2-1.6-3.7-1.8-.1-.1-.2-.3-.3-.5s-.5-.4-.5-.7c.4-.9.9-1.8 1.6-2.5.8-.3 1.5-.7 2.2-1.3.4 0 .5.3.7.5 1.4.6 2.6 1.6 3.3 2.9.5.8 1.1 1.6 1.7 2.3v.2c.4.2.5.2.6.3z" fill="#f1e9e3"/><path d="m42.5 56.7c.4.5 1 .8 1.2 1.4.3.1.4-.1.5-.3.2-.5.7-.7 1.2-.5.2.1.4.2.5.4.1.1 0 .4.2.2.5-.5.8.1 1.1.2.2 0 .4 0 .6.1-.4.3-.9.4-1.5.4-.2.1-.1.3 0 .4s.3.2.2.4c-.2.3-.7.3-1 .1-.5-.2-.9-.5-1.5-.3-.3 0-.5-.2-.6-.4-.3-.3-.7-.2-1-.2-.7 0-.9-.4-.5-.9.2-.4 0-.9.6-1z" fill="#f7f2ee"/><path d="m44 59.1c.2-.3.6-.4 1-.2l.3.3c.2.3.5.5.9.3.3 0 .1-.3.1-.4.2 0 .5 0 .6.2s0 .3.1.3c.7.2.7.2.8 1.1l-.7.3c-.4-.1-.7.3-1.1 0 0 0 0-.1-.1-.1 0-.4-.2-.7-.7-.6-.4 0-.9-.2-1.1-.5-.1-.1-.1-.2-.2-.2v-.1c.1-.2.1-.3.1-.4z" fill="#f6f0ed"/><path d="m46.2 59.1c-.1-.1-.3-.1-.2-.4 0 0 .2-.1.3-.1v.5z" fill="#f6f0ed"/><path d="m45.1 28.6c.2 0 .5-.1.7.2-.3 0-.5.1-.7-.2z" fill="#f8f4f2"/><path d="m50.2 44.8-.4.2c-.8-.2-.8-.5-.4-1.2.7-1 .7-1.3-.3-1.9-.1-.5.2-.7.7-.7h.2c.5.6.1 1.4.4 2v.2c.6.7-.1 1-.2 1.4z" fill="#f9f5f3"/><path d="m42.9 74.4c-.2 0-.5-.1-.3-.4s-.1-.7-.3-1-.3-.4-.5 0c-.2.3-.6.3-.9.1-.1-.1-.2-.2-.2-.3-.2-.5.3-.6.7-.7.2 0 .3-.2.4-.3s.4-.4.5 0c0 .1.1.3.2.2 1.2-.2.8.5.5 1.1.5 0 .5-.5.8-.6.2.5.5 1-.1 1.4-.1.2-.3.2-.4.2s-.3.2-.4.3z" fill="#fbf9f8"/><path d="m42.9 74.4.2-.2z" fill="#faf8f6"/><path d="m50.4 43.3c-.4-.6-.6-1.3-.4-2 .3-.1.7 0 .9.3.2.2.2.5 0 .5-.7.3-.4.8-.5 1.2z" fill="#f8f4f1"/><path d="m35.3 24.9v.2c.2.7 0 .9-.7.7l-.4-.2c.2-.5.6-.7 1.1-.7z" fill="#f6f0ed"/><path d="m10.8 3.7h.2c.1.2.3.3.4.4s.1.3 0 .4c-.7.1-.7-.3-.6-.8z" fill="#406b75"/><path d="m11.6 3h.2c.1.1.1.3.2.4-.5.3-.3-.1-.4-.4z" fill="#577d85"/><path d="m11.4 4.1c-.2 0-.4-.1-.4-.3v-.1h.2c.2.1.2.2.2.4z" fill="#4b737d"/><path d="m11.4 4.6v-.5c.3.2.3.3 0 .5z" fill="#2f5e69"/><path d="m10.8 9.8v.2c-.1.1-.2.2-.3.2s-.1-.2-.1-.3 0-.4 0-.6c.1-.1.2-.1.3-.1 0 .3.2.4.1.6z" fill="#3a6670"/><path d="m10.5 9.4h-.2v-.2c0-.1 0-.1 0-.2s.1-.1.2-.1c.1.1.1.2.1.2 0 .1 0 .2-.1.3z" fill="#35636d"/><path d="m11.2 10.3v.2c-.1 0-.2 0-.2-.1-.1-.2.1-.1.2-.1z" fill="#47707a"/><path d="m10.5 8.9c-.1 0-.1 0-.2 0-.3-.3 0-.6 0-.9.3 0 .4.2.4.4l.3.3c-.1.4.2.8-.2 1.1l-.2-.4v-.2c0-.1 0-.1-.1-.3.1.1.1 0 0 0z" fill="#567c85"/><path d="m10.3 7.8c0-.1 0-.1 0-.2.1.1.2.1 0 .2z" fill="#2e5e68"/><path d="m11.9 2.6c-.3 0-.6-.1-.2-.4 0 .1.1.2.2.4z" fill="#3b6771"/><path d="m11.2 15.5c.1-.2-.1-.4.1-.5l.1.3c.1.1.1.1.1.1s-.1.1-.1.1z" fill="#4a727c"/><path d="m11.4 15.5v-.2h.2v.2z" fill="#5a8087"/><path d="m10.8 13.8v-.2l.2.2z" fill="#547a82"/><path d="m11.6 17.5.1.1h-.1c.1 0 .1-.1 0-.1z" fill="#4a737c"/><path d="m11 12.9h-.2c-.1-.1-.1-.3 0-.4h.2z" fill="#2d5c67"/><path d="m10.5 12.4h-.4c.1-.2.3-.2.4 0z" fill="#426d76"/><path d="m10.8 12.4v.4c-.2-.1-.2-.3-.2-.4z" fill="#426d76"/><path d="m10.5 13.8h-.2c.1-.2.2-.1.2 0z" fill="#2d5c67"/><path d="m12.3 18.4.1.1h-.1c0-.1 0-.1 0-.1z" fill="#315f6a"/><path d="m13.2 68.7c.2-.1.4-.2.6-.3.2-.3.2-.9.5-.8.5 0 1 .3 1.3.8 0 .2-.1.4-.3.6-.7.7.2.9.4 1.2.1.2.4 0 .5-.2.2-.4.1-.9-.2-1.3.6-.5 0-1.1.1-1.7 0 0-.2-.2-.2-.2-.6.4-1.1-.4-1.8-.2s-.8-.6-1.1-.9c-.3-.6.1-.8.6-1 .6.1 1.3.1 1.9 0-.1-.3-.6-.3-.6-.7.3-.9 1.2-.7 1.8-1.2.3-.1.8-.4 1 0 .3.6-.4.8-.7 1.2.2.4.5.3.8.3s.6-.2.8.1-.2.5-.4.8c0 .1-.1.1 0 .3.5-.6.7-1.6 1.6-1.7.2 0 .1-.2.1-.4-.3-1 .4-.9 1-.9s1 0 1.3.6c0 .4-.1.8-.3 1.1 0 .1-.1.2-.1.3-.4.3-.2.8-.3 1.2s-1 .2-.7 1c-.4-.2-.5-.5-1-.5.3.7.8 1.5.1 1.9-.9.6-1.7-.1-2.4-.7-.2.4.3.7-.1 1s.1.5.4.6c.6.2.9.4.3.9-.2.2.2.4.2.6-.8.1-.8.1-1.2 1.3-.2.6-.2 1.1-1 .5-.2-.1-.5-.1-.7 0-.3.2-.7.1-.9-.1-.5-.2-.9-.2-.8-.7s.5.1.7-.1.4 0 .5 0c.3-.1.5-.2.2-.5s-.4-.4-.6-.6c-.6-.3-1.1-.9-1.3-1.6z" fill="#f9f6f3"/><path d="m21.5 64.1.4-.9c.1-.1.2-.1.3-.2.4 0 .7.1 1.1.1s.6.3.5.5c-.7.8.2 1.1.4 1.6.1.2.2.4.2.6.2 1 1 1 1.8 1 .4 0 .8 0 1.2.1s.8.3.5.8.2.4.4.6.6.2.6.6c0 .2-.1.4-.2.6-.1.3-.3.6-.6.9 0 0-.1-.1-.1-.2.3-1.4-.8-1.4-1.6-1.7-.4-.2-1 .5-1.2-.4-.1 0-.2.1-.3.1-.1.1-.2.2-.1.5s.6.6.2.9-1 .2-1.3-.2c-.3-.3-.7-.5-.3-1 .1-.1.1-.3-.1-.4-.1 0-.1-.1-.2 0-.2 0-.7-.1-.6.4 0 .3.1.7.1 1-.8.2-.6-.5-.8-.9-.2-.6.5-1.3-.1-1.9-.5 0-.4-.3-.4-.7-.2-.5-.4-1 .2-1.3.3.2.4.4.4.8.1-.6-.1-1-.4-1.3z" fill="#f3ebe6"/><path d="m21.9 68.1c.4.3-.1 1 .7 1.1v1.1l-.2.2c-.6-.2-1.1-.6-1.4-1.1-.6.2.1.8-.5.9-.8-.6-.8-.8-.1-1.6.5-.6.6-1.3 1.2-1.9.3.3.3.8.3 1.3z" fill="#f9f6f3"/><path d="m11.6 68.9c0-.7-1-.4-1-1.2l1.9-.3c.1.3.2.6.2.9v.4c-.4 0-.8-.3-1.1.2z" fill="#f9f6f3"/><path d="m10.3 69.4c-.9-.2-1-.4-1-1.7.4.9 1.3 1.5 2.3 1.3v.2c-.4 0-.9-.2-1.3.2z" fill="#f9f6f3"/><path d="m21.9 68.1c-.3-.4-.3-.9-.4-1.3l.2-.4c.5-.2.8.1.6.4s-.1.9-.4 1.3z" fill="#f2e9e3"/><path d="m11.7 69.2c.4.4.6 1.1.4 1.6-.4-.6-1-.9-.4-1.6z" fill="#f9f6f3"/><path d="m27.2 69.2c.1 0 .3.1.3.2s-.1.1-.2.2-.1-.1-.2-.2 0-.2.1-.2z" fill="#f3ebe6"/><path d="m27.1 69.7s-.1.1-.2.1c0 0 0-.1-.1-.1h.3c.1-.1.1-.1 0 0z" fill="#f3ebe6"/><path d="m12.5 65.7c0 .5-.6.8-.3 1.4 0 .1-.3.2-.5.1-.1 0-.2-.1-.2-.2-.3-.9-.3-.9-1-1.3-.3-.5.1-.8.4-1.1.1 0 .3 0 .1-.2 0-.2.1-.3.3-.4.5-.2 1-.4 1.1-.9-.4-.3-.9-.6-1.2.1-.3.5-.5 1.2-1.2.8s-.5-1.2-.1-1.8c0-.1 0-.1 0-.2-.4-.2-1 .1-1.3-.5v-.2c.2-.3.2-.6 0-.9-.1-.3-.4-.7 0-.9s.6.1.9.3.1.2.3.3c-.4-.5-.8-1-.3-1.7v-.2c.4-.6 1.2-.9 1.3-1.8.1-.5.9-.1 1.3.2.6.4 1.3.5 2 .3.3 0 .6 0 .9.1.2 0 .4.1.6.1h.3c.2 0 .4 0 .6.1.1 0 .2.1.2.2s0 .2-.1.3c-.6.2-1.3.2-1.4 1.2-.1.5-1 .4-1.4.7-.5.7-1.3 1.4-.3 2.3 0 .1.1.2.1.3v.5c.2.6.1 1.3-.5 1.7l-.2.2-.1.1-.3.2c-.1 0-.1.1-.1.2v.2s.1.1.1.1c.1.1.1.3.2.4z" fill="#f9f6f4"/><path d="m14 57.1c-.3 0-.5 0-.7.2-.1.2-.4.2-.6.1 0 0-.1-.1-.1-.1-.5-.6-1.2-.6-1.8-.9-.2.3 0 .5 0 .7-.1.4.1 1.1-.8.9-.2 0-.3.4-.6.3-.5-.8-.8-1.6-1.1-2.4-.1-.6.3-1.1.5-1.6s.6-.3 1-.1c.4.1.8.4 1 .8.3.3.7.5 1.1.5.6.2 1 .7 1.6.9.3 0 .7.3.5.7z" fill="#f9f5f2"/><path d="m11.4 64.1c-.2.1-.2.3-.2.4-.2.3-.6.6-.6 1.1-.3.1-.8.9-.9-.2 0-.2-.2-.2-.4 0s-.3.3-.6 0c.2-.4.9-.6.3-1.2-.2 0 0-.1.1-.2.2-.3.2-.3-.3-.5 0-.3 0-.6-.2-.9-.2-.1-.8.2-.4-.5.1-.2.2-.4.4-.7.5.2 1 .2 1.4.1.1-.1.3-.1.4.1.1.2 0 .4-.1.5-.5.2-.7.8-.6 1.3.1.2.1.4.4.5.2 0 .4-.1.5-.3s.2-.5.3-.7c.1-.6.3-.8.9-.4.4.2.9.2 1.2 0 0 .5-.3.5-.6.6-.1.4-.5.8-1 1z" fill="#f8f5f2"/><path d="m9.4 58.4c-.1.5.1.9.4 1.3.2.2.6.8-.2 1.1.1-.6-.3-1.1-.9-1.2-.3.4 0 .7.1.9s.1.6-.3.8c0-.3 0-.5-.1-.8-.2-1.2-.1-1.4 1-2.1z" fill="#f9f5f2"/><path d="m8.4 63.9c0 .1.1.3-.1.3 0 0 0-.2-.1-.3z" fill="#f8f5f2"/><path d="m8.1 63.7h-.2c.1-.2.2-.2.2 0z" fill="#f8f5f2"/><path d="m6.6 68.5c0-.2.1-.5-.2-.7-.1-.3-.3-.5-.6-.6-.2-.1-.5-.2-.4-.5s.4-.4.7-.4c.1 0 .3 0 .5-.1 0-.4-.3-.9.1-1.2l.2-.2c.1-.1.3-.1.4 0 .3.6-.4 1-.2 1.5-.1.1-.2.1-.2.2-.1.3-.7.5-.2.9.3.3.8.3 1.2 0l.1-.1c.4-.2.7-.8 1.2-.4s-.5.9-.2 1.3c.1.1-.1.3-.2.3-.8-.7-1.5.3-2.2 0z" fill="#fbf9f7"/><path d="m7.2 64.8h-.4c0-.2 0-.4.3-.3s.1.1.1.3z" fill="#faf7f4"/><path d="m34.8 39.6c.5-.2 1-.3 1.5-.2.1.3.2.6.6.3s.8-.1 1.1.3.5.6.7.9c.4.7 1.1 1.3 1.9 1.6.4 0 .6.4.6.7v.1c-.3.3-.6.1-.9 0s-.6-.2-.9.2c-.6.2-.5 1.2-1.3 1.2-.4-.9-.8-1.8-1-2.8-.4 1-.4 1.2.5 1.9.3.2.4.5.2.8-.2.2-.3.5-.7.4-.4-.2-.8-.2-1.2 0s-.8 0-1-.3c-.1-.1-.1-.3-.1-.5 0-.5-.3-.7-.7-.8.9.1.3 1.1.8 1.5.3.4.7.8 1 1.2.1.2.2.4.1.6 0 .3 0 .6-.4.7-.3 0-.7-.1-.8-.4-.2-.4-.3-.7-.5-1.1-.2-.3-.4-.2-.7-.2-1.5.2-1.8 0-2.2-1.5.2-.4.1-.9-.2-1.3-.3-.3-.4-.6-.5-.9 0-.1 0-.2.1-.3.5-.7 1.4-1.2 2.3-1.2.2.2.5.2.7 0 .2.2.1.4-.1.5-.9.3-.1.5 0 .7.2.7.4.2.8.1.8-.3.8-.6.3-1.1-.1-.1-.2-.3-.1-.5 0-.5.1-.5.1-.6z" fill="#f4ede8"/><path d="m41.2 43.3c-.1-.2-.2-.6-.5-.6-1.2-.1-1.6-1.1-2.3-1.9-.1-.1-.1-.3-.2-.4-.8-.7-.7-.7-1.9 0-.3-.4-.1-.7.1-1 .4-.4.9-.1 1.3-.2s.9.2 1.3-.2c.1-.1.2-.1.2 0 .2 0 0 .6.5.4s.7.1 1 .5c.3.3.3.9-.1 1.2-.1 0-.1.1-.2.1-.2.1-.3.3-.2.5v.1c.2.2.3 0 .5 0 .3-.1.7-.3.9-.6s.7-.4 1-.1c.1.5-.8.1-.5.5.2.4.5.8.9 1.2.2.2.5.2.8.4.7.4.8.9.4 1.5s.1 1.3-.5 1.8c.3.2.7 0 .9.2.1 0 .1.1.1.2s0 .1-.1.1c-.7.7-1.4 1.4-2.2 2-.9.1-1-.7-1.1-1.2 0-.9 1.1-.5 1.3-1.1-.4.1-.8.1-1.2 0s-.8-.2-.8-.7c.2-.5.5-.9 1-1.2.3-.4-.1-1 .6-1.4-.6 0-.7.6-1.1.5z" fill="#f2eae5"/><path d="m27.4 33.2c.2-.1.5-.3.5 0 .1.6.5.6.8.8.2-.4-.1-.6 0-.9s.4-.5.6-.7.4 0 .4.2c.4.9 1 .5 1.5.2.1-.1.3-.3.5-.2.5 1.3.5 1.3 2 .7.3.5.3.8-.2 1.2-.1.1-.3.2-.2.3s.1.5-.1.6-.4-.1-.6-.3-.5-.1-.5.2v.6c.2.6-.2.8-.7 1s-1.1.2-.8 1l-.1.1c-.4.1-.8.2-1.2.4-.1 0-.2 0-.3-.1-.1-.2-.1-.3-.1-.5 0-.1 0-.2 0-.2 0-.1.1-.1.1-.2l-.1-.2c.2 0 .1-.1.1-.2s0-.3.1-.4.2-.2.4-.2c.3 0 .6.2.8-.1.1-.2.1-.4 0-.5-.3-.3-.6.1-.9 0-.2-.1-.3-.2-.4-.3l-.2-.2c-.1-.1-.1-.1-.2-.2s-.1-.2-.2-.3-.1-.2-.2-.3l-.2-.2c-.1-.1-.2-.2-.3-.2s-.1-.1-.2-.1c-.1-.1-.2-.2-.2-.3-.1-.2 0-.4.1-.5z" fill="#faf7f5"/><path d="m20.8 35.9c-.4-.5 0-.7.4-.8.8-.1 1.4-.9 1.3-1.7v-.1c-.1-.5.1-.7.6-.8 1.1-.2 1.2-.4.9-1.5.1.1.3.1.4.2l.2.2 1.3.9c.1.5 1 1.1-.2 1.3-.2-.3-.6-.4-.9-.3.3-.1.7.1.9.3.5.4.9 1 1.1 1.7s0 1-.8.9c-.1-.1-.2-.2-.3-.3-.1-.3-.1-.5-.5-.5-.4-.2-1-.2-1.4 0-.5 0-.9.2-1.3.5-.1.1-.3.1-.4.1-.5-.2-.9-.2-1.3-.1z" fill="#f1e8e2"/><path d="m25.9 35.9c.3 0 .8.2.7-.4s-.4-.9-.5-1.4c0-.3-.4.2-.6.1.1-.2.1-.5.2-.7.3-.2.6-.4.2-.7-.2-.2-.1-.4 0-.6h.2c.4.1.8.4.9.8.1.2.2.2.4.2v.4l.2.2h.2l.2.2.2.2.2.2c.1.2.1.3.2.4s.1.2.1.3c-.5 1-1.6 1.5-2.6 1.2-.1.1-.4-.1-.2-.4z" fill="#f2e9e4"/><path d="m33.3 40h-.2c-.8-.1-1.2-.5-.7-1.3.2-.2.2-.4.2-.7s-.3-.5 0-.8c.3-.2.4-.5.3-.8-.1-.5.3-.3.5-.4 1.1.3 1.2 1.4 1.8 2.1.2.2-.1.5-.5.3-.2-.1-.5-.3-.4.2 0 .3 0 .7-.4.6s-.2.4-.4.5c-.1.2-.1.2-.2.3z" fill="#fbf9f7"/><path d="m32.7 38.1c.2.1.6.3.3.5-.9.6-.5 1 .1 1.4v.2c-.8.4-1.5.8-2.2 1.3-.6 0-.4-.6-.6-.9-.1-.1-.1-.3-.1-.5 0-.1 0-.2.1-.3.9-.4.4-1.2.6-1.8.6 0 1.2.3 1.8.1z" fill="#faf7f4"/><path d="m31.8 26.5c.2 0 .6-.1.7.1.6.8 1.3.3 1.9.1 0 .3 0 .5-.1.7-.2.4 0 .7.5.5s.5 0 .6.4.4.5.2.9c-.2.2-.5.3-.8.1-.7-.3-1.3-.7-1.9-1.1-.2-.1-.4-.4-.4-.5 0-.7-.6-.8-.7-1.2z" fill="#f8f3f0"/><path d="m33.1 29.1c-.1.7 0 1.4.3 2 .5-.6 0-1.3.2-1.9.4.1.6.4.6.8 0 .9.3 1.8-.8 2.3-.4.2-.4.7-.6 1.2-.6-.4-.4-1-.7-1.5-.2-.3.7.1.5-.6-.2-.5.1-1.1.1-1.7 0-.3.2-.5.4-.6z" fill="#f8f3f0"/><path d="m37.7 34.3c-.5-.1-.3.5-.7.6-.7-.8-1.4-1.6-2.1-2.5-.2-.3-.2-.4.1-.7.6-.5 1.2-.1 1.8-.1-.4.5-.3 1.2.2 1.6.1.1.2.1.3.2.3.1.4.4.4.7z" fill="#faf8f6"/><path d="m34.8 39.6c.2.4 0 .9.7 1 .2 0 .3.3.2.5s-.3.5-.5.5c-.4-.1-.8-.2-.6.5 0 .1 0 .2-.1.2s-.1 0-.2 0c-.2-.1-.5.1-.5-.2s-.2-.4-.2-.6c.2-.3-.3-.6 0-.9.2-.1.2-.3.2-.4.2-.4.6-.6 1-.6z" fill="#f3ebe6"/><path d="m34.8 38.5c.2 0 .4 0 .4-.3v-.1c-.4-.3-1.1-.8-1.1-.9.3-.7-.4-.8-.6-1.1.2-.4.4-1 .9-.2.2.3.5.6.9.7.6.1 1 .7.9 1.3 0 .2-.1.4-.2.5-.2.4-.6.5-1 .3 0 0-.1-.1-.2-.2z" fill="#faf7f5"/><path d="m38.1 33.2h.2c-.1.4.1.7.5.9s.6.7.4 1.1c0 .1-.1.1-.1.2-.2.3.1.5 0 .8 0 .2-.1.4-.4.5-.2 0-.3-.2-.3-.4.1-.5-.2-.9-.6-1.2-.2-.2-.3-.5-.3-.8.4-.3 0-.9.6-1.1z" fill="#f7f2ef"/><path d="m39.2 38.9h-.2c-1-.6-.9-1.9-2.1-2.6 1.4.2 1.7.5 1.7 1.5 0 .2.2.3.3.4s.3 0 .2.2z" fill="#faf7f5"/><path d="m34.6 25.8c.5.1.7-.2.7-.7.4 0 .8 0 1.1.2.2.9.1 1-.7.7-.3-.1-.4.1-.6.1h-.2c-.1-.1-.2-.1-.2-.2z" fill="#f8f3f0"/><path d="m27 33c-.1-.4-.9-.3-.9-.9.2-.4.6-.6 1-.3s.2.8-.1 1.2z" fill="#fbf8f6"/><path d="m38.6 26.5h.2c.1.1.1.3.2.4 0 .2.1.5-.2.6s-.6-.2-.8-.4.2-.3.4-.5c.1 0 .1-.1.2-.1z" fill="#f7f2ef"/><path d="m39.2 38.5-.2-.2c.1-.9.2-1 .9-.7.1.1.1.3.2.4-.2.4-.6.3-.9.5z" fill="#f7f2ef"/><path d="m36.5 35.9c-.1.3-.3.5-.5.5s-.4-.2-.4-.4c0 0 0 0 0-.1 0-.2.1-.6.5-.6.3.1.4.3.4.6z" fill="#faf7f5"/><path d="m35.7 34.5v.4c-.1.3-.4.5-.8.5-.2 0-.2-.1-.3-.3 0-.5.4-.4.7-.5.1 0 .2-.2.4-.1z" fill="#faf7f5"/><path d="m34.4 38.7c-.3-.2-.2-.4 0-.5s.3.1.5.3c-.2 0-.4 0-.5.2z" fill="#faf7f5"/><path d="m31.6 26.2.2.2z" fill="#f8f3f0"/><path d="m24.5 31.3-.2-.2z" fill="#f8f3f0"/><path d="m23.9 30.8c-.1 0-.2-.1-.2-.2z" fill="#f8f3f0"/><path d="m33.3 40 .2-.2z" fill="#faf7f4"/><path d="m38.1 33.2c-.3.3-.1.8-.4 1.1 0-.2 0-.5-.3-.5-.7-.3-1.2-.8-1.4-1.5.2-.2.7-.2.8-.6.6.4.8 1.1 1.3 1.5z" fill="#f9f6f3"/><path d="m42.3 31.3c0 .2 0 .5-.3.5s-.2-.2-.2-.3.3-.2.5-.2z" fill="#f8f4f2"/><path d="m41 33.5h.2c0 .2 0 .4-.2.4z" fill="#f9f5f2"/><path d="m41 45.5c.2.7.8.6 1.2.5s.8.1 1.3.1c-.5.6-1.2 1-2 1.1.4.4.2 1.2 1 1.4-.1.6-.8.3-1.1.7-.3.1-.4-.3-.7-.4-.4.2-.8-.1-1.2-.3-1.6-.9-2.7.2-3.9.9-.3.1-.7.3-1 .4-.6.4-1.4.3-1.8-.2-.1-.1-.1-.2-.1-.3.1-.6.5-.6 1-.5s.9.2 1.1-.4c-1.1-.4-1.7.6-2.5.8v.1s0 0 .1.1.2.3 0 .5c-.6.1-1.2.6-1.8.1-.1-.2-.2-.4-.2-.6.1-1 .3-1.9.7-2.8 1.1-.1 2.1.1 3.1.7.1 0 .2.1.2.1s-.1-.1-.2-.2c-.2-.3-.4-.6-.4-1-.1-.5.1-.8.7-.5.1.2.5.3.4.7-.1.6.4.7.8 1 0-.4.3-.8.1-1.2 0 0 0-.1 0-.2l.2-.2c.2 0 .3 0 .4.1 1 .8 1.7.1 2.4-.4.3-.2.7-.3 1-.5.7-.5.7.3 1.2.4z" fill="#f4ede9"/><path d="m44.9 46.2c.4-.7 1.2-1.2 1.2-2.3 0-.3.3-.5.6-.6.3.4.1.7-.2 1s-.5.5.2.6c.3 0 .3.2.1.4-.3.4-.5.8-.7 1.3-.1.2-.4.4-.7.4-.4-.1 0-.4-.1-.6s-.2-.2-.4-.2z" fill="#f8f4f1"/><path d="m51.3 52.7c-.2 0-.4 0-.3-.2s.2-.1.3 0z" fill="#f9f5f3"/><path d="m44.7 46.6v-.2l.2-.2c0 .1 0 .3-.2.4z" fill="#f8f4f1"/><path d="m49.3 54.3c-.1.2-.3.2-.4 0z" fill="#faf8f6"/><path d="m52 44.2c.1 0 .2 0 .2.1 0 0-.1.1-.2.1s-.1 0-.2-.1z" fill="#f9f5f3"/><path d="m30.2 40c.1.2.1.3.2.4 0 .5 0 1-.8 1-.6 0-1 .8-1.7.8.5.4 1.1.6 1.7.5.1.3.1.6-.1.9-.3 1-1 1.8-.9 2.9-.1.2-.3.3-.5.3-.3-.3-.5-.6-1-.2-.4.3-.9.5-1.4.7-.4.3-1 .3-1.4-.1.1-.8-.3-1.5-.2-2.2.6.1 1.2.4 1.6.9-.1-.6 0-1.2-.9-1-.3.1-.6-.2-.9-.3-.3-.2-.1-.8-.5-.9-.4-.2-.7-.5-1-.8 0-.1 0-.3 0-.4s0-.1 0-.2-.1-.1-.1-.2h-.3c-.1 0-.1-.1-.2-.1l-.1-.2c-.2-.4-.3-.9-.6-1.2s-.2-.8-.1-1.3.6-.9-.1-1.2c-.2-.2-.4-.4-.4-.7-1-.2-.9-1-.9-1.8.3.1.1.5.4.7.3-.2.7-.3 1-.1.7.4 1.2.4 1.8-.3.2-.3.5-.1.6.3.1.2.1.4 0 .6-.2.5-.4.9.3 1.2.2.1.3.4.2.6 0 .1-.1.2-.2.2-.4.1-.7.2-1.1.2.6 0 .6.4 1 .5.1-.2-.2-.4 0-.6s.4 0 .4-.4c0-1.2.2-1.2 1.2-.5.2.2.2.5.2.7-.1.4.3.2.4.3.3.1.7.1.8-.4s.1-.8.7-.8c.5.4.3 1 .4 1.5 0 .2 0 .3-.1.5-.2.2-.6.2-.8.6-.5 1-1.4.9-2.2.6-.4-.1-.7-.4-1.1.1-.2.2-.5.4-.3.7s.4-.2.6-.1c.7.2 1.2-.6 1.9-.4.5.6.7 1.4.5 2.2-.1.2-.3.3-.2.5 0-.2 0-.4.2-.5.2-.2.6-.2.9 0 0 0 0 .1.1.1.1.2-.3.5.2.4.2-.1.3-.3.3-.5 0-.1-.1-.2-.1-.2-.4-.5-.7-1.1-.7-1.8.2-.7.1-1.5 1-1.8.6.6 1.5.7 2.2.2-.1 0 0 0 .1.1z" fill="#f3ece7"/><path d="m24.3 47.3c1.3.3 2.2-.7 3.2-1.2.2-.1.3-.2.4-.3 0 .4-.2.8.1 1.1.1.1.1.2.2.3v.3c-.1.1-.2.2-.3.3-.3.1-.6.1-1-.4.1.6.5.5.6.8.2.5-.3 1.1.5 1.4.5.2.5.6.4 1 0 .1-.1.2-.1.3-.3.4-.4.9-.8 1.3-.4 0-.7-.3-.7-.5.2-1.2-1-1.3-1.5-2-.1-.2-.1-.2-.1 0v.2c0 .1-.1.2-.2.2-.8 0-1.1-.4-1-1.2.5-.5 0-1.2.3-1.6z" fill="#f4ede8"/><path d="m23.9 48.8c.2.5.4 1.1 1.1 1.1 1.3.1 1.6.6.9 1.8-.2.1-.4.2-.6.1s-.4-.3-.6-.5-.2-.6-.6-.7c-1.2.1-1.4.5-.8 1.4.1.2.3.4.2.7-1.3.2-2.4-.7-2.6-1.9-.1-.5 0-.9.2-1.4 0-.2 0-.3.2-.4.8-.2 1.7-.3 2.6-.2z" fill="#f1e9e4"/><path d="m17.5 45.5c.3-.1.3-.6.7-.6.1.1.1.2.1.3 0 1.1 0 1.1 1.1.8-.1.8.4 1.8-.5 2.2-.6.4-1.5.3-2-.3 0-.2 0-.3 0-.5.1-.1.4-.1.5-.3-.2 0-.4.2-.5.3-.9-.3-1.5-1-1.1-1.6.5-.9-.2-.8-.6-1-.2-.3 0-.6 0-.9.2-.3.4-.7.7-.1.2.3.5.6.8.7.2.5.2 1 .8 1z" fill="#f8f3f1"/><path d="m12.3 49c0-.7-.1-1.3.9-1.4.6-.1.4-.5 0-.8-.4 0-.5-.4-.8-.7.8.1 1.2-.1 1-.9.5 0 .9.2 1.2.6.3.3.6.6 1 .7-.5.1-1.2-.1-1 .8 0 .2.1.3.3.2.6-.5.8 0 1 .4s.5.5.7-.1c0-.1.2 0 .4 0 0 .3 0 .6.2.9-.4.3-.8.4-1.2.3h-.3c-.3 0-.6.1-.9.1-.4-.1-.9-.4-1.3.1-.1.1-.2.1-.3.1-.3 0-.7.1-1-.1 0-.1 0-.1.1-.2z" fill="#faf7f6"/><path d="m22.4 42.2.2.2c-.1.1-.1.2-.2.2.2.5.7.6 1.1.9.1.1.1.2.1.2 0 .2-.3.4-.1.6l.2.2.1.2v.1c-.3.6-.9.8-1.4 1.1s-1-.2-1.4-.5c-.3-.2-.5-.5-.7-.8-.1-.2-.1-.3.2-.3.4.2.8.4 1.1-.2.3-.4 0-.7-.1-1-.1-.5 0-.8.5-1 .1 0 .3.1.4.1z" fill="#faf7f5"/><path d="m15.6 48.8h.2c.4.3.9 0 1.3.2h.2c1 .2 1.9 0 2.9.2.4 0 .7-.3 1.1-.2v.4c-.7.8-1.9.9-2.8 1.4-.6.4-1.4.3-1.9-.4-.1-.1-.1-.2-.1-.3-.1-.3-.3-.5-.7-.3-.4 0-.7-.2-.7-.6 0-.2.3-.2.5-.4z" fill="#f2ebe5"/><path d="m9.7 38.9c-.5-.2-.8-.5-.6-1s-.4-.4-.4-.7c.6-.2 1.1 0 1.8.3-.1-.5-.5-.8-.4-1.2s.2-.6.5-.5.5.5.4.9c0 .3.1.6.3.9.5.5 0 .8-.3.8-.9-.2-.7.2-.5.7 0 .1-.1.2-.2.2-.3.1-.4-.2-.6-.4z" fill="#f7f2ef"/><path d="m16.2 38.9c.1-.3.1-.6.2-.9.6.3.5.9.8 1.3.1.2.2.3.4.4.6.3.6.4.2 1.2-.1-.1-.1-.2-.1-.4s0-.5-.4-.5c-.1 0-.3 0-.4.1-.2.3.1.4.2.6.1.4.5.8.2 1.2-.2.1-.2.1-.2 0-.1-.4-.3-.9-.7-.8-.5.1-.7.6-.6 1v.1c.1.2 0 .3-.1.3s-.4.1-.4-.2.2-.6-.1-.9c-.1-.2 0-.4.2-.4.5 0 .9-.4.9-.9 0-.1 0-.1 0-.2-.1-.2-.1-.6-.1-1z" fill="#faf7f5"/><path d="m22.1 42.2c-.3.3-.6.6-.2 1s.5.8-.2.9c-.3-.7-.9-.7-1.5-.6-.2-.5.4-.8 0-1.2s-.1-.4.1-.6.5-.2.7-.1.4.5.7.1h.2l.2.2s.1.1.1.2 0 .1-.1.1z" fill="#fbf9f7"/><path d="m9.9 46.2c-.1 0-.4.2-.4-.1-.1-.3 0-.5.2-.7.6-.7.8-1.7.5-2.5 0-.1 0-.2 0-.3 0-.2 0-.4.2-.5s.3.3.5.3c.1.3.2.6.3.8.4.4.4.8-.2 1-.2.1-.5.4-.3.6.3.9-.3 1.1-.8 1.4z" fill="#f7f2ef"/><path d="m14 38.3c-.1-.7-1.1-.6-1.3-1.3.3-.3.4 0 .5.1s.4-.1.5-.3 0-.4-.1-.4c-.1 0-.1 0-.2-.1-.3-.2-.9-.2-.6-.7s.5.2.8.2c.3-.3.6-.4 1 0 .2.5 1 .9.4 1.7-.4.1-.4.8-1 .8z" fill="#f8f4f1"/><path d="m19.7 33.9c-.1.3-.1.6-.2.9-.3.2-.5.4-.8.6-.2.2-.4.2-.4-.1.1-.8-.4-.1-.6-.3-.3-.1-.6-.3-.4-.7.5 0 .4-.3.4-.7s.1-.3.2-.4c.3 0 .6.2.8.5.3.6.7.4 1 .2z" fill="#f8f4f1"/><path d="m17.5 45.5c-.2 0-.4.5-.6.3-.4-.3-.3-.7-.2-1.2 0-.1 0-.3 0-.4 0-.3-.5-.4-.2-.7.3-.2.6-.2.9 0s.8.2 1 .7c-.3.4-1.5.3-.9 1.3z" fill="#fbf8f6"/><path d="m14 38.3c.4-.2.1-1.1.9-.9.3.1.5.2.7.5.1.1.1.3.2.4l-.6 1.6c-.6-.5-1.1-.8-1.2-1.6z" fill="#faf7f6"/><path d="m14.5 35.9c-.3-.2-.6 0-.9 0 0-.2-.1-.4-.2-.7.1-.1.1-.3 0-.4 0-.2 0-.3.2-.4 0-.1.1-.1.2 0l.2.2v.2c.1.1.1.3.2.4l.2.2h.4l.2-.2c.1-.1.1-.1.2-.1h.8c.2 0 .4.1.6.1s.4.1.6.1c.1.1.2.2.1.4v.4c0 .1-.1.1-.2 0-.5.1-1-.3-1.5-.2l-.1.1h-.1c-.2 0-.3 0-.5 0s-.3 0-.4-.1z" fill="#f8f4f1"/><path d="m23.9 44.6c.5-.2 1 .4 1.4-.1 0 0 .8.4.6.7-.2.5.5.9.1 1.1-.6.4-.5-.5-.9-.6s-.8-.3-1.1-.7l-.2-.2s-.1-.1-.1-.1c.1 0 .2 0 .2-.1z" fill="#f4eee9"/><path d="m20.6 44.4c-.2.2 0 .3.1.4.2.2.4.4.4.7.3 1.1.3 1.1-.7 1.5-.2-.3.1-.4.3-.6s.7-.7-.2-.7c-.7 0-.4-.6-.5-.9s.4-.5.7-.7z" fill="#f8f3f0"/><path d="m17.1 36.1h.2c.5.6 1.2.3 1.9.4.2.8-1.2.7-.9 1.6-.4-.4-.3-1.1-1.1-1-.2 0 0-.7-.1-1z" fill="#f8f4f1"/><path d="m13.4 45.3c-.4 0-.8-.5-1.2 0-.1.1-.3-.1-.4-.3s-.2-.3.1-.4.5-.1.4-.3c-.1-.9.7-.4 1-.6.3.3.3.8 0 1.1z" fill="#f8f4f1"/><path d="m15.4 35.2h-.2c0-.6-.5-.8-.9-1.1.8-.1 1.1-.7 1.2-1.5.4.3.5 1 .1 1.4-.2.3-.1.4.2.4.1.3-.1.7-.4.8z" fill="#f8f4f1"/><path d="m20.2 49.2c-.5.3-1.2.3-1.7.1-.9-.5-.4.3-.6.5-.4-.1-.4-.5-.5-.8.9-.3 1.9-.3 2.8.2z" fill="#f3ece7"/><path d="m12.1 39.6c-.2.2-.6.1-.5.5.1.6-.2.6-.7.7-.8.1-.1-.4-.3-.6.2-.1.4-.3.4-.5.3-.7.4-.7 1.1-.1z" fill="#f7f2ef"/><path d="m15.4 35.9h.2c.4.7 1.2 1.2.9 2.2-.2 0-.5-.1-.7.2l-.2-.2c-.3-.7-.4-1.5-.2-2.2z" fill="#f8f4f1"/><path d="m12.9 38.5c.3 0 .6.3.7.6.1.4-.2.6-.6.6s-.7 0-.7-.4.3-.5.6-.8z" fill="#fbf9f7"/><path d="m13.4 44.8v-1.1c0-.3.1-.6.5-.6s.2.4.2.7c-.1.5.1 1.1-.7 1z" fill="#faf7f6"/><path d="m11 36.8c-.3-.9-.3-1-.9-.4-.2 0-.4 0-.4-.2.5-.8.5-.8 1.5-.4-.1.2.2.7-.2 1z" fill="#f8f4f2"/><path d="m17.3 35.7-.2-.2c-.4-.3-.7-.8-.7-1.3.5-.6.6.2.9.2l.4.7c-.1.1-.1.4-.4.6z" fill="#f8f4f1"/><path d="m20.4 37.4c.3.1.5.4.4.7-.5.1-.3.7-.7 1.1-.3-.6-.2-1.3.3-1.8z" fill="#f7f3ef"/><path d="m15.1 44c.4.3.1.6 0 .9-.2-.1-.7.2-.7-.2-.1-.3.1-.6.4-.7z" fill="#f6f1ed"/><path d="m15.4 41.1c-.1.1-.1.3-.2.4l-.4.2c.1-.3.1-.7.2-1s.2-.6.6-.4-.1.4-.1.6c-.1.1-.1.2-.1.2z" fill="#f8f3f0"/><path d="m13.6 42.5c.2-.3.4-.5.8-.6.1 0 .3-.2.4 0s.2.2.1.4c-.1.1-.2.2-.4.1-.3-.1-.5 0-.9.1z" fill="#f8f3f0"/><path d="m16.2 38.9c.2.3.2.8 0 1.1-.8-.3-.1-.7 0-1.1z" fill="#f7f2ef"/><path d="m17.1 49c-.4-.1-.9.2-1.3-.2h1.3z" fill="#f3ece7"/><path d="m14.3 35.2c-.2-.1-.3-.2-.3-.4.2.1.3.2.3.4z" fill="#f8f4f1"/><path d="m13.4 34.8c.2.1.2.3 0 .4z" fill="#f8f4f1"/><path d="m13.8 40.5.2-.2z" fill="#f8f4f1"/><path d="m15.1 35.2-.2.2z" fill="#f8f4f1"/><path d="m14.5 35.4-.2-.2z" fill="#f8f4f1"/><path d="m14 34.6-.2-.2z" fill="#f8f4f1"/><path d="m13.8 34.3h-.2c.1-.1.1-.1.2 0z" fill="#f8f4f1"/><path d="m7.5 39.4c1.1-.2 1.2.8 1.7 1.3-.3.3-.6-.1-.9 0 0-.6-.2-.9-.8-.8-.2 0-.4.1-.5-.2s.4-.1.5-.3z" fill="#f7f2ef"/><path d="m15.8 49.9v-.6c.4.2.9.3 1 .7 0 .8.5.7.9.7s1.1.2 1.3-.5c0-.1 0-.3.1-.3.9.5 1.4-.5 2.2-.5.2.1.3.4.2.4-1 .2-.3.9-.2 1.2.3 1 1.2 1.7 2.3 1.7.1-.1.3-.1.4-.1.7.2.9.9 1.1 1.5.1.3.1.6-.1.8-.1.1-.2.2-.3.3-.1 0-.1.1-.2.1s-.2 0-.3.1-.2.1-.2.2c-.1.1-.2.3-.3.3s-.2 0-.2-.1c-.1-.1-.3-.2-.5-.3-.2-.2-.3-.4-.2-.7 0-.3.2-.5.4-.6s.2.1.4.1c0-.1 0-.2-.1-.2-.2-.2-.2.2-.4.2-.2.2-.5.2-.7.1-.1 0-.1-.1-.1-.1 0-.1 0-.2 0-.2s0 .1-.1.1c-.2.2.1.5-.1.7s-.4.4-.6.6c-.1 0-.2.1-.3.1-.6-.1-.9.3-1.1.7-.1.1-.3.2-.4.1-.4-.4-.6-.9-.5-1.5.4-.7 1.1-.4 1.7-.4-.6-.2-1.2-.5-1.8-.8-.3-.2-.6-.4-.5-.8.4-.1.7-.3.8-.7.1-.3.3-.7.5-.9-.2.6-1 .9-1.7 1.3.3 1.5 0 1.9-1.3 1.9.7.1.8.6.5 1.3-.3.2-.7-.2-1.1.1s-.9-.1-1.3-.5c-.5-.8-1-1.6-1.5-2.4-.2-.3-.4-.6-.9-.7-.6-.1-.9-.4-.4-1-.2.1-.4.3-.4.6-.1.4-.3.7-.7.7s-.5-.3-.7-.6c-.4-.4-.4-.8-.1-1 0 0 .1 0 .1-.1.1-.1.2-.2.2-.4l.2-.2c.4-.5 1-.6 1.6-.8h.4c.4.2.7.5.8 1 .2 1.4 1.3 2.5 2.7 2.8-1-1-.6-2.2-.5-3.4z" fill="#f3ece7"/><path d="m10.5 50.5c.1 0 .3.1.4.1s.1.1.1.2c-.2.1-.4.2-.7.3s-.4.3-.2.3c.5.1-.1.9.6.8.3 0 .5-.2.5-.4.2-.7.4-1 1.2-1.1.1.3-.1.3-.2.4s-.4.4-.3.7.4.3.7.2.6-.1.6.1c.1.7.9 1 .9 1.8s.3 1 1.1.6c.2.4-.5.5-.2.8.2.2.5.3.8.3s.6.2.4-.4c-.1-.3.2-.2.3-.2s.3.5.6.6.4.2.1.9v.3.3c-.1.2-.2.4-.5.3h-.2c-.2-.2-.5-.2-.7 0h-.2c-.1-.1-.3-.1-.4-.2h-1.2c-.1-.2-.3-.4-.5-.5-.6-.3-1.2-.6-1.7-1-.6-.6-1.3-1.2-2-1.8-.3-.6-1.2-.7-1.5-1.3l.4.1c.4.2 1.1.3 1.1-.1s.3-1.1-.4-1.3c.1-.3.4-.5.7-.4 0-.3.3-.2.4-.4z" fill="#f2e9e4"/><path d="m12.3 49.7c-.4.5-1 .4-1.5.7 0-.2-.1-.4-.2-.5-.5-.8-.5-1 .3-1.1.4-.1 1-.2 1.4.3v.2c.1 0 .1.2 0 .4z" fill="#f7f2ef"/><path d="m10.5 50.5c-.1.2-.3.2-.4.2.1-.1.3-.1.4-.2z" fill="#f3ece7"/><path d="m9.9 53.8c1.1 0 1.5.9 2 1.8-.4.1-.9-.1-1.1-.5s-.7-.6-.9-1z" fill="#f5efeb"/><path d="m35.1 67c-.2.4-.6.7-1.1.9-.1-.1-.2-.1-.2-.2-.1-.1-.3-.1-.4 0-.2.1-.5 0-.7-.2 0-.4.1-.7.1-1.1 0-.7-.2-1.1-.9-1-.6.6-.1 1 .3 1.4.1.4-.2.7-.2 1.1 0 .6 0 1.3-.6 1.7-.2.1-.4.2-.7.1-.1 0-.2-.1-.3-.1-.1-.1-.1-.2-.1-.3.6-.8-.2-1.3-.5-1.8-.1-.4-.4-.7-.6-1-.1-.1-.1-.3 0-.4.5-.3.4-1 .8-1.3.7-.1.6-.5.3-.9 0-.8.1-1.6.4-2.4 0-.4.1-.7.3-1 .1-.1.4-.2.5-.1.8.4 1.7.5 2.6.3.9.3 1.7.7 2.5 1.2.3.5.1.9-.3 1-1 .2-.8.7-.6 1.3 0 .1.1.2.1.3 0 .8-.8.6-1.2.8-.1 0 .1.2 0 .1s0-.1.1-.1c.7.4 1.2-.4 1.8-.3.1.1.1.1.2.2.2.3-.1.9.5 1 .2.1.2.3.3.6.1.2.1.3.1.5v.1c0 .2.5.2.3.5s-.4.1-.6 0c-.5-.1-.3-.8-.8-.9s-1.1-.6-1.4 0z" fill="#fbf9f8"/><path d="m31.1 69.4c.4-.5.6-1.1.4-1.8.3-.3.7-.4 1.1-.2.2 0 .4.1.7.2 0 .2-.5.6.2.5.4-.1.8.3 1.2.1.2-.1.3.1.3.2s0 .3-.2.3-.2.1-.3.2c-.5.3-.7.6 0 .8.2.1.3.4.5.5.5.4.1.6-.2.9 0 .1-.1.1-.1.2-.1.1-.1.2-.1.3v.4c.2.3.4.3.7 0 .3-.2.5-.4.9-.2.4-.3.8-.6 1.3-.2.2.2.3.2.2.5s-.1.5-.5.3c-.1-.1-.2-.3-.3-.1s0 .3.2.4.3 0 .3.2c0 .1-.2.2-.2.2-.9-.3-1 .5-1.4.9-.2.2-.4.7-.8.2-1 .5-.7-.4-.9-.9 0 1-.5 1.4-1.4 1.1-.1 0-.2-.1-.2-.2-.1-.5.1-1.1-.5-1.4-.3-.2-.1-.6.2-.8.2-.2.6-.7 1.1-.5.2.1.3.3.6.5-.4-.6-.6-1-1.4-.7s-1.2 0-1-.9c-.1-.4-.4-.7-.4-1z" fill="#fbf9f7"/><path d="m37 66.1c-.2-.1-.2.6-.4 0-.1-.4-.7-.7-.2-1.1.2-.5-.1-1.4 1-1.1.3.1.4-.3.1-.5s-.7-.3-.6-.8c.3-.3.6-.2 1-.2.3.1.5.4.6.6.1.1-.1.1 0 0s0 0 0-.1 0-.1 0-.1c.1-.9.5-.5.9-.2.8.7 1.8 1.2 2.8 1.4.7.1 1.3.4 1.8.9-.2.5-.5 1-1.2.9-.5 0-.8.7-1.3.2-.1-.1-.3.1-.2.3.1.5-.2.4-.4.2-.3-.3-.6-.5-1-.5-.3 0-.6-.2-.5-.5s.4-.3.7-.3.3.2.6 0c-.9-.6-1.8.1-2.6 0-.3.5-.2 1.2-1.1.9z" fill="#fcfaf9"/><path d="m32.4 74.2h.8s.6.1.3-.4.3-.6.3-1 .4-.1.5.1.1.5 0 .7c-.2.6.2.4.5.5-.1.5-.8.9-.3 1.6.1.1-.4.3-.6.4s-.3-.8-.8-.2c-.2.2-.6-.1-.7-.4-.1-.4-.1-.9 0-1.3z" fill="#f9f6f4"/><path d="m34.2 78.1c-.1.1-.3.5-.4.2-.2-.8-.8-.8-1.4-1.1-.3-.6.2-.8.5-1.1.2-.2.6-.2.9 0 .1.1.1.1.1.2.1.2.2.4.5.3s.5-.3.5.1c0 .2.3.7-.3.8-.1.1-.8 0-.4.6z" fill="#f9f6f4"/><path d="m34 76.4c-.8-.2-1.1-.1-1.5.9-.2-.1-.4-.2-.4-.4-.1-.9 0-1.8.2-2.6 0-.1.1-.1.2 0 .1.2.2.5.2.7-.1.4.1.7.4.9.5.2.5-.4.8-.5 0 .3 0 .6.2.8v.2z" fill="#f8f4f1"/><path d="m37 66.1c.7.1.5-.6.9-.9.1.2.4.2.6.2.4.1.4.4.1.6s-.6.3-.5.9c.1.4-.3.2-.6.3-.1-.1-.1-.3-.2-.4s-.2-.5-.3-.7z" fill="#f9f5f3"/><path d="m35.1 67c.1-.3-.2-.8.3-.8.4-.1.9.2 1 .6-.4.2-.8.8-1.3.2z" fill="#fcfaf9"/><path d="m34.6 71.1h.2c.3.4.4.7-.2.9-.3-.1-.2-.4-.2-.7.1 0 .2-.1.2-.2z" fill="#f9f5f2"/><path d="m36.2 71.8c-.3.2-.6.2-.9.2.2-.3.3-1.1.9-.2z" fill="#f9f5f2"/><path d="m36.8 68.6c-.4.4-.6.4-.9.1.2-.4.5-.2.9-.1z" fill="#f8f4f1"/><path d="m33.3 67.6c.2-.2.3-.2.4 0z" fill="#fbf9f7"/><path d="m33.8 67.6c.1.1.1.2.2.2-.1 0-.2-.1-.2-.2z" fill="#fbf9f7"/><path d="m44 65c-.3 0-.5 0-.7-.2-.3-.2-.6-.4-1-.3-.7 0-1.4-.3-2-.7-.5-.5-1.1-.6-1.5-1.1-.2.3 0 .5 0 .7s-.1.2-.2.2l-.7-.9c-.1-.2-.1-.5.1-.6.5-.4 1.1.3 1.6-.1.2-.1.5 0 .7.1.3.3.8.3 1.2.1.2-.1.4 0 .5.1.5 0 1.1-.2 1 .7 0 .2.2.4.6.3.5-.2.6.1.6.6l-.1.1.1-.1c.1-.1 0-.2.1-.1.7.4.1.8-.3 1.2z" fill="#faf8f6"/><path d="m42.1 62.2h-.7c-.1-.1-.1-.2-.1-.3 0-.3 0-.7.2-.8 1-.6.5-1.3.3-2 0-.1 0-.2.1-.3s.3-.1.5 0c.4.6 1.2.2 1.7.5.1.5-.5.7-.7 1s-.2.6.4.5c.7-.3 1.6-.2 2.3.2-.5.8-1.5 1.1-2.4.8-.6-.1-1.2 0-1.6.4z" fill="#f6f0ed"/><path d="m12.7 64.1c.6-.2.9-.9.7-1.5.4-.4.7-1.3 1.5-.5.2.3.1.9.7.8l.3-.1c.2-.1.5 0 .7.1l.1.1c-.3.4-.8.6-1.3.7-.2 0-.4.2-.5.4-.1.1-.3.2-.4.1-.6-.4-.6.2-.8.4l-.1.1c-.4.1-.6.5-.6.9h-.4c-.1-.2-.1-.5-.4-.7-.1-.1-.1-.2-.2-.2.1-.2.3-.2.4-.2s.1-.1.2-.2.1-.1.1-.2z" fill="#faf7f5"/><path d="m16 68.5c.4 0 .8 0 .6.6-.1.2-.1.5-.1.7 0 .3 0 .7-.3.7s-.8-.2-.8-.4c0-.7-.5-.6-1-.9.8 0 .6-1 1.2-1z" fill="#faf8f6"/><path d="m8 66c.2.3-.1.4-.2.6s-.4.2-.6.2c-.1-.1-.1-.2-.2-.3 0-.3.3-.2.5-.3s.3-.3.5-.2z" fill="#f8f3f0"/><path d="m12.7 68.3c-.5-.2-.4-.5-.2-.9l.9.7c-.1.1-.2.1-.2.2z" fill="#f7f3ef"/><path d="m13.2 68.3c.1-.1.2-.1.2-.2-.1 0-.2.1-.2.2z" fill="#f9f6f3"/><path d="m16.5 34.1c.5.3.4.9.7 1.3h-.7c-.1-.1-.2-.4-.4-.2s-.4.4-.7 0c.1-.3.3-.6.4-.9s.4-.2.7-.2z" fill="#f9f5f3"/><path d="m18 33.2-.2.4c-.1 0-.4 0-.3-.2s.2-.3.5-.2z" fill="#f6f0ed"/><path d="m6.8 37.4c.3-.8 1.1-.3 1.6-.7-.4.5.1 1 .1 1.4-.8.1-.8.1-.8-.5.1-.3-.1-.3-.9-.2z" fill="#fbf8f7"/><path d="m9.4 35.9.2.2z" fill="#f8f4f2"/><path d="m32.4 74.2h-.2c-.1-.1-.1-.3-.2-.4-.4.2-.9.6-1.3 0-.3-.7 0-1.4-.1-2.1-.1-1-.3-1.3-1.3-1.3-.3 0-.6.1-.8-.1h-.4c0-.3.2-.7.4-.9.6.4 1.1-.4 1.8-.2v.2l.1.1-.1.1h.1l.1-.1h.7c.2.2.4.4.6.6s.3.3 0 .5c-.2.1-.4.1-.3.3s.4.4.6.3c.3-.1.6-.6.9-.4.4.3.7.7 1 1.1.2.2.2.4 0 .6s-.4.2-.6 0c0 0-.1-.1-.1-.1-.1-.3-.1-.8-.6-.8s-.4.4-.7.6c-.1 0-.1.2-.1.3.9.4.9.4.5 1.7z" fill="#f9f6f4"/><path d="m28.5 70.2c.4 0 .7-.2 1.1-.2s.8.3 1.1.5c.5.3.3.6.1 1v.1c.4.7 0 1.4-.1 2.1-.8-.6-1.6-1-1.1-2.2.1-.3-.1-.5-.4-.6s-.6-.3-.7-.7z" fill="#f8f4f1"/><path d="m32 73.8c.2.1.2.2.2.4-.2-.1-.2-.3-.2-.4z" fill="#f8f4f1"/><path d="m33.2 78.4c0-.2 0-.2.1-.1v.1z" fill="#f7f2ee"/><path d="m42.7 40.9c-.2 0-.7-.1-.7.1-.2.7-.8.6-1.2.8-.3.1-.6.5-.8 0-.1-.3-.6-1 .4-1.1.7-.1.1-.6.2-1-.1-.3 0-.6.2-.9.4-.2.9-.3 1.3-.2 0 .1.1.2.2.3.1.2.3.3.2.5s-.4.2-.6.1-.3-.5-.5-.1 0 .5.4.5c.3.1.5.2.8.3.2.2.1.5.1.7z" fill="#f3ece7"/><path d="m40.8 38.9c0 .3.1.7-.2.9-.5-.6-.9-.1-1.4.2-.2-.4.2-.8 0-1.1z" fill="#f1e8e2"/><path d="m23.7 38.7c.1-.6-.1-.9-.8-.8-.4.1-.3-.2-.2-.4.4-.4.6-1 .4-1.5-.3-.1-.3.2-.4.3-.6.8-.6.8-1.5.2-.4-.2-.8-.3-1.3-.2 0-.2.1-.4.3-.4h.1c.1.2.3.2.4 0 .2-.4.7-.5 1-.3 0 0 .1 0 .1.1.1.2-.1.2-.2.4.3 0 .5-.2.6-.4.1-.9.8-.6 1.3-.7.9.4 1.5 1.1 1.8 2 .1.1.1.3.1.4 0 .2-.1.4-.2.5v.1c-.4.1-.5-.3-.8-.3-.4.3.3 1.3-.7 1.2-.1 0-.1-.1 0-.2z" fill="#f2e9e4"/><path d="m34.6 26 .2.2c-.1 0-.3.1-.3.1s0-.2.1-.3z" fill="#f9f5f2"/><path d="m47.3 56.2c-.3-.3-.5-.7-.4-1.1.2-.2.6-.1.8.1.2.3-.1.4-.2.6s-.1.3-.2.4z" fill="#f9f6f4"/><path d="m46.7 54.9c-.1 0-.2-.1-.2-.2z" fill="#f9f6f4"/><path d="m42.3 58.9h-.4c-.6.1-.9-.4-1-.8-.4-.9-.9-1-1.8-.9s-1.6-.9-1.2-2.1c-.3-.3-1.3.4-1-.7.1-.2.2-.3.3-.5l.2-.2c.1-.1.3-.1.4-.1.3 0 .7 0 1-.1.3-.2.4-.2.6.2s.5.3.8.2.9-.3.8.5c-.1.4.5.5.6.8.2.7.5.2.8.2.2-.1.4 0 .5.2.2.3-.1.4-.2.5-.3.2 0 .4 0 .7-.2.4.1 1.1-.6 1.3v.3c.1.1.2.1.4.1.5-.2 1-.3 1.3.3-.5.4-1 .4-1.5.1z" fill="#f4ede8"/><path d="m37 52.5c.1.3.5.1.7.4l-.2.2c-.6.2-1.3.2-2 .5l-.5.2c-.1 0-.3 0-.4 0-.2 0-.3-.1-.5-.2-.5 0-.3.8-.8.7-.4-.2-.4-.5-.5-.8 0-.3.1-.6.3-.7.1 0 .2 0 .2-.2 0-.3.1-.5.3-.7 0-.1.1-.2.2-.2.1-.1.1-.1.2-.2.8-.6 1.4.3 2.1.4.2.2.6.3.9.6z" fill="#f4ede8"/><path d="m39.7 48.3c.4.1.8.2 1.1.4-.5.8-1.3 1.3-2.2 1.3-.3-.1-.5-.2-.8-.3-.2-.1-.4-.2-.5-.4-.2-.7.3-.8.7-1 .5-.1 1.1-.1 1.7 0z" fill="#ede2da"/><path d="m37.9 49.7c.3 0 .7 0 .7.4s-.8.6-.5 1.3c.1.2-.2.2-.4.3-.4.1-.7.3-.7.8-.5.1-.9-.1-1.1-.6v-.1c-.1-.6.5-.7.8-1 .5-.2 1.1-.5 1.2-1.1z" fill="#f0e7e1"/><path d="m37.5 53h.2v.7c-.1.2-.3.2-.4.2-.3-.4 0-.7.2-.9z" fill="#f3ede9"/><path d="m42.3 58.9c.4.1.9 0 1.3-.2l.4.4v.2c-.3 0-.6.1-.8.2-.4 0-.8-.1-.9-.6z" fill="#f8f4f2"/><path d="m46 61c-.9 0-1.8-.4-2.6.2-.3.2-.4 0-.5-.2s-.2-.7.2-.9c-.1 0 .2 0 .1.1s0 .1 0 .1c.3-.3.7-.5 1-.8.3.3.7.5 1.1.6 1 0 1 0 .7.9z" fill="#f7f3ef"/><path d="m44.3 59.5c.1.7-.9.6-1 1.2-.2-.1-.1-.3-.1-.5.3-.3.6-.6.9-.9z" fill="#f8f4f2"/><path d="m50.4 43.5c0 .3-.1.5-.5.6 0-.3.1-.6.5-.6z" fill="#f9f6f4"/><path d="m10.5 8.9c.2.1.2.1 0 .2 0 0 0-.1 0-.2z" fill="#60838c"/><path d="m20.6 62.8c-.2-.2-.5-.2-.7 0-.2.2 0 .4.2.5.4.3.4.7-.2.7-1-.1-1.1.7-1.4 1.2-.1.2 0 .7-.4.7s-.5-.3-.6-.6.2-.6.5-.7c.1 0 .2-.1.2-.3-.4-.3-.7.4-1.1.2s-.8-.3-.9-.9c.4-.2 1.1-.1 1.2-.9-.3-.2-.5.2-.8.1-.2-.2-.4-.4-.4-.7 0-.2 0-.3.1-.5.4-.4.9-.6 1.4-.5s1-.1 1.2-.5c.3-.2.6-.3.8-.6.4-.3.7-.6 1 .1s.5.6 1 .4c.8-.3 1.6.1 1.9.8 0 .1.1.2.1.2 0 .3-.2.5-.5.6s-.6.2-.9.2c-.5.2-1.1 0-1.7.5z" fill="#faf7f4"/><path d="m14.5 64.1h.4c.1.3.4.2.7.2s.4.1.4.3-.1.6-.4.5c-.6-.2-1.4.2-1.9-.3.1-.4.4-.6.8-.7z" fill="#faf7f4"/><path d="m20.6 62.8c.4-1.1 1.1-.7 1.8-.4.3.4 0 .6-.2.9h-.2c-.3-.7-.9-.4-1.4-.5z" fill="#fbf9f8"/><path d="m21.5 64.1c.7.4.7.4.5 1.7-.5-.4-.3-1-.5-1.4 0-.1 0-.2 0-.3z" fill="#f2e9e3"/><path d="m22.1 63.2c.1-.3.1-.6.2-.9l.9-.2c.8 1 1 1 1.8-.5.1-.1.2-.1.3-.1.2 0 .4.1.4.3v.1c0 .3.1.7.3.9.2.4.2.9-.1 1.2-.2.2-.4.5-.4.9s.2.8.6 1c.4.1.4-.4.5-.7 0-.1.1-.3.1-.4.4-.6.8-1.3 1.2 0 .1.3.4.1.5.2.4.2.6.4.5.9v.4c.2.4.6.7-.1 1.1-.4.2-.5.9-1 1.1-.4 0-.5-.4-.8-.6s-.2-.3.1-.4.5.1.4-.3c0-.2-.3-.3-.4-.3-.5.2-1-.4-1.5.2 0 .1-.3.2-.4 0-.2-.7-.4-.6-.8-.1-.3.3-.3-.2-.3-.3.1-.6-.5-1.1-.6-1.7 0-.2-.1-.6-.5-.5s-.5-.1-.5-.4.2-.3.4-.4.4-.1.3-.3-.3-.4-.5-.2c0 .6-.2-.1-.6 0z" fill="#f4ede8"/><path d="m30.2 69.2c-.2 0-.4.1-.5.3-.4.5-.9.5-1.3-.1 0-.2 0-.4.2-.4.4-.6.1-1.5 1.1-1.8.4.2.4.8.9.9.2.1.2.3 0 .5s-.3.3-.4.6z" fill="#fbf9f7"/><path d="m29.8 67.2c-.6.4-.3 1.4-1.1 1.8 0-.5-.3-.4-.7-.4.1-.4.6-.6.5-1.1 0-.1.1-.2.1-.3 1 .2.2-.6.5-.8.4 0 .7.4.7.8z" fill="#f6f1ed"/><path d="m16.5 61.9v.4c-.1.3-.4.4-.6.3-.5-.4-.9-.8-1.4-1.2-.6-.3-1-.8-.7-1.6.1-.2 0-.4-.1-.6.3-.3.7-.2 1.1-.4s.6-.2.4-.7c-.1-.2 0-.4.3-.5.4-.1.9-.2 1.3-.2.4-.3 1-.4 1.5-.3h1.6c1.1 0 2-.7 2.9-1.1.3-.1.5-.3.8-.4h.2c.1.1.2.2.2.3l.1.2c0 .1.1.2.1.3l.3.6c.1.5.7 1 .4 1.6-.5 0-.9.3-1.3.4-.8-.3-.4-1.2-.7-1.7-.5.1-.8.6-1.1.8s-.8 1-1.7.7c-.4-.2-.5.7-1 .7-.3 0-.6.1-.8-.1s.4-.7-.3-.5c-.5.1-.6-.3-.8-.7 0 .4 0 .8-.3 1.2-.1.1-.2.4-.1.5s.4-.1.6-.1c.6-.2 1.2.2 1.8-.1.4 0 .7.2.9.5-.2.4-.5.5-.9.4-1.1.1-2.1.5-2.7 1.3z" fill="#faf7f5"/><path d="m13.6 59.3c.4.3 1 .5.2 1-.2.1 0 .3.1.4.2.3.6.6.9.8.5.2.9.6 1 1 .1.1.1.3 0 .4-.6.1-.6-.7-1.1-.7-.1-.5-.3-.6-.6-.2s-.4.5-.7.5v-.4c.1 0 .1-.1.1-.2s0-.1-.1-.1c-.2-.2-.4-.3-.6-.5s-.3-.4-.1-.5c.4-.4.5-1.1.9-1.5z" fill="#fcfaf8"/><path d="m18.2 57.5h-1.5v-.2c.2-.1.4-.2.4-.4.6-.3.5-.9.7-1.4s.5-1.1 1.3-.8c0 .5.2 1.1.4 1.5-.1.8-1.1.7-1.3 1.3z" fill="#f3ebe6"/><path d="m11.4 64.1c.1-.4.8-.4.6-1 0 0 .3-.4.5-.1.1.7-.1 1-1.1 1.1z" fill="#faf7f4"/><path d="m12.1 65c.5 0 .4.3.4.7-.3-.2-.3-.5-.4-.7z" fill="#faf7f4"/><path d="m10.7 59.8s-.1.1-.1.1-.2-.1-.1-.2c0 0 .1-.1.2-.1z" fill="#f9f5f2"/><path d="m15.8 57.3c.2-.3.4-.3.7 0z" fill="#f3ebe6"/><path d="m11.5 64.7c-.1 0-.1 0-.2 0s-.1-.1-.1-.1h.2s0 .1.1.1z" fill="#faf7f4"/><path d="m15.1 57.1c.2 0 .4 0 .4.2-.1 0-.3 0-.4-.2z" fill="#f3ebe6"/><path d="m12.7 64.1c-.1.1-.1.2-.2.2s.1-.1.2-.2z" fill="#faf7f4"/><path d="m12.5 64.3c-.1.1-.1.2-.2.2s.1-.1.2-.2z" fill="#faf7f4"/><path d="m11.9 64.8.2.2z" fill="#faf7f4"/><path d="m13.4 61.9c.2.1.2.2 0 .2z" fill="#faf7f5"/><path d="m8.6 62.6c0-.1 0-.2 0-.3 0-.2.2-.3.4-.3.1 0 .2.1.2.2 0 .2-.1.3-.3.3z" fill="#f9f6f4"/><path d="m34.4 45.5c-.3.1-.7 0-.4.6.2.4.4.8.4 1.2-.1.1-.3.2-.4.2-.8-.7-1.9-.4-2.7-1-.2-.3-.3-.5-.3-.7 0-.1 0-.2 0-.3.1-.4.1-.7.2-1.1s.1-.4.4-.4c.1.6.7.9.9 1.5.1.3.3 0 .4 0 .6.1 1.1-.6 1.7-.1v.1c-.1 0-.2 0-.2 0z" fill="#f3ebe6"/><path d="m41 45.5c-.2-.1-.3.6-.4 0s-.4-.5-.7-.7c-1.5-.1-.4-1-.4-1.5 0-.2-.2-.5.2-.4.5.1 1.1.2 1.6.4.4.4 1.1.5.9 1.3-.2 0-.5 0-.5.1 0 .6-.5.5-.7.8z" fill="#f5efeb"/><path d="m31.6 44c-.2.1-.2.2-.2.4-.7.3-1.6 0-2-.7 0-.3.1-.6.2-.9.2-.7.4-1.3 1.3-1.1.3.4.6.8.9 1.2.2.5.2.8-.2 1.1z" fill="#ece0d8"/><path d="m30.9 41.8c-.7 0-.9.7-1.3 1.1-.4 0-.7 0-.8.7.1-1.1-1.5-.5-1.4-1.6.7.3 1.4 0 1.7-.6.1-.1.2-.3.3-.3.8.7.7-.3 1-.6.3.3.1.8.4 1.1z" fill="#f2eae5"/><path d="m36.4 45.7h-.4c-.1.1-.2.1-.3 0 0-.6-.7-.5-.8-.9-.3-.2-.7-.2-.3-.7.2-.3 0-.7-.5-.4-.2.1-.3.3-.4 0-.1-.1 0-.3.1-.4.3-.2.3-.6.7-.7.3.1.2.7.6.8s.4.3.2.5c-.4.4 0 .4.2.6s.5.3.6 0c.4-.6.7-.4 1.1 0s.4-.2.6-.2.3.2.3.3c-.1.4-.4.7-.9.7-.2 0-.5 0-.6.2z" fill="#f5efeb"/><path d="m37.9 44.6-.2-.2c.2-.3.1-.5-.2-.7-.7-.2-1-.9-.8-1.5 0-.1.1-.1.1-.2.1-.3.1-.6.2-.9h.2c.2.8.8 1.5.6 2.3 0 .1 0 .2.1.2 1.1.1.2.7.3 1.1l-.2.1z" fill="#f6f0ec"/><path d="m39.4 43.3c.2.1.3.4.1.5-.6.5-.1.7.3 1 0 .6-.6.4-.9.7-.4-.2-1-.2-.9-.9.2-.1.4-.2.4-.3.1-.7.6-.8 1-1z" fill="#f2eae5"/><path d="m38 41.8c.5.1.7.5.9.8s-.2.4-.4.5-.4-.1-.4-.3-.2-.6-.1-1z" fill="#f2e9e4"/><path d="m33.5 40.7c.1.3.4.6 0 .9-.1-.1-.2-.2-.2-.2-.3.1-.6.1-.6-.3s.4-.3.6-.4z" fill="#f1e8e3"/><path d="m34.8 44.8c.2.1.3.2.5.2.6 0 .4.4.4.7 0 0 .1.1 0 .1s0 .1 0 .1c-.4-.2-.7-.6-.9-1.1z" fill="#f4ede9"/><path d="m42.1 44.6c-.2-.5-.8-.7-.9-1.3.2 0 .4-.1.5-.4.2-.7.6-.4 1-.3s.3.4.1.5c-.5.2-.7.4-.3 1 0 .1-.2.4-.4.5z" fill="#f4ede8"/><path d="m30.2 40c-.2 0-.4.1-.6.2-.4.5-1 .5-1.5.1-.1-.1-.2-.2-.3-.4-.1-.1-.2-.1-.3-.2v-.4c.5-.7.7-1.5.5-2.2 0-.1-.1-.2-.2-.2s.2.2.1.3c-.2.3-.6.5-.9.3-.1 0-.2-.1-.2-.2-.1-.3-.4-.2-.6-.3s-.5-.5 0-.7c.3.1.7.8.8-.2 0-.1.3-.2.5-.2.6.1.9-.3 1.1-.8 0-.1.1-.1.2 0 .2.5.3 1 .2 1.5v.4c.1.1.1.2.2.2v.1.1c-.2.3-.2.6 0 .9.8.5 1.5.8 1 1.7z" fill="#f2eae5"/><path d="m30.2 40c.1-.8-.6-1-.9-1.5.4-.4 1-.6 1.5-.4v.3c0 .4.8.5.5.8-.2.4-.6.6-1.1.8z" fill="#f9f5f2"/><path d="m29.1 35.7c.2 0 .4 0 .5-.1s.5-.5.8-.2c.2.4.3.8.1 1.2-.2.3-.5.4-.8.2 0 0-.1-.1-.1-.1-.1-.1-.2-.1-.3-.2-.3-.1-.4-.5-.3-.8z" fill="#fbf9f8"/><path d="m29.4 33.1c.4 0 .4.3.5.6 0 .1 0 .3-.2.3h-.1c-.3 0-.4-.2-.4-.5s-.1-.3.2-.4z" fill="#f9f5f2"/><path d="m31.5 34.4c-.5 0-1-.1-.6-.9.3.3.5.6.6.9z" fill="#f8f4f1"/><g fill="#f9f5f2"><path d="m29.1 35.7c0 .3.1.6.2.9l-.2.2c-.4-.5-.1-1-.2-1.5.2 0 .2.2.2.4z"/><path d="m29.4 38.5c-.2-.1-.3-.5-.2-.7 0-.1.1-.1.2-.2z"/><path d="m29.4 37.6v-.2c.1.1.1.1 0 .2z"/><path d="m29.4 37.4c-.1 0-.2-.1-.2-.2z"/><path d="m28.9 35.2h-.2v-.2z"/><path d="m28.5 34.6-.2-.2c.1 0 .2.1.2.2z"/><path d="m28 34.1-.2-.2c.1 0 .2.1.2.2z"/><path d="m27.6 33.9c-.1 0-.2-.1-.2-.2z"/></g><path d="m26.3 36.3c-.4.8.4.5.7.7v.1s0 0-.1.1c-.1.2 0 .5-.2.7-.6.1-.9-.5-1.4-.7-.1-.1-.3-.2-.3-.3-.3-.6-.5-1.3-1.3-1.5-.1 0-.1-.3-.1-.4.5-.6 1-.3 1.5 0 .3.1.2.5.4.7l.2.2c.2.2.4.3.6.4z" fill="#f3ece7"/><path d="m25.7 33.5-1.5-.4c1.3-.3 1.3-.3 1.5.4z" fill="#f2e9e4"/><path d="m22.4 35.7c0 .8-.1.8-.9.3.1-.2.4-.1.5-.3z" fill="#f3ece7"/><path d="m25.6 35.7c-.3.3-.4 0-.3-.2 0-.2 0-.3-.1-.5.2 0 .3-.2.5 0s0 .4-.1.7z" fill="#f2e9e4"/><path d="m35 37.1c.4 0 .7.3.8.7v.1c-.6 0-.7-.4-.8-.8z" fill="#f9f5f2"/><path d="m29.4 43.8c.6.3 1.3.5 2 .7 0 .4 0 .8-.2 1.1-.1.1-.3.1-.2.3s.1 0 .2 0c.3.2.2.4.2.7-.3.9-.5 1.9-.7 2.9-.4.1-.6-.2-1-.2-.6-.4-1.4-.7-.9-1.7.1-.2-.4-.4-.3-.7-.3-.6-.2-1.3.3-1.7.2-.1.3-.4.2-.7-.1-.6.1-.7.4-.7z" fill="#ede2db"/><path d="m33.3 52.8c-.3.1-.3.4-.5.6 0 .2-.2.4-.4.4-.1 0-.2 0-.3 0-.3-.2-.8-.2-1.1-.5 0-.1 0-.2 0-.3.3-.3.8-.4.9-.9.2-.4.1-.9-.3-1.1 0 0 0 0-.1 0-.5-.2-.6.3-.8.6s0 .9-.2 1.3c0 .1-.3.2-.5.1-.4-.4-.4-1-.6-1.4-.1-.2-.1-.4-.2-.6 0-.2 0-.3.1-.5.2-.3.4-.4.7-.6.2-.1.5-.2.7-.1.6.2 1.1-.5 1.8-.2.2 0 .4 0 .6.2.4.4 0 1.1.5 1.5.1.2.2.3.3.5z" fill="#efe5df"/><path d="m33.3 51.4c-.8-.3-.3-1-.4-1.5-.1-.1-.1-.3 0-.4 0 0 0 0 .1-.1.6.4 1.1.7 1.8 0 .3-.2.6-.3 1-.3.9-.5 1-.5 1.3.3-.5.5-1.1.5-1.6.8-.4.5-1.3.6-1.5 1.3h-.3c-.1 0-.1-.1-.2-.1s-.2 0-.2 0z" fill="#eee3dc"/><path d="m32.3 49.3c-.3-.1-.6-.4-.6-.7.6.3 1.1.5 1.5-.2.6-.3 1.2-.5 1.9-.5.2.1.3.4.2.6 0 0 0 .1-.1.1-.3.4-.5.8-1.2.6-.3-.1-.8-.5-1.1.2-.2 0-.5 0-.6-.1z" fill="#f3ebe6"/><path d="m37 49.5c-.3-.6-.9-.2-1.3-.2 1.4-1.3 2.5-1.6 3.9-.9-.7 0-1.4.2-2.1.6-.3.2-.2.3-.1.5 0 .1-.2.2-.3.2s-.1-.1-.1-.2z" fill="#f0e6e0"/><path d="m38.1 44.6c.1.4.6.5.9.9-.7.4-1.2 1.1-2.1.8-.3-.1-.6-.2-.5-.6s.4-.3.7-.4c.4 0 .7-.3.9-.7z" fill="#f4ede8"/><path d="m37.5 46.7c-.3.4-.9.6-.8 1.2 0 .1-.2.4-.5.3s-.5-.2-.6-.5.3-.2.5-.3c.4-.2.7-.8 1.4-.7z" fill="#f4ede8"/><path d="m30.6 49.9c-.2.1-.4.2-.6.3s-.4 0-.5-.2c-.1-.1-.1-.3-.1-.4 0-.2.1-.3.2-.5l.1-.1c.4-.2.6 0 .9.2z" fill="#483b36"/><path d="m32.3 49.3h.6c0 .1 0 .1.1.2l-.1.4c-.2 0-.4 0-.5-.2z" fill="#4d3f3a"/><path d="m35.7 46v-.2h.2s-.1.1-.2.2z" fill="#f4ede8"/><path d="m34.5 47.3c0 .1-.1.1 0 0-.1.1-.1 0 0 0z" fill="#f3ebe6"/><path d="m27.6 39.8c-.6.5-.6 1.2-.9 1.8-.4.3-.8-.1-1.1-.2-.4 0-.6.5-1 .6-.1 0-.2.3-.3.2-.7-.6-.6.2-.7.4-.4-.1-.4-.4-.6-.6s-.3-.4 0-.6c.2-.2.4-.4.5-.6.2-.5.4-.4.9-.2.4.3.9.4 1.4.3.4-.1.8-.4 1-.7s.4-.7.8-.4z" fill="#f4ede9"/><path d="m29.6 49.5v.4c0 .3-.2.4-.2.7s0 .3 0 .4c-.5.2-.9-.1-1.3-.3-.1-.3.3-.7-.2-.9.1-.5.5-1.1-.1-1.6.1-.2 0-.4.1-.6l.2-.2s.1-.1 0-.2v-.1c0-.1 0-.1 0-.2l.4-.2s0 .1.1.1c.9.7.9.7.2 1.5.5 0 .9.3 1.1.8-.2 0-.2.2-.3.4z" fill="#ede2db"/><path d="m25.6 41.3c.4-.2.7.3 1.1.2.4.6.4 1.4 1.1 1.9.3.2 0 .4-.1.5-.3.3-.7.6-1.1.8.3-1.1.3-1.1-.5-1.2-.1-.7-.2-1.4-.5-2.2z" fill="#f4eee9"/><path d="m25.4 37.2c.1-.2.3-.2.4 0 .3.3.6.5.9.7.1-.1.3-.1.4 0-.3.4-.3.9-.2 1.4-1.7 0-1.7 0-1.8-1.2.1-.1.1-.3.2-.4z" fill="#f4ede9"/><path d="m27.2 37.8h-.4c0-.2-.1-.5.2-.7.5.4.8.3 1.1-.2.8.4.9.6.4 1.1-.4.4-.1.7-.1 1 0 .6-.3.6-.7.3-.6-.3 0-1.1-.5-1.5z" fill="#f2e9e4"/><path d="m23.7 38.7v.2c-.1.5.5.1.6.4-.5.5-.5.5-1.1 0-.1-.1-.2 0-.3 0s-.5.3-.5-.2c0-.3 0-.6.5-.5.2.1.5-.1.8.1z" fill="#f5efeb"/><path d="m26.1 43.5c-.1.3.1.6-.2.7-.1 0-.3-.1-.3-.2-.1-.3.3-.3.5-.5z" fill="#f4eee9"/><path d="m23.5 43.8v-.2c1 0 .3.7.4 1.1 0 .1-.1.1-.2 0-.5-.3-.1-.7-.2-.9z" fill="#f4eee9"/><path d="m22.1 42-.2-.2z" fill="#f4ede9"/><path d="m22.1 42.2v-.2l.2.2z" fill="#f4ede9"/><path d="m22.4 42.7.2-.2z" fill="#f4ede9"/><path d="m29.6 51.4c.3.5.4 1 .5 1.6.1.1.1.1.1.2v.2c0 .1-.1.2-.2.3 0 .1-.1.2-.1.2-.1.1-.2.2-.3.2s-.3 0-.4 0-.2-.1-.2-.1c-.2-.1-.4-.1-.6-.1-.1 0-.2 0-.3-.1-.1 0-.2-.1-.3-.1-.1-.1-.1-.1-.2-.2s-.1-.2-.1-.3c-.1-.1-.1-.3-.2-.4-.1-.3 0-.6.2-.9.1-.5.1-1.1.7-1.3.3-.3.5 0 .7.2.1.4.4.6.7.6z" fill="#3c2d29"/><path d="m27.4 52.1v1.1c.1.1.1.2.1.2 0 .1.1.1.1.2l.2.2.2.2.1.1c0 .1-.1.2-.2.3s-.3.2-.4.3-.2.2-.3.3c0 0-.1 0-.2 0s-.1-.1-.2-.2c-.1-.2-.1-.5-.1-.7s0-.4.1-.5c0-.2.1-.4 0-.6-.1-.1-.1-.2-.2-.3s-.2-.2-.3-.2c-.3-.2-.9-.3-.4-.8.2-1.1.2-1.1-.9-1.7v-.2c-.1-.2 0-.3.2-.2.3.2.6.4.9.5.5.2 1.2.2.6 1.1-.2.1.5.5.7.9z" fill="#f0e7e1"/><path d="m27.8 47.9c1 .6 1 1.1.1 1.7-.2.1-.3.2-.5 0-.3-.5-.3-1.1 0-1.5 0-.3.1-.3.4-.2z" fill="#443531"/><path d="m27.8 47.9c-.2 0-.3 0-.4.2-.1 0-.1-.1-.2-.1-.3 0-.7-.1-.8-.4s.3-.3.5-.5.1-.2.3-.2c.1.3 0 .8.6.5.1.2.3.4 0 .5z" fill="#f3ece7"/><path d="m29.6 51.4c-.4.2-.7.7-.9-.2 0-.3-.3-.5-.6-.5 0 0 0-.1 0-.2.5-.2.9.2 1.3.3 0 .3.1.5.2.6z" fill="#3d2e2a"/><path d="m25.2 49.5-.2.2c-.1 0-.1-.1-.2-.1-.1-.2-.4-.5 0-.6s.4.2.4.5z" fill="#f1e9e4"/><path d="m28.1 47c.2.1.2.2 0 .2z" fill="#f3ece7"/><path d="m23.9 52.7h-.3c0-.3-.5-.3-.6-.6s-.5-.7-.3-1.2.7-.7 1.1-.6l.5.1c0 .7.5 1.3.2 2-.1.3-.4.2-.6.3z" fill="#3e2f2b"/><path d="m25.9 51.6c0 .4.3.6.7.7.1.1.1.2.2.2 0 .1.1.2.2.2.1.1.1.2 0 .3-1 1.1-1.3 1.2-2.1.5-.2-.7-.4-1.3.4-1.8z" fill="#483b36"/><path d="m25.2 51.7c-.2.6-.3 1.3-.2 1.9.1.1.1.2.1.2v.2l-.1.1c-.4-.4-.4-1.1-1.1-1.3l.5-.4c.5-.2.3-.8.5-1.1.2-.1.3.1.3.4z" fill="#f0e8e2"/><path d="m24.8 51.2c.2.5.2 1-.5 1.1 0-.1.2-.4.1-.4-.7-.5-.1-1-.2-1.5.7 0 .5.5.6.8z" fill="#50433e"/><path d="m16.8 47.5c.3-.3.2-.9.8-.8.2 0 .3.3.2.7-.3.6-.6 0-1 .1z" fill="#f9f5f3"/><path d="m13.2 49.2h.2c.2-.2.5-.3.8-.1.5.6.8 1.2 1.1 1.9.1.3.4.7-.1.9-.4.2-.9.1-1.2-.3-.2-.3-.3-.6-.4-.9 0-.5-.4-.8-.6-1.2 0-.1.1-.2.2-.3z" fill="#f3ece7"/><path d="m14.3 49.2h-.9c.3-.8.3-.8 1.3-.2 0 .1-.1.2-.2.3-.1 0-.2 0-.2-.1z" fill="#f8f4f1"/><path d="m13.2 49.2v.2c-.1.1-.3.2-.4.2h-.4v-.4c.2.2.5-.4.8 0z" fill="#f8f4f1"/><path d="m14.5 49.2.2-.2.9-.2c-.1.2-.2.4-.4.4-.2.2-.5.2-.7 0z" fill="#f3ece7"/><path d="m23.5 43.8c.4.2-.1.7.2.9-.3 0-.6.1-.7-.3s.4-.4.5-.6z" fill="#f9f5f3"/><path d="m23.7 44.6h.2v.2z" fill="#f9f5f3"/><path d="m14.5 49.2h.6c.1.3.4.5.7.7.4.3.3.8.2 1.1-.2.8-.2 1.5.7 1.9.2.1.3.3.2.5 0 0 0 .1-.1.1-.2.2-.5.4-.6.2-.3-.6-1.2-.2-1.5-.8s-.7-1-1.2-1.4c-.1-.1-.1-.3-.1-.4.2-.7-.3-1-.7-1.5.1-.2.2-.2.4-.2.3.2.6.6.6 1 .1.7.4 1.4 1.5 1.3-.3-.6-.3-1.2-.9-1.7-.2-.2-.1-.5-.1-.8z" fill="#f2eae5"/><path d="m15.4 35.9c.3.7.4 1.5.2 2.2-.3-.1-.5-.4-.6-.7.2-.3.1-.7-.2-.8-.3-.2-.2-.4-.2-.7h.4c0-.1.2-.2.4 0-.1 0-.1 0 0 0z" fill="#f9f5f3"/><path d="m16 35.2c.4-.4.4-.1.4.2z" fill="#f8f4f1"/><path d="m15.4 35.9h-.4c.1-.3.2-.3.4 0z" fill="#f8f4f1"/><path d="m19.1 54.7c-.6 0-1.1.5-1.1 1.1-.1.4-.3.8-.5 1.2-.2.3-.2-.2-.4-.1l-.2-.2c0-.3.1-.5.3-.7.1-.1.1-.3 0-.4 0 0-.1-.1-.1-.1 0-1 0-1-1.4-1.2.7-.7 1.9.1 2.3-1 0-.3-.3-.4-.5-.6s0-.4.3-.5h.1c.1 0 .2 0 .2.1.2.1.3.2.3.3 0 .2.1.5.3.5.7.2 1.3.8 2.1.8.3 0 .5 0 .4.4s-.3.6-.7.3c-.4-.1-1-.2-1.4.1z" fill="#f4ede9"/><path d="m23.5 55.8c0 .5-.5.6-.7.7-.9.4-1.8.8-2.7 1.1-.6-.6.1-.7.3-1 .4-.3.3-1 .8-1.2h.2c.2-.2.3-.5.4-.7.3 0-.1-.4.2-.4.1-.1.1-.1.2 0h.8c0 .3-.1.5-.2.7s.1.5.2.6c.3-.1.5-.2.5.2z" fill="#f4ede9"/><path d="m18.4 52.7-.4-.2c-.1-.1-.1-.2-.2-.2.2-.2.3-.4.5-.6s.3-.2.4.1.3 0 .3-.1c-.1-1.1 1-.9 1.5-1.3-.2 1-1.5 1.4-1.2 2.7-.4-.1-.6-.4-.9-.4z" fill="#f2eae4"/><path d="m20.4 56.7c-.1.3-.8.3-.4.9h-1.8c-.3-.5.1-.6.4-.8s.7-.2.9-.5l.2-.2c.7-.3.9 0 .7.6z" fill="#f1e9e3"/><path d="m20.4 56.7c0-.3-.2-.6-.5-.7h-.1c.2-.6.5-1.1 1.3-.7-.4.4-.1 1.1-.7 1.4z" fill="#f3ebe6"/><path d="m23.2 55c.1-.4-.3-.7-.2-1.1 0-.2 0-.5.3-.5.2 0 .3.1.3.3v.1c-.1.5.2.9-.4 1.2z" fill="#f0e8e2"/><path d="m22.1 54.3h-.2c-.1-.3-.4-.5-.1-.8s.4 0 .5.1c.4.3-.2.4-.2.7z" fill="#f0e8e2"/><path d="m24.7 54.9c.2-.2.3-.5.2-.8.1-.1.2-.1.3 0 .2.2.3.5.2.8-.1.2-.3.3-.5.2-.1 0-.1-.1-.2-.2z" fill="#f0e8e2"/><path d="m21.7 54.7c0 .3 0 .7-.4.7-.1-.3.1-.6.4-.7z" fill="#f3ebe6"/><path d="m23 55.6c-.6 0-.6-.3-.2-.6.1.2.3.3.2.6z" fill="#938884"/><path d="m23.7 56.3c0-.2 0-.3 0-.5s.1-.4.2-.5l.1.1c.1.4.2.8-.3.9z" fill="#f0e8e2"/><path d="m24.2 54.2c.1 0 .2.1.2.2s-.1.2-.2.1c-.1 0-.1 0-.2-.1 0-.1.1-.2.2-.2z" fill="#f0e8e2"/><path d="m24.1 55.1c.1-.2.2-.2.3 0l-.1.1z" fill="#f0e8e2"/><path d="m24.5 55.1.2-.2c.2.2 0 .2-.2.2z" fill="#f0e8e2"/><path d="m23.9 55.3.2-.2c0 .2 0 .3-.2.2z" fill="#f0e8e2"/><path d="m24.4 55.1h.2c.1.2 0 .2-.2.3-.1 0-.1-.1-.1-.1 0-.1 0-.1 0-.1z" fill="#f0e8e2"/><path d="m16.9 56.7.2.2z" fill="#f3ebe6"/><path d="m37.5 53c-.1.3-.2.6-.2.9-.2.1-.1.3-.2.4s-.5.7.2.5c.3-.1.6-.1 1 0 0 .1-.1.3-.1.4-.5 1-.5 1 .5 1.6.2.1.6.6.6-.2 0-.4.4-.2.7 0s-.1.4.2.5c.3-.1.4-.4.7-.7-.1 1 .3 1.9 1.1 2.4v.2c-.2.4-.4.8-.5 1.3 0 .2-.1.4-.2.6 0 .1-.1.3-.2.4-.8 0-1.6.4-2.4.1-.4 0-.8-.8-1.1.1-.1.2-.3.3-.5.3s-.5 0-.6-.2c-.9.1-1.4-.7-2.1-.9-.2-.1-.3-.1-.5-.2-.3-.6-1.2-.3-1.4-1 .1-.7.9 0 1.1-.6.1-.1.3-.3.4-.3.2-.1.3-.2.5-.3.1 0 .2-.1.3-.1s.2.1.3.1c1.1.3.5 1.1.4 1.8 1-.3 1-.3.7-1.3-.1-.2 0-.4.2-.5h.1c.7-.3 1.5-.6 2.2-.1.5.7-.1.9-.6 1.2 1.4.6 1.4.6 2.7-.1-.9.1-1.5 0-1.3-.9 0 0-.2 0-.3-.1-1.1-.5-1.8-1.6-2.9-1.9-.4-.2.3-.6-.1-.8h-.2l-.5.1c-.1 0-.2 0-.3-.1-.2-.2-.5-.3-.6-.6.1-.2 0-.4-.1-.6 0-.1 0-.2 0-.3s.1-.2.1-.4c0-.1.1-.1.2-.2.1 0 .2-.1.3-.1s.2-.1.3-.2c0-.1.1-.1.1-.2z" fill="#f5efeb"/><path d="m24.8 58.9c-.3-.5-.5-1-.6-1.6.2-.2.4-.2.6-.2h.8c.8.1 1.5.2 2.3.4.1.2.2.4.2.7 0 .1 0 .2.1.3s.1.2.1.2c.3.2.6.5.8.8.5.7.9.8 1.4 0 .3 0 .5.3.5.5 0 .1 0 .1-.1.2.1.4-.2.7-.2 1.1-.4.5-.5 1.1-.9 1.6s.2.9.2 1.3c0 .1-.1.2-.2.2-.2.1-.5.1-.7 0 .2.2.4.1.6.1l.1.1c-.2.5.2 1.2-.7 1.3-.3-.5-.5-1-1.2-.5-.1-.1-.2-.3-.1-.4 0-.3 0-.6-.3-.6s-.1.4-.4.5c-.1 0-.1 0-.2 0-.6.2-1.2-.1-.9-.5.8-1-.1-1.9.1-2.9 0-.4-.1-.7-.1-1.1 0 .5-.3 1-.6 1.3h-.2c-.5 0-.2-.8-.7-.8-.2-.1-.3-.4-.2-.7.7-.2.1-.7.2-1.1 0-.1.2-.1.3-.2z" fill="#f5f0ec"/><path d="m36.4 61.7h.6c.2.2.3.6 0 .9 0 .4.2.5.6.6s.7.3.4.7-.3 1-.9.3c-.1-.1-.2-.2-.4-.1-.1.1-.2.3-.1.5.1.3.4.7-.3.5-.2-.4-.7-.3-.9-.7-.8-.4-.3-1.3-.9-1.9.8-.2 1.8.6 1.9-.8z" fill="#fdfcfc"/><path d="m30.9 60.2c-.1-.2-.2-.5-.4-.7-.1-.5.2-.7.6-.8.8-.3 1.2.2 1.4.8.1.3.4.5.7.4.3 0 .6.2.7.6v.1c-.1 0-.2 0-.3 0-.5-.2-.5.8-1 .3-.3-.3-.7-.5-1.1-.7-.3 0-.5 0-.6 0z" fill="#f9f5f3"/><path d="m32.7 67.4c-.3.2-.7.3-1.1.2 0-.4.3-.6.4-.9-.3-.4-.4-1-.2-1.5.5-.2 1.3.2 1.2.6s.1 1.2-.3 1.6z" fill="#fcfbfb"/><path d="m29.8 64.3c0-.3-.1-.5-.3-.7-.1-.2-.4-.3-.2-.5.5-.6.5-1.6 1.4-1.9 0 .8-.4 1.6-.4 2.4-.1.4 0 .8-.5.7z" fill="#f3ece7"/><path d="m35.5 64.3c.5 0 .9.1.9.7-.1 0-.3-.2-.4 0-.3.6-.5 1.2-1.3.4-.1-.1-.2 0-.3 0s0 .6-.4.2c-.2-.1-.2-.4 0-.5 0 0 .1-.1.2-.1.2-.1.4-.2.6-.2.3 0 .6-.2.7-.5z" fill="#fcfaf9"/><path d="m31.8 65.2c.4.4.1 1 .2 1.5-.3 0-.7 0-.7-.5 0-.2 0-.4-.1-.6s-.4-.3-.2-.5.5 0 .8.1z" fill="#faf7f6"/><path d="m29.8 64.3c.3-.1.1-.5.4-.7.6.1.5.6.4.9s-.5.1-.8 0c-.1.1-.1 0 0-.2z" fill="#f7f3f0"/><path d="m37.2 66.8c.2.1.2.2.2.4-.1-.1-.2-.3-.2-.4z" fill="#faf8f6"/><path d="m30.2 69.6v-.2h.2z" fill="#fbf9f7"/><path d="m34.6 71.1-.2.2z" fill="#faf8f6"/><path d="m37 62.6v-.9l.4-.2c.2-.1.3 0 .4.1s.2.3.1.5.3.3 0 .4c-.3.3-.6.3-.9.1z" fill="#faf7f5"/><path d="m38.6 63.5.2-.2c0 .1 0 .2-.1.3 0 0-.1-.1-.1-.1z" fill="#faf7f5"/><path d="m38.6 61.3c.4 0 .9.2 1.3-.2s.7.2 1.1.2c.2.3.1.5-.1.7s-.3.3-.6.2-.4-.2-.7-.2c-.4 0-.8 0-1.2-.1-.1-.1-.1-.1-.1-.2s.1-.2.2-.2z" fill="#f6f0ed"/><path d="m38.3 61.5c.3.5 1 0 1.3.4 0 .3 0 .9-.5.4s-.8-.2-1.2-.2l-.2-.4c.2-.2.4-.4.6-.2z" fill="#fcfaf9"/><path d="m40.3 62.2.4-.2c.2-.2.5-.2.7 0v.2c-.4.6-.7.1-1.1 0z" fill="#fcfaf9"/><path d="m42.5 63.5c.1 0 .2.2.2.3-.1.2-.3.3-.5.3 0 0-.1-.2-.1-.3s.2-.3.4-.3z" fill="#f8f4f1"/><path d="m44.3 63.7c0 .2-.1.4-.3.4s-.2 0-.2-.1.2-.2.3-.3z" fill="#f9f5f3"/><path d="m41.4 61.9h-.7c.1-.2.2-.4.2-.7v-.4c.1-.1.1-.3.2-.4 0-.5-.1-1.1.7-1.3.3.1.2.4.3.6.5.7.5.7-.3 1.2-.3.2-.1.7-.4 1z" fill="#f8f4f2"/><path d="m14.7 62.4c.7-.4.7.5 1.1.7-.8.3-.8.3-1.1-.7z" fill="#fcfaf9"/><path d="m14.5 64.1c-.1.4-.6.5-.9.7-.1-.4.2-.8.3-1.2.3 0 .4.3.6.5z" fill="#f9f6f3"/><path d="m15.8 63v-.4c.3 0 .4-.1.7-.2.1.2.2.4.2.7h-.9z" fill="#fcfaf9"/><path d="m30.2 69.7c-.1 0-.1-.1 0 0-.1-.1 0-.1 0 0z" fill="#fbf9f7"/><path d="m25.4 37.6c0 .2 0 .3-.2.4 0-.1 0-.3.2-.4z" fill="#f3ece7"/><path d="m37 54.3c-.1-.2-.2-.5.2-.4 0 .1 0 .3-.2.4z" fill="#f3ede9"/><path d="m34 51.6c-.1-1 .9-1 1.3-1.5 1.2-.2 1.3-.2 1.5.9-.1.5-.8.4-.9.9-.5 0-.9-.2-1.3-.4-.3-.3-.4 0-.6.1z" fill="#f2eae5"/><path d="m34.4 54.4c-.2.2.8.5 0 .7-.5 0-.9-.3-1.4-.5-.1-.2 0-.4.2-.4.4-.2.2-.7.4-1s.4 0 .5.2.1.4.1.6v.2c.1.1.1.2.2.2z" fill="#f3ede9"/><path d="m33.3 54.3c-.2.1-.2.3-.2.4-.1.1-.3.2-.4.2s-.2 0-.3-.1c-.2-.2-.3-.4-.3-.7.1-.2.2-.4.3-.5l.4-.2c.4.2.3.6.5.9z" fill="#463934"/><path d="m34.4 54.4h-.2c-.1 0-.1-.1-.2-.2l.2-.9c.2 0 .2.2.4.2s.2.1.1.2v.2c0 .1-.1.2-.2.3s-.1.2-.1.2z" fill="#5d504c"/><path d="m33.3 51.4c.2-.2.3-.3.5 0-.1.1-.1.1 0 .2h.1s-.1.1-.1.2c-.5.1-.5-.1-.5-.4z" fill="#8d807a"/><path d="m34.6 53.8c0-.1-.1-.1-.1-.2h.5s.1.1.1.1-.1.1-.1.1z" fill="#f3ede9"/><path d="m33.3 52.8.2.1c-.2.1-.2-.1-.2-.1z" fill="#837873"/><path d="m35.3 53.4v.2c0 .1-.1.1-.2 0z" fill="#f3ede9"/><path d="m36.8 51c-.2-.7-.9-1-1.5-.9.5-.3 1.1-.6 1.7-.7.2.3.3 0 .4 0l.4.2c0 .2.6.3.2.6s-.6.8-1.2.8z" fill="#f1e9e3"/><path d="m20 60.4c-.4 0-.6-.3-.9-.4-.2.1-.3 0-.2-.2s.3-.2.4-.3c.3-.2-.2-.7.3-.8s.5.4.8.5.5 0 .6-.2c.2-.6 1-.7 1.3-1.3.1-.3.5-.4.7-.3s.3.4.2.7c-.1.5.1 1 .3 1.4-.1.2-.1.2.1.2.2-.1.4-.1.6 0 .1.1.1.3.1.4-.3.4-.4.9-.3 1.4 0 .2-.1.4-.3.4-.2-.7-.8-.7-1.3-1-.1-.1-.3-.1-.4 0-.1.3-.4.5-.7.4-.1 0-.2-.1-.3-.2-.4-.2-.4-.4-.5-.8-.1-.6-.4-.1-.5.1z" fill="#fbf9f8"/><path d="m23.7 61.7c.1-.1.1-.3.2-.4.1-.3.4-.5.7-.4.4-.2.7-.3.7.3 0 .2-.2.4 0 .6-.2.2-.3.5-.3.9 0 .3-.9.8-1.1.5s-1-.3-.6-1c.2-.1.3-.3.4-.5z" fill="#f5eeea"/><path d="m16.5 61.9c.1-.7.9-.8 1.2-1.4.1-.2.6-.1.8 0 .2.2.4.3.7.2 0 .5-.4.9-.8.8-.8.1-1.4.2-1.9.4z" fill="#fbf9f8"/><path d="m26.3 61.5h.2c-.1.8 0 1.5.3 2.2.1.2 0 .4-.2.3s-.5 0-.4.3.2.8.7.4v.5c0 .4-.1 1-.5 1.1s-.6-.4-.8-.7c-.8-.7-.2-1.3.1-1.8.3-.3.4-.8.1-1.1.1-.3-.2-.6-.2-.9v-.2c0-.1.1-.2.2-.3h.2c.2.1.3.1.3.2z" fill="#f5eeea"/><path d="m25.9 61.5-.2.2h-.2c.2-.6.3-1.2.2-1.8 1 .3 1 .3.7 1.6h-.2c-.2-.1-.3-.1-.3 0z" fill="#f7f2ef"/><path d="m25.6 61.9c.4.2.6.5.2.9-.2-.2-.6-.5-.2-.9z" fill="#f5f0ec"/><path d="m17.3 60.2-.7.5c-.4-.8-.4-.8 0-1.4.2-.1.2-.3.1-.5 0 0 0 0-.1-.1-.1-.2-.3-.4 0-.5s.4-.2.6-.2.1.3.1.5c0 .4.1.6.5.3s.6 0 .9.2c-.1.4-.7.2-.6.7 0 .5-.5.2-.8.5z" fill="#fbf9f8"/><path d="m24.1 59.5c-.2 0-.5.1-.6.3-.1.1-.3.1-.4 0-.2-.1-.2-.3-.1-.5.2-.3.4-.1.5 0 .2-.5.7-.7 1.1-.5.1 0 .1 0 .2.1 0 .1-.1.2-.2.2-.2.1-.1.6-.5.4z" fill="#f8f4f1"/><path d="m24.8 57.3c-.2.1-.4.1-.6 0-.1-.2-.2-.5-.2-.7l-.2-.3c.3-.2.2-.6.2-.9l.2-.2h.2v.2c.2.3 0 .6.1.9 0 .2.1.4.3.6l.2.2c-.1 0-.1.1-.2.2z" fill="#4e413d"/><path d="m17.3 60.2c.2-.3.6-.2.9-.4.2-.1.5-.1.7 0l.2.2c-.1.2.1.7-.3.4-.5-.2-1-.3-1.5-.2z" fill="#faf7f4"/><path d="m31.1 45.7v.4c-.3.1-.4-.2-.6-.4-.1-.1-.1-.3 0-.5.2-.2.3 0 .4.2 0 .1.1.1.2.1z" fill="#ebdfd7"/><path d="m37 45.3c-.1.3-.4.3-.7.4 0-.5.2-.7.7-.4z" fill="#f4ede9"/><path d="m27.8 36.8h.2c.1 0 .1.1.1.2-.1 0-.1 0-.2 0 0 0-.1-.1-.1-.2z" fill="#f2e9e4"/><path d="m30.7 47.3c-.1 0-.2 0-.3 0s-.3 0-.3-.2c0-.1 0-.2.1-.2s.3 0 .4.2c0 0 0 0 .1.2z" fill="#4a3d38"/><path d="m30.7 47.3h.2z" fill="#625550"/><path d="m32.2 54c0 .2.1.4.2.7.1.1.1.2.2.2.1.5-.2.9-.6 1.1-.1 0-.2.1-.2.1h-.1c-.1-.1-.2-.1-.3 0l-.2.1c-.1 0-.2 0-.2 0-.1 0-.2 0-.2-.1-.1-.1-.2-.2-.3-.2-.1-.1-.2-.3-.2-.5 0-.1 0-.2 0-.4 0-.1 0-.2 0-.3s0-.2 0-.3c0-.2.1-.4.3-.6l.2-.2.1-.1.1-.2c0-.1.1-.1.2-.2s.2-.1.2 0c.4 0 .9 0 1.1.5-.2.1-.2.3-.3.4z" fill="#3a2c28"/><path d="m30.7 52.7c-.6-.8 0-1.5.4-2.1.1-.2.3-.2.4-.1.4.3 1 .5.9 1.3s-.4 1-1.3 1.2c-.1 0-.2 0-.3 0-.1-.1-.1-.1-.2-.2z" fill="#40322d"/><path d="m29.4 50.5c-.1 0-.4.1-.2-.2.1-.2.3-.3.4-.4l.4.3c-.2.1-.4.3-.6.3z" fill="#f3ece7"/><path d="m31 52.9c.1 0 .1 0 .1.1v.2s-.1.1-.1.1c-.3.2-.7.2-1 0v-.3c.2 0 .5-.1.7-.3 0 .2.1.3.3.2z" fill="#ede6e2"/><path d="m32.2 54c0-.1 0-.3 0-.4h.2c0 .2.1.4-.2.4z" fill="#d5cec9"/><path d="m33.7 51.6c-.2-.1-.2-.1 0-.2z" fill="#3d2e2a"/><path d="m29.6 49.5c0-.2 0-.3.2-.4 0 .1 0 .3-.2.4z" fill="#ede2db"/><path d="m30 53.2h1l-.1.2c-.1.1-.1.2-.2.2s-.2.1-.2.2c-.1.2-.2.4-.3.6v.2.2c-.1.1-.1.3 0 .4l.3.4s.1.1.1.1v.3c0 .2 0 .3.1.5.1.3.3.6.5.8.2.4.6.8.1 1.2-.5.3-1.2.3-1.6-.1-.3-.2-.4-.6-.2-.9 0 0 0 0 0-.1l.2-.2c.3-.3 0-.6-.2-.9 0-.1-.1-.2-.1-.3s0-.3 0-.4c.1-.2.1-.5 0-.8-.1-.1-.3-.2-.4-.3s-.1-.1-.1-.2c0-.2.2-.2.3-.2l.3-.1c.1 0 .3-.1.3-.2.2-.1.2-.3.2-.5z" fill="#f3ebe6"/><path d="m29.1 54.1-.2.2c-.1.2-.2.3-.3.4-.3.1-.7.1-.8-.3l.3-.3c.3-.1.6-.1.9 0z" fill="#eee5df"/><path d="m28.9 54h-.9s0 0 0-.1 0-.1 0-.1c.2 0 .5-.1.7-.1.5-.2.3.2.2.3z" fill="#483a36"/><path d="m28.8 52.5-.2.1c0-.1-.1-.1 0-.2 0-.1.1-.1.2-.1 0 .1.1.1 0 .2z" fill="#4a3d38"/><path d="m30 53.3c0 .2 0 .4-.2.5 0-.2 0-.4.2-.5z" fill="#ede6e2"/><path d="m29 53.1c-.1 0-.1-.1 0 0 .1-.1.1-.1 0 0z" fill="#4e403c"/><path d="m27.6 53.4c-.1 0-.2-.1-.1-.2 0 0 .1.1.1.2z" fill="#e3d9d3"/><path d="m29.8 53.8c0 .1-.1.3-.3.2z" fill="#ede6e2"/><path d="m28 53.8c0 .1 0 .1.1.2-.1 0-.2-.1-.3-.2z" fill="#e3d9d3"/><path d="m27.8 53.8c-.1 0-.2-.1-.2-.2.1 0 .2.1.2.2z" fill="#e3d9d3"/><path d="m27.9 57.6c-.8 0-1.5 0-2.3-.2v-.1-.3c0-.1.1-.2.1-.2l.1-.1c.2-.5-.1-1.1.1-1.6.2-.3.5-.4.8-.3.1 0 .2.1.3.2h.2c.5.3.2 1.1.8 1.3.4.2.5.7.3 1-.1.2-.3.3-.4.3z" fill="#f3ede8"/><path d="m27.8 56.4c-1-.2-.5-1-.7-1.5v-.2l.2-.2.4-.2c.2.3.6.1.9.2l.1.1c.1.1.2.3.3.5v.3c-.1.2-.1.4-.3.5-.2.3-.5.5-.9.5z" fill="#483a36"/><path d="m26.7 54.9c-.3 0-.6.1-.8.2h-.1c-.1 0-.2-.1-.2-.1l-.1-.1c-.2-.2-.3-.5-.3-.8 0-.1-.1-.2-.1-.3s0-.2 0-.2c.5.3 1.1.1 1.4-.3 0 0 0-.1.1-.1.1-.2.3-.2.5-.2.2.1.1.3.1.4-.1.2-.1.4-.1.6-.4.2-.1.7-.4.9z" fill="#3d2e2a"/><path d="m26.7 54.9c.1-.3.2-.6.3-.9v1z" fill="#e3d9d3"/><path d="m27 53.4c0-.2-.1-.3-.1-.4s0-.1 0-.2c.4.1.3.3.1.6z" fill="#e3d9d3"/><path d="m26.7 52.5-.2-.2c.1 0 .2.1.2.2z" fill="#e3d9d3"/><path d="m27.4 54.5-.2.2c0-.1.1-.2.2-.2z" fill="#e3d9d3"/><path d="m23.2 51.6c.1-.2.1-.4.3-.3s0 .2-.1.3c0 .1-.1.1-.2 0 .1.1 0 0 0 0z" fill="#574b46"/><path d="m23.2 51.6h.2c0 .2-.1.2-.2 0z" fill="#50433e"/><path d="m25 53.8c.1.1.2.2.1.3l-.1-.1c0-.1 0-.1 0-.2z" fill="#483b36"/><path d="m17.8 52.3.2.2z" fill="#f3ece7"/><path d="m24.1 56.5c-.1-.4 0-.8.2-1.1.1 0 .2-.1.2-.2l.2-.2h.7c.1.1.2.1.3.2s-.1.3-.3.4c-.1.1-.2.1-.2.2l-.1.2c-.1.1-.2.2-.2.3-.3.1-.5.4-.8.2z" fill="#3c2d29"/><path d="m31.1 58.4c.5-.5-.2-.7-.2-1.1-.1-.1-.1-.2-.2-.3l-.1-.3c0-.1 0-.2 0-.2 0-.1 0-.2 0-.2v-.1l.1-.1h.2c.1.1.2.1.2 0h.2c.1-.1.2-.1.2 0 .1 0 .1.1.1.2s0 .1.1.2h.1-.1v-.1c0-.1 0-.1.1-.2.4-.2.7-.6.7-1.1 0-.1.1-.1.2-.2h.4c.7-.5.9.3 1.3.4.2.3.6.3.7.7.4.3.6 0 .9-.2.6.3.6.5 0 .9-.2.6-.7.9-1.3.8-.3-.1-.6 0-.8.2-.3.3-.8.3-1.2 0-.1-.1-.1-.1-.1-.2 0-.2-.1-.2-.2-.1s0 .3.2.4c.1.1.1.3.1.5 0 .1-.1.2-.2.2.1 0 .1 0 .2-.1.1 0 .2-.1.2-.1.6.1.5.7.8 1 0 .5-.1.8-.7.5-.1-.1-.3-.2-.5 0-.5-.1-.5-1.1-1.3-.7-.2-.3-.2-.5-.1-.7z" fill="#f7f2ef"/><path d="m34.6 57.1c.5 0 .9-.4 1.3-.7.9-.2 1.3.8 2 .8-.3.9.4.5.8.6s.2.4.3.6c-.2.5-.4.2-.7 0-.8-.2-1.6-.1-2.3.3 0 .2.2.3.3.4.7.2.8.4 0 .8-.5.3-.8.8-1.5.8-.1-.1-.1-.2-.1-.3.1-.4.3-.8.4-1.2.1-.2-.7-.3-.6-.7-.3-.3-.3-.8-.1-1.2z" fill="#f4ede9"/><path d="m38.3 58.4c.2-.1.4.3.7 0 .2-.1.3-.6.7-.3s-.4.7-.3 1.1c.5 0 1-.5 1.4.1-.2.8-1.3.6-1.7 1.2 0 .1-.3 0-.4-.1-.2-.4-.5-.6-1-.4-.2 0-.4-.1-.4-.2-.1-.3.1-.4.3-.5.4-.2 1.1-.1.7-.9z" fill="#f7f2ef"/><path d="m33.5 59.1c-.4 0-.6-.1-.6-.6s-.3-.2-.5-.3v-.7s-.1-.1-.1-.2v-.1c.1-.1.1-.1.2 0 .5.2.9.3 1.2-.3.2-.3.6-.3.7.1-.3.3-.4.9-.2 1.3-.1.2-.3.3-.4.4z" fill="#f7f3f1"/><path d="m35.7 54.9c-.2 0-.5-.1-.4-.5s.2-.6.5-.5.7.2.7.5-.3.5-.8.5z" fill="#f7f2ef"/><path d="m38.3 61.5c-.2.1-.4.2-.7.2l-.2-.2c-.1-.3-.4-.5-.1-.8s.5 0 .7.2.4.2.5.4c0 0-.1.1-.2.2z" fill="#f4ede8"/><path d="m34.4 58.4c-.1-.7-.5 0-.8-.2 0-.7.8-.7 1-1.1v1.3z" fill="#f7f2ef"/><path d="m35.9 55.6c0 .3-.2.6-.5.6s-.3-.2-.3-.4h.2c.1-.1.3-.1.4-.2z" fill="#f9f6f3"/><path d="m34 58.9c.1-.2.2-.4.4-.4 0 .2-.1.4-.3.4z" fill="#f7f2ef"/><path d="m35.7 55.6c-.1.2-.3.2-.4.2.1-.2.2-.2.4-.2z" fill="#f7f2ef"/><path d="m41.2 60.4c0 .2 0 .3-.2.4 0-.1 0-.3.2-.4z" fill="#f6f0ed"/><path d="m34.4 54.3c0-.1.1-.2.2-.3 0 .1-.1.2-.2.3z" fill="#f3ede9"/><path d="m35.1 53.6h.2l-.2.2z" fill="#f4ede8"/><path d="m31.1 58.4v.4c-.3.1-.5.4-.7.7 0 .3-.3.7-.1 1.2-1-.4-1.8-1.2-2.3-2.1.2-.3.6-.5.7-.9 0-.1 0-.2 0-.3s0-.2 0-.3c0-.2.1-.3.3-.4 0 0 .1.1.1 0s-.1 0-.1-.1c0-.2.1-.5.3-.6.1 0 .2 0 .2.1.8.6.8.6.2 1.1-.1.3-.6.5-.2.8.5.5 1.1.7 1.6.4z" fill="#f3ece7"/><path d="m29.5 61.4c-.3.4-1 .5-.9 1.2 0 .2-.9.2-1.1 0 0-.1 0-.2 0-.3.4-.5.4-.6-.1-.8s-.3-.7-.2-1 .4.1.6.1c.5.1 1.2.4 1.7.8z" fill="#f7f2ee"/><path d="m29.1 57.6c0 .7-.4.9-1 1-.1 0-.2-.1-.2-.3 0-.3 0-.5 0-.8.1 0 .2-.1.2-.2.2-.2.6-.3.8-.1 0 0 0 0 .1.1 0 .1.1.2.1.3z" fill="#4b3e39"/><path d="m25.4 59.3c-.3-.1-.5-.6-.4-.6.5-.1.7-.9 1.2-.6s-.2.5-.2.8l-.2.2h-.2c0 .1 0 .2-.2.2z" fill="#f3ece7"/><path d="m24.5 60.8c-.1.2-.4.3-.7.4-.3-.5-.4-1 .2-1.3.2-.1.3 0 .2.2s.3.5.3.7z" fill="#f7f2ef"/><path d="m24.3 60.2-.2-.2v-.4c.1-.1.3-.3.4-.4 0 .2.1.3.2.5.1.1.5.1.3.4-.1.2-.4.3-.6.2 0-.1 0-.1-.1-.1z" fill="#f3ece7"/><path d="m29.8 64.3v.2c-.5.4-.9.2-1.1-.4.4 0 .7.3 1.1.2z" fill="#f3ece7"/><path d="m25.6 57.1v.2c-.3.1-.6.1-.8 0v-.2c.2-.2.6-.2.8 0z" fill="#41332f"/><path d="m25.4 59.3c0-.1.1-.2.2-.2v.2s.1.1 0 .1v.1z" fill="#c3bab6"/><path d="m25.9 59.1c0-.1.1-.2.2-.2 0 .1-.1.2-.2.2z" fill="#e2dbd7"/><path d="m27.9 58.3c.1 0 .2.1.2.3-.1 0-.2-.1-.2-.3z" fill="#f3ece7"/><path d="m25.7 59.5c0-.1 0-.1 0-.2s.2 0 .2.1-.2.1-.2.1z" fill="#564944"/><path d="m38.3 61.5.2-.2z" fill="#f5efeb"/><path d="m34 54.3.2.2c-.2 0-.2-.1-.2-.2z" fill="#5c4f4b"/><path d="m32.7 54.7-.2.2v-.2z" fill="#f7f2ef"/><path d="m25.9 61.5c.1-.2.1-.2.2 0z" fill="#f5f0ec"/><path d="m25.6 57.1h-.9-.2c-.1-.1-.1-.3 0-.4.1 0 .1-.1.2-.1s.2 0 .3-.1c0-.1.1-.1.1-.2.1-.1.2-.1.2-.1.3.1.6.3.5.7 0 .1-.1.1-.2.2z" fill="#3c2d29"/><path d="m24.8 56.7c-.2.1-.2.2-.2.4-.3-.1-.3-.4-.4-.7.4.1.4-.3.6-.4.1.1.2.1.4.1l.1.1v.2c-.2.2-.4.3-.5.3z" fill="#41332f"/><path d="m30.2 55.3c-.2-.2-.2-.3 0-.4z" fill="#ede6e2"/><path d="m30.5 56v-.2l.2.2h-.1z" fill="#ede6e2"/><path d="m30.2 54.7s-.1-.1-.1-.2l.1-.1z" fill="#ede6e2"/><path d="m30.5 53.8c0-.1.1-.2.2-.2z" fill="#ede6e2"/><path d="m31.8 56v.2c-.1.1-.1.1-.2 0v-.2z" fill="#f0eae6"/><path d="m31.1 56c-.1.1-.1.1-.2 0z" fill="#f0eae6"/><path d="m31.6 56c-.1 0-.1 0-.2 0 0-.1.1-.1.2 0z" fill="#f0eae6"/><path d="m30.7 53.6c0-.1.1-.2.2-.2 0 .1-.1.2-.2.2z" fill="#ede6e2"/><path d="m31 52.9c-.1 0-.3-.1-.3-.2.2 0 .3.1.3.2z" fill="#efe5df"/><path d="m29.6 56.2h-.2c-.4.2-.6 0-.6-.4 0-.2 0-.4.1-.5v-.1c.1-.1.1-.2.2-.2.1-.1.1-.1.2-.1l.2-.1h.1c.3.3.1.6 0 .9-.1.1-.2.2-.1.4 0 0 0 .1.1.1z" fill="#ede6e2"/><path d="m30.7 56.2v.2c-.1.1-.1.1-.2 0s-.5-.1-.4-.4c.1-.1.2 0 .4.1z" fill="#ede6e2"/><path d="m30.5 56.5h.2v.2c.1.1.1.2.2.2v.4c-.4-.1-.5-.5-.4-.8z" fill="#f0eae6"/><path d="m29.6 56c-.1 0-.3 0-.4-.2s.2-.2.4-.3z" fill="#eee5df"/><path d="m28.9 54.5c.2 0 .5-.1.7.2-.1.1-.2.1-.2.2-.3.1-.4-.1-.5-.3z" fill="#ede6e2"/><path d="m28.7 54.5.2-.2v.2c0 .1-.1.1-.2 0z" fill="#ede6e2"/><path d="m28.9 55.8c0 .2.1.4.3.4h.1c0 .2-.1.5-.2.7-.2.1-.2.3-.2.5h-.9c0-.3.3-.8-.3-.9.2-.4.6-.4.9-.7.2-.1.3-.1.3 0z" fill="#f3ebe6"/><path d="m25.9 56.9c-.1-.3-.4-.5-.6-.6-.1-.1-.1-.3-.2-.4v-.2l.2-.2c.2 0 .3 0 .4-.2s.1-.2.2 0c.2.4.4 1 0 1.6z" fill="#41332f"/><path d="m25.6 57.1.2-.2c.1.1 0 .2-.2.2.1 0 .1 0 0 0z" fill="#41332f"/><path d="m28.7 54.5h.2c.1.2.2.4.4.4-.1.2-.3.2-.5.2 0-.1-.1-.4-.1-.6z" fill="#eee5df"/><path d="m28.9 55.8h-.2c.1-.2 0-.4.2-.5z" fill="#eee5df"/><path d="m25.9 55.2h-.2c-.1-.1-.3-.1-.2-.3.1 0 .3-.1.4.3z" fill="#f0e6df"/><path d="m25 55.8c.4 0 .3.2.2.4-.2 0-.4 0-.4-.2z" fill="#4f423e"/><path d="m25.2 55.4c0 .1-.1.2-.2.2 0-.1.1-.2.2-.2z" fill="#534642"/><path d="m32.5 57.4v.2c-.2 0-.4.4-.6.1s0-.6.4-.7c.1 0 .3.1.3.2-.1 0-.1.1-.1.2z" fill="#493c38"/><path d="m32.4 57.2-.2-.2c.1-.2.3-.2.5-.2s.3 0 .3.2-.2.1-.4.2c0 0-.1 0-.2 0z" fill="#f2ebe7"/><path d="m31.6 56.2h.2v.1.1.1s-.1.1-.2.1c0-.2 0-.3 0-.4z" fill="#c5beba"/><path d="m32.4 58.2v.2c-.1-.1-.1-.1 0-.2z" fill="#f7f3f1"/><path d="m32.4 57.2h.2v.2h-.2z" fill="#473a35"/><path d="m30.9 56.9-.2-.2z" fill="#f3ebe6"/><path d="m31.8 56.5v-.2l.1.1z" fill="#a39a96"/><path d="m30.7 56.2-.2-.2h.2z" fill="#f0eae6"/><path d="m36 57.6c0-.3.2-.4.4-.4.4 0 .8.1 1 .5.1.1 0 .3-.1.3s-.1 0-.2 0c-.3-.2-.8 0-1.1-.4z" fill="#f5efeb"/><path d="m29.1 57.6c-.1-.1-.2-.2-.2-.3.1.1.2.2.2.3z" fill="#f3ebe6"/><path d="m29.7 57.3c.1-.1.1-.1 0 0z" fill="#f3ebe6"/><path d="m24.8 56.7c.1-.2.2-.2.4-.2v.2c-.1.1-.3.1-.4 0z" fill="#514440"/><path d="m24.8 56.7h.4c-.1.2-.3.2-.4 0z" fill="#41332f"/><path d="m29.4 54.9.2-.2z" fill="#eee5df"/></svg>