<svg id="Ebene_1" data-name="Ebene 1" xmlns="http://www.w3.org/2000/svg" viewBox="0 0 741.26 768"><defs><style>.cls-1{fill:#fff;}</style></defs><path d="M493.07,115.59l7.88-7.44,5,2.21-1.32,2.49.59.36,1.34-1.58c2.74,2.09,3.22,4.08.34,6.69-2.35,2.13-4.22,4.77-7.2,8.21,1.75-.45,2.64-.41,3-.82,1.88-2.18,3.51-4.56,5.46-6.67a6.9,6.9,0,0,1,3.3-1.59c.26-.07.78,1.37,1.37,1.91,1.1,1,2.34,1.89,3.52,2.83l3.17-4.32-.94-.6L517.44,119l-1.12-.37c.85-1.72,1.7-3.44,2.32-4.71l-2.21-4.71c0,.1-.15.62-.27,1.15l-1-.36c-.39-2.94-.77-5.87-1.29-9.8,4.18-.69,8.7-1.24,13.12-2.22,3.42-.76,6.64-2.41,10.06-3.07,8-1.55,16-3.39,24-3.87,6.75-.41,13.62.77,20.41,1.55,3.57.41,7.07,1.45,10.6,2.21,9.54,2,16.52,8.46,23.94,14,5.35,4,10.75,8.23,14.84,13.36a25.88,25.88,0,0,1,5.6,21c-1.23,7.83-.46,15.95-.92,23.92-.09,1.53-2.16,2.85-2.69,4.47a54.48,54.48,0,0,0-2.69,10.72c-1,9.31-1.25,18.71-2.59,28-1.12,7.69-2.44,15.58-5.31,22.74-5.34,13.3-11.65,26.25-18,39.11-3.25,6.56-8.76,11-15.23,15.1-6,3.77-11.53,4.44-18,3.82-3.13-.3-6.38.57-10.13,1l2.65,9.38,2.93-1V303c6.81-1,7.23,4,8.34,8.48.16.65,1.19,1.18,1.92,1.59,3.18,1.77,6.37,3.53,9.62,5.16A43.74,43.74,0,0,0,591,320c1.44,2.82,3.32,6.19,4.9,9.69,3.62,8.05,6.43,16.28,6.41,25.27,0,7.94.34,15.89.52,23.83.22,10.13.6,20.26.62,30.38,0,11.75-.22,23.51-.5,35.26-.23,9.08-.71,18.16-1.08,27.23,0,.45.05,1-.2,1.31-5.27,5.92-5,14.41-9.87,20.5-2.33,2.89-5.14,5.53-6.84,8.74-1.46,2.75-1.65,6.15-2.73,10.65-3.64,3.09-2.91,9.42-4.29,14.93s-2,11.32-3.09,17c-1.51,8-3,16.1-4.72,24.09-.82,3.74-2.32,7.34-3.44,10.78,3.88,2,7.57,4,11.39,5.82,4.2,2,10.24,10.35,9.36,14.73-.38,1.91-3.16,4.3-5.24,4.78-10,2.25-20,4.66-30.18,5.52-5.48.46-11.23-2.08-15.88-3.06-3.58,1.13-6.8,2.14-10,3.17a7.36,7.36,0,0,0-2.71,1c-5,4.74-11.45,4.24-17.55,4.29-5.91,0-11.82-.72-17.74-1.14-8.86-.63-14.33-6.59-12.72-14,1.05-4.83,4.62-6.56,9.3-7,2.63-.24,3.83-.79,3.18-4.57-1.33-7.75-1-15.77-1.43-23.68-.31-6-.52-12-1-18-1.41-16.89-3-33.78-4.4-50.68-.65-7.79-1.13-15.6-1.54-23.41-.17-3.3,0-6.62.07-9.93,0-.36.1-1-.08-1.06-6-3.55-3.75-9.41-4-14.43-.56-9.17-.78-18.36-1.07-27.54a8.93,8.93,0,0,0-.55-4.29c-3,5.08-6,10.15-9.21,15.55l-1.89-2.33c-11,12.73-21.89,25.38-32.88,38.14l-5.38-.61c.51,2.82,1.5,5.49,1.34,8.1a26.07,26.07,0,0,1-2.2,10,42.74,42.74,0,0,1-8.26,11.73c-1.8,1.72-5.66,1.38-8.61,1.85-1,.15-2.14-.42-2.95-.07-8.13,3.53-15.8,2-20.37-5.59a195.58,195.58,0,0,1-13.88-27.87c-2.83-7.13-7.44-12.61-12.36-18.14s-9.72-11.48-14.74-17.07c-5.87-6.56-12.1-12.81-17.88-19.44-3.31-3.81-6-8.12-9.55-13,.42,9.74.06,18.74,4.48,27.07a7.27,7.27,0,0,1,.41,2.37c.41,3.12.47,6.33,1.28,9.35,2.24,8.39,4.33,16.86,7.32,25,4,10.95,8.85,21.62,13.31,32.42.46,1.1.77,2.25,1.12,3.39,1.4,4.62,2.65,9.29,4.23,13.85,2.31,6.66,4.79,13.27,7.33,19.86,2.7,7,4.62,14.58,8.67,20.79,2.47,3.79,2.7,7.08,2.65,10.86,0,1.4-.9,2.79-1.38,4.19a20.25,20.25,0,0,0-3.85-1.66c-3.58-.75-7.2-1.75-10.82-1.79-6.07-.06-12.22,1.2-18.21.62-3.86-.37-7.7-2.69-11.15-4.78s-6.13-3.1-9.78.39c-3.09,3-7.62,4.42-11.31,6.82a5,5,0,0,0-2,3.58c0,8.67.66,17.35.33,26-.22,5.9,1.25,8.67,6.76,10.78,7.53,2.88,15.12,5.8,22.14,9.66,2.12,1.16,3.67,5.66,3.32,8.36-.7,5.23-3.85,9.23-9.13,11.85-11,5.42-22.19,5.48-33.75,3.1-3.34-.69-6.89-1.15-9.86-2.65-6.58-3.32-8.73-9.76-8-16.18.64-5.27,3.8-10.24,5.81-15.35a5.52,5.52,0,0,0,.54-2c-.13-10.53-.31-21.06-.45-31.59,0-1.28.12-2.56.26-5.14.9,1.82,1.21,2.46,1.52,3.07l1.94-1.41c0,7.12-.16,13.65.05,20.16.15,4.57.75,9.14,1.31,13.68a2.35,2.35,0,0,0,1.78,1.39c3.39,0,6.79-.16,10.18-.41a2,2,0,0,0,1.29-1.37c.13-9.86,0-19.73.29-29.59.18-5.85-4.38-3.8-7.21-4.66-4.75-1.45-9.52-2.83-14.3-4.18-1.45-.41-3-1.09-4.42-.84A62,62,0,0,0,257.57,565c-3.42,1.26-2.47,3.51-.63,5.83l1.07-1.24a5.72,5.72,0,0,1,.26,1.28c-.81,7.76-2.17,15.52-2.27,23.3-.08,5.41,1.95,10.82,2.34,16.28a41.52,41.52,0,0,1-1.11,11.68c-2.75,12.45-11.27,13.62-24,12.91a46.35,46.35,0,0,1-18.31-5.12c-6.62-3.46-11.86-9.09-13.22-16.9-.22-1.28,1.21-3.66,2.48-4.22,9.37-4.18,18.89-8,28.33-12a2.37,2.37,0,0,0,1.05-1.87c-.28-10.19-.7-20.37-1-30.56,0-1.31.55-2.64.95-4.44L232,557l2.63,1.75c.16-.14.47-.34.44-.4-.25-.56-.42-1.4-.87-1.6-4-1.73-7.7-1-11.46,1-7,3.8-16.83,2.11-23-3-1.69-1.42-4.82-1.83-7.2-1.64-4.83.37-9.58,1.6-14.41,2.14-.8.09-2.68-1.62-2.58-2.26,1.25-7.62,2.71-15.21,4.27-22.77,1-4.87,2.08-9.74,3.47-14.5,1.74-6,3.86-11.8,5.75-17.71a10.38,10.38,0,0,0,.14-2.57c-1.41,0-3,.29-4.18-.19-2.1-.81-4.69-1.7-5.77-3.37s-1-4.46-.92-6.73c.37-10.65.89-21.29,1.41-31.94a20.75,20.75,0,0,1,.64-4.64c3-11,6.06-22,9.27-32.93,1.63-5.54,3.86-10.92,5.3-16.5.41-1.61-.65-3.87-1.63-5.48a87.33,87.33,0,0,0-7.09-10.18,6.23,6.23,0,0,0-4.26-1.78c-4.29-.09-11.67-7.26-12.37-12.39-.75-5.46-4.11-7.46-9.65-5.29-3.8,1.49-7.27,3.77-11.06,5.3-1.61.64-3.66.25-5.51.32,0-1.79-.74-3.89,0-5.32q8.84-17.73,18.13-35.23c2.84-5.37,6.42-10.39,8.89-15.91,1.65-3.69,1.27-8.28,3-11.92,3.5-7.43,8.08-14.36,11.7-21.74,2.07-4.23,3.24-8.91,4.53-13.47.2-.73-1.09-1.87-1.68-2.83l-2.12-3.49c1.07-.55,2.16-1.06,3.19-1.67.65-.39,1.69-.92,1.72-1.44,1.19-18.94,6.17-37.21,10-55.68A83.18,83.18,0,0,1,217,165.56c3.56-4.48,6.21-9.74,10.18-13.78,10.68-10.89,22.46-20.32,38.36-22.95.73-.12,1.59-1.25,1.84-2.07,1.22-4,2.15-8.12,3.4-12.13a23.68,23.68,0,0,1,2.45-4.94c2.47-4.13,5.17-4.37,8.61-.88,3.93,4,5.36,4.14,8.27-.45,2.06-3.25,4.36-2.82,7.3-2.16a28.93,28.93,0,0,0,5,.15c5.12.23,10.23.59,15.36.66,1.39,0,2.81-1.22,4.2-1.18,4.55.16,9.1.61,13.64,1,2,.17,4,1,5.9.62,4.66-.83,7.9.62,10.15,4.64a2.07,2.07,0,0,0,1.63.68c4-.2,6.18,1.42,6.86,5.42.79,4.66,2.11,9.22,2.92,13.87.2,1.1-.69,2.38-1.09,3.58-1.33-.59-3.54-.9-3.85-1.81-1.57-4.73-2.66-9.61-4-14.84-4.64,1.51-6-3.14-8.78-5.64-.73-.65-2.23-.58-3.38-.61-1.84,0-3.82.52-5.51.05-5.52-1.53-10.59-3.07-16.53-.21-2.6,1.26-6.88-.86-10.4-1.43a28.11,28.11,0,0,0-4.35-.61c-3.12,0-6.26,0-9.36.29a4.09,4.09,0,0,0-2.87,1.52c-3,5.35-7,6.08-11.7,1.94-1.15-1-2.36-2-4.22-3.54l-7.37,17.15,10.95-2.09c8.29-6.09,33.56-6.75,54.54,4.26l-2.42.31c3.29,1.73,7.66,6,10.34,5.1,9.47-3,15.92,3.14,23.36,5.78,9.09,3.23,15.84,9.77,21.69,17.44a65.57,65.57,0,0,1,13.37,34.47c.8,8.53,2.56,17.07,2.37,25.57a252.57,252.57,0,0,1-3.2,34.26c-1.58,10-.55,19.53,1.19,29.31,1.33,7.53.85,15.35,1.95,22.93,2.29,15.67,4.86,31.31,7.82,46.87,1.05,5.55,3.63,10.82,5.33,16.28a3.13,3.13,0,0,1-.88,2.84c-5.86,3.27-11.95,3.57-18.34,1.3-2.26-.8-4.87-.63-7.31-.9-2.84-.31-5.76-1.17-8.5-.8-4.27.58-8.43,2-12.62,3.06-1.4.36-2.87,1.43-4.13,1.2-9.07-1.67-18.1-3.55-27.11-5.46-.87-.19-1.58-1.09-3.09-2.18l-5,1.05c1.15,2.35,2,4.46,3.16,6.41a161.83,161.83,0,0,0,20.6,27.78c6.6,7.23,11.39,16,17.1,24.06,3.23,4.55,6.62,9,10.1,13.38a48.39,48.39,0,0,0,7.28,8c1.77,1.41,4.81,2.62,6.75,2.08,1.67-.47,4.2-1.11,4.83-4.87,1.53-9.25,6.87-16.54,14.07-23.25a301.32,301.32,0,0,0,32.31-34.64c12.2-15.61,22.8-32.43,34.1-48.73,3-4.26,6-8.5,9-12.84-3.51-1.35-3.71-6.47-.24-9,4.08-3,8.8-5.17,13-8.06,1.29-.9,1.8-3,2.53-4.55,3.43-7.44,7.94-8.66,14.4-4.12,1.13-2.39,2.57-4.77,3.28-7.34.25-.86-1.08-2.78-2.13-3.25-8.72-3.9-18-6.88-26.22-11.52a34,34,0,0,1-15.27-19c-3.52-10.3-7.36-20.62-9.38-31.24-1.71-8.95-1.1-18.34-1.36-27.53-.16-5.75,0-11.51,0-17.37-2.16-.52-4.81-1-2.09-4.23a.9.9,0,0,0,.15-.83c-4.41-5.21-.89-10.53-.2-15.77,1.41-10.68,5.12-20.64,10-30.19,2.33-4.54,4.32-9.3,7.16-13.5a123,123,0,0,1,11.72-14.74c3.58-3.87,10.69-3.73,14.82-.56.83.63,2.15.65,4.51,1.31l-7.45,5.21-.79-1,2.09-1.74c-1.21-3.53-9.93-1.82-16.09,7l1.43,1.82c-2.74.09-9.12,8-8.94,11.39ZM588.6,389.5c3.14-2.46,7.48-14.53,5.75-18.19l-5.71,18.23q-3.6,7-7.21,14l1.49.71a47,47,0,0,0,2.41-4.88C586.52,396.11,587.52,392.79,588.6,389.5ZM570.89,120.91,587,127.69l.12-.24,4.42,1.72c.16-.41.31-.82.46-1.22l-21.15-7a9.46,9.46,0,0,0-2.12-1.57c-4.51-1.62-9-3.24-13.6-4.65-3.41-1-6.93-1.77-10.4-2.64l-.27,1ZM220.1,618.84l0,0c-.76,2-2.3,4-2,5.82.19,1.12,3.16,1.78,4.65,2.53,1.26-2.71,1.8-5.2,3.32-6.81,2-2.15,5.06-3.36,7.18-5.45s3.32-4.52,5.68-7.88L243,603.9c-5.16-3-9.06-1.89-12.23,2.44-1.86,2.54-4.6,4.46-6.95,6.65l-1.13-1L227,607.3l.78.14,3.17-4.72c-3.19,1.69-5,2.61-6.82,3.63-.94.54-2.34,1.94-2.62,1.74-3.77-2.74-6.11.62-8.66,2-5.2,2.84-5.32,6.81-.57,10.36a1.8,1.8,0,0,0,1.65-.37c2-2.08,3.76-4.37,5.83-6.36.56-.54,1.9-.31,2.77-.42L218,619.09ZM611.36,134l1.4-3.17c-7.41-3.13-14.39-6.5-21.67-9-7.54-2.64-15.37-4.49-23.07-6.69a142.58,142.58,0,0,0,18.64,8.15l19.69,7.58-2.82,2.41,2.2.83c.26-.91.43-1.53.55-1.94l5.12,1.85-2.21,1.18,4.18,1v3.24c-4.13-1.19-7.91-2.25-11.67-3.37-7-2.11-14.15-4-21.05-6.46-11.18-4-22.24-8.3-33.28-12.64a91.52,91.52,0,0,1-8.63-4.46l.81-1.17c-3-1.55-6.17-7.3-9.31,1.09l27.67,11.92c.06-.23.11-.47.17-.7L581.75,132l.09-.13,5.68,2.22.13-.4L603,139.27c-.08.25.17-.51.47-1.39l3.39,2.34-1.7,1.38.25.45,2.45-1,1.17,2.26c.25-.94.39-1.45.18-.68l12.84,6.53-2.59-8.87-1.45.23c-.09,1.36-.18,2.73-.28,4.3l-2-1.41c.67-1.57,1.24-2.93,2-4.7l-2.77.48V134.7l1.54,1.92C616.22,133,613.75,133.53,611.36,134ZM360.46,290.57c-2.43,1.74-5.13,3.22-7.21,5.3a12.52,12.52,0,0,0-3,5.64c-.86,3.4-1.17,6.93-1.71,10.41-1.12,7.24-2.21,14.49-3.39,21.72a8.6,8.6,0,0,1-1.23,2.29c.34.68,1.22,1.7,1.28,2.77s-.75,2.06-1.33,3.47c1.05-.46,1.59-.7.9-.39,1.19,1.56,2.06,2.72,2.94,3.88a42.47,42.47,0,0,0,2.5-4.58c.46-1.15.3-2.52.68-3.71a9.34,9.34,0,0,1,1.47-2.15c.23.87.83,1.85.62,2.61-1.28,4.58.58,7.89,4.88,8,.81-3.9,1.62-7.83,2.4-11.56-.12-1.66-.23-3.18-.33-4.7h.68c.25-3.25.5-6.5.8-10.57l2.18,4.61.87-.56-1.59-1.64,1.79-.43c.89-4.91,1.71-9.48,2.53-14.06l-.39-.42-3.81,12-.84-.26,6.44-30.71-1.42-.67-6.74,3.73Zm-28.31,22,0,0c.56-2,1.19-3.9,1.62-5.88a5.73,5.73,0,0,0-.41-2.12L320.19,310l-26.81,4.65,1.24,2.72,2.05,13.79.59.24L293.84,340c4.49-1.67,7.74-3.16,11.15-4.07a103.32,103.32,0,0,1,10.46-1.69c.25-4,.55-9,.9-13.94a17.75,17.75,0,0,1,.5-3.32c0-.17,1.33-.28,1.38-.17.38,1,.61,2.1.95,3.37h1.19c-.77,6.34-1.52,12.57-2.32,19.2a14.52,14.52,0,0,0,1.06,3.52c2.51,4.2,7,4.3,11.16,4.68,2.69.24,5.46-.72,8.2-.75,5.31,0,3.31-3.24,2.87-5.87,0-.3.4-.67.43-.71-.72-.78-1.76-1.42-1.69-1.91.72-4.94,1.62-9.85,2.47-14.78,1.36-7.89,2.73-15.79,4.2-24.31-6.62,2.5-4.62,8.37-7.79,13.19.33-3.73.58-6.55.82-9.37l-.73-.52-3.45,6.26.3,4.63ZM236.47,236l15-8.22L249.84,230l6.69-3.2-2.82-1c1.1-.52,1.86-1.16,2.2-1,4.62,2.26,6.92-2.12,10.27-3.41a2.41,2.41,0,0,0,1.09-1.67q1-5.83,1.73-11.69a6.41,6.41,0,0,0-.4-2c-.65.21-1.49.25-1.93.67-2.23,2.11-4.12,4.62-6.57,6.42-2.6,1.9-5.38,3.38-5.46,7.09,0,.35-.83.67-1.67,1.3l.64-2.89c-1.14.62-2,.84-2.37,1.38s0,1.33-.08,2-.19,1.18-.47,2.89l-1.28-3L235,233c-1-1.86-3-3.93-2.52-4.85.94-1.91,3.16-3.21,4.86-4.77l0,0c.58.84,1.15,1.67,2,2.9l15.14-11.48c-.19-.71-.35-1.32-.26-1l4-3.49h-4.66l2.83-2.22.24-2.79,2,5.31,6.27-5.74-1.56-2.54,1.21-1,.91,3.24.92-.76v-2.93l1.91,1,2.56-2.75-3.63.65,6.71-4.62.53.26.43-2.49,1.75.79c-.06-.78-.1-1.32,0-.65,2.9-2.53,5.21-4.41,7.35-6.45,6.1-5.79,12.2-11.58,18.15-17.51,3.9-3.89,7.56-8,11.22-12.13.45-.51.22-1.62.26-2.46,0-.07-.35-.16-.57-.26l-1.09,1.64a9.37,9.37,0,0,0-5.6.94c-2.66,1.15-5.48,3.68-7.87,3.31-4.58-.71-5.72,2.71-8.05,4.68s-3,6-7.38,4.61c-.14,0-.42.33-.82.65l2.09.88-3.45,3.71-.71-.38,1.2-3c-.23-.21-.67-.6-1.73-1.52l15.68-15.71.78,1c.12-1.29.23-2.57.31-3.47l-8,5,.52.88-2.3.67-.92-2,6.51-4.45c6.09-7,16.49-6.82,23.13-12.1,2.36-.13,4.56-.34,6.76-.33.68,0,1.36.58,2,.89-.51.63-.91,1.64-1.56,1.83-2.1.61-4.42.63-6.44,1.42-4,1.56-8.15,3-11.6,5.38s-5.91,5.75-8.81,8.69l1.05,1.43,4.92-1.63-.08-.67,22.15-11.71a23,23,0,0,1-1.15,5.26,31.16,31.16,0,0,1-3.79,5.81,112.54,112.54,0,0,1-7.29,9.1c-6.31,6.75-12.82,13.31-19.24,20l.28.08L283.74,192l-5.11,1.77c.86.91,1.14,1.43,1.57,1.62,3,1.29,5.63,2.72,4.72,6.7-.07.3,1,1.14,1.57,1.21a3,3,0,0,0,2.13-.68c4.79-4.41,9.57-8.85,14.24-13.4,2.85-2.77,5.32-5.91,8.27-8.57,3.14-2.83,7.44-4.73,9.82-8,5.36-7.41,9.9-15.4,14.63-23.25.83-1.37.47-3.49,1.4-4.74,3.08-4.11,2-7.3-3-8.86a124.35,124.35,0,0,1-12.69-4.41c-2.23-1-4-2.88-6.37-4.61l5.19.63.1-.86-20.7-2.58-.1.65,5.2,1-.25,1.13-3.85-1a15.82,15.82,0,0,1-2.93,1.4c-2.76.44-5.61.5-8.29,1.21-5.79,1.54-11.43,4.57-17.25,4.88-12.71.67-22.82,6.31-31.84,14.11-15.45,13.37-26.33,29.94-33.3,49a23.35,23.35,0,0,0-.7,4.85l1.43.38c1.4-4,2.8-8,4.35-12.38l.39,3.9,3.26-3q-.21,2.68-.42,5.34l-2.06-.44c-1,2.79-1.89,5.1-2.74,7.41l-.9-.38-4.82,10.72c.85-.37.26-.11-.1,0-1.88,7.94-3.7,15.64-5.52,23.35l.36.1c-1.36,7.54-2.66,14.72-3.95,21.9l1.33.51,2.85-2.25-1.17-.71,4.61-8.17-.77-.73-2,1c2.21-4.19,4.29-8.16,6.38-12.12l-.81-.51-2.16,2.53c-.86-1.6-1.67-3.09-2.2-4.06l10.17-1.13-3.2,6.35a10.8,10.8,0,0,0,2.35,1.45,3.22,3.22,0,0,0,2.32-.09c1.54-1,2.88-2.3,4.35-3.41,1-.75,2.08-1.37,3.13-2l-.37-.82-5.53,1c.93-3.24,2.06-7.15,3.18-11.06l-1.48-.4a8.53,8.53,0,0,1-.54,2.78,12.6,12.6,0,0,1-2.38,2.64,30.62,30.62,0,0,1-2.52,1.87l4.92-10.05,2.39,1.44c.21-2.68.39-4.91.57-7.18-1.51,0-2.82-.09-4.12,0s-2.76.4-5.64.84l10-5.49c2.9-4.14,5.78-7.68,8-11.59s3.9-8.36,5.93-12.83l.86.24a21,21,0,0,1,1.43-3.5c5.55-8.62,11.19-17.19,16.71-25.83.22-.34-.42-1.75-.74-1.78a42.86,42.86,0,0,0-4.94,0l1.89,5.76c-2.59-2.58-4.61-4.23-6-6.27-.29-.42,1.6-2.31,1.8-2.58a25.91,25.91,0,0,0,3.06,1.51c.12,0,.91-1,.79-1.23-1.18-2.19-.35-3.06,1.72-4.36,4.92-3.08,9.48-6.72,14.59-10.43.49,1.72.71,2.54.77,2.73l4.78-5.92.38,4,8.38-.9,8.87-3.72a2.68,2.68,0,0,1-1.15,2.87,13.78,13.78,0,0,1-3.81.75c.93,1.4,2,1.45,2.64,2a5.87,5.87,0,0,1,1.49,2.6c.08.25-.74,1-1.26,1.18-2.44.72-5.14.88-7.32,2-5,2.62-9.78,5.61-14.54,8.62-2.81,1.77-6.17,3.34-8,5.9-4.46,6.29-8.18,13.08-12.14,19.7-1.95,3.25-3.76,6.57-5.63,9.86l1.83,1.44-2.74.41-8.34,17.22,1.29.71H228.1c-1.52,3.18-3.11,5.92-4.16,8.86-1.39,3.89-2.39,7.92-3.46,11.91a5.62,5.62,0,0,0,.28,2.1c.7-.38,1.75-.59,2-1.17,1.71-3.5,3.24-7.08,4.89-10.75-2.34-2.26-.26-5.3,5.82-8,.18-1.06.35-2.1.6-3.57l1.45,1.61,25.24-23.49.29.41,16.26-13.89.78.65-6.39,8.06-.48-1.8-5,6.1c-.07,0-.86-.15-1.1.14-1.16,1.4-2.17,2.92-3.88,5.31.69-.14,0,0-.91.17l1.2-2.52-.36-.17c-1.36,1.62-2.72,3.24-4.31,5.15,0-.15.06.36.19,1.12l-1.62-.51-3.15,2.21,1.59,1.34c-2.57,1.74-5.06,3.41-6.57,4.42l-7,9.22c-.43.89-1.76,1.33-2.71,2.18-.6.53-.65,1.67-1.37,3.81l2.57-2.4.68.52-3,4c-1.08-.31-1.8-.52-1.22-.36l-12.23,13.67-2.26-.28,4.37,4.5-4.76-.56,1,1.43L211,249.42l-.07-.2-4.66,5.26A42,42,0,0,0,217,249.32c1.26-.81,2.09-2.26,3.91-4.32,1.32-.7,3.87-2,6.34-3.42,3.12-1.81,6.17-3.74,9.25-5.62Zm327.76,47.32.24-.09c1-.05,2-.05,3-.17,2.17-.26,4.35-.52,6.5-.91,11-2,21.85-4.28,27.38-15.63,7.49-15.37,16.06-30.23,19-47.46,2.23-12.87,7.18-25.34,4.42-38.76-1.22-5.92-1.82-12-3.26-17.83a11.82,11.82,0,0,0-4.21-6.6c-2.5-1.67-5.91-2-8.94-2.91-7.9-2.33-15.78-4.73-23.72-6.93-9.33-2.59-18.92-4.43-28-7.66-8.68-3.08-16.84-7.55-25.27-11.33a2.34,2.34,0,0,0-1.94.59c-.49.47-.43,1.49-.91,2-1.19,1.12-3.15,1.78-3.77,3.09-3.85,8.26-12.09,12.42-17.9,18.84-3.35,3.69-8,6.24-11.95,9.42-5.5,4.41-11,8.82-16.3,13.47-1.89,1.67-4.36,3.94-4.51,6.08-.85,12-2.43,24.1-1.14,35.9,1.38,12.54,5,25,8.95,37.06,2.75,8.33,7.59,16.25,16.26,20.3,9.19,4.29,18.43,8.71,28.09,11.72,10.53,3.29,21.61,2.71,32.48.59.44-.09.67-1.26,1.25-2.44Zm-385.13,267c2.72-.46,4.83-.39,6.53-1.19,6.31-3,14.5-2.87,17.32.49s11.39,6.11,15.09,4.07c11-6,20.35-2.92,29.9,3.36,2.77,1.82,7.33,2.85,10.43,2,7.65-2.1,14.26-2.21,21.81,1.43,10.44,5,19.89.1,28.32-6.29,4.23-3.21,8.17-3.88,13-1,3.83,2.29,8.17,4.79,12.45,5.1,7.66.57,15.45-.41,23.18-.87.38,0,1.15-1.49,1-2-2.48-6.82-5.14-13.57-7.69-20.36-4.49-12-8.8-24.06-13.46-36-3.38-8.63-7.67-16.94-10.71-25.67-3.49-10-6-20.38-9.11-30.55a2.74,2.74,0,0,0-2.28-1.37c-6.09,1.7-12,4-18.2,5.32-5.82,1.23-12.23.43-17.72,2.35-8.88,3.1-17.58,5.86-27.13,5.8-4.11,0-8.22,1.46-12.35,1.51a66.06,66.06,0,0,1-14.67-1.24c-4.53-1-8.8-3.17-13.19-4.83l.51-2.16a25.21,25.21,0,0,1,4.17,0c4.28.75,8.51,2.26,12.8,2.38,6.8.19,13.63-.49,20.44-.83,5.09-.25,10.7.71,15.14-1.1a107.23,107.23,0,0,1,29.28-7.3c6.82-.74,13.48-3.16,20.06-5.3.76-.24.7-3.47.62-5.31,0-.49-1.6-1.43-2.3-1.3-6.29,1.13-12.61,2.2-18.8,3.77-7.77,2-15.28,5.35-23.15,6.4a134.86,134.86,0,0,1-55.19-4.19c-1.08-.31-3.75,1.24-4,2.32-1.84,7.5-3.2,15.1-4.79,22.66-1.49,7-2.64,14.19-4.75,21-1.4,4.56-4.78,8.52-6.32,13.05-3.08,9-5.54,18.26-8.18,27.42C184.54,530.9,182,539.9,179.1,550.27Zm32.88-293c4.36,5.42,7.85,10.36,12,14.72,6.69,7.09,13.23,14.5,20.9,20.45a77,77,0,0,0,21.41,11.46c6.94,2.43,14.66,3.25,22.09,3.6,7.08.33,14.62.37,21.27-1.65,15.05-4.57,30.59-8.18,43.62-17.87,6.33-4.72,13.64-8.14,20.17-12.62,3.46-2.36,5.92-5.9,4.57-10.54-1.68-5.79-3.4-11.57-5.34-17.27-2.78-8.18-5.9-16.25-8.64-24.44-1.75-5.23-2.86-10.67-4.63-15.89-4.73-14-10.05-27.87-14.34-42-2-6.46-2.07-13.47-2.95-19.79a79.36,79.36,0,0,1-27.74,40.18,29,29,0,0,1-3.52,3.57c-1.37,1.14-3,2-4.25,3.24-5.61,5.32-10.64,11.4-16.87,15.85-4.84,3.47-6.46,7.76-8.23,12.75-.79,2.22-4.32,5.47-5.83,5.11-5.57-1.32-9.32.84-13.86,3.49C245.58,239.06,229,247.89,212,257.27Zm86,89.8c-.41,1.33-.77,2.39-1.07,3.47-.38,1.34-.44,2.83-1.11,4-3.28,5.82-9.53,6.76-15.07,6.85-4.76.08-9.5-2.8-14.37-3.75-4.64-.9-8.83-2.52-10.87-6.68-1.88-3.82-4.3-4.08-7.83-3.16a55.82,55.82,0,0,1-9.7,1.9c-4.14.31-6.42,1.67-5.58,6.15.11.59-.33,1.29-.56,1.92-3.67,10.41-7.19,20.88-11.09,31.22-2.62,6.95-4.23,13.93-3.88,21.43.28,6.19-.22,12.41-.26,18.62a2.17,2.17,0,0,0,1.37,1.57c8.61,1.47,17.19,3.33,25.87,4.05,6.87.58,13.87-.21,20.81-.49,3.79-.15,7.72.08,11.32-.86,10.63-2.75,21-6.3,31.72-8.9,3.52-.86,4.77-.63,4-5.19a247.72,247.72,0,0,1-3.16-34.48c-.19-10.83,1.27-21.68,1.63-32.54.05-1.56-1.72-3.47-3.12-4.71s-3.58-2.12-5.41-3.13c-.83-.46-1.68-.89-2.52-1.33l.24,1.43-3.27,1.32Zm-74.8-65.93c-2.88-4.32-5.55-8.26-8.16-12.24-1.73-2.64-3.27-5.41-5.11-8a3,3,0,0,0-2.58-.67,59.59,59.59,0,0,0-8.62,2.74,5.75,5.75,0,0,0-3,3.06c-.49,1.54-.17,3.39,0,5.08,2,15.56,4,31.11,5.9,46.67.92,7.45,1.53,14.94,2.44,22.39a4,4,0,0,0,1.9,2.65c.56.3,1.76-.55,3.13-1l.76,2.51c.15-2.32.2-3,.27-4.09,2,1.22,3.69,3,5.51,3.13,1.5.11,3.15-1.74,4.73-2.71l1.53-2.79,1.91,5.7.34-3.4c.51,1.47.91,2.64,1.19,3.46,4.74-.26,9.12-.55,13.51-.73,6.09-.26,12.51.66,18.17-1,4.55-1.32,4.77.34,5.91,3.27,2.34,6,9.07,9.8,14.3,8.3l.25-2c6.95-.16,11.44-4.59,12.52-11.08,1.4-8.4,2.52-16.68-.74-24.89-.22-.55-.71-1.36-1.15-1.41-5.07-.61-10.16-1.09-15.16-1.6-2.09,8.73-4,17.36-6.4,25.87-.3,1.05-3.11,1.42-4.76,2.1-.79-2.2-2.08-4.38-2.25-6.63-.2-2.53.62-5.14,1-7.72l-.3.05L264,314.28l1.33.2c-1.09,5.68-2.19,11.35-3.48,18.08,1.24-1,1.83-1.27,2-1.67a49.76,49.76,0,0,0,2.3-6.61c.63-2.73.53-5.65,1.37-8.3.91-2.84,2-4.4-2.44-5.63-4-1.12-7.12-5-11-6.81-8.81-4-17.25-8.45-23.71-15.8-2-2.29-3.83-4.74-5.68-7.05Zm-25.9,108.73,16-41.51-5.24-3.5c-4.16,2-8.38-.37-9-5.15q-3.33-25-6.57-50c-.44-3.4-.76-6.81-1.26-11.32-1.85,3.16-3.15,5.29-4.36,7.47-4.09,7.39-9.74,14.07-10.36,23a18.22,18.22,0,0,1-2.32,7.16c-7.77,14.13-15.73,28.17-23.54,42.27-.8,1.44-1.09,3.14-2,5.91a65.45,65.45,0,0,0,6.39-3.1c8.5-5.57,16.75-2.9,20,6.41a17.33,17.33,0,0,0,3.57,6.55c1.33,1.34,3.88,1.45,5.77,2.35,2,1,4.41,1.83,5.81,3.43C192.86,382.93,194.94,386.48,197.29,389.87ZM389.06,191.31a17,17,0,0,0,3.27-.34c1-.29,2.76-1.17,2.69-1.45-1.3-5.32-2.72-10.62-4.38-15.85-.37-1.15-1.76-2-2.67-3l-.64.61-6.14-12.59-3.62,1,1.3-3.76-13.48-8.88-21.64-9.16c.24,2,.34,2.79.51,4.15a11.17,11.17,0,0,1,1.19,2.9c.34,2.22-.1,4.63.58,6.71,2.68,8.31,5.7,16.5,8.53,24.76,3.06,8.9,6.11,17.79,9.05,26.73,5.13,15.61,10.08,31.29,15.31,46.87,1.37,4.08,3.5,7.9,5.23,11.87.59,1.37,1,2.83,1.51,4.25l1.56-.29c-.27-3.41-.4-6.85-.86-10.24s-1.24-6.64-1.88-9.95l-.29.13c-.66-1.93-1.33-3.86-2.23-6.47l3.28,1,2,4.36.81-.21V231.14c-.53.47-.1.08.32-.3l-2.07-2.49c2.79.74,5,.78,6.29,1.87.7.59-.16,3-.4,4.57-.21,1.31-.55,2.59-.83,3.89l1.5.34c-1,3.55-2.39,7-3,10.66a29.53,29.53,0,0,0,.3,8.38c.41,3.24,1.44,6.4,1.75,9.64.21,2.13-.4,4.33-.64,6.49l-.64-.17v6a37.62,37.62,0,0,0,4-12.31c.73-5.93.58-11.94,1.14-17.89.45-4.81,1.39-9.58,2-13.36-.28-4.52-.48-7.8-.68-11.08l.58-.17c-.79-3.19-1.57-6.38-2.36-9.57l.58-.13,2.38,4.3c-.4-6-.71-10.5-1.05-15.58l-3.12,1.58,1.1,2.78-2.35.34c.32-1.58.57-2.85.84-4.19,3.49-1.5,4.2-7.88,1-12.69l-6,3.12C388.77,194.06,388.9,192.8,389.06,191.31Zm8.82,96.21H397a6.27,6.27,0,0,0-.51,1.2c-2.71,12.45-4.95,25-8.28,37.32-2.15,7.94-5.79,15.51-9.09,23.11-.45,1-2.8,1.58-4.34,1.77-2.21.28-5.24-.88-6.54.19-2.1,1.73-3.09,4.23-5.13.18-.11-.22-1.24.08-1.89.08-1.35,0-2.69,0-4,0s-2.82-.12-4.23-.18l-.09.68H320.25c.85,1.72,1.47,3,2.16,4.34,2.31,4.35,4.3,9.1,11,7.13,1-.29,2.31.37,3.44.7,2.79.82,5.51,2,8.35,2.52,4.77.95,9.6,1.61,14.43,2.28,2.43.33,5.63,1.47,7.21.41,8.06-5.41,16.92-2.32,25.34-2.71,5-.23,10,1.76,15.07,2.43,2.31.31,4.13-.55,3-3.56a56.52,56.52,0,0,1-2.85-8.84c-1.49-7.95-2.71-15.95-3.95-23.94-1.62-10.44-3.29-20.87-4.69-31.33C398.15,296.73,398.15,292.11,397.88,287.52ZM315.4,392c2,1.29,3.39,1.75,4.12,2.68,3.37,4.35,6.26,9.1,9.9,13.21,12.36,14,25,27.74,37.42,41.7a29.88,29.88,0,0,1,4.46,7.46c2.2,4.83,4.1,9.8,6,14.33,4.19-5.25,8-10,11.72-14.8a2.51,2.51,0,0,0-.25-2.46c-2.51-2.4-5.43-4.42-7.78-7a196.41,196.41,0,0,1-13-15.12c-5.6-7.46-10.32-15.57-16.13-22.85-6.9-8.63-15.59-15.85-20.22-26.23-1.95-4.36-4.63-8.41-7-12.58-1.88-3.3-3.82-6.56-6.34-10.87C312.23,371.36,313.56,382.32,315.4,392Zm-86.34-41.46c-5.55-.59-12.78,4-14.87,9.48-4,10.4-7.57,21-11.2,31.5a21.2,21.2,0,0,0-.9,5.68c-.26,4.33,0,8.72-.61,13-1.12,7.33-2.9,14.56-4.22,21.86-1.06,5.88-1.57,11.87-2.87,17.7-.79,3.56-2.9,6.82-3.92,10.36-2.56,8.87-6.29,17.53-5.66,27,.09,1.31.67,3.68,1,3.68,1.88,0,4.64,0,5.47-1.09,2.51-3.39,5.09-7.1,6.14-11.07,3-11.27,5.21-22.72,7.7-34.11,1.45-6.68,2.73-13.39,4.3-20,.34-1.43,2.2-2.61,2.28-4,.36-5.56.09-11.16.46-16.72a36.81,36.81,0,0,1,1.93-9.06c1.85-5.53,4.2-10.9,6-16.44,1.62-4.85,2.7-9.86,4.24-14.74C225.77,359.32,227.43,355.12,229.06,350.58ZM398.62,458.22c-1.84-.14-3.9-.82-4.38-.24-3.2,3.83-6.69,7.63-8.88,12-2.79,5.57-4.49,11.78.48,17.29,1.8,2,4.3,3.36,6.43,5.07,5.4,4.35,9.42,2.66,11.48-3.86,2.45-7.76,4.29-16.36,14-19.14.31-.08.47-.66.19-.24-4.69-5.58-9-11-13.68-16-.85-.91-3.47-.58-5.13-.19-.55.13-.7,2.22-.88,3.43A6.09,6.09,0,0,0,398.62,458.22ZM381.44,325.51c1-8.15,2.13-16.64,3.21-25.12l1.39.14q-.69,7.35-1.37,14.7l1.22.26q3-15,6.12-30.09l-2.19-1.72,3.34-1c-7.87-.45-6.49-7.29-10.4-10.15-.39,1.21-.75,2.31-1.11,3.41-3.66,2.53-7.61,5.18-9.75,8.86-1.48,2.55-.31,6.52-.61,9.84-1,10.72-1.44,21.54-3.37,32.1-1,5.59-4.7,10.71-7.11,16.07a28.8,28.8,0,0,0-1.07,3.57,14,14,0,0,0,3.8-.23c.65-.21,1.18-1.31,1.44-2.11,1.07-3.27,2-6.58,2.73-9l8.06-35,.72.14,4-22.55,2.48.49-14.68,68.2c2.05-.45,5-.32,6.66-1.67s2.17-4.2,3.09-6.19l-3.72-.17c.06-1-.28-2.42.25-2.9,2-1.83,4.36-3.36,5.83-4.45v-7.09l.58-.07ZM318,620.33c-.83,5.78-9,6.32-8.7,14.53,3.21-1.85,5.89-3,8.08-4.76s4-4.15,5.94-6.27c1.53-2.43-.81-6-3.4-6.78-5.49-1.66-10.84-3.77-16.25-5.67-3.44-1.21-6.83-3.65-10.15-.47-.53-.78-1-2.07-1.5-2.07-1.8,0-4-.06-5.32.86a32.75,32.75,0,0,0-6.55,6.12c-2.11,2.51-3.8,5.36-5.68,8.06l.7.36,16.7-13.87c0,1.08.17,1.63,0,1.86-3.81,4.28-7.76,8.45-11.47,12.82-1.27,1.49-2,3.45-2.93,5.19l.91.31,10.39-9c.41.92.6,1.37.74,1.69l6-5.34.87.94-15,13.39c8.6-.51,12.22-9.18,20-11.48-2.32,2.71-5.15,4.9-7.74,7.33a18.56,18.56,0,0,0-3,4.22c-.16.28.53,1,.82,1.59a28.73,28.73,0,0,1,3.35-2.19c1.57-.75,2.39-5.33,5.08-1.15l-3,4.66c2.74-.75,4.7-.72,5.72-1.66,3.58-3.3,6.77-7,10.26-10.4.88-.86,2.32-1.17,3.5-1.74l.54.81ZM527.11,292.76a39,39,0,0,0-1.78,6,14.72,14.72,0,0,0,.22,6.38,13.65,13.65,0,0,0,3.54,5c1.15,1.15,3.55,2.88,4.14,2.49,7.85-5.07,8.35-5.11,14,.72,3.28-2.28,6.5-4.39,9.54-6.73a4.58,4.58,0,0,0,1.51-3,36.4,36.4,0,0,0-.09-7.88c-.16-1.08-1.57-2.83-2.45-2.85C546.24,292.69,536.71,292.76,527.11,292.76ZM237,557.58a11.8,11.8,0,0,0-.32,2c.61,10.63,1,21.28,2,31.88.27,2.87,1,6.71,5.92,6.15,1.09-.12,2.35,1.14,3.52,1.77.67.36,1.77,1.15,1.92,1a4.26,4.26,0,0,0,1.42-2.35c.71-8.2,1.76-16.42,1.68-24.62,0-3,2.71-7.89-3.29-9.55-2.89-.8-5.54-2.48-8.27-3.81C240.12,559.32,238.73,558.53,237,557.58ZM554.21,336.37c-.27-1.53-.43-2.42-.62-3.47l-1.08.91c-2.59-1.53-4.67-3.54-7-3.86-1.6-.21-4.9,1.74-5.08,3-1.16,8.19-1.52,16.5-2.42,24.73-1,9.38-2.34,18.72-3.56,28.08-.2,1.58-.55,3.14-.83,4.71,1.28-.25,1.86-.74,2.11-1.36,2-4.9,3.34-10.18,6.06-14.65,2.54-4.19,1.1-9.84,5.54-13.11.2-.15,0-.73.12-1.08a50.84,50.84,0,0,1,1.58-4.85c2-4.8,4.25-9.51,6.06-14.38.71-1.92.5-4.17.78-7C555.14,335.1,554.87,335.48,554.21,336.37Zm-18.83-9.62c-3.86,1.65-6.29,2.89-8.86,3.72s-4,2.23-3.63,5.16c.47,4.07.53,8.18.93,12.25q1.47,14.83,3.11,29.63c.39,3.58,1,7.13,1.45,10.69a126.35,126.35,0,0,0,3.75-18.82c1.3-12.14,2.21-24.32,3.23-36.49C535.51,331.09,535.38,329.27,535.38,326.75Zm-311,300.89c4.64.79,8.75,2.15,12.8,2,3.88-.14,9-.73,11.23-3.17,3-3.2,4.17-8.3,5.25-12.79.89-3.7-1.71-6.35-4.65-8.72-2.36-1.9-3.23-3.46-5.9.22C237.54,612.76,231.07,619.67,224.33,627.64ZM557,600.17l-.39,1.47c1.22.32,2.47,1,3.63.9,6.1-.64,12.17-1.45,18.23-2.31a4.83,4.83,0,0,0,2.92-1.31c.37-.47-.07-2-.65-2.66-2.58-2.85-5.36-5.53-8-8.29-5.16-5.31-10-4.79-13.5,1.31l-2.43-1.06-.35.78,1.3,1L542,601.57l.74,1.34L550,599.3l1.11,3.39,2.07-2.62c.31.45.66.95,1.43,2.08.49-1.58.52-2.92,1.21-3.49s2-.26,3-.34c0,.29,0,.59.08.88Zm-49,.67c-.7-4.34-3-6.83-7.29-7.39-1.84-.23-4.24-.35-5.56.6s-1.84,3.33-2.47,4.62c-1.67-.92-2.53-1.82-3.26-1.73a16.66,16.66,0,0,0-6.05,1.54,7.12,7.12,0,0,0-2.81,4,4,4,0,0,0,1.21,3.54c6.4,4.59,13.82,3.74,20.44,3.85,1.26-2.88,2.33-5.13,3.24-7.44a8,8,0,0,0,.15-2.42ZM595.72,410l-.36-.24q-5.8,14-11.59,28l.21.2-2.49,4.56,2.11-1.06c-.57,1.77-1,3-1.38,4.29a2.73,2.73,0,0,0,1.95-1.54c1.44-3.58,2.71-7.24,4.23-10.79.91-2.13,2.54-4,3.21-6.17,1-3.3,1.41-6.79,2.24-10.16a5.9,5.9,0,0,1,1.62-2.26c.13-.13,1.13.2,1.13.32a10.64,10.64,0,0,1-.25,2.76,11.32,11.32,0,0,1-1.28,2.25l2.16-.59c-.35,2.78-.68,5.46-1,8.28-2.42.58-13.11,38.18-11.77,43.43.54-.7,1.09-1.12,1.21-1.63,1.19-4.86,2.09-9.78,3.49-14.58s3.12-9.54,5-14.21c1.23-3.12,3.9-6,4.19-9.12.58-6.28,0-12.66-.17-19-.09-2.81-.51-5.62-.78-8.43l-.71.05Zm7.92-299c-4.24-7-10.08-11.19-18.36-12.06-7.5-.8-14.95-2.19-22.42-3.32-.07.48-.15,1-.22,1.45l33.23,7c-.08.41-.17.83-.25,1.24l2-.86c.43.93.8,1.74,1.53,3.35-9.36-1.72-17.94-3.41-26.56-4.85s-17.15-2.61-25.73-3.9c-.09.49-.18,1-.28,1.48a7.43,7.43,0,0,0,1.38.51c13.46,2.34,26.94,4.54,40.36,7,5.21,1,11.06.16,15.12,5,1,1.18,3.31,1.29,5,1.89l1.19-1.25L606,108.88Zm-92,491c-.54,1.12-1,2.26-1.63,3.35-.8,1.5-1.67,3-2.5,4.43,6.65,1.48,16.66-3.18,17.84-7.7l-4.45,2.15c.68-1.48,1.07-3.21,2.1-4.38,1.92-2.16,4.22-4,6.35-6l.43.61,4.3-7.57c-.46-.48-1.11-1.74-1.91-1.84a11.71,11.71,0,0,0-4.28.72c-.14,0,0,1.17.07,1.79.15,1.48,1,3.87.4,4.27a25.31,25.31,0,0,1-7.56,3.51C516.74,596.43,513.63,598.24,511.68,601.94ZM588.26,116.7s.33-.83.84-2.13l25.76,14.5v-.88l4.23.25-2.19,2.41,3.78.29c-.34-.8-.68-1.5-1-2.22-2.59-7-9.62-7.51-15.26-9.61a263.5,263.5,0,0,0-27.31-8.58c-5.75-1.46-11.86-1.54-17.81-2.24v.65ZM539.8,471c-3-5.78-6.13-11.72-9.27-17.74l-6.67,12.79L526,467l-6.43,3.39,5.16,4.28.88-1.08-2.1-1.32c.06-.4.11-.79.17-1.19Zm-52,49.38,2.16,1.57a6.34,6.34,0,0,1,.52-1.78c3.36-5.31,6.64-10.67,10.21-15.84s7.44-10.17,11.21-15.23c2.42-3.25,4.92-6.45,7.32-9.73a8.6,8.6,0,0,0,1.31-2.81c.06-.24-1.26-1.15-1.38-1.06a9.91,9.91,0,0,0-2.34,2.41c-.94,1.58-1.56,3.35-2.5,4.93-.3.49-1.21.62-1.71.87.1-1.62.17-2.7.28-4.39-2.15,3.56-4,6.39-5.61,9.31-3.84,6.79-7.51,13.66-11.43,20.4-1.48,2.54-3.47,4.78-5.2,7.18C489.64,517.61,488.73,519,487.78,520.41Zm76.7-385.07c.2-.5.4-1,.61-1.5a34.66,34.66,0,0,1-4.31-1.46c-4.45-2.16-9-4.21-13.23-6.73-7.45-4.44-14.75-9.14-22-13.9-.74-.49-1.09-2.33-.8-3.32.24-.83,1.63-1.39,2.58-2a18.81,18.81,0,0,1,2.87-.9c-3.13-.66-5.12-1.08-7.09-1.51-.78-.17-1.84-.8-2.24-.51-.65.48-1.41,1.84-1.16,2.29,1.79,3.14,3.27,6.77,5.92,9a78.63,78.63,0,0,0,15.41,10.64C548.58,129.33,556.64,132.11,564.48,135.34Zm20.2,357.16,1.68.32,9.57-17.35H582.34ZM185.4,460.87q6.67-27.18,13.33-54.36l-2-.45C193.46,424.45,184.57,441.58,185.4,460.87Zm235.23,16.81a12.92,12.92,0,0,0-1.36-3.12c-.18-.28-2.38.11-2.73.71q-4.49,7.88-8.52,16c-.13.26,1.46,2,2.17,1.91C414.16,492.9,420.55,483.81,420.63,477.68ZM549.81,592.62c1.89-1.14,3.6-2.09,5.2-3.18.24-.16.08-1.42,0-1.43-1.73-.24-3.86-1.08-5.15-.4a55.25,55.25,0,0,0-9.15,6.29c-4.48,3.67-4.42,4.74.25,7.08l7.9-9.63Zm17.85-195.3-6.54,18.34,7.14-10.9,1.28.63-1-2,3.18-5.81-.84-.72c.57-3.75,1.1-7.22,1.62-10.68l-1.16-.26-5,11.58ZM517.1,338.91v34.5C519.72,370.79,520,343.55,517.1,338.91ZM492.46,475.63l1.4.64,11.72-21.68-1.56.27,1.48-3.35-1.55-.66Zm-20.12-114-17.89,28.22C463.93,382.56,467,371.35,472.34,361.59Zm37.23-220.43.44.49c2.23-2.09,4.82-3.93,6.62-6.33,2.57-3.44,4.24-7.53,6.89-10.89,2.14-2.7,1.56-4.06-1.39-5.69-1.36,4.11-2.09,8.36-4.11,11.9C515.83,134.49,512.44,137.68,509.57,141.16Zm55.25,227.08-.33.82a17.08,17.08,0,0,0-4,.46,2.56,2.56,0,0,0-1.22,2.16,2.49,2.49,0,0,0,1.85,1.54,71.44,71.44,0,0,0,8.9.09c.55,0,1-1.26,1.56-1.93Zm-52.24-240.7L499,146.18l1.32.89c4.09-5.48,8.24-10.93,12.2-16.51C513,129.84,512.58,128.46,512.58,127.54Zm70.24,220.34,1.76-.27c0-4.7.07-9.4-.09-14.08,0-.73-1.13-1.42-1.74-2.12a8.25,8.25,0,0,0-1.06,2.59c-.13,3.63-.16,7.27,0,10.9A9.81,9.81,0,0,0,582.82,347.88Zm13,20.27c-.7-3.93-1.2-6.7-1.91-10.7-1.52,6.27-2.75,11.38-4,16.48l.9.61ZM538,581.47c-.83-4.88-1.66-9.71-2.61-15.27-.94,1.82-1.47,2.83-2,3.85C531.65,573.56,535.22,582.08,538,581.47Zm58.06-194.7-1.85-.4-4.5,15.37,1.8.46Q593.79,394.49,596.07,386.77Zm-83.83-23.85-.35-.15q-.64,8.6-1.31,17.19l1.66.14Zm65-35.21c-1.73,0-4-.22-4.08,0-.71,3.22-1.1,6.5-1.67,10.39L576.2,336l-3-.66Zm-7.72,96.11.72,0,3-13.83-1.16-.24c-1.38,3.65-2.77,7.3-4.24,11.18l1.71-.32ZM572.16,507c-.78,4-1.53,7.83-2.27,11.64,1.91-2,2.33-4.72,4-6.23C577.09,509.32,574.77,508.4,572.16,507ZM547.7,394.32l-1.38-.36c-.9,4.08-1.76,8.17-2.74,12.24a14.63,14.63,0,0,1-1.29,2.79l-.87-.22.29,3.56,1.18.18Q545.29,403.42,547.7,394.32ZM273.32,617l1.5,1.2,8.28-8.89-1.62-1.42ZM514.94,459.17l-1.68-.65L508.75,472l1.54.55c1-2.12,1.95-4.25,3-6.54l-1.92.11Zm.73,63.92-1.28-.65q-3.58,7.78-7.19,15.55l1.11.51Q512,530.79,515.67,523.09Zm-104-87.65.63.16,3-4.2-1.77-1.2-7.17,10.29,1.07.75Zm179.12-94.23-1.41.29.92,10.29,2.29-.34Zm-38.4,79.59-1.65-.26-2.07,12.19,1.34.21Q551.19,426.88,552.39,420.8ZM519,373.68l-1.19,0c-.41,3.19-.83,6.39-1.37,10.63l3-1.76C519.26,379.31,519.11,376.5,519,373.68Zm-2.39,123.7-1.66.1.58,4.24,6.57-12.23-1.45-.68C519.29,491.63,518,494.44,516.58,497.38Zm-38.06-120L477,377l-3,11.81,1.4.35ZM483.2,158.7a6.8,6.8,0,0,0-6.57,8.39Zm31.73,177.93-1.78-.2L512,348.3l1.23.14Q514.05,342.53,514.93,336.63Zm-8-2.59-1.5-.08q-.87,7.08-1.73,14.15l1,.11Q505.8,341.14,506.89,334Z"/><path class="cls-1" d="M564.23,283.32l-4.26.29c-.58,1.18-.81,2.35-1.25,2.44-10.87,2.12-22,2.7-32.48-.59-9.66-3-18.9-7.43-28.09-11.72-8.67-4.05-13.51-12-16.26-20.3-4-12.06-7.57-24.52-8.95-37.06-1.29-11.8.29-23.95,1.14-35.9.15-2.14,2.62-4.41,4.51-6.08,5.29-4.65,10.8-9.06,16.3-13.47,4-3.18,8.6-5.73,11.95-9.42,5.81-6.42,14.05-10.58,17.9-18.84.62-1.31,2.58-2,3.77-3.09.48-.46.42-1.48.91-2a2.34,2.34,0,0,1,1.94-.59c8.43,3.78,16.59,8.25,25.27,11.33,9.08,3.23,18.67,5.07,28,7.66,7.94,2.2,15.82,4.6,23.72,6.93,3,.89,6.44,1.24,8.94,2.91a11.82,11.82,0,0,1,4.21,6.6c1.44,5.85,2,11.91,3.26,17.83,2.76,13.42-2.19,25.89-4.42,38.76-3,17.23-11.54,32.09-19,47.46-5.53,11.35-16.38,13.61-27.38,15.63-2.15.39-4.33.65-6.5.91-1,.12-2,.12-3,.17ZM511,249.26c-1.95,3.57,1.25,5.81,3.13,7.72,8.46,8.6,19,12.32,31.16,11.73,3-.15,6.06.46,8.91-.13,8.84-1.86,15.16-8.07,22-13.24,1.14-.86,1.78-2.88,1.83-4.39,0-.7-2.05-2.16-3-2-1.14.17-2,1.72-3.1,2.57-3.91,3.05-7.73,6.25-11.83,9-4.47,3-9.67,2.44-14.84,2.48-13.24.09-23.74-4.67-31.36-15.46-.56-.79-2.23-.84-3.38-1.23C510.72,247.2,510.85,248.08,511,249.26Zm22.85-63.09c-.92-1.48-1.83-4.64-3.62-5.23-1.53-.51-4.44,1.57-6,3.19-1.13,1.13-.82,3.51-1.59,5.13-3.18,6.62-2.86,13.36-.57,20,.35,1,3.82,2.22,4.15,1.86,2.38-2.63,5.32-5.39,6.16-8.6C533.65,197.67,533.39,192.41,533.87,186.17Zm46.3,9.23-1-.33c-.28-2.88-.45-5.78-.89-8.63a3.67,3.67,0,0,0-1.59-2.61c-.94-.35-2.83-.19-3.3.46-2.27,3.12-5.33,6.28-6,9.81-1,5.11-.37,10.58.12,15.85a5.89,5.89,0,0,0,3.5,4c1.13.36,3.87-1.06,4.3-2.24C577.23,206.39,578.6,200.86,580.17,195.4Z"/><path class="cls-1" d="M179.1,550.27c2.94-10.37,5.44-19.37,8-28.34,2.64-9.16,5.1-18.39,8.18-27.42,1.54-4.53,4.92-8.49,6.32-13.05,2.11-6.85,3.26-14,4.75-21,1.59-7.56,3-15.16,4.79-22.66.27-1.08,2.94-2.63,4-2.32a134.86,134.86,0,0,0,55.19,4.19c7.87-1.05,15.38-4.44,23.15-6.4,6.19-1.57,12.51-2.64,18.8-3.77.7-.13,2.28.81,2.3,1.3.08,1.84.14,5.07-.62,5.31-6.58,2.14-13.24,4.56-20.06,5.3a107.23,107.23,0,0,0-29.28,7.3c-4.44,1.81-10.05.85-15.14,1.1-6.81.34-13.64,1-20.44.83-4.29-.12-8.52-1.63-12.8-2.38a25.21,25.21,0,0,0-4.17,0l-.51,2.16c4.39,1.66,8.66,3.84,13.19,4.83a66.06,66.06,0,0,0,14.67,1.24c4.13-.05,8.24-1.53,12.35-1.51,9.55.06,18.25-2.7,27.13-5.8,5.49-1.92,11.9-1.12,17.72-2.35,6.16-1.3,12.11-3.62,18.2-5.32a2.74,2.74,0,0,1,2.28,1.37c3.08,10.17,5.62,20.52,9.11,30.55,3,8.73,7.33,17,10.71,25.67,4.66,11.93,9,24,13.46,36,2.55,6.79,5.21,13.54,7.69,20.36.19.51-.58,2-1,2-7.73.46-15.52,1.44-23.18.87-4.28-.31-8.62-2.81-12.45-5.1-4.86-2.89-8.8-2.22-13,1-8.43,6.39-17.88,11.33-28.32,6.29-7.55-3.64-14.16-3.53-21.81-1.43-3.1.85-7.66-.18-10.43-2-9.55-6.28-18.94-9.4-29.9-3.36-3.7,2-12.33-.78-15.09-4.07s-11-3.45-17.32-.49C183.93,549.88,181.82,549.81,179.1,550.27ZM291.58,483l-1.85.94c6.12,16.42,8.66,34.14,19,49.4.58-1,.91-1.57.84-1.45-.57-2.44-.85-4.28-1.45-6-4-11.8-8.07-23.61-12.31-35.34C294.8,487.84,293,485.47,291.58,483ZM257.21,542c-.52-4.3-1.1-8.59-1.53-12.89s-.7-8.46-1-12.69l.31.08c-.94-6.86-1.88-13.73-2.88-21C247.77,498.94,251.45,534.28,257.21,542Zm-38.48-41.4c-5.78,3.69-9,20.67-5.51,29.71C215.14,520,216.89,510.55,218.73,500.64Z"/><path class="cls-1" d="M212,257.27c17-9.38,33.6-18.21,49.8-27.67,4.54-2.65,8.29-4.81,13.86-3.49,1.51.36,5-2.89,5.83-5.11,1.77-5,3.39-9.28,8.23-12.75,6.23-4.45,11.26-10.53,16.87-15.85,1.28-1.21,2.88-2.1,4.25-3.24a29,29,0,0,0,3.52-3.57,79.36,79.36,0,0,0,27.74-40.18c.88,6.32,1,13.33,2.95,19.79,4.29,14.15,9.61,28,14.34,42,1.77,5.22,2.88,10.66,4.63,15.89,2.74,8.19,5.86,16.26,8.64,24.44,1.94,5.7,3.66,11.48,5.34,17.27,1.35,4.64-1.11,8.18-4.57,10.54-6.53,4.48-13.84,7.9-20.17,12.62-13,9.69-28.57,13.3-43.62,17.87-6.65,2-14.19,2-21.27,1.65-7.43-.35-15.15-1.17-22.09-3.6a77,77,0,0,1-21.41-11.46c-7.67-5.95-14.21-13.36-20.9-20.45C219.83,267.63,216.34,262.69,212,257.27Zm81.78,29.54c14.43.18,24.9-6.86,33.87-16.72.7-.77-.16-2.91-.29-4.42-1.41.33-3.31.19-4.15,1.06-5.79,6-12.13,11.83-20.46,13.21-12.12,2-24.4,1-35.34-5.16-5.28-3-9.69-7.41-14.52-11.17-1-.77-2.06-1.44-3.1-2.15-.37,1.32-1.44,3-1,3.92,4.17,9.15,12.78,13.61,21.43,16.86C277.57,285,285.87,285.38,293.76,286.81ZM328,216.56h-1c.61-1.28,1.91-2.69,1.69-3.81a33.37,33.37,0,0,0-2.79-7.49c-.52-1.09-2.07-2.85-2.42-2.69-1.47.64-3.34,1.66-3.82,3a75.47,75.47,0,0,0-4.14,14.63c-.39,2.72.35,6.5,2.12,8.41,3.41,3.67,9.32.34,10.34-5.66A38.53,38.53,0,0,0,328,216.56Z"/><path class="cls-1" d="M298,347.07l-1.87-1.28,3.27-1.32-.24-1.43c.84.44,1.69.87,2.52,1.33,1.83,1,3.89,1.78,5.41,3.13s3.17,3.15,3.12,4.71c-.36,10.86-1.82,21.71-1.63,32.54a247.72,247.72,0,0,0,3.16,34.48c.73,4.56-.52,4.33-4,5.19C297,427,286.6,430.57,276,433.32c-3.6.94-7.53.71-11.32.86-6.94.28-13.94,1.07-20.81.49-8.68-.72-17.26-2.58-25.87-4.05a2.17,2.17,0,0,1-1.37-1.57c0-6.21.54-12.43.26-18.62-.35-7.5,1.26-14.48,3.88-21.43,3.9-10.34,7.42-20.81,11.09-31.22.23-.63.67-1.33.56-1.92-.84-4.48,1.44-5.84,5.58-6.15a55.82,55.82,0,0,0,9.7-1.9c3.53-.92,6-.66,7.83,3.16,2,4.16,6.23,5.78,10.87,6.68,4.87,1,9.61,3.83,14.37,3.75,5.54-.09,11.79-1,15.07-6.85.67-1.18.73-2.67,1.11-4C297.22,349.46,297.58,348.4,298,347.07Z"/><path class="cls-1" d="M237.36,223.4c-1.7,1.56-3.92,2.86-4.86,4.77-.46.92,1.49,3,2.52,4.85l14.39-11.14,1.28,3c.28-1.71.42-2.3.47-2.89s-.24-1.53.08-2,1.23-.76,2.37-1.38l-.64,2.89c.84-.63,1.66-.95,1.67-1.3.08-3.71,2.86-5.19,5.46-7.09,2.45-1.8,4.34-4.31,6.57-6.42.44-.42,1.28-.46,1.93-.67a6.41,6.41,0,0,1,.4,2q-.76,5.85-1.73,11.69a2.41,2.41,0,0,1-1.09,1.67c-3.35,1.29-5.65,5.67-10.27,3.41-.34-.17-1.1.47-2.2,1l2.82,1-6.69,3.2,1.59-2.17-15,8.22c.23-.65.45-1.31.42-1.23a49.5,49.5,0,0,0-5.34-1.15,46.82,46.82,0,0,0-5.3-.05c1.32,1.24,3.44.85,3.65,1.31,1.77,3.76,4.24,1.91,6.62,1.08-3.08,1.88-6.13,3.81-9.25,5.62-2.47,1.43-5,2.72-6.34,3.42-1.82,2.06-2.65,3.51-3.91,4.32a42,42,0,0,1-10.72,5.16l4.66-5.26.07.2,10.43-11.16-1-1.43,4.76.56-4.37-4.5,2.26.28L235.3,219.5c-.58-.16.14.05,1.22.36l3-4-.68-.52-2.57,2.4c.72-2.14.77-3.28,1.37-3.81.95-.85,2.28-1.29,2.71-2.18l7-9.22c1.51-1,4-2.68,6.57-4.42l-1.59-1.34,3.15-2.21,1.62.51c-.13-.76-.22-1.27-.19-1.12,1.59-1.91,2.95-3.53,4.31-5.15l.36.17-1.2,2.52c.88-.17,1.6-.31.91-.17,1.71-2.39,2.72-3.91,3.88-5.31.24-.29,1-.14,1.1-.14l5-6.1.48,1.8,6.39-8.06-.78-.65L261.08,186.8l-.29-.41-25.24,23.49-1.45-1.61c-.25,1.47-.42,2.51-.6,3.57-6.08,2.71-8.16,5.75-5.82,8-1.65,3.67-3.18,7.25-4.89,10.75-.28.58-1.33.79-2,1.17a5.62,5.62,0,0,1-.28-2.1c1.07-4,2.07-8,3.46-11.91,1.05-2.94,2.64-5.68,4.16-8.86h1.57l-1.29-.71L236.72,191l2.74-.41-1.83-1.44c1.87-3.29,3.68-6.61,5.63-9.86,4-6.62,7.68-13.41,12.14-19.7,1.8-2.56,5.16-4.13,8-5.9,4.76-3,9.55-6,14.54-8.62,2.18-1.14,4.88-1.3,7.32-2,.52-.16,1.34-.93,1.26-1.18a5.87,5.87,0,0,0-1.49-2.6c-.64-.55-1.71-.6-2.64-2a13.78,13.78,0,0,0,3.81-.75,2.68,2.68,0,0,0,1.15-2.87l-8.87,3.72-8.38.9-.38-4-4.78,5.92c-.06-.19-.28-1-.77-2.73-5.11,3.71-9.67,7.35-14.59,10.43-2.07,1.3-2.9,2.17-1.72,4.36.12.23-.67,1.27-.79,1.23A25.91,25.91,0,0,1,244,152c-.2.27-2.09,2.16-1.8,2.58,1.43,2,3.45,3.69,6,6.27l-1.89-5.76a42.86,42.86,0,0,1,4.94,0c.32,0,1,1.44.74,1.78-5.52,8.64-11.16,17.21-16.71,25.83a21,21,0,0,0-1.43,3.5l-.86-.24c-2,4.47-3.65,8.83-5.93,12.83s-5.09,7.45-8,11.59l-10,5.49c2.88-.44,4.25-.73,5.64-.84s2.61,0,4.12,0c-.18,2.27-.36,4.5-.57,7.18l-2.39-1.44L211,230.75a30.62,30.62,0,0,0,2.52-1.87,12.6,12.6,0,0,0,2.38-2.64,8.53,8.53,0,0,0,.54-2.78l1.48.4c-1.12,3.91-2.25,7.82-3.18,11.06l5.53-1,.37.82c-1,.68-2.14,1.3-3.13,2-1.47,1.11-2.81,2.41-4.35,3.41a3.22,3.22,0,0,1-2.32.09,10.8,10.8,0,0,1-2.35-1.45l3.2-6.35-10.17,1.13c.53,1,1.34,2.46,2.2,4.06l2.16-2.53.81.51c-2.09,4-4.17,7.93-6.38,12.12l2-1,.77.73-4.61,8.17,1.17.71-2.85,2.25-1.33-.51c1.29-7.18,2.59-14.36,3.95-21.9l-.36-.1c1.82-7.71,3.64-15.41,5.52-23.35.36-.16.95-.42.1,0L209.5,202l.9.38c.85-2.31,1.71-4.62,2.74-7.41l2.06.44q.21-2.66.42-5.34l-3.26,3-.39-3.9c-1.55,4.4-2.95,8.39-4.35,12.38l-1.43-.38a23.35,23.35,0,0,1,.7-4.85c7-19,17.85-35.6,33.3-49,9-7.8,19.13-13.44,31.84-14.11,5.82-.31,11.46-3.34,17.25-4.88,2.68-.71,5.53-.77,8.29-1.21a15.82,15.82,0,0,0,2.93-1.4l3.85,1,.25-1.13-5.2-1,.1-.65,20.7,2.58-.1.86-5.19-.63c2.33,1.73,4.14,3.64,6.37,4.61A124.35,124.35,0,0,0,334,135.72c5.06,1.56,6.09,4.75,3,8.86-.93,1.25-.57,3.37-1.4,4.74-4.73,7.85-9.27,15.84-14.63,23.25-2.38,3.3-6.68,5.2-9.82,8-2.95,2.66-5.42,5.8-8.27,8.57-4.67,4.55-9.45,9-14.24,13.4a3,3,0,0,1-2.13.68c-.6-.07-1.64-.91-1.57-1.21.91-4-1.74-5.41-4.72-6.7-.43-.19-.71-.71-1.57-1.62l5.11-1.77,8.78-6.88-.28-.08c6.42-6.64,12.93-13.2,19.24-20a112.54,112.54,0,0,0,7.29-9.1,31.16,31.16,0,0,0,3.79-5.81,23,23,0,0,0,1.15-5.26l-22.15,11.71.08.67-4.92,1.63-1.05-1.43c2.9-2.94,5.45-6.38,8.81-8.69s7.62-3.82,11.6-5.38c2-.79,4.34-.81,6.44-1.42.65-.19,1.05-1.2,1.56-1.83-.68-.31-1.36-.89-2-.89-2.2,0-4.4.2-6.76.33-6.64,5.28-17,5.11-23.13,12.1l-6.51,4.45.92,2,2.3-.67-.52-.88,8-5c-.08.9-.19,2.18-.31,3.47l-.78-1-15.68,15.71c1.06.92,1.5,1.31,1.73,1.52l-1.2,3,.71.38,3.45-3.71-2.09-.88c.4-.32.68-.69.82-.65,4.4,1.4,5.13-2.7,7.38-4.61s3.47-5.39,8.05-4.68c2.39.37,5.21-2.16,7.87-3.31a9.37,9.37,0,0,1,5.6-.94l1.09-1.64c.22.1.57.19.57.26,0,.84.19,1.95-.26,2.46-3.66,4.12-7.32,8.24-11.22,12.13-6,5.93-12.05,11.72-18.15,17.51-2.14,2-4.45,3.92-7.35,6.45-.05-.67,0-.13,0,.65l-1.75-.79-.43,2.49-.53-.26-6.71,4.62,3.63-.65-2.56,2.75-1.91-1v2.93l-.92.76-.91-3.24-1.21,1,1.56,2.54-6.27,5.74-2-5.31-.24,2.79-2.83,2.22h4.66l-4,3.49c-.09-.33.07.28.26,1l-15.14,11.48-2-2.89c1,0,2.38.32,3.08-.18,2.21-1.59,4.18-3.5,7.07-6-1.49-.08-2.53-.46-2.95-.11C242.06,219.09,239.73,221.28,237.36,223.4Zm-10.77-51c-1.43,1.31-2.4,2.07-3.2,3a14.31,14.31,0,0,0-2.71,3.7c-.16.38,1.46,1.48,2.26,2.25.74-.86,1.43-1.77,2.25-2.56a6.23,6.23,0,0,1,1.62-.91l2.42-1.19ZM218.43,179c-3.83,3.21-.08,5.69.76,8.57l-2.09-1.3c.67,1.54.82,2.61,1.43,3s1.59.06,2.35-.18c.24-.07.18-.89.37-1.33a34.16,34.16,0,0,1,1.61-3.27,29.15,29.15,0,0,1,2.29-2.76l-5.58,1.46.74-1.72Zm95.32-12.43c1.28,2.55,1.83,3.75,2.47,4.9a9.87,9.87,0,0,0,1.13,1.38c.36-.47,1.08-1,1-1.4-.34-3-.83-6.09-1.25-9l-5.62,6.11,1.6,2.92C313.31,169.93,313.42,169.11,313.75,166.6Zm8.09-4.71,6.26-10.5.88,0c-.39-1.29-.67-2.24-1-3.2a13.44,13.44,0,0,0-2.37,2.26c-1.2,1.88-2,4-3.32,5.81-.75,1-2.15,1.59-3.35,2.43C319.79,159.63,320.29,160.17,321.84,161.89Zm-4.65-30.29.86-1.16-4.41-2.66-.56.87,1.26.83-3.6,1.18,5.41,4.69.61-.86,1.56,1.46c.22-.89.39-1.55.55-2.23l-4-.65c.22-1,.38-1.69.59-2.57ZM254.66,186l5.47-2.2c.06-.09,1-1.3,1.83-2.4l-1.27-1.76c-2.14,1.92-4.24,3.41-5.71,5.36-.52.69.51,2.54,1,3.81,0,.07,1.3-.29,2.87-.64Zm-1-6.11,1,1.43,4.43-4c-1-3.29-1.71-5.66-2.44-8l-.81.24.92,4.54-1.87,1.67,2.61,1.68Zm35.75-45.46,1.15-1.94c2.71-.65,4.71-1.11,6.7-1.61.76-.19,1.5-.46,2.25-.69-.7-.57-1.59-1.74-2.06-1.59a76.49,76.49,0,0,0-8,3.15C289.24,131.83,289.42,132.79,289.42,134.42Zm-14.3,34.76,5.15-5.81-1-.84L277.08,165l-.83-1.56-4.82,8.05C273,170.52,273.66,170.12,275.12,169.18Zm-37.12-7,3.89,2.89-1.69-2.84,4-1.13-5-2.14c.52-1.31.91-2.3,1.31-3.28l-1.37-.37Z"/><path class="cls-1" d="M223.19,281.14l1.46-.45c1.85,2.31,3.67,4.76,5.68,7.05,6.46,7.35,14.9,11.78,23.71,15.8,3.92,1.79,7,5.69,11,6.81,4.4,1.23,3.35,2.79,2.44,5.63-.84,2.65-.74,5.57-1.37,8.3a49.76,49.76,0,0,1-2.3,6.61c-.15.4-.74.65-2,1.67,1.29-6.73,2.39-12.4,3.48-18.08l-1.33-.2-3.75,11.86.3-.05c-.38,2.58-1.2,5.19-1,7.72.17,2.25,1.46,4.43,2.25,6.63,1.65-.68,4.46-1.05,4.76-2.1,2.39-8.51,4.31-17.14,6.4-25.87,5,.51,10.09,1,15.16,1.6.44.05.93.86,1.15,1.41,3.26,8.21,2.14,16.49.74,24.89-1.08,6.49-5.57,10.92-12.52,11.08l-.25,2c-5.23,1.5-12-2.29-14.3-8.3-1.14-2.93-1.36-4.59-5.91-3.27-5.66,1.65-12.08.73-18.17,1-4.39.18-8.77.47-13.51.73-.28-.82-.68-2-1.19-3.46l-.34,3.4-1.91-5.7-1.53,2.79c-1.58,1-3.23,2.82-4.73,2.71-1.82-.13-3.51-1.91-5.51-3.13-.07,1.07-.12,1.77-.27,4.09l-.76-2.51c-1.37.49-2.57,1.34-3.13,1a4,4,0,0,1-1.9-2.65c-.91-7.45-1.52-14.94-2.44-22.39-1.9-15.56-3.95-31.11-5.9-46.67-.21-1.69-.53-3.54,0-5.08a5.75,5.75,0,0,1,3-3.06,59.59,59.59,0,0,1,8.62-2.74,3,3,0,0,1,2.58.67c1.84,2.57,3.38,5.34,5.11,8C217.64,272.88,220.31,276.82,223.19,281.14Zm11.95,40.47L232,316l-1.89,3.34,3.53-.44-2.83,3.52c-1-1.39-2.29-2.41-2.35-3.49-.41-8.48-.58-17-.87-25.46,0-.41-.49-.79-.74-1.18-.39.25-1.09.48-1.11.76-.43,5.24-.84,10.49-1.11,15.74-.15,3,0,6,0,9-1.41-3.29-2.32-6.78-1.74-10,.83-4.53-1.22-7.7-7.11-7.64l5.4,3.16v15.05l-2.4.56a31.68,31.68,0,0,1,.29-4c.58-2.89-1.27-4.69-2.38-7-1.73-3.67-1.85-8.19-2.15-12.38-.42-5.69-.25-11.42-.63-17.11-.07-1-1.64-1.9-1.88-2.16-.51,3.27-.83,6.23-1.48,9.13-.29,1.28-1.86,2.46-1.77,3.61.21,3.09,1.1,6.12,1.55,9.19.81,5.5,1.49,11,2.41,17.88l2.78,7.43-.59-.09a61.67,61.67,0,0,0,2.82,8.09c.56,1.14,2.41,1.66,3.66,2.48.95.63,1.87,1.31,2.84,1.92,1.19.76,2.4,1.47,3.61,2.2l1.53-2.71,2.1-.37,2.61,4.88v-7.85l-.43.05.27,1.82-3,.33c.77-1.88,1.5-3.64,2.38-5.77l1.42-.47-6.45-3.75.78-1.42H231c-.13.68-.24,1.27-.42,2.17Zm3.57,18.94,2.4,1.67c.54-.78,1.45-1.51,1.55-2.33.63-5.35,1.51-10.73,1.48-16.09,0-6.87-.84-13.74-1.39-20.6a6.77,6.77,0,0,0-.91-2.06l-1.37,1.92c-.33.08-1.54.24-1.54.41-.09,11.08-.08,22.16-.08,33.48l-.76.23,1.82,1.42Zm-8.08-28.64v3.42h5c-.8-3-1.63-6.08-2.47-9.17l-1.15.42C231.58,308.15,231.18,309.72,230.63,311.91ZM252,323l.53-.06c.38-2.48.78-4.95,1.13-7.43a4.68,4.68,0,0,0-.07-1.75c0-.13-1-.26-1.14-.1a4.77,4.77,0,0,0-.73,1.79,40.42,40.42,0,0,0-.6,4.24c-.16,2.11-.21,4.24-.3,6.36l1.52-.07C252.25,325,252.13,324,252,323Zm-3.48-5.43-1.26-.25q-.89,6.5-1.78,13l1.48.21Z"/><path class="cls-1" d="M197.29,389.87c-2.35-3.39-4.43-6.94-7.1-10-1.4-1.6-3.77-2.46-5.81-3.43-1.89-.9-4.44-1-5.77-2.35a17.33,17.33,0,0,1-3.57-6.55c-3.25-9.31-11.5-12-20-6.41a65.45,65.45,0,0,1-6.39,3.1c.92-2.77,1.21-4.47,2-5.91,7.81-14.1,15.77-28.14,23.54-42.27a18.22,18.22,0,0,0,2.32-7.16c.62-9,6.27-15.65,10.36-23,1.21-2.18,2.51-4.31,4.36-7.47.5,4.51.82,7.92,1.26,11.32q3.25,25,6.57,50c.64,4.78,4.86,7.14,9,5.15l5.24,3.5Z"/><path class="cls-1" d="M389.06,191.31c-.16,1.49-.29,2.75-.41,3.88l6-3.12c3.17,4.81,2.46,11.19-1,12.69-.27,1.34-.52,2.61-.84,4.19l2.35-.34-1.1-2.78,3.12-1.58c.34,5.08.65,9.62,1.05,15.58l-2.38-4.3-.58.13c.79,3.19,1.57,6.38,2.36,9.57l-.58.17c.2,3.28.4,6.56.68,11.08-.58,3.78-1.52,8.55-2,13.36-.56,5.95-.41,12-1.14,17.89a37.62,37.62,0,0,1-4,12.31v-6l.64.17c.24-2.16.85-4.36.64-6.49-.31-3.24-1.34-6.4-1.75-9.64a29.53,29.53,0,0,1-.3-8.38c.58-3.62,1.94-7.11,3-10.66l-1.5-.34c.28-1.3.62-2.58.83-3.89.24-1.57,1.1-4,.4-4.57-1.28-1.09-3.5-1.13-6.29-1.87l2.07,2.49c-.42.38-.85.77-.32.3v13.29l-.81.21-2-4.36-3.28-1c.9,2.61,1.57,4.54,2.23,6.47l.29-.13c.64,3.31,1.42,6.61,1.88,9.95s.59,6.83.86,10.24l-1.56.29c-.5-1.42-.92-2.88-1.51-4.25-1.73-4-3.86-7.79-5.23-11.87-5.23-15.58-10.18-31.26-15.31-46.87-2.94-8.94-6-17.83-9.05-26.73-2.83-8.26-5.85-16.45-8.53-24.76-.68-2.08-.24-4.49-.58-6.71a11.17,11.17,0,0,0-1.19-2.9c-.17-1.36-.27-2.17-.51-4.15l21.64,9.16,13.48,8.88-1.3,3.76,3.62-1,6.14,12.59.64-.61c.91,1,2.3,1.82,2.67,3,1.66,5.23,3.08,10.53,4.38,15.85.07.28-1.69,1.16-2.69,1.45A17,17,0,0,1,389.06,191.31Zm-18.12,17.32c-.4.83-.8,1.65-1.19,2.47.73,2.66,1.5,5.42,2.62,9.48l1.44-3.68c-.44-1.57-.6-2.34-.87-3.07-.65-1.73-1.36-3.44-2-5.16l-1.24-9.21-1.46,1.26c-.75-2.75-1.56-5.71-2.14-7.81l-4.35-10.41-1.21.53q3.31,10.35,6.64,20.68l.81-.25-.46,2.36.74-.07c.3,1.07.61,2.14.93,3.29a1.08,1.08,0,0,0,.51.09C370.11,209,370.52,208.8,370.94,208.63Zm9.35-9,.94-.12c-3.1-12.42-6.19-24.84-9.37-37.58-4.45.57-7.16-.81-6.81-6.34l-3,5.17c4.29,5.16,9.86,9.95,9.36,14.86L379,212.77l-1.09.79,3.08,6.83-2.11,1a22.17,22.17,0,0,0-.86-4.77c-.51-1.21-1.66-2.16-2.62-3.33-1.36,3.12,4.34,5.32-.06,8.17l3.28,5.81,1.94-1.75,2.44.66,1.45-7.08-1,.1Q381.87,209.42,380.29,199.64Zm4.51,27.63c-6.41,1.19-6.39,1.18-4,5a2.55,2.55,0,0,1,.14,1.49c-.15,1.55-.36,3.09-.6,5.11l4.43-1c-.28-1.33-.52-2.41-.77-3.56l-1.92.6ZM361,166.37l.1,0c-.76-2.37-1.52-4.73-2.66-8.26-.9,2.25-1.25,3.14-1.13,2.85a79.56,79.56,0,0,1,2.05,9.46c.06.63-2,1.46-2.76,2,.61.79,1.39,1.78,1.37,1.75l4.81-2.51c-.28-.16-.74-.44-.19-.11C361.83,169.19,361.4,167.78,361,166.37Zm.89,7.66-.88.32c1.7,4.18,3.39,8.37,5.16,12.53.11.26.85.27,1.76.52l-1.19-1.78,2.24-1.43-4.49-5.89,1.27-1.1Zm30.73,54.26c.34-3,.65-5.74,1-9.16-1.28.33-3.15.34-3.39,1C389,223.13,388.37,226.32,392.58,228.29Zm-4.06-23.74,1.29-2.51-.9-.69-.8,2.24-.9-.36c-.53-2.54-1-5.07-1.58-7.61l-1.57.38q1.95,7.25,3.91,14.47l1.66-.36Z"/><path class="cls-1" d="M397.88,287.52c.27,4.59.27,9.21.88,13.76,1.4,10.46,3.07,20.89,4.69,31.33,1.24,8,2.46,16,3.95,23.94a56.52,56.52,0,0,0,2.85,8.84c1.1,3-.72,3.87-3,3.56-5.06-.67-10.1-2.66-15.07-2.43-8.42.39-17.28-2.7-25.34,2.71-1.58,1.06-4.78-.08-7.21-.41-4.83-.67-9.66-1.33-14.43-2.28-2.84-.56-5.56-1.7-8.35-2.52-1.13-.33-2.45-1-3.44-.7-6.67,2-8.66-2.78-11-7.13-.69-1.29-1.31-2.62-2.16-4.34h32.63l.09-.68c1.41.06,2.82.14,4.23.18s2.68,0,4,0c.65,0,1.78-.3,1.89-.08,2,4,3,1.55,5.13-.18,1.3-1.07,4.33.09,6.54-.19,1.54-.19,3.89-.74,4.34-1.77,3.3-7.6,6.94-15.17,9.09-23.11,3.33-12.29,5.57-24.87,8.28-37.32a6.27,6.27,0,0,1,.51-1.2Z"/><path class="cls-1" d="M315.4,392c-1.84-9.72-3.17-20.68,2.83-32.49,2.52,4.31,4.46,7.57,6.34,10.87,2.39,4.17,5.07,8.22,7,12.58,4.63,10.38,13.32,17.6,20.22,26.23,5.81,7.28,10.53,15.39,16.13,22.85a196.41,196.41,0,0,0,13,15.12c2.35,2.54,5.27,4.56,7.78,7a2.51,2.51,0,0,1,.25,2.46c-3.69,4.83-7.53,9.55-11.72,14.8-1.86-4.53-3.76-9.5-6-14.33a29.88,29.88,0,0,0-4.46-7.46c-12.4-14-25.06-27.7-37.42-41.7-3.64-4.11-6.53-8.86-9.9-13.21C318.79,393.79,317.43,393.33,315.4,392Z"/><path class="cls-1" d="M229.06,350.58c-1.63,4.54-3.29,8.74-4.65,13-1.54,4.88-2.62,9.89-4.24,14.74-1.85,5.54-4.2,10.91-6,16.44a36.81,36.81,0,0,0-1.93,9.06c-.37,5.56-.1,11.16-.46,16.72-.08,1.36-1.94,2.54-2.28,4-1.57,6.65-2.85,13.36-4.3,20-2.49,11.39-4.73,22.84-7.7,34.11-1,4-3.63,7.68-6.14,11.07-.83,1.13-3.59,1.1-5.47,1.09-.36,0-.94-2.37-1-3.68-.63-9.5,3.1-18.16,5.66-27,1-3.54,3.13-6.8,3.92-10.36,1.3-5.83,1.81-11.82,2.87-17.7,1.32-7.3,3.1-14.53,4.22-21.86.66-4.26.35-8.65.61-13a21.2,21.2,0,0,1,.9-5.68c3.63-10.54,7.21-21.1,11.2-31.5C216.28,354.58,223.51,350,229.06,350.58Z"/><path class="cls-1" d="M332.15,312.53l3.75.92-.3-4.63,3.45-6.26.73.52c-.24,2.82-.49,5.64-.82,9.37,3.17-4.82,1.17-10.69,7.79-13.19-1.47,8.52-2.84,16.42-4.2,24.31-.85,4.93-1.75,9.84-2.47,14.78-.07.49,1,1.13,1.69,1.91,0,0-.47.41-.43.71.44,2.63,2.44,5.82-2.87,5.87-2.74,0-5.51,1-8.2.75-4.13-.38-8.65-.48-11.16-4.68a14.52,14.52,0,0,1-1.06-3.52c.8-6.63,1.55-12.86,2.32-19.2h-1.19c-.34-1.27-.57-2.35-.95-3.37-.05-.11-1.34,0-1.38.17a17.75,17.75,0,0,0-.5,3.32c-.35,5-.65,10-.9,13.94A103.32,103.32,0,0,0,305,335.94c-3.41.91-6.66,2.4-11.15,4.07l3.42-8.62-.59-.24-2.05-13.79-1.24-2.72L320.19,310l13.21-5.42a5.73,5.73,0,0,1,.41,2.12c-.43,2-1.06,3.92-1.62,5.88-.56.52-1.48.95-1.64,1.57-.72,2.9-1.23,5.84-1.81,8.77-3.25,2.6,0,5.24.08,7.52l-2.64,2.82-1.4-.85c.79-1.2,2-2.32,2.22-3.63.14-.7-1.26-1.7-2.1-2.73.73-4.84,1.54-10.12,2.35-15.4-2.7,5.29-4.21,10.76-5.72,16.22-.57,2-1.56,4.05-1.61,6.09,0,1.73,1,3.49,1.56,5.23a7.69,7.69,0,0,0,2.63-1,8.61,8.61,0,0,0,1.36-2.59c1.16,2.14,1,4.09,1.26,6,.13.85,1.27,1.54,2,2.31.39-.47,1.06-.89,1.15-1.41,1-5.84,1.92-11.69,2.92-17.53.52-3.08,1.16-6.14,1.83-9.65l-2.44.61Zm5.48,12.84-1.5-.2c-.48,3.16-1.05,6.32-1.34,9.5,0,.36,1.53.87,2.35,1.3a8.24,8.24,0,0,0,1-2.69c0-1.84-.44-3.67-.61-5.51A17.6,17.6,0,0,1,337.63,325.37Z"/><path class="cls-1" d="M398.62,458.22a6.09,6.09,0,0,1-.33-1.86c.18-1.21.33-3.3.88-3.43,1.66-.39,4.28-.72,5.13.19,4.7,5,9,10.42,13.68,16,.28-.42.12.16-.19.24-9.75,2.78-11.59,11.38-14,19.14-2.06,6.52-6.08,8.21-11.48,3.86-2.13-1.71-4.63-3.08-6.43-5.07-5-5.51-3.27-11.72-.48-17.29,2.19-4.39,5.68-8.19,8.88-12C394.72,457.4,396.78,458.08,398.62,458.22Z"/><path class="cls-1" d="M381.44,325.51l-.47-1.66-.58.07V331c-1.47,1.09-3.79,2.62-5.83,4.45-.53.48-.19,1.91-.25,2.9l3.72.17c-.92,2-1.39,4.83-3.09,6.19s-4.61,1.22-6.66,1.67L383,278.19l-2.48-.49-4,22.55-.72-.14-8.06,35c-.72,2.4-1.66,5.71-2.73,9-.26.8-.79,1.9-1.44,2.11a14,14,0,0,1-3.8.23,28.8,28.8,0,0,1,1.07-3.57c2.41-5.36,6.09-10.48,7.11-16.07,1.93-10.56,2.4-21.38,3.37-32.1.3-3.32-.87-7.29.61-9.84,2.14-3.68,6.09-6.33,9.75-8.86.36-1.1.72-2.2,1.11-3.41,3.91,2.86,2.53,9.7,10.4,10.15l-3.34,1L392,285.4q-3.08,15.11-6.12,30.09l-1.22-.26q.69-7.35,1.37-14.7l-1.39-.14C383.57,308.87,382.48,317.36,381.44,325.51Z"/><path class="cls-1" d="M360.42,290.61l6.74-3.73,1.42.67-6.44,30.71.84.26,3.81-12,.39.42c-.82,4.58-1.64,9.15-2.53,14.06l-1.79.43,1.59,1.64-.87.56L361.4,319c-.3,4.07-.55,7.32-.8,10.57h-.68c.1,1.52.21,3,.33,4.7-.78,3.73-1.59,7.66-2.4,11.56-4.3-.11-6.16-3.42-4.88-8,.21-.76-.39-1.74-.62-2.61a9.34,9.34,0,0,0-1.47,2.15c-.38,1.19-.22,2.56-.68,3.71a42.47,42.47,0,0,1-2.5,4.58c-.88-1.16-1.75-2.32-2.94-3.88.69-.31.15-.07-.9.39.58-1.41,1.39-2.47,1.33-3.47s-.94-2.09-1.28-2.77a8.6,8.6,0,0,0,1.23-2.29c1.18-7.23,2.27-14.48,3.39-21.72.54-3.48.85-7,1.71-10.41a12.52,12.52,0,0,1,3-5.64c2.08-2.08,4.78-3.56,7.21-5.3-.71,1-1.41,2-2,2.75.2,1,.39,2,.62,3.08l-2.45-.42c-.26,1.47-.49,2.77-.81,4.62l3.61-2.29c-.56,3.95-1.08,7.55-1.69,11.87,1.07-.67,1.74-.86,1.79-1.15.95-5.34,1.9-10.68,2.61-16C362.25,292.27,361,291.4,360.42,290.61Z"/><path class="cls-1" d="M318,620.33l-1.15,1.91-.54-.81c-1.18.57-2.62.88-3.5,1.74-3.49,3.4-6.68,7.1-10.26,10.4-1,.94-3,.91-5.72,1.66l3-4.66c-2.69-4.18-3.51.4-5.08,1.15a28.73,28.73,0,0,0-3.35,2.19c-.29-.54-1-1.31-.82-1.59a18.56,18.56,0,0,1,3-4.22c2.59-2.43,5.42-4.62,7.74-7.33-7.74,2.3-11.36,11-20,11.48l15-13.39-.87-.94-6,5.34c-.14-.32-.33-.77-.74-1.69l-10.39,9-.91-.31c1-1.74,1.66-3.7,2.93-5.19,3.71-4.37,7.66-8.54,11.47-12.82.2-.23,0-.78,0-1.86l-16.7,13.87-.7-.36c1.88-2.7,3.57-5.55,5.68-8.06a32.75,32.75,0,0,1,6.55-6.12c1.36-.92,3.52-.84,5.32-.86.48,0,1,1.29,1.5,2.07,3.32-3.18,6.71-.74,10.15.47,5.41,1.9,10.76,4,16.25,5.67,2.59.78,4.93,4.35,3.4,6.78-2,2.12-3.71,4.48-5.94,6.27s-4.87,2.91-8.08,4.76C309,626.65,317.16,626.11,318,620.33Z"/><path class="cls-1" d="M527.11,292.76c9.6,0,19.13-.07,28.65.13.88,0,2.29,1.77,2.45,2.85a36.4,36.4,0,0,1,.09,7.88,4.58,4.58,0,0,1-1.51,3c-3,2.34-6.26,4.45-9.54,6.73-5.67-5.83-6.17-5.79-14-.72-.59.39-3-1.34-4.14-2.49a13.65,13.65,0,0,1-3.54-5,14.72,14.72,0,0,1-.22-6.38A39,39,0,0,1,527.11,292.76Z"/><path class="cls-1" d="M237,557.58c1.78.95,3.17,1.74,4.61,2.45,2.73,1.33,5.38,3,8.27,3.81,6,1.66,3.27,6.5,3.29,9.55.08,8.2-1,16.42-1.68,24.62a4.26,4.26,0,0,1-1.42,2.35c-.15.15-1.25-.64-1.92-1-1.17-.63-2.43-1.89-3.52-1.77-5,.56-5.65-3.28-5.92-6.15-1-10.6-1.42-21.25-2-31.88A11.8,11.8,0,0,1,237,557.58Z"/><path class="cls-1" d="M554.21,336.37c.66-.89.93-1.27,1.67-2.28-.28,2.82-.07,5.07-.78,7-1.81,4.87-4.06,9.58-6.06,14.38a50.84,50.84,0,0,0-1.58,4.85c-.11.35.08.93-.12,1.08-4.44,3.27-3,8.92-5.54,13.11-2.72,4.47-4.07,9.75-6.06,14.65-.25.62-.83,1.11-2.11,1.36.28-1.57.63-3.13.83-4.71,1.22-9.36,2.53-18.7,3.56-28.08.9-8.23,1.26-16.54,2.42-24.73.18-1.3,3.48-3.25,5.08-3,2.32.32,4.4,2.33,7,3.86l1.08-.91C553.78,334,553.94,334.84,554.21,336.37Z"/><path class="cls-1" d="M535.38,326.75c0,2.52.13,4.34,0,6.14-1,12.17-1.93,24.35-3.23,36.49a126.35,126.35,0,0,1-3.75,18.82c-.49-3.56-1.06-7.11-1.45-10.69q-1.63-14.81-3.11-29.63c-.4-4.07-.46-8.18-.93-12.25-.33-2.93.94-4.3,3.63-5.16S531.52,328.4,535.38,326.75Z"/><path class="cls-1" d="M224.33,627.64c6.74-8,13.21-14.88,18.73-22.46,2.67-3.68,3.54-2.12,5.9-.22,2.94,2.37,5.54,5,4.65,8.72-1.08,4.49-2.27,9.59-5.25,12.79-2.26,2.44-7.35,3-11.23,3.17C233.08,629.79,229,628.43,224.33,627.64Z"/><path class="cls-1" d="M557,600.17l1.89-1c0-.29,0-.59-.08-.88-1,.08-2.39-.2-3,.34s-.72,1.91-1.21,3.49c-.77-1.13-1.12-1.63-1.43-2.08l-2.07,2.62L550,599.3l-7.28,3.61-.74-1.34L557.74,590l-1.3-1,.35-.78,2.43,1.06c3.53-6.1,8.34-6.62,13.5-1.31,2.69,2.76,5.47,5.44,8,8.29.58.64,1,2.19.65,2.66a4.83,4.83,0,0,1-2.92,1.31c-6.06.86-12.13,1.67-18.23,2.31-1.16.12-2.41-.58-3.63-.9Z"/><path class="cls-1" d="M611.36,134c2.39-.42,4.86-1,5.17,2.67L615,134.7v4.52l2.77-.48c-.75,1.77-1.32,3.13-2,4.7l2,1.41c.1-1.57.19-2.94.28-4.3l1.45-.23,2.59,8.87-12.84-6.53c.21-.77.07-.26-.18.68l-1.17-2.26-2.45,1-.25-.45,1.7-1.38-3.39-2.34c-.3.88-.55,1.64-.47,1.39l-15.36-5.62-.13.4-5.68-2.22-.09.13-23.67-8.42c-.06.23-.11.47-.17.7l-27.67-11.92c3.14-8.39,6.28-2.64,9.31-1.09l-.81,1.17a91.52,91.52,0,0,0,8.63,4.46c11,4.34,22.1,8.65,33.28,12.64,6.9,2.47,14,4.35,21.05,6.46,3.76,1.12,7.54,2.18,11.67,3.37v-3.24l-4.18-1,2.21-1.18Z"/><path class="cls-1" d="M220.1,618.84l-2.13.25,4.54-5.78c-.87.11-2.21-.12-2.77.42-2.07,2-3.85,4.28-5.83,6.36a1.8,1.8,0,0,1-1.65.37c-4.75-3.55-4.63-7.52.57-10.36,2.55-1.39,4.89-4.75,8.66-2,.28.2,1.68-1.2,2.62-1.74,1.79-1,3.63-1.94,6.82-3.63l-3.17,4.72-.78-.14L222.73,612l1.13,1c2.35-2.19,5.09-4.11,6.95-6.65,3.17-4.33,7.07-5.4,12.23-2.44L238.89,607c-2.36,3.36-3.7,5.93-5.68,7.88s-5.16,3.3-7.18,5.45c-1.52,1.61-2.06,4.1-3.32,6.81-1.49-.75-4.46-1.41-4.65-2.53-.3-1.78,1.24-3.87,2-5.82,3.84-2.24,7.71-4.43,11.49-6.77.49-.31.53-1.38.65-2.11,0-.1-.95-.57-1.1-.45-1.7,1.44-3.34,3-5,4.47l-.07-.2Z"/><path class="cls-1" d="M508,600.84l-2.4-.8a8,8,0,0,1-.15,2.42c-.91,2.31-2,4.56-3.24,7.44-6.62-.11-14,.74-20.44-3.85a4,4,0,0,1-1.21-3.54,7.12,7.12,0,0,1,2.81-4,16.66,16.66,0,0,1,6.05-1.54c.73-.09,1.59.81,3.26,1.73.63-1.29,1.06-3.61,2.47-4.62s3.72-.83,5.56-.6C505,594,507.33,596.5,508,600.84Zm-12.55,4-.61-1.86c-1,0-2.25-.38-2.93.08a30.81,30.81,0,0,0-3.83,3.59l3.16,1.56.77-2.84,1.91.22c.15.93.28,1.69.49,3l2.92-2.27.68,3.17c2.38-2.6,4.26-4.47,5.86-6.55.4-.52-.12-1.72-.23-2.8Z"/><path class="cls-1" d="M595.72,410l.92-5.59.71-.05c.27,2.81.69,5.62.78,8.43.21,6.34.75,12.72.17,19-.29,3.13-3,6-4.19,9.12-1.85,4.67-3.57,9.4-5,14.21s-2.3,9.72-3.49,14.58c-.12.51-.67.93-1.21,1.63-1.34-5.25,9.35-42.85,11.77-43.43.34-2.82.67-5.5,1-8.28l-2.16.59a11.32,11.32,0,0,0,1.28-2.25,10.64,10.64,0,0,0,.25-2.76c0-.12-1-.45-1.13-.32a5.9,5.9,0,0,0-1.62,2.26c-.83,3.37-1.22,6.86-2.24,10.16-.67,2.18-2.3,4-3.21,6.17-1.52,3.55-2.79,7.21-4.23,10.79a2.73,2.73,0,0,1-1.95,1.54c.41-1.26.81-2.52,1.38-4.29l-2.11,1.06L584,438l-.21-.2q5.79-14,11.59-28Z"/><path class="cls-1" d="M603.64,110.92l2.4-2,3.56,4.73-1.19,1.25c-1.71-.6-4-.71-5-1.89-4.06-4.86-9.91-4-15.12-5-13.42-2.49-26.9-4.69-40.36-7a7.43,7.43,0,0,1-1.38-.51c.1-.49.19-1,.28-1.48,8.58,1.29,17.18,2.47,25.73,3.9s17.2,3.13,26.56,4.85c-.73-1.61-1.1-2.42-1.53-3.35l-2,.86c.08-.41.17-.83.25-1.24l-33.23-7c.07-.48.15-1,.22-1.45,7.47,1.13,14.92,2.52,22.42,3.32C593.56,99.73,599.4,104,603.64,110.92Z"/><path class="cls-1" d="M511.68,601.94c1.95-3.7,5.06-5.51,9.16-6.62a25.31,25.31,0,0,0,7.56-3.51c.58-.4-.25-2.79-.4-4.27-.07-.62-.21-1.75-.07-1.79a11.71,11.71,0,0,1,4.28-.72c.8.1,1.45,1.36,1.91,1.84l-4.3,7.57-.43-.61c-2.13,2-4.43,3.8-6.35,6-1,1.17-1.42,2.9-2.1,4.38l4.45-2.15c-1.18,4.52-11.19,9.18-17.84,7.7.83-1.47,1.7-2.93,2.5-4.43C510.64,604.2,511.14,603.06,511.68,601.94Z"/><path class="cls-1" d="M588.26,116.7l-28.91-7.56v-.65c5.95.7,12.06.78,17.81,2.24a263.5,263.5,0,0,1,27.31,8.58c5.64,2.1,12.67,2.6,15.26,9.61.27.72.61,1.42,1,2.22l-3.78-.29,2.19-2.41-4.23-.25v.88l-25.76-14.5C588.59,115.87,588.26,116.69,588.26,116.7Z"/><path class="cls-1" d="M539.8,471H523.69c-.06.4-.11.79-.17,1.19l2.1,1.32-.88,1.08-5.16-4.28L526,467l-2.15-.87,6.67-12.79C533.67,459.31,536.77,465.25,539.8,471Z"/><path class="cls-1" d="M487.78,520.41c1-1.39,1.86-2.8,2.84-4.17,1.73-2.4,3.72-4.64,5.2-7.18,3.92-6.74,7.59-13.61,11.43-20.4,1.65-2.92,3.46-5.75,5.61-9.31-.11,1.69-.18,2.77-.28,4.39.5-.25,1.41-.38,1.71-.87.94-1.58,1.56-3.35,2.5-4.93a9.91,9.91,0,0,1,2.34-2.41c.12-.09,1.44.82,1.38,1.06a8.6,8.6,0,0,1-1.31,2.81c-2.4,3.28-4.9,6.48-7.32,9.73-3.77,5.06-7.64,10.05-11.21,15.23s-6.85,10.53-10.21,15.84a6.34,6.34,0,0,0-.52,1.78Z"/><path class="cls-1" d="M564.48,135.34c-7.84-3.23-15.9-6-23.43-9.82a78.63,78.63,0,0,1-15.41-10.64c-2.65-2.27-4.13-5.9-5.92-9-.25-.45.51-1.81,1.16-2.29.4-.29,1.46.34,2.24.51,2,.43,4,.85,7.09,1.51a18.81,18.81,0,0,0-2.87.9c-1,.57-2.34,1.13-2.58,2-.29,1,.06,2.83.8,3.32,7.24,4.76,14.54,9.46,22,13.9,4.24,2.52,8.78,4.57,13.23,6.73a34.66,34.66,0,0,0,4.31,1.46C564.88,134.34,564.68,134.84,564.48,135.34Z"/><path class="cls-1" d="M584.68,492.5l-2.34-17h13.59l-9.57,17.35Z"/><path class="cls-1" d="M611.4,133.92l-5.12-1.85c-.12.41-.29,1-.55,1.94l-2.2-.83,2.82-2.41-19.69-7.58A142.58,142.58,0,0,1,568,115c7.7,2.2,15.53,4,23.07,6.69,7.28,2.55,14.26,5.92,21.67,9l-1.4,3.17Z"/><path class="cls-1" d="M185.4,460.87c-.83-19.29,8.06-36.42,11.3-54.81l2,.45Q192.07,433.69,185.4,460.87Z"/><path class="cls-1" d="M420.63,477.68c-.08,6.13-6.47,15.22-10.44,15.51-.71.05-2.3-1.65-2.17-1.91q4.05-8.11,8.52-16c.35-.6,2.55-1,2.73-.71A12.92,12.92,0,0,1,420.63,477.68Z"/><path class="cls-1" d="M549.81,592.62l-.95-1.27L541,601c-4.67-2.34-4.73-3.41-.25-7.08a55.25,55.25,0,0,1,9.15-6.29c1.29-.68,3.42.16,5.15.4.08,0,.24,1.27,0,1.43C553.41,590.53,551.7,591.48,549.81,592.62Z"/><path class="cls-1" d="M567.66,397.32l-1.37.16,5-11.58,1.16.26c-.52,3.46-1,6.93-1.62,10.68l.84.72-3.18,5.81,1,2-1.28-.63-7.14,10.9Z"/><path class="cls-1" d="M517.1,338.91c2.89,4.64,2.62,31.88,0,34.5Z"/><path class="cls-1" d="M492.46,475.63,504,450.85l1.55.66L504,454.86l1.56-.27-11.72,21.68Z"/><path class="cls-1" d="M472.34,361.59c-5.36,9.76-8.41,21-17.89,28.22Z"/><path class="cls-1" d="M509.57,141.16c2.87-3.48,6.26-6.67,8.45-10.52,2-3.54,2.75-7.79,4.11-11.9,3,1.63,3.53,3,1.39,5.69-2.65,3.36-4.32,7.45-6.89,10.89-1.8,2.4-4.39,4.24-6.62,6.33Z"/><path class="cls-1" d="M564.82,368.24l6.74,3.14c-.52.67-1,1.9-1.56,1.93a71.44,71.44,0,0,1-8.9-.09,2.49,2.49,0,0,1-1.85-1.54,2.56,2.56,0,0,1,1.22-2.16,17.08,17.08,0,0,1,4-.46Z"/><path class="cls-1" d="M512.58,127.54c0,.92.45,2.3-.07,3-4,5.58-8.11,11-12.2,16.51l-1.32-.89Z"/><path class="cls-1" d="M582.82,347.88a9.81,9.81,0,0,1-1.15-3c-.14-3.63-.11-7.27,0-10.9a8.25,8.25,0,0,1,1.06-2.59c.61.7,1.72,1.39,1.74,2.12.16,4.68.09,9.38.09,14.08Z"/><path class="cls-1" d="M595.81,368.15l-5,6.39-.9-.61c1.23-5.1,2.46-10.21,4-16.48C594.61,361.45,595.11,364.22,595.81,368.15Z"/><path class="cls-1" d="M538,581.47c-2.79.61-6.36-7.91-4.59-11.42.51-1,1-2,2-3.85C536.35,571.76,537.18,576.59,538,581.47Z"/><path class="cls-1" d="M570.89,120.91l-26.43-7.85.27-1c3.47.87,7,1.59,10.4,2.64,4.58,1.41,9.09,3,13.6,4.65a9.46,9.46,0,0,1,2.12,1.57Z"/><path class="cls-1" d="M596.07,386.77q-2.28,7.73-4.55,15.43l-1.8-.46,4.5-15.37Z"/><path class="cls-1" d="M588.64,389.54l5.71-18.23c1.73,3.66-2.61,15.73-5.75,18.19Z"/><path class="cls-1" d="M512.24,362.92V380.1l-1.66-.14q.66-8.59,1.31-17.19Z"/><path class="cls-1" d="M577.22,327.71l-4,7.67,3,.66-4.73,2.09c.57-3.89,1-7.17,1.67-10.39C573.2,327.49,575.49,327.71,577.22,327.71Z"/><path class="cls-1" d="M569.5,423.82v-3.23l-1.71.32c1.47-3.88,2.86-7.53,4.24-11.18l1.16.24-3,13.83Z"/><path class="cls-1" d="M572.16,507c2.61,1.45,4.93,2.37,1.68,5.41-1.62,1.51-2,4.25-4,6.23C570.63,514.78,571.38,511,572.16,507Z"/><path class="cls-1" d="M547.7,394.32q-2.4,9.1-4.81,18.19l-1.18-.18-.29-3.56.87.22a14.63,14.63,0,0,0,1.29-2.79c1-4.07,1.84-8.16,2.74-12.24Z"/><path class="cls-1" d="M273.32,617l8.16-9.11,1.62,1.42-8.28,8.89Z"/><path class="cls-1" d="M588.6,389.5c-1.08,3.29-2.08,6.61-3.27,9.86a47,47,0,0,1-2.41,4.88l-1.49-.71q3.62-7,7.21-14Z"/><path class="cls-1" d="M514.94,459.17l-3.58,6.91,1.92-.11c-1,2.29-2,4.42-3,6.54l-1.54-.55,4.51-13.44Z"/><path class="cls-1" d="M570.85,121,592,128c-.15.4-.3.81-.46,1.22l-4.42-1.72-.12.24-16.11-6.78Z"/><path class="cls-1" d="M515.67,523.09q-3.67,7.71-7.36,15.41L507.2,538q3.6-7.77,7.19-15.55Z"/><path class="cls-1" d="M411.67,435.44l-4.26,5.8-1.07-.75,7.17-10.29,1.77,1.2-3,4.2Z"/><path class="cls-1" d="M590.79,341.21l1.8,10.24-2.29.34-.92-10.29Z"/><path class="cls-1" d="M552.39,420.8q-1.18,6.07-2.38,12.14l-1.34-.21,2.07-12.19Z"/><path class="cls-1" d="M519,373.68c.14,2.82.29,5.63.45,8.83l-3,1.76c.54-4.24,1-7.44,1.37-10.63Z"/><path class="cls-1" d="M516.58,497.38c1.38-2.94,2.71-5.75,4-8.57l1.45.68-6.57,12.23-.58-4.24Z"/><path class="cls-1" d="M478.52,377.37l-3.06,11.79-1.4-.35L477,377Z"/><path class="cls-1" d="M483.2,158.7l-6.57,8.39A6.8,6.8,0,0,1,483.2,158.7Z"/><path class="cls-1" d="M493.07,115.59,484.16,127c-.18-3.4,6.2-11.3,8.94-11.39Z"/><path class="cls-1" d="M514.93,336.63q-.87,5.91-1.75,11.81L512,348.3l1.2-11.87Z"/><path class="cls-1" d="M506.89,334q-1.09,7.09-2.2,14.18l-1-.11q.87-7.08,1.73-14.15Z"/><path d="M511,249.26c-.17-1.18-.3-2.06-.43-2.94,1.15.39,2.82.44,3.38,1.23,7.62,10.79,18.12,15.55,31.36,15.46,5.17,0,10.37.56,14.84-2.48,4.1-2.78,7.92-6,11.83-9,1.09-.85,2-2.4,3.1-2.57.92-.14,3,1.32,3,2-.05,1.51-.69,3.53-1.83,4.39-6.86,5.17-13.18,11.38-22,13.24-2.85.59-5.94,0-8.91.13-12.16.59-22.7-3.13-31.16-11.73C512.27,255.07,509.07,252.83,511,249.26Z"/><path d="M533.87,186.17c-.48,6.24-.22,11.5-1.51,16.37-.84,3.21-3.78,6-6.16,8.6-.33.36-3.8-.83-4.15-1.86-2.29-6.66-2.61-13.4.57-20,.77-1.62.46-4,1.59-5.13,1.6-1.62,4.51-3.7,6-3.19C532,181.53,533,184.69,533.87,186.17Z"/><path d="M580.17,195.4c-1.57,5.46-2.94,11-4.88,16.32-.43,1.18-3.17,2.6-4.3,2.24a5.89,5.89,0,0,1-3.5-4c-.49-5.27-1.08-10.74-.12-15.85.67-3.53,3.73-6.69,6-9.81.47-.65,2.36-.81,3.3-.46a3.67,3.67,0,0,1,1.59,2.61c.44,2.85.61,5.75.89,8.63Z"/><path d="M291.58,483c1.42,2.51,3.22,4.88,4.19,7.54C300,502.23,304,514,308.08,525.84c.6,1.73.88,3.57,1.45,6,.07-.12-.26.46-.84,1.45-10.3-15.26-12.84-33-19-49.4Z"/><path d="M257.21,542c-5.76-7.76-9.44-43.1-5.14-46.5,1,7.27,1.94,14.14,2.88,21l-.31-.08c.34,4.23.61,8.47,1,12.69S256.69,537.74,257.21,542Z"/><path d="M218.73,500.64c-1.84,9.91-3.59,19.34-5.51,29.71C209.73,521.31,213,504.33,218.73,500.64Z"/><path d="M293.76,286.81c-7.89-1.43-16.19-1.8-23.56-4.57-8.65-3.25-17.26-7.71-21.43-16.86-.44-1,.63-2.6,1-3.92,1,.71,2.11,1.38,3.1,2.15,4.83,3.76,9.24,8.19,14.52,11.17,10.94,6.18,23.22,7.16,35.34,5.16,8.33-1.38,14.67-7.19,20.46-13.21.84-.87,2.74-.73,4.15-1.06.13,1.51,1,3.65.29,4.42C318.66,280,308.19,287,293.76,286.81Z"/><path d="M328,216.56a38.53,38.53,0,0,1-.06,6.36c-1,6-6.93,9.33-10.34,5.66-1.77-1.91-2.51-5.69-2.12-8.41a75.47,75.47,0,0,1,4.14-14.63c.48-1.31,2.35-2.33,3.82-3,.35-.16,1.9,1.6,2.42,2.69a33.37,33.37,0,0,1,2.79,7.49c.22,1.12-1.08,2.53-1.69,3.81Z"/><path d="M226.59,172.38l2.64,4.26-2.42,1.19a6.23,6.23,0,0,0-1.62.91c-.82.79-1.51,1.7-2.25,2.56-.8-.77-2.42-1.87-2.26-2.25a14.31,14.31,0,0,1,2.71-3.7C224.19,174.45,225.16,173.69,226.59,172.38Z"/><path d="M218.43,179l1.88,2.51-.74,1.72,5.58-1.46a29.15,29.15,0,0,0-2.29,2.76,34.16,34.16,0,0,0-1.61,3.27c-.19.44-.13,1.26-.37,1.33-.76.24-1.85.54-2.35.18s-.76-1.5-1.43-3l2.09,1.3C218.35,184.72,214.6,182.24,218.43,179Z"/><path d="M313.75,166.6c-.33,2.51-.44,3.33-.64,4.89l-1.6-2.92,5.62-6.11c.42,2.93.91,6,1.25,9,.05.43-.67.93-1,1.4a9.87,9.87,0,0,1-1.13-1.38C315.58,170.35,315,169.15,313.75,166.6Z"/><path d="M321.84,161.89c-1.55-1.72-2-2.26-2.85-3.16,1.2-.84,2.6-1.4,3.35-2.43,1.3-1.79,2.12-3.93,3.32-5.81a13.44,13.44,0,0,1,2.37-2.26c.28,1,.56,1.91,1,3.2l-.88,0Z"/><path d="M317.19,131.6l-1.71-1.1c-.21.88-.37,1.58-.59,2.57l4,.65c-.16.68-.33,1.34-.55,2.23l-1.56-1.46-.61.86-5.41-4.69,3.6-1.18-1.26-.83.56-.87,4.41,2.66Z"/><path d="M254.66,186l4.16,2.17c-1.57.35-2.84.71-2.87.64-.46-1.27-1.49-3.12-1-3.81,1.47-2,3.57-3.44,5.71-5.36l1.27,1.76c-.84,1.1-1.77,2.31-1.83,2.4Z"/><path d="M253.67,179.88l3.88-2.45-2.61-1.68,1.87-1.67-.92-4.54.81-.24c.73,2.38,1.45,4.75,2.44,8l-4.43,4Z"/><path d="M289.42,134.42c0-1.63-.18-2.59,0-2.68a76.49,76.49,0,0,1,8-3.15c.47-.15,1.36,1,2.06,1.59-.75.23-1.49.5-2.25.69-2,.5-4,1-6.7,1.61Z"/><path d="M236.52,236c-2.38.83-4.85,2.68-6.62-1.08-.21-.46-2.33-.07-3.65-1.31a46.82,46.82,0,0,1,5.3.05,49.5,49.5,0,0,1,5.34,1.15c0-.08-.19.58-.42,1.23Z"/><path d="M237.36,223.4c2.37-2.12,4.7-4.31,7.17-6.32.42-.35,1.46,0,2.95.11-2.89,2.5-4.86,4.41-7.07,6-.7.5-2,.14-3.08.18Z"/><path d="M275.12,169.18c-1.46.94-2.1,1.34-3.69,2.35l4.82-8.05.83,1.56,2.18-2.51,1,.84Z"/><path d="M238,162.19l1.11-6.87,1.37.37c-.4,1-.79,2-1.31,3.28l5,2.14-4,1.13,1.69,2.84Z"/><path d="M235.14,321.61,230.53,325c.18-.9.29-1.49.42-2.17H229l-.78,1.42L234.7,328l-1.42.47c-.88,2.13-1.61,3.89-2.38,5.77l3-.33-.27-1.82.43-.05v7.85L231.44,335l-2.1.37-1.53,2.71c-1.21-.73-2.42-1.44-3.61-2.2-1-.61-1.89-1.29-2.84-1.92-1.25-.82-3.1-1.34-3.66-2.48a61.67,61.67,0,0,1-2.82-8.09l.59.09-2.78-7.43c-.92-6.86-1.6-12.38-2.41-17.88-.45-3.07-1.34-6.1-1.55-9.19-.09-1.15,1.48-2.33,1.77-3.61.65-2.9,1-5.86,1.48-9.13.24.26,1.81,1.16,1.88,2.16.38,5.69.21,11.42.63,17.11.3,4.19.42,8.71,2.15,12.38,1.11,2.35,3,4.15,2.38,7a31.68,31.68,0,0,0-.29,4l2.4-.56V303.32l-5.4-3.16c5.89-.06,7.94,3.11,7.11,7.64-.58,3.23.33,6.72,1.74,10,0-3-.13-6,0-9,.27-5.25.68-10.5,1.11-15.74,0-.28.72-.51,1.11-.76.25.39.73.77.74,1.18.29,8.49.46,17,.87,25.46.06,1.08,1.38,2.1,2.35,3.49l2.83-3.52-3.53.44L232,316Z"/><path d="M238.71,340.55l1.2-1.95-1.82-1.42.76-.23c0-11.32,0-22.4.08-33.48,0-.17,1.21-.33,1.54-.41l1.37-1.92a6.77,6.77,0,0,1,.91,2.06c.55,6.86,1.35,13.73,1.39,20.6,0,5.36-.85,10.74-1.48,16.09-.1.82-1,1.55-1.55,2.33Z"/><path d="M230.63,311.91c.55-2.19,1-3.76,1.35-5.33l1.15-.42c.84,3.09,1.67,6.18,2.47,9.17h-5Z"/><path d="M252,323c.11,1,.23,2,.34,3l-1.52.07c.09-2.12.14-4.25.3-6.36a40.42,40.42,0,0,1,.6-4.24,4.77,4.77,0,0,1,.73-1.79c.12-.16,1.11,0,1.14.1a4.68,4.68,0,0,1,.07,1.75c-.35,2.48-.75,5-1.13,7.43Z"/><path d="M248.54,317.59l-1.56,13-1.48-.21q.9-6.49,1.78-13Z"/><path d="M380.29,199.64q1.59,9.78,3.17,19.56l1-.1L383,226.18l-2.44-.66-1.94,1.75-3.28-5.81c4.4-2.85-1.3-5.05.06-8.17,1,1.17,2.11,2.12,2.62,3.33a22.17,22.17,0,0,1,.86,4.77l2.11-1-3.08-6.83,1.09-.79-7.63-37.14c.5-4.91-5.07-9.7-9.36-14.86l3-5.17c-.35,5.53,2.36,6.91,6.81,6.34,3.18,12.74,6.27,25.16,9.37,37.58Z"/><path d="M370.94,208.63c-.42.17-.83.37-1.27.5a1.08,1.08,0,0,1-.51-.09c-.32-1.15-.63-2.22-.93-3.29l-.74.07.46-2.36-.81.25q-3.33-10.34-6.64-20.68l1.21-.53,4.35,10.41c.58,2.1,1.39,5.06,2.14,7.81l1.46-1.26,1.24,9.21Z"/><path d="M384.8,227.27l-2.72,7.61,1.92-.6c.25,1.15.49,2.23.77,3.56l-4.43,1c.24-2,.45-3.56.6-5.11a2.55,2.55,0,0,0-.14-1.49C378.41,228.45,378.39,228.46,384.8,227.27Z"/><path d="M361,166.37c.44,1.41.87,2.82,1.59,5.13-.55-.33-.09-.05.19.11l-4.81,2.51s-.76-1-1.37-1.75c.77-.53,2.82-1.36,2.76-2a79.56,79.56,0,0,0-2.05-9.46c-.12.29.23-.6,1.13-2.85,1.14,3.53,1.9,5.89,2.66,8.26Z"/><path d="M361.85,174l3.87,3.17-1.27,1.1,4.49,5.89-2.24,1.43,1.19,1.78c-.91-.25-1.65-.26-1.76-.52-1.77-4.16-3.46-8.35-5.16-12.53Z"/><path d="M392.58,228.29c-4.21-2-3.54-5.16-2.36-8.2.24-.62,2.11-.63,3.39-1C393.23,222.55,392.92,225.31,392.58,228.29Z"/><path d="M388.52,204.55l1.11,5.56-1.66.36q-2-7.23-3.91-14.47l1.57-.38c.53,2.54,1.05,5.07,1.58,7.61l.9.36.8-2.24.9.69Z"/><path d="M370.9,208.67c.68,1.72,1.39,3.43,2,5.16.27.73.43,1.5.87,3.07l-1.44,3.68c-1.12-4.06-1.89-6.82-2.62-9.48.39-.82.79-1.64,1.19-2.47Z"/><path d="M332.15,312.53v2.38l2.44-.61c-.67,3.51-1.31,6.57-1.83,9.65-1,5.84-1.9,11.69-2.92,17.53-.09.52-.76.94-1.15,1.41-.69-.77-1.83-1.46-2-2.31-.3-1.88-.1-3.83-1.26-6a8.61,8.61,0,0,1-1.36,2.59,7.69,7.69,0,0,1-2.63,1c-.56-1.74-1.6-3.5-1.56-5.23.05-2,1-4.06,1.61-6.09,1.51-5.46,3-10.93,5.72-16.22-.81,5.28-1.62,10.56-2.35,15.4.84,1,2.24,2,2.1,2.73-.26,1.31-1.43,2.43-2.22,3.63l1.4.85,2.64-2.82c-.1-2.28-3.33-4.92-.08-7.52.58-2.93,1.09-5.87,1.81-8.77.16-.62,1.08-1.05,1.64-1.57Z"/><path d="M337.63,325.37a17.6,17.6,0,0,0-.11,2.4c.17,1.84.58,3.67.61,5.51a8.24,8.24,0,0,1-1,2.69c-.82-.43-2.38-.94-2.35-1.3.29-3.18.86-6.34,1.34-9.5Z"/><path d="M360.42,290.61c.61.79,1.83,1.66,1.74,2.37-.71,5.37-1.66,10.71-2.61,16-.05.29-.72.48-1.79,1.15.61-4.32,1.13-7.92,1.69-11.87l-3.61,2.29c.32-1.85.55-3.15.81-4.62l2.45.42c-.23-1.12-.42-2.09-.62-3.08.57-.78,1.27-1.77,2-2.75Z"/><path d="M220.1,618.84l5.94-5.1.07.2c1.65-1.5,3.29-3,5-4.47.15-.12,1.11.35,1.1.45-.12.73-.16,1.8-.65,2.11-3.78,2.34-7.65,4.53-11.49,6.77Z"/><path d="M495.48,604.84l8.19-4.71c.11,1.08.63,2.28.23,2.8-1.6,2.08-3.48,4-5.86,6.55l-.68-3.17-2.92,2.27c-.21-1.3-.34-2.06-.49-3l-1.91-.22-.77,2.84-3.16-1.56a30.81,30.81,0,0,1,3.83-3.59c.68-.46,1.94-.08,2.93-.08Z"/></svg>