<svg viewBox="0 0 493.8 550" xmlns="http://www.w3.org/2000/svg"><path d="m132.3 473.1 2.9 43.8h17.4l2.3-42.6z" fill="#fff"/><path d="m217.5 47.7v-9.4l-6.4-10.3-5.3-4.1-20.1-8.6-8.9 6.3-26.5-6.8-5.7 11.1-10.6-6.1-6.2 3.9-1.8 16.8z" fill="#fff"/><path d="m350 24.6 4-3.7 3.9-3.7 2.5 1.1 2.5 1.1-.7 1.2-.7 1.2.3.2.3.2.7-.8.7-.8c1.4 1 2.2 2.1 2.3 3.1s-.5 2.2-1.9 3.5c-1.2 1.1-2.3 2.3-3.4 3.6s-2.4 2.9-3.8 4.6c.9-.2 1.5-.3 2-.4.4 0 .7-.2 1-.4.9-1.1 1.8-2.2 2.7-3.4s1.8-2.2 2.8-3.3c.5-.4 1-.7 1.5-1 .6-.3 1.2-.5 1.8-.6.1 0 .3.3.6.7.2.4.5.8.8 1.2.5.5 1.1 1 1.7 1.4s1.2.9 1.8 1.4l1.6-2.2 1.6-2.2-.5-.3-.5-.3-.6.9-.6.9-.6-.2-.6-.2c.4-.9.9-1.7 1.2-2.5l1.1-2.2-1.1-2.4-1.1-2.4c0 .1-.1.3-.1.4 0 .2-.1.5-.2.7l-.5-.2-.5-.2c-.2-1.5-.4-2.9-.6-4.5s-.4-3.3-.7-5.3c2.1-.3 4.3-.6 6.5-1s4.4-.8 6.7-1.3c1.7-.4 3.4-.9 5-1.6 1.6-.6 3.3-1.1 5-1.4 4-.8 8-1.6 12-2.3 4-.8 8-1.3 12-1.6 3.4-.2 6.8 0 10.2.3s6.8.8 10.2 1.2c1.8.2 3.6.6 5.3 1 1.8.4 3.5.8 5.3 1.2 4.6 1.1 8.9 3 12.8 5.7 3.9 2.6 7.5 5.6 11.2 8.3 2.7 2 5.4 4.1 7.9 6.3s4.9 4.5 7 7.1c4.9 5.8 6.9 13.5 5.6 21-.6 3.9-.8 7.9-.8 11.9s.1 8-.2 12c-.2.8-.6 1.6-1.2 2.2-.6.7-1.1 1.4-1.5 2.3-.6 1.7-1.2 3.5-1.6 5.3-.5 1.8-.8 3.6-1.1 5.4-.5 4.7-.8 9.3-1.2 14s-.8 9.3-1.4 14c-.6 3.8-1.2 7.7-2 11.6-.8 3.8-1.9 7.5-3.3 11.2-2.7 6.6-5.6 13.2-8.6 19.7s-6.2 13-9.4 19.4c-1.6 3.2-3.8 6.1-6.4 8.5-2.7 2.5-5.7 4.7-8.8 6.6-2.7 1.7-5.7 2.9-8.8 3.6-3 .5-6.1.6-9.2.3-1.6-.1-3.2 0-4.8.2-1.7.2-3.4.6-5.3.8l1.3 4.7 1.3 4.7 1.5-.5 1.5-.5v2.5c3.4-.5 5.2.5 6.3 2.2s1.5 4.1 2 6.3c.1.4.4.7.8.9.4.3.8.5 1.2.7 1.6.9 3.2 1.8 4.8 2.6 1.6.9 3.2 1.7 4.8 2.5.8.3 1.5.7 2.3 1s1.6.6 2.4.8c.7 1.4 1.5 3 2.4 4.6s1.7 3.4 2.5 5.1c1.8 4 3.4 8.1 4.6 12.3s1.8 8.6 1.8 13c0 4 .1 8 .2 11.9s.2 7.9.3 11.9c.1 5.1.3 10.1.4 15.2s.2 10.1.2 15.2c0 5.9-.1 11.8-.1 17.6s-.2 11.8-.4 17.6c-.1 4.5-.3 9.1-.5 13.6s-.4 9.1-.6 13.6v.7c0 .2-.1.4-.2.6-2.6 3-3.9 6.6-5.1 10.2s-2.4 7.3-4.8 10.3c-1.2 1.5-2.5 2.8-3.7 4.2s-2.3 2.9-3.2 4.5c-.7 1.5-1.2 3.1-1.5 4.7-.4 1.8-.7 3.7-1.2 6-1.8 1.5-2.5 3.9-3 6.6s-.6 5.6-1.3 8.4-1.2 5.6-1.6 8.4-.9 5.7-1.4 8.6c-.8 4-1.5 8-2.3 12s-1.6 8-2.4 12c-.4 1.9-1 3.7-1.6 5.5s-1.3 3.5-1.8 5.3c1.9 1 3.8 2 5.7 3s3.8 1.9 5.7 2.8c2.1 1 4.7 3.6 6.6 6.5s3.2 6.1 2.8 8.2c-.4 1.2-1.1 2.2-2 2.9-.9.9-2 1.5-3.3 1.8-5 1.1-10 2.3-15 3.3s-10.1 1.8-15.1 2.2c-2.8.1-5.6-.2-8.2-1-2.7-.7-5.3-1.6-7.6-2.1l-5.1 1.6-4.9 1.5c-.5.1-1 .2-1.4.4-.5.2-.9.4-1.3.6-2.3 2.1-5.2 3.5-8.4 3.9-3 .4-6.1.5-9.2.4-3 0-5.9-.2-8.9-.4s-5.9-.5-8.9-.7c-4.4-.3-8-2-10.3-4.5-2.4-2.6-3.3-6.2-2.4-9.5.4-2.1 1.5-3.9 3.3-5.1 1.8-1.1 3.9-1.7 6-1.9 1.3-.1 2.3-.3 2.8-1s.7-1.7.4-3.6c-.6-3.9-1-7.8-1-11.8-.1-4-.2-7.9-.4-11.9-.2-3-.3-6-.4-9s-.3-6-.6-9c-.7-8.4-1.5-16.9-2.2-25.3s-1.5-16.9-2.2-25.4c-.3-3.9-.6-7.8-.9-11.7s-.5-7.8-.7-11.7c-.1-1.6-.1-3.3-.1-5s.1-3.3.1-5c0-.2 0-.4 0-.6s0-.4-.1-.4c-2.5-1.3-4.1-3.9-4.2-6.7-.2-2.5.3-5.3.2-7.8-.3-4.6-.5-9.2-.6-13.8s-.3-9.2-.4-13.8c.2-1.5 0-2.9-.5-4.3l-4.5 7.7c-1.5 2.6-3.1 5.2-4.7 7.9l-1-1.2-.9-1.2-16.4 19.1-16.4 19.1-2.7-.3-2.7-.3c.2 1.4.6 2.8.9 4.1s.5 2.7.4 4c0 1.7-.2 3.4-.6 5.1s-.9 3.3-1.6 4.9c-2.1 4.3-4.9 8.3-8.3 11.7-1.1.9-2.5 1.3-3.9 1.4-1.6.2-3.3.2-4.7.5-.5 0-1 0-1.5-.1s-.9-.1-1.4 0c-3.6 1.7-7.6 2.2-11.5 1.4-3.8-1-7-3.6-8.9-7-2.7-4.4-5.2-9-7.5-13.6-2.3-4.7-4.5-9.4-6.4-14.2-1.4-3.4-3.2-6.7-5.4-9.7-2.2-2.9-4.5-5.8-7-8.5-2.5-2.8-4.9-5.6-7.3-8.5s-4.9-5.8-7.4-8.6c-2.9-3.3-6-6.5-9-9.7s-6-6.4-8.9-9.8c-1.7-1.9-3.2-4-4.7-6.1-1.5-2.2-3.1-4.5-4.9-6.9.2 4.9.2 9.6.7 14.1.4 4.5 1.7 8.9 3.7 13 .1.4.2.8.3 1.2s.1.8.1 1.2c.2 1.6.3 3.1.5 4.7.1 1.6.4 3.1.8 4.6 1.1 4.2 2.2 8.4 3.4 12.6s2.4 8.3 3.9 12.4c2 5.5 4.2 10.9 6.5 16.3s4.6 10.8 6.8 16.1c.2.5.4 1.1.6 1.7s.3 1.1.5 1.7c.7 2.3 1.4 4.6 2.1 7s1.4 4.6 2.2 6.9c1.2 3.3 2.3 6.7 3.6 10 1.2 3.3 2.5 6.6 3.8 9.9 1.4 3.5 2.5 7.1 3.8 10.7 1.2 3.5 2.9 6.9 4.8 10.1 1.1 1.7 1.9 3.5 2.3 5.4.3 1.8.4 3.6.4 5.4 0 .7-.2 1.4-.5 2.1s-.6 1.4-.9 2.1c-.6-.3-1.2-.6-1.9-.9s-1.3-.5-2-.7c-1.8-.4-3.6-.8-5.4-1.2s-3.6-.6-5.4-.6c-3 0-6.1.3-9.1.5-3 .3-6 .3-9.1.1-2-.2-3.9-.8-5.7-1.7-1.9-.9-3.7-1.9-5.4-3-1.4-1-3.1-1.7-4.8-1.9-1.6-.1-3.1.5-5 2.3-1.6 1.5-3.5 2.7-5.4 3.6-2 1-4 2-5.9 3.2-.5.4-.9.9-1.2 1.5s-.5 1.3-.6 2c0 4.3.2 8.7.3 13s.2 8.7 0 13c-.1 3 .2 5.1 1.2 6.8s2.8 2.9 5.5 4c3.8 1.4 7.5 2.9 11.3 4.5 3.7 1.5 7.3 3.3 10.9 5.2 1.2.9 2.1 2.2 2.6 3.6.6 1.5.8 3.1.7 4.8-.3 2.5-1.3 4.9-2.9 6.9-1.7 2.1-3.8 3.8-6.3 4.9-5.2 2.6-10.9 4.1-16.7 4.5-5.7.3-11.5-.2-17.1-1.4-1.7-.3-3.4-.6-5.1-1-1.7-.3-3.3-.9-4.8-1.6-3-1.4-5.4-3.9-6.7-6.9-1.2-2.9-1.7-6.1-1.3-9.3.4-2.7 1.2-5.3 2.4-7.7 1.1-2.5 2.4-5.1 3.4-7.6.2-.3.3-.7.4-1s.1-.7.2-1c-.1-5.3-.1-10.5-.2-15.8s-.2-10.5-.2-15.8c0-.6 0-1.3.1-2.1s.1-1.8.2-3.1l1 2c.2.5.4.8.5 1.1l1-.7 1-.7c0 3.6 0 7-.1 10.3s0 6.6.1 9.9c.1 2.3.3 4.6.5 6.9s.5 4.5.8 6.8c.2.4.4.7.7.9s.7.4 1.1.5c1.7 0 3.4 0 5.1-.1s3.4-.2 5.1-.3c.6-.2 1.1-.7 1.3-1.4.1-4.9.1-9.9.1-14.8s.1-9.9.2-14.8c.1-2.9-1-3.9-2.5-4.2s-3.3 0-4.7-.5c-2.4-.7-4.8-1.4-7.1-2.1-2.4-.7-4.8-1.4-7.2-2.1-.7-.2-1.5-.5-2.2-.7s-1.5-.3-2.2-.2c-1.7.3-3.5.6-5.2 1.1s-3.4.9-5 1.5-2.3 1.5-2.3 2.5c.2 1.2.8 2.4 1.7 3.3l.5-.6.5-.6c.1.2.1.4.2.6s.1.4.1.6c-.4 3.9-.9 7.8-1.4 11.6-.5 3.9-.8 7.8-.9 11.6 0 2.7.4 5.5 1 8.1.6 2.7 1.1 5.4 1.3 8.2.1 2 0 3.9-.1 5.9-.2 2-.5 3.9-1 5.8-1.4 6.2-4.2 9.6-8.3 11.4s-9.4 1.9-15.7 1.5c-3.2-.2-6.3-.7-9.4-1.6-3.1-.8-6.1-2-9-3.5-3.3-1.7-6.2-4-8.6-6.8-2.4-2.9-4-6.4-4.6-10.1 0-.8.2-1.7.7-2.4.4-.8 1-1.4 1.8-1.8 4.7-2.1 9.4-4.1 14.1-6.1s9.5-3.9 14.2-5.9c.3-.2.6-.5.8-.8s.3-.7.3-1.1c-.1-5.1-.3-10.2-.5-15.3s-.4-10.2-.5-15.3c0-.7.1-1.3.3-2s.4-1.5.6-2.4l-.8-1.5-.8-.5 1.3.9 1.3.9.3-.2c.1-.1.2-.1.2-.2-.1-.3-.2-.6-.4-.9-.1-.3-.3-.5-.5-.7-1.8-.8-3.8-1.1-5.8-.9-2 .3-3.9.9-5.6 1.9-3.6 1.9-7.8 2.5-11.8 1.9-4.1-.6-8-2.2-11.2-4.9-1-.7-2.1-1.2-3.3-1.4-1.3-.2-2.6-.3-3.9-.2-2.4.2-4.8.6-7.2 1s-4.8.9-7.2 1.1c-.6-.1-1.2-.4-1.6-.9-.6-.5-1-1.1-1-1.4.6-3.8 1.3-7.6 2-11.4s1.5-7.6 2.2-11.4c.5-2.4 1-4.9 1.6-7.3s1.2-4.8 1.9-7.2c.9-3 1.8-6 2.8-8.9s2-5.9 2.9-8.8c.1-.4.1-.9.2-1.3 0-.4 0-.9 0-1.3-.7 0-1.5.1-2.2.1s-1.4-.1-2-.3c-1.1-.4-2.2-.9-3.3-1.4-1-.4-1.9-1.1-2.5-2-.5-1-.9-2-.9-3.1-.1-1.2-.1-2.4 0-3.6.2-5.3.4-10.6.7-16s.5-10.6.8-16c0-.8.1-1.6.2-2.3.1-.8.3-1.6.5-2.3 1.5-5.5 3-11 4.6-16.5s3.1-11 4.7-16.4c.8-2.8 1.8-5.5 2.7-8.2s1.9-5.5 2.6-8.3c.2-.9.1-1.9-.3-2.7-.4-1-.8-1.9-1.3-2.7-1.1-1.8-2.2-3.5-3.4-5.2s-2.4-3.4-3.7-5c-.6-.6-1.3-1-2-1.3s-1.5-.5-2.3-.5c-2.2 0-5.1-1.9-7.5-4.3s-4.5-5.5-4.8-8.1c-.4-2.7-1.4-4.6-3-5.5s-3.9-.9-6.6.2c-1.9.8-3.7 1.7-5.5 2.6-1.8 1-3.6 1.9-5.5 2.7-.9.3-1.8.4-2.7.4s-1.9-.1-2.8-.1c0-.9-.2-1.9-.3-2.8s-.1-1.7.3-2.5c3-5.9 6-11.8 9-17.7s6.1-11.7 9.2-17.6c1.4-2.7 3-5.3 4.6-7.9s3-5.3 4.3-8c.7-1.9 1.2-3.9 1.5-6 .2-2 .7-4 1.5-5.9 1.8-3.7 3.8-7.3 5.8-10.9s4.1-7.2 5.9-10.9c1-2.1 1.8-4.2 2.5-6.4.7-2.3 1.3-4.6 2-6.9.1-.4-.2-.8-.5-1.3s-.8-1-1.1-1.5l-1.1-1.7-1.1-1.8 1.6-.8c.5-.3 1.1-.6 1.6-.9.3-.2.8-.4 1.1-.7s.6-.5.6-.8c.7-9.4 2-18.8 4-28 1.9-9.2 4.1-18.4 6-27.7 2.2-12.8 7.7-24.9 15.9-35.3 1.8-2.2 3.3-4.7 4.9-7 1.5-2.4 3.3-4.7 5.2-6.7 5.2-5.5 11-10.4 17.2-14.6 6.4-4.2 13.6-7.1 21.1-8.4.4-.1.8-.4 1.1-.8s.6-.8.7-1.3c.6-2 1.2-4 1.7-6.1s1.1-4.1 1.7-6.1c.3-.9.7-1.7 1.1-2.5s.9-1.6 1.4-2.4c1.2-2.1 2.5-3.1 3.9-3.3s3 .7 4.7 2.4c2 2 3.3 3 4.5 3s2.3-1.1 3.8-3.5c.7-1.3 1.9-2.2 3.3-2.5 1.3-.1 2.7 0 4 .4.8.1 1.7.2 2.5.2s1.7 0 2.5 0l7.7.4c2.6.1 5.1.2 7.7.3.7-.1 1.4-.3 2.1-.6s1.4-.5 2.1-.6c2.3.1 4.6.2 6.8.4s4.6.4 6.8.6c1 .1 2 .3 3 .5s1.9.3 2.9.1c2-.5 4.1-.3 6 .5 1.8.9 3.3 2.3 4.2 4.1.2.2.5.4.7.5.3.1.6.2.9.1 1.6-.2 3.2.2 4.6 1.1 1.2 1.1 2 2.6 2.2 4.3.4 2.3.9 4.6 1.4 6.9s1.1 4.6 1.5 6.9c.1.6-.1 1.2-.3 1.8s-.6 1.2-.8 1.8c-.7-.3-1.6-.5-2.3-.8s-1.4-.6-1.5-1c-.8-2.4-1.4-4.8-2.1-7.2s-1.2-5-1.9-7.6c-1.8.7-3.9.1-5.1-1.4-1.3-1.3-2.3-3.1-3.7-4.3-.4-.3-1-.5-1.5-.5-.6-.1-1.3-.1-1.9-.1-.9 0-1.9.1-2.8.2s-1.8.1-2.7-.2c-2.6-.8-5.4-1.4-8.1-1.8-2.9-.3-5.8.3-8.4 1.5-1.3.6-3 .4-4.9 0s-3.8-1.1-5.5-1.4c-.7-.2-1.4-.3-2.2-.4-.7-.1-1.5-.2-2.2-.2-1.6 0-3.1 0-4.7 0s-3.1.1-4.7.2c-.6 0-1.1.2-1.6.5s-.9.6-1.3 1c-1.5 2.7-3.2 4.2-5.2 4.5s-4.1-.5-6.5-2.6l-1.8-1.6-2.4-2-3.7 8.6-3.7 8.6 5.5-1 5.5-1c4.1-3 12.5-4.7 22.5-4.3 11.2.5 22.1 3.4 32 8.5l-1.2.2-1.2.2c1.6.9 3.6 2.4 5.4 3.5s3.6 2 4.9 1.6c4.1-1.3 8.5-1 12.4.8 3.7 1.5 7.2 3.7 10.9 5 4.4 1.6 8.5 4 12.1 7.1 13.2 11.4 21.5 27.5 23 44.8.4 4.3 1 8.5 1.6 12.8.6 4.2.8 8.5.8 12.8-.1 5.7-.5 11.5-1 17.2s-1.2 11.4-2.2 17c-.7 4.9-1 9.8-.6 14.7.3 4.9.9 9.8 1.8 14.6.6 3.8.9 7.6 1.1 11.4s.3 7.7.9 11.5c1.1 7.8 2.4 15.7 3.7 23.5s2.7 15.6 4.2 23.4c.6 2.8 1.4 5.5 2.4 8.2s2.1 5.4 2.9 8.1c.1.5.1 1-.1 1.5s-.4.9-.8 1.3c-2.8 1.6-5.8 2.5-9 2.7s-6.4-.3-9.4-1.4c-1.2-.4-2.4-.6-3.6-.6-1.2-.1-2.5-.1-3.7-.3-1.4-.1-2.9-.4-4.3-.6s-2.8-.3-4.2-.1c-2.1.3-4.3.8-6.3 1.4-2.1.6-4.2 1.2-6.3 1.7-.7.2-1.4.5-2.1.8-.6.3-1.3.4-2 .4-4.5-.8-9.1-1.7-13.6-2.6s-9-1.9-13.5-2.8c-.5-.1-.9-.4-1.3-.8-.5-.4-1-.9-1.8-1.4l-2.5.5-2.5.5c.6 1.2 1.1 2.3 1.6 3.4s1 2.1 1.6 3c2.9 5 6.1 9.8 9.6 14.5 3.4 4.6 7.1 9.1 11 13.3 3.3 3.7 6.2 7.6 8.9 11.7s5.4 8.3 8.2 12.3c1.6 2.3 3.3 4.5 5 6.8s3.4 4.4 5.1 6.6c2.1 2.9 4.6 5.6 7.3 8 1 .8 2.1 1.4 3.3 1.8 1.1.4 2.3.5 3.4.3 1-.2 2-.6 2.8-1.2 1.1-.9 1.8-2.2 2-3.7.8-4.5 2.4-8.8 4.9-12.6 2.6-3.9 5.7-7.5 9.2-10.7 5.8-5.3 11.4-10.9 16.8-16.7s10.5-11.8 15.5-18c6.1-7.8 11.8-15.9 17.4-24.1s11.1-16.5 16.7-24.6l4.5-6.4c1.5-2.1 3-4.3 4.5-6.4-1.6-.6-2.7-2.2-2.7-4 0-2 .9-3.8 2.5-5 2.1-1.5 4.2-2.8 6.5-4.1 2.2-1.3 4.5-2.5 6.5-4 .7-.5 1.2-1.2 1.5-2 .4-.8.7-1.7 1.1-2.5 1.7-3.7 3.7-5.9 6.1-6.6s5.1.2 8.3 2.4c.6-1.2 1.2-2.4 1.8-3.6s1.1-2.5 1.5-3.7c0-.6-.2-1.3-.6-1.8-.4-.6-.9-1.1-1.5-1.5-4.4-1.9-8.9-3.7-13.3-5.5-4.4-1.7-8.7-3.7-12.9-6-7.3-4.2-12.7-11-15.3-19-1.8-5.1-3.6-10.3-5.2-15.5-1.7-5.2-3.1-10.4-4.1-15.7-.8-4.5-1.2-9.1-1.1-13.7-.1-4.6 0-9.3-.1-13.9-.1-2.9-.1-5.8-.1-8.6s.1-5.8.1-8.7c-1-.1-2-.5-2.9-1.1-.6-.6-.6-1.5.8-3.1.1-.1.2-.2.2-.4 0-.1 0-.3 0-.4-1.9-2.2-2.6-5.1-2-7.9.4-2.6 1.5-5.3 1.8-7.9.7-5.3 2-10.5 3.7-15.5s3.9-9.9 6.3-14.7c1.2-2.3 2.2-4.6 3.4-6.9 1.1-2.3 2.4-4.5 3.8-6.6 1.8-2.6 3.6-5.1 5.6-7.6s4-4.8 6.1-7.1c1.9-1.9 4.5-3 7.2-2.9 2.7-.1 5.4.8 7.6 2.4.5.3 1.1.6 1.7.6.7.2 1.6.3 2.8.7l-3.8 2.6-3.7 2.6-.4-.5-.4-.5 1-.9 1-.9c-.6-1.8-3.1-2.2-6.2-1.1-4.1 1.6-7.5 4.5-9.9 8.1l.7.9.5 1.1c-1.3.1-3.6 2.1-5.5 4.5s-3.5 5.2-3.4 6.9l4.4-5.7zm95.5 273.9c3.1-2.5 7.5-14.5 5.8-18.2l-5.8 18.2c-2.4 4.7-4.8 9.4-7.2 14l1.5.7c.9-1.6 1.7-3.2 2.4-4.9 1.3-3.2 2.3-6.5 3.3-9.8zm-17.6-268.5 16.1 6.7.1-.2 4.4 1.7c.2-.4.3-.8.5-1.2l-21.1-7c-.6-.6-1.4-1.2-2.1-1.6-4.5-1.6-9-3.2-13.6-4.6-3.4-1-6.9-1.8-10.4-2.6l-.3 1zm-350.8 497.9c-.8 2-2.3 4-2 5.8.2 1.1 3.2 1.8 4.7 2.5 1.3-2.7 1.8-5.2 3.3-6.8 2-2.2 5.1-3.4 7.2-5.5s3.3-4.5 5.7-7.9l4.1-3.2c-5.2-3-9.1-1.9-12.2 2.4-1.9 2.5-4.6 4.5-6.9 6.7l-1.1-1 4.3-4.7.8.1 3.2-4.7c-3.2 1.7-5 2.6-6.8 3.6-.9.5-2.3 1.9-2.6 1.7-3.8-2.7-6.1.6-8.7 2-5.2 2.8-5.3 6.8-.6 10.4.6.2 1.2 0 1.7-.4 2-2.1 3.8-4.4 5.8-6.4.6-.5 1.9-.3 2.8-.4l-4.5 5.8zm391.2-484.9 1.4-3.2c-7.4-3.1-14.4-6.5-21.7-9-7.5-2.6-15.4-4.5-23.1-6.7 6 3.2 12.2 5.9 18.6 8.1l19.7 7.6-2.8 2.4 2.2.8c.3-.9.4-1.5.5-1.9l5.2 1.9-2.2 1.2 4.2 1v3.2c-4.1-1.2-7.9-2.2-11.7-3.4-7-2.1-14.1-4-21-6.5-11.2-4-22.2-8.3-33.3-12.6-3-1.3-5.8-2.8-8.6-4.5l.8-1.2c-3-1.5-6.2-7.3-9.3 1.1l27.7 11.9c.1-.2.1-.5.2-.7l23.7 8.3.1-.1 5.7 2.2.1-.4 15.4 5.6c-.1.2.2-.5.5-1.4l3.4 2.3-1.7 1.4.2.5 2.5-1 1.1 2.3c.2-.9.4-1.5.2-.7l12.8 6.5-2.6-8.9-1.5.2c-.1 1.4-.2 2.7-.3 4.3l-2-1.4c.7-1.6 1.2-2.9 2-4.7l-2.8.5v-4.5l1.5 1.9c-.2-3.4-2.7-2.8-5.1-2.4zm-250.9 156.6c-2.4 1.7-5.1 3.2-7.2 5.3-1.5 1.6-2.5 3.5-3 5.6-.9 3.4-1.2 6.9-1.7 10.4-1.1 7.2-2.2 14.5-3.4 21.7-.3.8-.7 1.6-1.2 2.3.3.7 1.2 1.7 1.3 2.8s-.8 2.1-1.3 3.5c1-.5 1.6-.7.9-.4 1.2 1.6 2.1 2.7 2.9 3.9.9-1.5 1.8-3 2.5-4.6.5-1.1.3-2.5.7-3.7.4-.8.9-1.5 1.5-2.1.2.9.8 1.9.6 2.6-1.3 4.6.6 7.9 4.9 8 .8-3.9 1.6-7.8 2.4-11.6-.1-1.7-.2-3.2-.3-4.7h.7c.2-3.2.5-6.5.8-10.6l2.2 4.6.9-.6-1.6-1.6 1.8-.4c.9-4.9 1.7-9.5 2.5-14.1l-.4-.4-3.8 12-.8-.3 6.4-30.7-1.4-.7zm-28.3 22c.6-2 1.2-3.9 1.6-5.9 0-.7-.1-1.4-.4-2.1l-13.2 5.4-26.8 4.6 1.2 2.7 2 13.8.6.2-3.4 8.6c4.5-1.7 7.7-3.2 11.1-4.1 3.5-.7 6.9-1.3 10.5-1.7.2-4 .6-9 .9-13.9.1-1.1.2-2.2.5-3.3 0-.2 1.3-.3 1.4-.2.4 1 .6 2.1 1 3.4h1.2c-.8 6.3-1.5 12.6-2.3 19.2.2 1.2.6 2.4 1.1 3.5 2.5 4.2 7 4.3 11.2 4.7 2.7.2 5.5-.7 8.2-.8 5.3 0 3.3-3.2 2.9-5.9 0-.3.4-.7.4-.7-.7-.8-1.8-1.4-1.7-1.9.7-4.9 1.6-9.9 2.5-14.8 1.4-7.9 2.7-15.8 4.2-24.3-6.6 2.5-4.6 8.4-7.8 13.2.3-3.7.6-6.6.8-9.4l-.7-.5-3.4 6.3.3 4.6zm-95.7-76.6 15-8.2-1.6 2.2 6.7-3.2-2.8-1c1.1-.5 1.9-1.2 2.2-1 4.6 2.3 6.9-2.1 10.3-3.4.6-.4 1-1 1.1-1.7.7-3.9 1.2-7.8 1.7-11.7 0-.7-.2-1.4-.4-2-.7.2-1.5.2-1.9.7-2.2 2.1-4.1 4.6-6.6 6.4s-5.4 3.4-5.5 7.1c0 .4-.8.7-1.7 1.3l.6-2.9c-1.1.6-2 .8-2.4 1.4s0 1.3-.1 2-.2 1.2-.5 2.9l-1.3-3-14.2 11.1c-1-1.9-3-3.9-2.5-4.9.9-1.9 3.2-3.2 4.9-4.8l2 2.9 15.1-11.5c-.2-.7-.3-1.3-.3-1l4-3.5h-4.7l2.8-2.2.2-2.8 2 5.3 6.3-5.7-1.6-2.5 1.2-1 .9 3.2.9-.8v-2.9l1.9 1 2.6-2.8-3.6.7 6.7-4.6.5.3.4-2.5 1.8.8c-.1-.8-.1-1.3 0-.7 2.9-2.5 5.2-4.4 7.4-6.4 6.1-5.8 12.2-11.6 18.1-17.5 3.9-3.9 7.6-8 11.2-12.1.4-.5.2-1.6.3-2.5 0-.1-.4-.2-.6-.3l-1.1 1.6c-1.9-.3-3.9.1-5.6.9-2.7 1.2-5.5 3.7-7.9 3.3-4.6-.7-5.7 2.7-8.1 4.7s-3 6-7.4 4.6c-.1 0-.4.3-.8.7l2.1.9-3.4 3.7-.7-.4 1.2-3c-.2-.2-.7-.6-1.7-1.5l15.7-15.7.8 1c.1-1.3.2-2.6.3-3.5l-8 5 .5.9-2.3.7-.9-2 6.5-4.5c6.1-7 16.5-6.8 23.1-12.1 2.4-.1 4.6-.3 6.8-.3.7 0 1.4.6 2 .9-.5.6-.9 1.6-1.6 1.8-2.1.6-4.4.6-6.4 1.4-4 1.6-8.1 3-11.6 5.4s-5.9 5.8-8.8 8.7l1 1.5 4.9-1.6-.1-.7 22.3-11.6c-.2 1.8-.6 3.6-1.1 5.3-1 2.1-2.3 4-3.8 5.8-2.3 3.2-4.7 6.2-7.3 9.1-6.3 6.8-12.8 13.3-19.2 20l.3.1-8.8 6.8-5.1 1.8c.9.9 1.1 1.4 1.6 1.6 3 1.3 5.6 2.7 4.7 6.7-.1.3 1 1.1 1.6 1.2.8.1 1.5-.2 2.1-.7 4.8-4.4 9.6-8.8 14.2-13.4 2.9-2.8 5.3-5.9 8.3-8.6 3.1-2.8 7.4-4.7 9.8-8 5.4-7.4 9.9-15.4 14.6-23.2.8-1.4.5-3.5 1.4-4.7 3.1-4.1 2-7.3-3-8.9-4.3-1.2-8.5-2.7-12.7-4.4-2.2-1-4-2.9-6.4-4.6l5.2.6.1-.9-20.7-2.6-.1.7 5.2 1-.2 1.1-3.9-1c-.9.6-1.9 1-2.9 1.4-2.8.4-5.6.5-8.3 1.2-5.8 1.5-11.4 4.6-17.3 4.9-12.7.7-22.8 6.3-31.8 14.1-15.4 13.4-26.3 29.9-33.3 49-.4 1.6-.6 3.2-.7 4.8l1.4.4c1.4-4 2.8-8 4.3-12.4l.4 3.9 3.3-3-.4 5.3-2.1-.5c-1 2.8-1.9 5.1-2.7 7.4l-.9-.4-4.8 10.7c.8-.4.3-.1-.1 0-1.9 7.9-3.7 15.6-5.5 23.3l.4.1c-1.4 7.5-2.7 14.7-4 21.9l1.3.5 2.8-2.2-1.2-.7 4.6-8.2-.8-.7-2 1c2.2-4.2 4.3-8.2 6.4-12.1l-.8-.5-2.2 2.5c-.9-1.6-1.7-3.1-2.2-4.1l10.2-1.1-3.2 6.4c.7.6 1.5 1.1 2.3 1.4s1.6.2 2.3-.1c1.5-1 2.9-2.3 4.3-3.4 1-.7 2.1-1.4 3.1-2l-.4-.8-5.5 1c.9-3.2 2.1-7.1 3.2-11.1l-1.5-.4c0 1-.2 1.9-.5 2.8-.7 1-1.5 1.9-2.4 2.6-.8.7-1.6 1.3-2.5 1.9l4.9-10.1 2.4 1.4c.2-2.7.4-4.9.6-7.2-1.5 0-2.8-.1-4.1 0s-2.8.4-5.6.8l10-5.5c2.9-4.1 5.8-7.7 8-11.6s4-8 6-12.4l.9.2c.4-1.2.9-2.4 1.4-3.5 5.6-8.7 11.2-17.2 16.7-25.9.2-.3-.4-1.8-.7-1.8-1.6-.1-3.3-.1-4.9 0l1.9 5.8c-2.6-2.6-4.6-4.2-6-6.3-.3-.4 1.6-2.3 1.8-2.6 1 .6 2 1.1 3.1 1.5.1 0 .9-1 .8-1.2-1.2-2.2-.3-3.1 1.7-4.4 4.9-3.1 9.5-6.7 14.6-10.4.5 1.7.7 2.5.8 2.7l4.8-5.9.4 4 8.4-.9 8.9-3.7c.3 1.1-.2 2.3-1.1 2.9-1.2.4-2.5.7-3.8.8.9 1.4 2 1.5 2.6 2 .7.7 1.2 1.6 1.5 2.6.1.2-.7 1-1.3 1.2-2.4.7-5.1.9-7.3 2-5 2.6-9.8 5.6-14.5 8.6-2.8 1.8-6.2 3.3-8 5.9-4.5 6.3-8.2 13.1-12.1 19.7-2 3.2-3.8 6.6-5.6 9.9l1.8 1.4-2.7.4-8.3 17.2 1.3.7h-1.6c-1.5 3.2-3.1 5.9-4.2 8.9-1.4 3.9-2.4 7.9-3.5 11.9 0 .7.1 1.4.3 2.1.7-.4 1.8-.6 2-1.2 1.7-3.5 3.2-7.1 4.9-10.8-2.3-2.3-.3-5.3 5.8-8 .2-1.1.3-2.1.6-3.6l1.4 1.6 25.2-23.5.3.4 16-13.7.8.7-6.4 8.1-.5-1.8-5 6.1c-.1 0-.9-.2-1.1.1-1.2 1.4-2.2 2.9-3.9 5.3.7-.1 0 0-.9.2l1.2-2.5-.4-.2c-1.4 1.6-2.7 3.2-4.3 5.2.1.4.1.7.2 1.1l-1.6-.5-3.2 2.2 1.6 1.3c-2.6 1.7-5.1 3.4-6.6 4.4l-7 9.2c-.4.9-1.8 1.3-2.7 2.2-.6.5-.7 1.7-1.4 3.8l2.6-2.4.7.5-3 4c-1.1-.3-1.8-.5-1.2-.4l-12.2 13.7-2.3-.3 4.4 4.5-4.8-.6 1 1.4-10.3 11.2-.1-.2-4.7 5.3c3.8-1.2 7.4-2.9 10.7-5.2 1.3-.8 2.1-2.3 3.9-4.3 1.3-.7 3.9-2 6.3-3.4 3.3-1.9 6.3-3.8 9.3-5.7zm327.8 47.4.2-.1c1-.1 2-.1 3-.2 2.2-.3 4.4-.5 6.5-.9 11-2 21.9-4.3 27.4-15.6 7.5-15.4 16.1-30.2 19-47.5 2.2-12.9 7.2-25.3 4.4-38.8-1.2-5.9-1.8-12-3.3-17.8-.6-2.6-2.1-4.9-4.2-6.6-2.5-1.7-5.9-2-8.9-2.9-7.9-2.3-15.8-4.7-23.7-6.9-9.3-2.6-18.9-4.4-28-7.7-8.7-3.1-16.8-7.5-25.3-11.3-.7-.1-1.4.1-1.9.6s-.4 1.5-.9 2c-1.2 1.1-3.1 1.8-3.8 3.1-3.9 8.3-12.1 12.4-17.9 18.8-3.4 3.7-8 6.2-12 9.4-5.5 4.4-11 8.8-16.3 13.5-1.9 1.7-4.4 3.9-4.5 6.1-.9 12-2.4 24.1-1.1 35.9 1.4 12.5 5 25 9 37.1 2.8 8.3 7.6 16.2 16.3 20.3 9.2 4.3 18.4 8.7 28.1 11.7 10.5 3.3 21.6 2.7 32.5.6.4-.1.7-1.3 1.2-2.4zm-385.1 267c2.7-.5 4.8-.4 6.5-1.2 6.3-3 14.5-2.9 17.3.5s11.4 6.1 15.1 4.1c11-6 20.3-2.9 29.9 3.4 2.8 1.8 7.3 2.9 10.4 2 7.7-2.1 14.3-2.2 21.8 1.4 10.4 5 19.9.1 28.3-6.3 4.2-3.2 8.2-3.9 13-1 3.8 2.3 8.2 4.8 12.4 5.1 7.7.6 15.4-.4 23.2-.9.4 0 1.1-1.5 1-2-2.5-6.8-5.1-13.6-7.7-20.4-4.5-12-8.8-24.1-13.5-36-3.4-8.6-7.7-16.9-10.7-25.7-3.5-10-6-20.4-9.1-30.5-.5-.8-1.3-1.3-2.3-1.4-6.1 1.7-12 4-18.2 5.3-5.8 1.2-12.2.4-17.7 2.4-8.9 3.1-17.6 5.9-27.1 5.8-4.1 0-8.2 1.5-12.3 1.5-4.9.1-9.8-.3-14.7-1.2-4.5-1-8.8-3.2-13.2-4.8l.5-2.2c1.4-.1 2.8-.1 4.2 0 4.3.8 8.5 2.3 12.8 2.4 6.8.2 13.6-.5 20.4-.8 5.1-.2 10.7.7 15.1-1.1 9.4-3.8 19.2-6.3 29.3-7.3 6.8-.7 13.5-3.2 20.1-5.3.8-.2.7-3.5.6-5.3 0-.5-1.6-1.4-2.3-1.3-6.3 1.1-12.6 2.2-18.8 3.8-7.8 2-15.3 5.4-23.2 6.4-18.5 2.4-37.3 1-55.2-4.2-1.1-.3-3.8 1.2-4 2.3-1.8 7.5-3.2 15.1-4.8 22.7-1.5 7-2.6 14.2-4.8 21-1.4 4.6-4.8 8.5-6.3 13-3.1 9-5.5 18.3-8.2 27.4-2.4 8.9-4.9 17.9-7.8 28.4zm32.9-293c4.4 5.4 7.8 10.4 12 14.7 6.7 7.1 13.2 14.5 20.9 20.4 6.5 4.9 13.7 8.8 21.4 11.5 6.9 2.4 14.7 3.2 22.1 3.6 7.1.3 14.6.4 21.3-1.6 15-4.6 30.6-8.2 43.6-17.9 6.3-4.7 13.6-8.1 20.2-12.6 3.5-2.4 5.9-5.9 4.6-10.5-1.7-5.8-3.4-11.6-5.3-17.3-2.8-8.2-5.9-16.2-8.6-24.4-1.8-5.2-2.9-10.7-4.6-15.9-4.7-14-10.1-27.9-14.3-42-2-6.5-2.1-13.5-2.9-19.8-4.8 16-14.5 30-27.7 40.2-1.1 1.3-2.2 2.5-3.5 3.6-1.4 1.1-3 2-4.2 3.2-5.6 5.3-10.6 11.4-16.9 15.8-4.8 3.5-6.5 7.8-8.2 12.8-.8 2.2-4.3 5.5-5.8 5.1-5.6-1.3-9.3.8-13.9 3.5-16.6 9.3-33.2 18.1-50.2 27.6zm86 89.8c-.4 1.3-.8 2.4-1.1 3.5-.4 1.3-.4 2.8-1.1 4-3.3 5.8-9.5 6.8-15.1 6.9-4.8.1-9.5-2.8-14.4-3.8-4.6-.9-8.8-2.5-10.9-6.7-1.9-3.8-4.3-4.1-7.8-3.2-3.2.9-6.4 1.6-9.7 1.9-4.1.3-6.4 1.7-5.6 6.1.1.6-.3 1.3-.6 1.9-3.7 10.4-7.2 20.9-11.1 31.2-2.7 6.9-4.3 13.9-3.9 21.4.3 6.2-.2 12.4-.3 18.6.2.7.7 1.3 1.4 1.6 8.6 1.5 17.2 3.3 25.9 4 6.9.6 13.9-.2 20.8-.5 3.8-.1 7.7.1 11.3-.9 10.6-2.8 21-6.3 31.7-8.9 3.5-.9 4.8-.6 4-5.2-1.9-11.4-2.9-22.9-3.2-34.5-.2-10.8 1.3-21.7 1.6-32.5 0-1.6-1.7-3.5-3.1-4.7s-3.6-2.1-5.4-3.1c-.8-.5-1.7-.9-2.5-1.3l.2 1.4-3.3 1.3zm-74.8-66c-2.9-4.3-5.6-8.2-8.2-12.2-1.7-2.6-3.3-5.4-5.1-8-.7-.6-1.7-.9-2.6-.7-2.9.7-5.8 1.6-8.6 2.7-1.4.6-2.4 1.7-3 3.1-.5 1.5-.2 3.4 0 5.1 2 15.6 4 31.1 5.9 46.7.9 7.4 1.5 14.9 2.4 22.4.2 1.1.9 2.1 1.9 2.6.6.3 1.8-.6 3.1-1l.8 2.5c.2-2.3.2-3 .3-4.1 2 1.2 3.7 3 5.5 3.1 1.5.1 3.2-1.7 4.7-2.7l1.5-2.8 1.9 5.7.3-3.4c.5 1.5.9 2.6 1.2 3.5 4.7-.3 9.1-.6 13.5-.7 6.1-.3 12.5.7 18.2-1 4.6-1.3 4.8.3 5.9 3.3 2.3 6 9.1 9.8 14.3 8.3l.2-2c6.9-.2 11.4-4.6 12.5-11.1 1.4-8.4 2.5-16.7-.7-24.9-.2-.6-.7-1.4-1.1-1.4-5.1-.6-10.2-1.1-15.2-1.6-2.1 8.7-4 17.4-6.4 25.9-.3 1.1-3.1 1.4-4.8 2.1-.8-2.2-2.1-4.4-2.2-6.6-.2-2.5.6-5.1 1-7.7l-.3.1 3.8-12 1.3.2c-1.1 5.7-2.2 11.4-3.5 18.1 1.2-1 1.8-1.3 2-1.7.9-2.1 1.7-4.4 2.3-6.6.6-2.7.5-5.6 1.4-8.3.9-2.8 2-4.4-2.4-5.6-4-1.1-7.1-5-11-6.8-8.8-4-17.2-8.4-23.7-15.8-2-2.3-3.8-4.7-5.7-7.1zm-26 108.8 16-41.5-5.2-3.5c-4.2 2-8.4-.4-9-5.1-2.2-16.7-4.4-33.3-6.6-50-.4-3.4-.8-6.8-1.3-11.3-1.8 3.2-3.2 5.3-4.4 7.5-4.1 7.4-9.7 14.1-10.4 23-.3 2.5-1.1 5-2.3 7.2-7.8 14.1-15.7 28.2-23.5 42.3-.8 1.4-1.1 3.1-2 5.9 2.2-.9 4.3-1.9 6.4-3.1 8.5-5.6 16.8-2.9 20 6.4.7 2.4 1.9 4.7 3.6 6.5 1.3 1.3 3.9 1.5 5.8 2.4s4.4 1.8 5.8 3.4c2.7 2.9 4.8 6.5 7.1 9.9zm191.8-198.7c1.1 0 2.2-.1 3.3-.3 1-.3 2.8-1.2 2.7-1.4-1.3-5.3-2.7-10.6-4.4-15.8-.4-1.2-1.8-2-2.7-3l-.6.6-6.1-12.6-3.6 1 1.3-3.8-13.5-8.9-21.6-9.2c.2 2 .3 2.8.5 4.2.5.9.9 1.9 1.2 2.9.3 2.2-.1 4.6.6 6.7 2.7 8.3 5.7 16.5 8.5 24.8 3.1 8.9 6.1 17.8 9.1 26.7 5.1 15.6 10.1 31.3 15.3 46.9 1.4 4.1 3.5 7.9 5.2 11.9.6 1.4 1 2.8 1.5 4.2l1.6-.3c-.3-3.4-.4-6.9-.9-10.2s-1.2-6.6-1.9-9.9l-.3.1c-.7-1.9-1.3-3.9-2.2-6.5l3.3 1 2 4.4.8-.2v-13.3l.3-.3-2.1-2.5c2.8.7 5 .8 6.3 1.9.7.6-.2 3-.4 4.6-.2 1.3-.6 2.6-.8 3.9l1.5.3c-1 3.6-2.4 7-3 10.7-.3 2.8-.2 5.6.3 8.4.4 3.2 1.4 6.4 1.8 9.6.2 2.1-.4 4.3-.6 6.5l-.6-.2v6c2-3.8 3.4-8 4-12.3.7-5.9.6-11.9 1.1-17.9.4-4.8 1.4-9.6 2-13.4-.3-4.5-.5-7.8-.7-11.1l.6-.2c-.8-3.2-1.6-6.4-2.4-9.6l.6-.1 2.4 4.3c-.4-6-.7-10.5-1.1-15.6l-3.1 1.6 1.1 2.8-2.4.3c.3-1.6.6-2.8.8-4.2 3.5-1.5 4.2-7.9 1-12.7l-6 3.1c0-1.1.2-2.4.3-3.9zm8.8 96.3h-.8c-.2.4-.4.8-.5 1.2-2.7 12.4-5 25-8.3 37.3-2.1 7.9-5.8 15.5-9.1 23.1-.4 1-2.8 1.6-4.3 1.8-2.2.3-5.2-.9-6.5.2-2.1 1.7-3.1 4.2-5.1.2-.1-.2-1.2.1-1.9.1h-4c-1.3 0-2.8-.1-4.2-.2l-.1.7h-32.7c.9 1.7 1.5 3 2.2 4.3 2.3 4.4 4.3 9.1 11 7.1 1-.3 2.3.4 3.4.7 2.7 1 5.5 1.8 8.4 2.5 4.8 1 9.6 1.6 14.4 2.3 2.4.3 5.6 1.5 7.2.4 8.1-5.4 16.9-2.3 25.3-2.7 5-.2 10 1.8 15.1 2.4 2.3.3 4.1-.5 3-3.6-1.2-2.9-2.1-5.8-2.9-8.8-1.5-8-2.7-16-4-23.9-1.6-10.4-3.3-20.9-4.7-31.3-.6-4.6-.6-9.3-.9-13.8zm-82.4 104.4c2 1.3 3.4 1.8 4.1 2.7 3.4 4.4 6.3 9.1 9.9 13.2 12.4 14 25 27.7 37.4 41.7 1.8 2.3 3.3 4.8 4.5 7.5 2.2 4.8 4.1 9.8 6 14.3 4.2-5.2 8-10 11.7-14.8.4-.8.3-1.7-.2-2.5-2.5-2.4-5.4-4.4-7.8-7-4.6-4.8-8.9-9.9-13-15.1-5.6-7.5-10.3-15.6-16.1-22.9-6.9-8.6-15.6-15.9-20.2-26.2-2-4.4-4.6-8.4-7-12.6-1.9-3.3-3.8-6.6-6.3-10.9-6.2 12-4.9 23-3 32.6zm-86.4-41.4c-5.6-.6-12.8 4-14.9 9.5-4 10.4-7.6 21-11.2 31.5-.6 1.8-.9 3.8-.9 5.7-.3 4.3 0 8.7-.6 13-1.1 7.3-2.9 14.6-4.2 21.9-1 5.9-1.5 11.9-2.8 17.7-.8 3.6-2.9 6.8-3.9 10.4-2.6 8.9-6.3 17.5-5.7 27 .1 1.3.7 3.7 1 3.7 1.9 0 4.6 0 5.5-1.1 2.5-3.4 5.1-7.1 6.1-11.1 3-11.3 5.2-22.7 7.7-34.1 1.5-6.7 2.7-13.4 4.3-20 .3-1.4 2.2-2.6 2.3-4 .4-5.6.1-11.2.5-16.7.3-3.1.9-6.1 1.9-9.1 1.8-5.5 4.2-10.9 6-16.4 1.6-4.9 2.7-9.9 4.2-14.7 1.4-4.4 3.1-8.6 4.7-13.2zm169.6 107.7c-1.8-.1-3.9-.8-4.4-.2-3.2 3.8-6.7 7.6-8.9 12-2.8 5.6-4.5 11.8.5 17.3 1.8 2 4.3 3.4 6.4 5.1 5.4 4.4 9.4 2.7 11.5-3.9 2.5-7.8 4.3-16.4 14-19.1.3-.1.5-.7.2-.2-4.7-5.6-9-11-13.7-16-.9-.9-3.5-.6-5.1-.2-.6.1-.7 2.2-.9 3.4 0 .5.2 1.2.4 1.8zm-17.2-132.8c1-8.1 2.1-16.6 3.2-25.1l1.4.1c-.5 4.9-.9 9.8-1.4 14.7l1.2.3c2-10 4-20 6.1-30.1l-2.2-1.7 3.3-1c-7.9-.4-6.5-7.3-10.4-10.1-.4 1.2-.8 2.3-1.1 3.4-3.7 2.5-7.6 5.2-9.8 8.9-1.5 2.6-.3 6.5-.6 9.8-1 10.7-1.4 21.5-3.4 32.1-1 5.6-4.7 10.7-7.1 16.1-.4 1.2-.8 2.4-1.1 3.6 1.3.1 2.5 0 3.8-.2.6-.2 1.2-1.3 1.4-2.1 1.1-3.3 2-6.6 2.7-9l8.1-35 .7.1 4-22.6 2.5.5-14.7 68.2c2.1-.4 5-.3 6.7-1.7s2.2-4.2 3.1-6.2l-3.7-.2c.1-1-.3-2.4.2-2.9 1.9-1.6 3.8-3.1 5.8-4.4v-7.1l.6-.1zm-63.4 294.9c-.8 5.8-9 6.3-8.7 14.5 3.2-1.8 5.9-3 8.1-4.8 2.1-1.9 4.1-4 5.9-6.3 1.5-2.4-.8-6-3.4-6.8-5.5-1.7-10.8-3.8-16.2-5.7-3.4-1.2-6.8-3.7-10.1-.5-.5-.8-1-2.1-1.5-2.1-1.8 0-4-.1-5.3.9-2.5 1.7-4.7 3.8-6.6 6.1-2.1 2.5-3.8 5.4-5.7 8.1l.7.4 16.7-13.9c0 1.1.2 1.6 0 1.9-3.8 4.3-7.8 8.5-11.5 12.8-1.2 1.6-2.1 3.4-2.9 5.2l.9.3 10.4-9c.4.9.6 1.4.7 1.7l6-5.3.9.9-15 13.4c8.6-.5 12.2-9.2 20-11.5-2.3 2.7-5.1 4.9-7.7 7.3-1.2 1.3-2.2 2.7-3 4.2-.2.3.5 1 .8 1.6 1.1-.8 2.2-1.5 3.4-2.2 1.6-.8 2.4-5.3 5.1-1.2l-3 4.7c2.7-.8 4.7-.7 5.7-1.7 3.6-3.3 6.8-7 10.3-10.4.9-.9 2.3-1.2 3.5-1.7l.5.8zm209.1-327.6c-.8 1.9-1.3 4-1.8 6-.4 2.1-.3 4.3.2 6.4.8 1.9 2 3.6 3.5 5 1.1 1.1 3.5 2.9 4.1 2.5 7.9-5.1 8.4-5.1 14 .7 3.3-2.3 6.5-4.4 9.5-6.7.9-.8 1.4-1.8 1.5-3 .3-2.6.2-5.3-.1-7.9-.2-1.1-1.6-2.8-2.5-2.9-9.3-.2-18.8-.1-28.4-.1zm-290.1 264.8c-.2.7-.3 1.3-.3 2 .6 10.6 1 21.3 2 31.9.3 2.9 1 6.7 5.9 6.1 1.1-.1 2.3 1.1 3.5 1.8.7.4 1.8 1.1 1.9 1 .7-.6 1.2-1.4 1.4-2.4.7-8.2 1.8-16.4 1.7-24.6 0-3 2.7-7.9-3.3-9.5-2.9-.8-5.5-2.5-8.3-3.8-1.4-.7-2.8-1.5-4.5-2.5zm317.2-221.2c-.3-1.5-.4-2.4-.6-3.5l-1.1.9c-2.6-1.5-4.7-3.5-7-3.9-1.6-.2-4.9 1.7-5.1 3-1.2 8.2-1.5 16.5-2.4 24.7-1 9.4-2.3 18.7-3.6 28.1-.2 1.6-.5 3.1-.8 4.7 1.3-.2 1.9-.7 2.1-1.4 2-4.9 3.3-10.2 6.1-14.6 2.5-4.2 1.1-9.8 5.5-13.1.2-.1 0-.7.1-1.1.4-1.6 1-3.3 1.6-4.9 2-4.8 4.2-9.5 6.1-14.4.7-1.9.5-4.2.8-7-.8 1.2-1.1 1.6-1.7 2.5zm-18.8-9.6c-3.9 1.6-6.3 2.9-8.9 3.7s-4 2.2-3.6 5.2c.5 4.1.5 8.2.9 12.2 1 9.9 2 19.8 3.1 29.6.4 3.6 1 7.1 1.5 10.7 1.7-6.2 3-12.5 3.8-18.8 1.3-12.1 2.2-24.3 3.2-36.5.1-1.8 0-3.6 0-6.1zm-311 300.9c4.6.8 8.8 2.2 12.8 2 3.9-.1 9-.7 11.2-3.2 3-3.2 4.2-8.3 5.2-12.8.9-3.7-1.7-6.3-4.7-8.7-2.4-1.9-3.2-3.5-5.9.2-5.5 7.6-11.9 14.5-18.6 22.5zm332.6-27.5-.4 1.5c1.2.3 2.5 1 3.6.9 6.1-.6 12.2-1.5 18.2-2.3 1.1-.1 2.1-.6 2.9-1.3.4-.5-.1-2-.6-2.7-2.6-2.9-5.4-5.5-8-8.3-5.2-5.3-10-4.8-13.5 1.3l-2.4-1.1-.4.8 1.3 1-15.7 11.6.7 1.3 7.3-3.6 1.1 3.4 2.1-2.6c.3.5.7 1 1.4 2.1.5-1.6.5-2.9 1.2-3.5s2-.3 3-.3c0 .3 0 .6.1.9zm-49 .7c-.7-4.3-3-6.8-7.3-7.4-1.8-.2-4.2-.4-5.6.6s-1.8 3.3-2.5 4.6c-1.7-.9-2.5-1.8-3.3-1.7-2.1.1-4.1.7-6 1.5-1.4 1-2.4 2.4-2.8 4-.2 1.3.2 2.6 1.2 3.5 6.4 4.6 13.8 3.7 20.4 3.8 1.3-2.9 2.3-5.1 3.2-7.4.2-.8.2-1.6.1-2.4zm87.7-190.9-.4-.2-11.6 28 .2.2-2.5 4.6 2.1-1.1c-.6 1.8-1 3-1.4 4.3.9-.2 1.6-.7 2-1.5 1.4-3.6 2.7-7.2 4.2-10.8.9-2.1 2.5-4 3.2-6.2 1-3.3 1.4-6.8 2.2-10.2.4-.9.9-1.6 1.6-2.3.1-.1 1.1.2 1.1.3 0 .9 0 1.9-.2 2.8-.3.8-.8 1.6-1.3 2.3l2.2-.6c-.4 2.8-.7 5.5-1 8.3-2.4.6-13.1 38.2-11.8 43.4.5-.7 1.1-1.1 1.2-1.6 1.2-4.9 2.1-9.8 3.5-14.6s3.1-9.5 5-14.2c1.2-3.1 3.9-6 4.2-9.1.6-6.3 0-12.7-.2-19-.1-2.8-.5-5.6-.8-8.4h-.7zm7.9-299c-4.2-7-10.1-11.1-18.4-12-7.5-.8-15-2.2-22.4-3.3-.1.5-.1 1-.2 1.4l33.2 7c-.1.4-.2.8-.2 1.2l2-.9c.4.9.8 1.7 1.5 3.4-9.4-1.7-17.9-3.4-26.6-4.9s-17.1-2.6-25.7-3.9c-.1.5-.2 1-.3 1.5.4.2.9.4 1.4.5 13.5 2.3 26.9 4.5 40.4 7 5.2 1 11.1.2 15.1 5 1 1.2 3.3 1.3 5 1.9l1.2-1.2-3.6-4.8zm-92 491c-.5 1.1-1 2.3-1.6 3.3-.8 1.5-1.7 3-2.5 4.4 6.6 1.5 16.7-3.2 17.8-7.7l-4.5 2.2c.7-1.5 1.1-3.2 2.1-4.4 1.9-2.2 4.2-4 6.4-6l.4.6 4.3-7.6c-.5-.5-1.1-1.7-1.9-1.8-1.5 0-2.9.2-4.3.7-.1 0 0 1.2.1 1.8.1 1.5 1 3.9.4 4.3-2.3 1.6-4.9 2.8-7.6 3.5-4 1.1-7.1 2.9-9.1 6.7zm76.6-485.3.8-2.1 25.8 14.5v-.9l4.2.2-2.2 2.4 3.8.3c-.3-.8-.7-1.5-1-2.2-2.6-7-9.6-7.5-15.3-9.6-8.9-3.3-18.1-6.2-27.3-8.6-5.8-1.5-11.9-1.5-17.8-2.2v.6zm-48.4 354.3c-3-5.8-6.1-11.7-9.3-17.7l-6.7 12.8 2.1 1-6.4 3.4 5.2 4.3.9-1.1-2.1-1.3c.1-.4.1-.8.2-1.2zm-52 49.4 2.2 1.6c.1-.6.3-1.2.5-1.8 3.4-5.3 6.6-10.7 10.2-15.8s7.4-10.2 11.2-15.2c2.4-3.2 4.9-6.5 7.3-9.7.6-.8 1-1.8 1.3-2.8.1-.2-1.3-1.1-1.4-1.1-.9.7-1.7 1.5-2.3 2.4-.9 1.6-1.6 3.4-2.5 4.9-.3.5-1.2.6-1.7.9.1-1.6.2-2.7.3-4.4-2.1 3.6-4 6.4-5.6 9.3-3.8 6.8-7.5 13.7-11.4 20.4-1.5 2.5-3.5 4.8-5.2 7.2-1.1 1.3-2 2.7-2.9 4.1zm76.7-385.1c.2-.5.4-1 .6-1.5-1.5-.4-2.9-.9-4.3-1.5-4.5-2.2-9-4.2-13.2-6.7-7.5-4.4-14.8-9.1-22-13.9-.7-.5-1.1-2.3-.8-3.3.2-.8 1.6-1.4 2.6-2 .9-.4 1.9-.7 2.9-.9-3.1-.7-5.1-1.1-7.1-1.5-.8-.2-1.8-.8-2.2-.5-.6.5-1.4 1.8-1.2 2.3 1.8 3.1 3.3 6.8 5.9 9 4.7 4.2 9.8 7.7 15.4 10.7 7.4 3.9 15.5 6.6 23.4 9.8zm20.2 357.2 1.7.3 9.6-17.4h-13.6zm-399.3-31.6c4.4-18.1 8.9-36.2 13.3-54.3l-2-.5c-3.3 18.4-12.2 35.5-11.3 54.8zm235.2 16.8c-.3-1.1-.8-2.1-1.4-3.1-.2-.3-2.4.1-2.7.7-3 5.3-5.8 10.6-8.5 16-.1.3 1.5 2 2.2 1.9 3.9-.3 10.3-9.4 10.4-15.5zm129.2 115c1.9-1.1 3.6-2.1 5.2-3.2.2-.2.1-1.4 0-1.4-1.7-.2-3.9-1.1-5.1-.4-3.2 1.8-6.3 3.9-9.1 6.3-4.5 3.7-4.4 4.7.2 7.1l7.9-9.6zm17.8-195.3-6.5 18.3 7.1-10.9 1.3.6-1-2 3.2-5.8-.8-.7c.6-3.8 1.1-7.2 1.6-10.7l-1.2-.3-5 11.6zm-50.5-58.4v34.5c2.6-2.7 2.9-29.9 0-34.5zm-24.7 136.7 1.4.6 11.7-21.7-1.6.3 1.5-3.4-1.5-.7zm-20.1-114-17.9 28.2c9.5-7.3 12.6-18.5 17.9-28.2zm37.2-220.5.4.5c2.2-2.1 4.8-3.9 6.6-6.3 2.6-3.4 4.2-7.5 6.9-10.9 2.1-2.7 1.6-4.1-1.4-5.7-1.4 4.1-2.1 8.4-4.1 11.9-2.1 3.8-5.5 7-8.4 10.5zm55.3 227.1-.3.8c-1.3 0-2.7.2-4 .5-.7.5-1.2 1.3-1.2 2.2.3.8 1 1.4 1.9 1.5 3 .2 5.9.3 8.9.1.5 0 1-1.3 1.6-1.9zm-52.2-240.7-13.6 18.6 1.3.9c4.1-5.5 8.2-10.9 12.2-16.5.5-.7.1-2.1.1-3zm70.2 220.4 1.8-.3c0-4.7.1-9.4-.1-14.1 0-.7-1.1-1.4-1.7-2.1-.5.8-.9 1.7-1.1 2.6-.1 3.6-.2 7.3 0 10.9.2 1.1.6 2 1.1 3zm13 20.3c-.7-3.9-1.2-6.7-1.9-10.7-1.5 6.3-2.8 11.4-4 16.5l.9.6zm-57.8 213.2c-.8-4.9-1.7-9.7-2.6-15.3-.9 1.8-1.5 2.8-2 3.9-1.8 3.5 1.8 12 4.6 11.4zm58-194.7-1.9-.4-4.5 15.4 1.8.5zm-83.8-23.8-.4-.1c-.4 5.7-.9 11.5-1.3 17.2l1.7.1zm65-35.2c-1.7 0-4-.2-4.1 0-.7 3.2-1.1 6.5-1.7 10.4l4.7-2.1-3-.7zm-7.7 96.1h.7l3-13.8-1.2-.2c-1.4 3.6-2.8 7.3-4.2 11.2l1.7-.3zm2.6 83.1c-.8 4-1.5 7.8-2.3 11.6 1.9-2 2.3-4.7 4-6.2 3.3-3 .9-4-1.7-5.4zm-24.4-112.6-1.4-.4c-.9 4.1-1.8 8.2-2.7 12.2-.3 1-.8 1.9-1.3 2.8l-.9-.2.3 3.6 1.2.2c1.6-6.1 3.2-12.2 4.8-18.2zm-274.4 222.6 1.5 1.2 8.3-8.9-1.6-1.4zm241.6-157.8-1.7-.6-4.5 13.4 1.5.5c1-2.1 2-4.2 3-6.5l-1.9.1zm.7 63.9-1.3-.6c-2.4 5.2-4.8 10.4-7.2 15.5l1.1.5c2.6-5.1 5-10.2 7.4-15.4zm-104-87.6.6.2 3-4.2-1.8-1.2-7.2 10.3 1.1.8zm179.2-94.3-1.4.3.9 10.3 2.3-.3zm-38.4 79.6-1.6-.3-2.1 12.2 1.4.2c.7-3.9 1.5-8 2.3-12.1zm-33.4-47.1h-1.2c-.4 3.2-.8 6.4-1.4 10.6l3-1.8c-.2-3.1-.3-6-.4-8.8zm-2.4 123.7-1.7.1.6 4.2 6.6-12.2-1.5-.7c-1.3 2.9-2.6 5.7-4 8.6zm-38-120-1.6-.4-3 11.8 1.4.4zm4.6-218.7c-3.8 0-6.8 3.1-6.8 6.8 0 .5.1 1 .2 1.5zm31.7 178-1.8-.2-1.1 11.9 1.2.1c.5-4 1.1-7.9 1.7-11.8zm-8-2.6-1.5-.1c-.6 4.7-1.2 9.4-1.7 14.2l1 .1c.7-4.8 1.4-9.5 2.2-14.2z"/><g fill="#fff"><path d="m421.2 192.4-4.3.3c-.6 1.2-.8 2.4-1.2 2.4-10.9 2.1-22 2.7-32.5-.6-9.7-3-18.9-7.4-28.1-11.7-8.7-4.1-13.5-12-16.3-20.3-4-12.1-7.6-24.5-9-37.1-1.3-11.8.3-24 1.1-35.9.1-2.1 2.6-4.4 4.5-6.1 5.3-4.7 10.8-9.1 16.3-13.5 4-3.2 8.6-5.7 12-9.4 5.8-6.4 14-10.6 17.9-18.8.6-1.3 2.6-2 3.8-3.1.5-.5.4-1.5.9-2s1.2-.7 1.9-.6c8.4 3.8 16.6 8.2 25.3 11.3 9.1 3.2 18.7 5.1 28 7.7 7.9 2.2 15.8 4.6 23.7 6.9 3 .9 6.4 1.2 8.9 2.9 2.1 1.7 3.6 4 4.2 6.6 1.4 5.8 2 11.9 3.3 17.8 2.8 13.4-2.2 25.9-4.4 38.8-3 17.2-11.5 32.1-19 47.5-5.5 11.4-16.4 13.6-27.4 15.6-2.1.4-4.3.6-6.5.9-1 .1-2 .1-3 .2zm-53.2-34.1c-2 3.6 1.2 5.8 3.1 7.7 8.5 8.6 19 12.3 31.2 11.7 3-.1 6.1.5 8.9-.1 8.8-1.9 15.2-8.1 22-13.2 1.1-.9 1.8-2.9 1.8-4.4 0-.7-2-2.2-3-2-1.1.2-2 1.7-3.1 2.6-3.9 3.1-7.7 6.2-11.8 9-4.5 3-9.7 2.4-14.8 2.5-13.2.1-23.7-4.7-31.4-15.5-.6-.8-2.2-.8-3.4-1.2.2.8.3 1.7.5 2.9zm22.9-63.1c-.9-1.5-1.8-4.6-3.6-5.2-1.5-.5-4.4 1.6-6 3.2-1.1 1.1-.8 3.5-1.6 5.1-3.2 6.6-2.9 13.4-.6 20 .4 1 3.8 2.2 4.1 1.9 2.4-2.6 5.3-5.4 6.2-8.6 1.2-4.9 1-10.1 1.5-16.4zm46.2 9.2-1-.3c-.3-2.9-.5-5.8-.9-8.6-.1-1.1-.7-2-1.6-2.6-.9-.3-2.8-.2-3.3.5-2.3 3.1-5.3 6.3-6 9.8-1 5.1-.4 10.6.1 15.8.5 1.8 1.8 3.3 3.5 4 1.1.4 3.9-1.1 4.3-2.2 2-5.4 3.4-10.9 4.9-16.4z"/><path d="m36.1 459.3c2.9-10.4 5.4-19.4 8-28.3 2.6-9.2 5.1-18.4 8.2-27.4 1.5-4.5 4.9-8.5 6.3-13 2.1-6.9 3.3-14 4.8-21 1.6-7.6 3-15.2 4.8-22.7.3-1.1 2.9-2.6 4-2.3 17.9 5.2 36.7 6.6 55.2 4.2 7.9-1 15.4-4.4 23.1-6.4 6.2-1.6 12.5-2.6 18.8-3.8.7-.1 2.3.8 2.3 1.3.1 1.8.1 5.1-.6 5.3-6.6 2.1-13.2 4.6-20.1 5.3-10.1 1-19.9 3.5-29.3 7.3-4.4 1.8-10 .9-15.1 1.1-6.8.3-13.6 1-20.4.8-4.3-.1-8.5-1.6-12.8-2.4-1.4-.1-2.8-.1-4.2 0l-.5 2.2c4.4 1.7 8.7 3.8 13.2 4.8 4.8 1 9.7 1.4 14.7 1.2 4.1 0 8.2-1.5 12.3-1.5 9.6.1 18.2-2.7 27.1-5.8 5.5-1.9 11.9-1.1 17.7-2.4 6.2-1.3 12.1-3.6 18.2-5.3.9 0 1.8.6 2.3 1.4 3.1 10.2 5.6 20.5 9.1 30.5 3 8.7 7.3 17 10.7 25.7 4.7 11.9 9 24 13.5 36 2.6 6.8 5.2 13.5 7.7 20.4.2.5-.6 2-1 2-7.7.5-15.5 1.4-23.2.9-4.3-.3-8.6-2.8-12.4-5.1-4.9-2.9-8.8-2.2-13 1-8.4 6.4-17.9 11.3-28.3 6.3-7.6-3.6-14.2-3.5-21.8-1.4-3.1.9-7.7-.2-10.4-2-9.6-6.3-18.9-9.4-29.9-3.4-3.7 2-12.3-.8-15.1-4.1s-11-3.5-17.3-.5c-1.8.7-3.9.6-6.6 1.1zm112.5-67.3-1.9.9c6.1 16.4 8.7 34.1 19 49.4l.8-1.5c-.6-2.4-.9-4.3-1.4-6-4-11.8-8.1-23.6-12.3-35.3-1-2.6-2.8-5-4.2-7.5zm-34.4 59c-.5-4.3-1.1-8.6-1.5-12.9s-.7-8.5-1-12.7l.3.1c-.9-6.9-1.9-13.7-2.9-21-4.4 3.5-.7 38.8 5.1 46.5zm-38.5-41.4c-5.8 3.7-9 20.7-5.5 29.7 1.9-10.3 3.7-19.7 5.5-29.7z"/><path d="m69 166.3c17-9.4 33.6-18.2 49.8-27.7 4.5-2.6 8.3-4.8 13.9-3.5 1.5.4 5-2.9 5.8-5.1 1.8-5 3.4-9.3 8.2-12.8 6.2-4.4 11.3-10.5 16.9-15.8 1.3-1.2 2.9-2.1 4.2-3.2s2.5-2.3 3.5-3.6c13.2-10.1 22.9-24.2 27.7-40.2.9 6.3 1 13.3 3 19.8 4.3 14.2 9.6 28 14.3 42 1.8 5.2 2.9 10.7 4.6 15.9 2.7 8.2 5.9 16.3 8.6 24.4 1.9 5.7 3.7 11.5 5.3 17.3 1.4 4.6-1.1 8.2-4.6 10.5-6.5 4.5-13.8 7.9-20.2 12.6-13 9.7-28.6 13.3-43.6 17.9-6.6 2-14.2 2-21.3 1.6-7.4-.4-15.1-1.2-22.1-3.6-7.7-2.7-14.9-6.5-21.4-11.5-7.7-6-14.2-13.4-20.9-20.4-3.9-4.2-7.4-9.2-11.7-14.6zm81.8 29.6c14.4.2 24.9-6.9 33.9-16.7.7-.8-.2-2.9-.3-4.4-1.4.3-3.3.2-4.1 1.1-5.8 6-12.1 11.8-20.5 13.2-12.1 2-24.4 1-35.3-5.2-5.3-3-9.7-7.4-14.5-11.2-1-.8-2.1-1.4-3.1-2.1-.4 1.3-1.4 3-1 3.9 4.2 9.1 12.8 13.6 21.4 16.9 7.3 2.6 15.6 3 23.5 4.5zm34.2-70.3h-1c.6-1.3 1.9-2.7 1.7-3.8-.6-2.6-1.6-5.1-2.8-7.5-.5-1.1-2.1-2.8-2.4-2.7-1.5.6-3.3 1.7-3.8 3-1.9 4.7-3.3 9.6-4.1 14.6-.4 2.7.4 6.5 2.1 8.4 3.4 3.7 9.3.3 10.3-5.7.2-2 .2-4.2 0-6.3z"/><path d="m155 256.1-1.9-1.3 3.3-1.3-.2-1.4c.8.4 1.7.9 2.5 1.3 1.8 1 3.9 1.8 5.4 3.1s3.2 3.1 3.1 4.7c-.4 10.9-1.8 21.7-1.6 32.5.2 11.6 1.3 23.1 3.2 34.5.7 4.6-.5 4.3-4 5.2-10.7 2.5-21.2 6.1-31.7 8.9-3.6.9-7.5.7-11.3.9-6.9.3-13.9 1.1-20.8.5-8.7-.7-17.3-2.6-25.9-4-.7-.3-1.2-.8-1.4-1.6 0-6.2.5-12.4.3-18.6-.4-7.5 1.2-14.5 3.8-21.5 3.9-10.3 7.4-20.8 11.1-31.2.2-.6.7-1.3.6-1.9-.8-4.5 1.4-5.8 5.6-6.1 3.3-.3 6.5-1 9.7-1.9 3.5-.9 6-.7 7.8 3.2 2 4.2 6.2 5.8 10.9 6.7 4.9 1 9.6 3.8 14.4 3.8 5.5-.1 11.8-1 15.1-6.9.7-1.2.7-2.7 1.1-4 .1-1.2.5-2.3.9-3.6z"/><path d="m94.3 132.4c-1.7 1.6-3.9 2.9-4.9 4.8-.5.9 1.5 3 2.5 4.9l14.4-11.1 1.3 3c.3-1.7.4-2.3.5-2.9s-.2-1.5.1-2 1.2-.8 2.4-1.4l-.6 2.9c.8-.6 1.7-.9 1.7-1.3.1-3.7 2.9-5.2 5.5-7.1s4.3-4.3 6.6-6.4c.4-.4 1.3-.5 1.9-.7.2.6.4 1.3.4 2-.5 3.9-1.1 7.8-1.7 11.7-.1.7-.5 1.3-1.1 1.7-3.3 1.3-5.7 5.7-10.3 3.4-.3-.2-1.1.5-2.2 1l2.8 1-6.7 3.2 1.6-2.2-15 8.2c.2-.6.4-1.3.4-1.2-1.8-.5-3.5-.9-5.3-1.1-1.8-.1-3.5-.1-5.3 0 1.3 1.2 3.4.9 3.7 1.3 1.8 3.8 4.2 1.9 6.6 1.1-3.1 1.9-6.1 3.8-9.2 5.6-2.5 1.4-5 2.7-6.3 3.4-1.8 2.1-2.7 3.5-3.9 4.3-3.3 2.2-6.9 4-10.7 5.2l4.7-5.3.1.2 10.4-11.2-1-1.4 4.8.6-4.4-4.5 2.3.3 12.2-13.7c-.6-.2.1.1 1.2.4l3-4-.7-.5-2.6 2.4c.7-2.1.8-3.3 1.4-3.8 1-.8 2.3-1.3 2.7-2.2l7-9.2c1.5-1 4-2.7 6.6-4.4l-1.6-1.3 3.2-2.2 1.6.5c-.1-.8-.2-1.3-.2-1.1 1.6-1.9 3-3.5 4.3-5.2l.4.2-1.2 2.5c.9-.2 1.6-.3.9-.2 1.7-2.4 2.7-3.9 3.9-5.3.2-.3 1-.1 1.1-.1l5-6.1.5 1.8 6.4-8.1-.8-.7-16.3 13.9-.3-.4-25.2 23.5-1.4-1.6c-.2 1.5-.4 2.5-.6 3.6-6.1 2.7-8.2 5.8-5.8 8-1.7 3.7-3.2 7.2-4.9 10.8-.3.6-1.3.8-2 1.2-.2-.7-.3-1.4-.3-2.1 1.1-4 2.1-8 3.5-11.9 1-2.9 2.6-5.7 4.2-8.9h1.6l-1.3-.7 8.3-17.2 2.7-.4-1.8-1.4c1.9-3.3 3.7-6.6 5.6-9.9 4-6.6 7.7-13.4 12.1-19.7 1.8-2.6 5.2-4.1 8-5.9 4.8-3 9.6-6 14.5-8.6 2.2-1.1 4.9-1.3 7.3-2 .5-.2 1.3-.9 1.3-1.2-.3-1-.8-1.9-1.5-2.6-.6-.5-1.7-.6-2.6-2 1.3-.1 2.6-.3 3.8-.8 1-.6 1.4-1.8 1.1-2.9l-8.9 3.7-8.4.9-.4-4-4.8 5.9c-.1-.2-.3-1-.8-2.7-5.1 3.7-9.7 7.3-14.6 10.5-2.1 1.3-2.9 2.2-1.7 4.4.1.2-.7 1.3-.8 1.2-1-.5-2.1-1-3-1.6-.2.3-2.1 2.2-1.8 2.6 1.4 2 3.4 3.7 6 6.3l-1.9-5.8c1.6-.1 3.3-.1 4.9 0 .3 0 1 1.4.7 1.8-5.5 8.6-11.2 17.2-16.7 25.8-.6 1.1-1.1 2.3-1.4 3.5l-1.1-.4c-2 4.5-3.7 8.8-5.9 12.8s-5.1 7.4-8 11.6l-10 5.5c2.9-.4 4.2-.7 5.6-.8s2.6 0 4.1 0c-.2 2.3-.4 4.5-.6 7.2l-2.4-1.4-4.9 10c.9-.6 1.7-1.2 2.5-1.9.9-.8 1.7-1.7 2.4-2.6.3-.9.5-1.8.5-2.8l1.5.4c-1.1 3.9-2.2 7.8-3.2 11.1l5.5-1 .4.8c-1 .7-2.1 1.3-3.1 2-1.5 1.1-2.8 2.4-4.3 3.4-.7.3-1.6.4-2.3.1-.8-.4-1.6-.9-2.3-1.4l3.2-6.4-10.2 1.1c.5 1 1.3 2.5 2.2 4.1l2.2-2.5.8.5c-2.1 4-4.2 7.9-6.4 12.1l2-1 .8.7-4.6 8.2 1.2.7-2.8 2.2-1.3-.5c1.3-7.2 2.6-14.4 4-21.9l-.4-.1c1.8-7.7 3.6-15.4 5.5-23.3.4-.2 1-.4.1 0l4.7-10.8.9.4c.8-2.3 1.7-4.6 2.7-7.4l2.1.4c.1-1.8.3-3.5.4-5.3l-3.3 3-.4-3.9c-1.6 4.4-3 8.4-4.3 12.4l-1.4-.4c.1-1.6.3-3.3.7-4.8 7-19 17.9-35.6 33.3-49 9-7.8 19.1-13.4 31.8-14.1 5.8-.3 11.5-3.3 17.2-4.9 2.7-.7 5.5-.8 8.3-1.2 1-.4 2-.8 2.9-1.4l3.9 1 .2-1.1-5.2-1 .1-.7 20.7 2.6-.1.9-5.2-.6c2.3 1.7 4.1 3.6 6.4 4.6 4.2 1.7 8.4 3.2 12.8 4.4 5.1 1.6 6.1 4.8 3 8.9-.9 1.2-.6 3.4-1.4 4.7-4.7 7.8-9.3 15.8-14.6 23.2-2.4 3.3-6.7 5.2-9.8 8-3 2.7-5.4 5.8-8.3 8.6-4.7 4.6-9.4 9-14.2 13.4-.6.5-1.4.7-2.1.7-.6-.1-1.6-.9-1.6-1.2.9-4-1.7-5.4-4.7-6.7-.4-.2-.7-.7-1.6-1.6l5.1-1.8 8.8-6.9-.3-.1c6.4-6.6 12.9-13.2 19.2-20 2.6-2.9 5-5.9 7.3-9.1 1.5-1.8 2.7-3.7 3.8-5.8.6-1.7 1-3.5 1.1-5.3l-22.2 11.7.1.7-4.9 1.6-1.1-1.4c2.9-2.9 5.4-6.4 8.8-8.7s7.6-3.8 11.6-5.4c2-.8 4.3-.8 6.4-1.4.6-.2 1.1-1.2 1.6-1.8-.7-.3-1.4-.9-2-.9-2.2 0-4.4.2-6.8.3-6.6 5.3-17 5.1-23.1 12.1l-6.5 4.4.9 2 2.3-.7-.5-.9 8-5c-.1.9-.2 2.2-.3 3.5l-.8-1-15.7 15.7c1.1.9 1.5 1.3 1.7 1.5l-1.2 3 .7.4 3.4-3.7-2.1-.9c.4-.3.7-.7.8-.7 4.4 1.4 5.1-2.7 7.4-4.6s3.5-5.4 8-4.7c2.4.4 5.2-2.2 7.9-3.3 1.7-.9 3.7-1.2 5.6-.9l1.1-1.6c.2.1.6.2.6.3 0 .8.2 2-.3 2.5-3.6 4.1-7.3 8.2-11.2 12.1-6 5.9-12 11.7-18.1 17.5-2.1 2-4.4 3.9-7.4 6.4 0-.7 0-.1 0 .7l-1.8-.8-.4 2.5-.5-.3-6.7 4.6 3.6-.7-2.6 2.8-1.9-1v2.9l-.9.8-.9-3.2-1.2 1 1.6 2.5-6.3 5.7-2-5.3-.2 2.8-2.8 2.2h4.7l-4 3.5c-.1-.3.1.3.3 1l-15.1 11.5-2-2.9c1 0 2.4.3 3.1-.2 2.2-1.6 4.2-3.5 7.1-6-1.5-.1-2.5-.5-3-.1-2.5 2-4.8 4.2-7.2 6.3zm-10.7-51c-1.1.9-2.2 1.9-3.2 3-1.1 1.1-2 2.3-2.7 3.7-.2.4 1.5 1.5 2.3 2.2.7-.9 1.4-1.8 2.2-2.6.5-.4 1-.7 1.6-.9l2.4-1.2zm-8.2 6.6c-3.8 3.2-.1 5.7.8 8.6l-2.1-1.3c.7 1.5.8 2.6 1.4 3s1.6.1 2.3-.2c.2-.1.2-.9.4-1.3.5-1.1 1-2.2 1.6-3.3.7-1 1.5-1.9 2.3-2.8l-5.6 1.5.7-1.7zm95.3-12.4c1.3 2.6 1.8 3.8 2.5 4.9.3.5.7 1 1.1 1.4.4-.5 1.1-1 1-1.4-.3-3-.8-6.1-1.2-9l-5.6 6.1 1.6 2.9c.2-1.6.3-2.4.6-4.9zm8.1-4.7 6.3-10.5h.9c-.4-1.3-.7-2.2-1-3.2-.9.7-1.7 1.4-2.4 2.3-1.2 1.9-2 4-3.3 5.8-.8 1-2.1 1.6-3.4 2.4.9 1 1.4 1.5 2.9 3.2zm-4.6-30.3.9-1.2-4.4-2.7-.6.9 1.3.8-3.6 1.2 5.4 4.7.6-.9 1.6 1.5c.2-.9.4-1.5.6-2.2l-4-.7c.2-1 .4-1.7.6-2.6zm-62.6 54.4 5.5-2.2c.1-.1 1-1.3 1.8-2.4l-1.3-1.8c-2.1 1.9-4.2 3.4-5.7 5.4-.5.7.5 2.5 1 3.8 0 .1 1.3-.3 2.9-.6zm-1-6.1 1 1.4 4.4-4c-1-3.3-1.7-5.7-2.4-8l-.8.2.9 4.5-1.9 1.7 2.6 1.7zm35.8-45.5 1.1-1.9c2.7-.7 4.7-1.1 6.7-1.6.8-.2 1.5-.5 2.2-.7-.7-.6-1.6-1.7-2.1-1.6-2.7.9-5.4 2-8 3.2-.1 0 .1 1 .1 2.6zm-14.3 34.8 5.1-5.8-1-.8-2.2 2.5-.8-1.6-4.8 8c1.6-1.1 2.2-1.4 3.7-2.3zm-37.1-7 3.9 2.9-1.7-2.8 4-1.1-5-2.1c.5-1.3.9-2.3 1.3-3.3l-1.4-.4z"/><path d="m80.2 190.2 1.5-.4c1.8 2.3 3.7 4.8 5.7 7.1 6.5 7.4 14.9 11.8 23.7 15.8 3.9 1.8 7 5.7 11 6.8 4.4 1.2 3.3 2.8 2.4 5.6-.8 2.6-.7 5.6-1.4 8.3-.6 2.3-1.4 4.5-2.3 6.6-.2.4-.7.6-2 1.7 1.3-6.7 2.4-12.4 3.5-18.1l-1.3-.2-3.8 11.9.3-.1c-.4 2.6-1.2 5.2-1 7.7.2 2.2 1.5 4.4 2.2 6.6 1.7-.7 4.5-1 4.8-2.1 2.4-8.5 4.3-17.1 6.4-25.9 5 .5 10.1 1 15.2 1.6.4 0 .9.9 1.1 1.4 3.3 8.2 2.1 16.5.7 24.9-1.1 6.5-5.6 10.9-12.5 11.1l-.2 2c-5.2 1.5-12-2.3-14.3-8.3-1.1-2.9-1.4-4.6-5.9-3.3-5.7 1.6-12.1.7-18.2 1-4.4.2-8.8.5-13.5.7-.3-.8-.7-2-1.2-3.5l-.3 3.4-1.9-5.7-1.5 2.8c-1.6 1-3.2 2.8-4.7 2.7-1.8-.1-3.5-1.9-5.5-3.1-.1 1.1-.1 1.8-.3 4.1l-.8-2.5c-1.4.5-2.6 1.3-3.1 1-1-.6-1.7-1.5-1.9-2.6-.9-7.4-1.5-14.9-2.4-22.4-1.9-15.6-4-31.1-5.9-46.7-.2-1.7-.5-3.5 0-5.1.6-1.4 1.6-2.5 3-3.1 2.8-1.1 5.7-2 8.6-2.7.9-.2 1.9.1 2.6.7 1.8 2.6 3.4 5.3 5.1 8 2.5 4 5.2 8 8.1 12.3zm12 40.4-3.2-5.6-1.9 3.3 3.5-.4-2.8 3.5c-1-1.4-2.3-2.4-2.3-3.5-.4-8.5-.6-17-.9-25.5 0-.4-.5-.8-.7-1.2-.4.2-1.1.5-1.1.8-.4 5.2-.8 10.5-1.1 15.7-.2 3 0 6 0 9-1.4-3.3-2.3-6.8-1.7-10 .8-4.5-1.2-7.7-7.1-7.6l5.4 3.2v15.1l-2.4.6c0-1.3.1-2.7.3-4 .6-2.9-1.3-4.7-2.4-7-1.7-3.7-1.8-8.2-2.2-12.4-.4-5.7-.2-11.4-.6-17.1-.1-1-1.6-1.9-1.9-2.2-.5 3.3-.8 6.2-1.5 9.1-.3 1.3-1.9 2.5-1.8 3.6.2 3.1 1.1 6.1 1.6 9.2.8 5.5 1.5 11 2.4 17.9l2.8 7.4-.6-.1c.7 2.8 1.7 5.5 2.8 8.1.6 1.1 2.4 1.7 3.7 2.5 1 .6 1.9 1.3 2.8 1.9 1.2.8 2.4 1.5 3.6 2.2l1.5-2.7 2.1-.4 2.6 4.9v-7.9l-.4.1.3 1.8-3 .3c.8-1.9 1.5-3.6 2.4-5.8l1.4-.5-6.4-3.8.8-1.4h2c-.1.7-.2 1.3-.4 2.2zm3.5 19 2.4 1.7c.5-.8 1.4-1.5 1.6-2.3.6-5.4 1.5-10.7 1.5-16.1 0-6.9-.8-13.7-1.4-20.6-.2-.7-.5-1.4-.9-2.1l-1.4 1.9c-.3.1-1.5.2-1.5.4-.1 11.1-.1 22.2-.1 33.5l-.8.2 1.8 1.4zm-8.1-28.6v3.4h5c-.8-3-1.6-6.1-2.5-9.2l-1.2.4c-.3 1.6-.7 3.2-1.3 5.4zm21.4 11 .5-.1c.4-2.5.8-4.9 1.1-7.4.1-.6.1-1.2-.1-1.8 0-.1-1-.3-1.1-.1-.4.5-.6 1.2-.7 1.8-.3 1.4-.5 2.8-.6 4.2-.2 2.1-.2 4.2-.3 6.4l1.5-.1c-.1-.9-.2-1.9-.3-2.9zm-3.5-5.4-1.3-.2c-.6 4.3-1.2 8.7-1.8 13l1.5.2z"/><path d="m54.3 298.9c-2.3-3.4-4.4-6.9-7.1-10-1.4-1.6-3.8-2.5-5.8-3.4s-4.4-1-5.8-2.4c-1.7-1.9-2.9-4.1-3.6-6.5-3.2-9.3-11.5-12-20-6.4-2.1 1.2-4.2 2.2-6.4 3.1.9-2.8 1.2-4.5 2-5.9 7.8-14.1 15.8-28.1 23.5-42.3 1.3-2.2 2.1-4.6 2.3-7.2.6-9 6.3-15.6 10.4-23 1.2-2.2 2.5-4.3 4.4-7.5.5 4.5.8 7.9 1.3 11.3 2.2 16.7 4.4 33.3 6.6 50 .6 4.8 4.9 7.1 9 5.1l5.2 3.5z"/><path d="m246 100.3c-.2 1.5-.3 2.8-.4 3.9l6-3.1c3.2 4.8 2.5 11.2-1 12.7-.3 1.3-.5 2.6-.8 4.2l2.4-.3-1.1-2.8 3.1-1.6c.3 5.1.6 9.6 1 15.6l-2.4-4.3-.6.1c.8 3.2 1.6 6.4 2.4 9.6l-.6.2c.2 3.3.4 6.6.7 11.1-.6 3.8-1.5 8.6-2 13.4-.6 6-.4 12-1.1 17.9-.6 4.3-2 8.5-4 12.3v-6l.6.2c.2-2.2.9-4.4.6-6.5-.3-3.2-1.3-6.4-1.8-9.6-.5-2.8-.6-5.6-.3-8.4.6-3.6 1.9-7.1 3-10.7l-1.5-.3c.3-1.3.6-2.6.8-3.9.2-1.6 1.1-4 .4-4.6-1.3-1.1-3.5-1.1-6.3-1.9l2.1 2.5c-.4.4-.9.8-.3.3v13.3l-.8.2-2-4.4-3.3-1c.9 2.6 1.6 4.5 2.2 6.5l.3-.1c.6 3.3 1.4 6.6 1.9 9.9s.6 6.8.9 10.2l-1.6.3c-.5-1.4-.9-2.9-1.5-4.2-1.7-4-3.9-7.8-5.2-11.9-5.2-15.6-10.2-31.3-15.3-46.9-2.9-8.9-6-17.8-9-26.7-2.8-8.3-5.8-16.4-8.5-24.8-.7-2.1-.2-4.5-.6-6.7-.3-1-.7-2-1.2-2.9-.2-1.4-.3-2.2-.5-4.2l21.6 9.2 13.4 8.9-1.3 3.8 3.6-1 6.1 12.6.6-.6c.9 1 2.3 1.8 2.7 3 1.7 5.2 3.1 10.5 4.4 15.8.1.3-1.7 1.2-2.7 1.4-.9.2-2 .4-3.1.3zm-18.1 17.4c-.4.8-.8 1.7-1.2 2.5.7 2.7 1.5 5.4 2.6 9.5l1.4-3.7c-.4-1.6-.6-2.3-.9-3.1-.6-1.8-1.3-3.5-1.9-5.2l-1.2-9.2-1.5 1.3c-.8-2.8-1.6-5.7-2.1-7.8l-4.4-10.4-1.2.5c2.2 6.9 4.4 13.8 6.6 20.7l.8-.2-.5 2.4.7-.1c.3 1.1.6 2.1.9 3.3.2.1.3.1.5.1.6-.3 1-.5 1.4-.6zm9.3-9 .9-.1c-3.1-12.4-6.2-24.8-9.3-37.5-4.4.6-7.2-.8-6.8-6.3l-3 5.2c4.3 5.2 9.9 10 9.4 14.9l7.6 37.1-1.1.8 3.1 6.8-2.1 1c-.1-1.6-.4-3.2-.9-4.8-.5-1.2-1.7-2.2-2.6-3.3-1.4 3.1 4.3 5.3-.1 8.2l3.3 5.8 1.9-1.8 2.4.7 1.4-7.1-1 .1c-.9-6.7-1.9-13.2-3.1-19.7zm4.5 27.6c-6.4 1.2-6.4 1.2-4 5 .2.5.2 1 .1 1.5-.1 1.6-.4 3.1-.6 5.1l4.4-1c-.3-1.3-.5-2.4-.8-3.6l-1.9.6zm-23.7-60.9h.1c-.8-2.4-1.5-4.7-2.7-8.3-.9 2.2-1.2 3.1-1.1 2.8.9 3.1 1.6 6.3 2.1 9.5.1.6-2 1.5-2.8 2 .6.8 1.4 1.8 1.4 1.8l4.8-2.5c-.3-.2-.7-.4-.2-.1-.8-2.4-1.2-3.8-1.6-5.2zm.9 7.7-.9.3c1.7 4.2 3.4 8.4 5.2 12.5.1.3.9.3 1.8.5l-1.2-1.8 2.3-1.4-4.5-5.9 1.3-1.1zm30.7 54.2c.3-3 .6-5.7 1-9.2-1.3.3-3.1.3-3.4 1-1.2 3.1-1.8 6.3 2.4 8.2zm-4-23.7 1.3-2.5-.9-.7-.8 2.2-.9-.4c-.5-2.5-1-5.1-1.6-7.6l-1.6.4c1.3 4.8 2.6 9.7 3.9 14.5l1.7-.4z"/><path d="m254.9 196.6c.3 4.6.3 9.2.9 13.8 1.4 10.5 3.1 20.9 4.7 31.3 1.2 8 2.5 16 4 23.9.7 3 1.7 6 2.9 8.8 1.1 3-.7 3.9-3 3.6-5.1-.7-10.1-2.7-15.1-2.4-8.4.4-17.3-2.7-25.3 2.7-1.6 1.1-4.8-.1-7.2-.4-4.8-.7-9.7-1.3-14.4-2.3-2.8-.6-5.6-1.7-8.4-2.5-1.1-.3-2.4-1-3.4-.7-6.7 2-8.7-2.8-11-7.1-.7-1.3-1.3-2.6-2.2-4.3h32.6l.1-.7c1.4.1 2.8.1 4.2.2s2.7 0 4 0c.6 0 1.8-.3 1.9-.1 2 4 3 1.5 5.1-.2 1.3-1.1 4.3.1 6.5-.2 1.5-.2 3.9-.7 4.3-1.8 3.3-7.6 6.9-15.2 9.1-23.1 3.3-12.3 5.6-24.9 8.3-37.3.1-.4.3-.8.5-1.2z"/><path d="m172.4 301c-1.8-9.7-3.2-20.7 2.8-32.5 2.5 4.3 4.5 7.6 6.3 10.9 2.4 4.2 5.1 8.2 7 12.6 4.6 10.4 13.3 17.6 20.2 26.2 5.8 7.3 10.5 15.4 16.1 22.9 4.1 5.3 8.4 10.3 13 15.1 2.4 2.5 5.3 4.6 7.8 7 .5.7.6 1.7.2 2.5-3.7 4.8-7.5 9.5-11.7 14.8-1.9-4.5-3.8-9.5-6-14.3-1.1-2.7-2.6-5.2-4.5-7.5-12.4-14-25.1-27.7-37.4-41.7-3.6-4.1-6.5-8.9-9.9-13.2-.5-1-1.9-1.4-3.9-2.8z"/><path d="m86 259.6c-1.6 4.5-3.3 8.7-4.7 13-1.5 4.9-2.6 9.9-4.2 14.7-1.8 5.5-4.2 10.9-6 16.4-1 2.9-1.7 6-1.9 9.1-.4 5.6-.1 11.2-.5 16.7-.1 1.4-1.9 2.5-2.3 4-1.6 6.6-2.8 13.4-4.3 20-2.5 11.4-4.7 22.8-7.7 34.1-1 4-3.6 7.7-6.1 11.1-.8 1.1-3.6 1.1-5.5 1.1-.4 0-.9-2.4-1-3.7-.6-9.5 3.1-18.2 5.7-27 1-3.5 3.1-6.8 3.9-10.4 1.3-5.8 1.8-11.8 2.9-17.7 1.3-7.3 3.1-14.5 4.2-21.9.7-4.3.3-8.6.6-13 0-1.9.3-3.8.9-5.7 3.6-10.5 7.2-21.1 11.2-31.5 2.1-5.3 9.3-9.9 14.8-9.3z"/><path d="m189.1 221.6 3.8.9-.3-4.6 3.4-6.3.7.5c-.2 2.8-.5 5.6-.8 9.4 3.2-4.8 1.2-10.7 7.8-13.2-1.5 8.5-2.8 16.4-4.2 24.3-.9 4.9-1.8 9.8-2.5 14.8-.1.5 1 1.1 1.7 1.9 0 0-.5.4-.4.7.4 2.6 2.4 5.8-2.9 5.9-2.7 0-5.5 1-8.2.8-4.1-.4-8.6-.5-11.2-4.7-.5-1.1-.9-2.3-1.1-3.5.8-6.6 1.6-12.9 2.3-19.2h-1.2c-.3-1.3-.6-2.4-1-3.4 0-.1-1.3 0-1.4.2-.3 1.1-.4 2.2-.5 3.3-.4 5-.6 10-.9 13.9-3.5.4-6.9 1-10.4 1.7-3.4.9-6.7 2.4-11.1 4.1l3.4-8.6-.6-.2-2.1-13.8-1.2-2.7 26.8-4.6 13.2-5.4c.3.7.4 1.4.4 2.1-.2 1.8-.9 3.8-1.5 5.7-.5.6-1.4 1-1.6 1.6-.7 2.9-1.2 5.8-1.8 8.8-3.2 2.6 0 5.2.1 7.5l-2.6 2.8-1.4-.9c.8-1.2 2-2.3 2.2-3.6.1-.7-1.3-1.7-2.1-2.7.7-4.8 1.5-10.1 2.4-15.4-2.7 5.3-4.2 10.8-5.7 16.2-.6 2-1.6 4.1-1.6 6.1 0 1.7 1 3.5 1.6 5.2.9-.2 1.8-.5 2.6-1 .6-.8 1.1-1.7 1.4-2.6 1.2 2.1 1 4.1 1.3 6 .1.9 1.3 1.5 2 2.3.4-.5 1.1-.9 1.1-1.4 1-5.8 1.9-11.7 2.9-17.5.5-3.1 1.2-6.1 1.8-9.6l-2.4.6zm5.5 12.8-1.5-.2c-.5 3.2-1 6.3-1.3 9.5 0 .4 1.5.9 2.4 1.3.5-.8.8-1.7 1-2.7 0-1.8-.4-3.7-.6-5.5-.1-.8-.1-1.6 0-2.4z"/><path d="m255.6 367.3c-.2-.6-.3-1.2-.3-1.9.2-1.2.3-3.3.9-3.4 1.7-.4 4.3-.7 5.1.2 4.7 5 9 10.4 13.7 16 .3-.4.1.2-.2.2-9.8 2.8-11.6 11.4-14 19.1-2.1 6.5-6.1 8.2-11.5 3.9-2.1-1.7-4.6-3.1-6.4-5.1-5-5.5-3.3-11.7-.5-17.3 2.2-4.4 5.7-8.2 8.9-12 .4-.6 2.5.1 4.3.3z"/><path d="m238.4 234.6-.5-1.7-.6.1v7c-1.5 1.1-3.8 2.6-5.8 4.4-.5.5-.2 1.9-.2 2.9l3.7.2c-.9 2-1.4 4.8-3.1 6.2s-4.6 1.2-6.7 1.7l14.8-68.2-2.5-.5-4 22.6-.7-.1-8.1 35c-.7 2.4-1.7 5.7-2.7 9-.3.8-.8 1.9-1.4 2.1-1.3.3-2.5.3-3.8.2.3-1.2.6-2.4 1.1-3.6 2.4-5.4 6.1-10.5 7.1-16.1 1.9-10.6 2.4-21.4 3.4-32.1.3-3.3-.9-7.3.6-9.8 2.1-3.7 6.1-6.3 9.8-8.9.4-1.1.7-2.2 1.1-3.4 3.9 2.9 2.5 9.7 10.4 10.1l-3.3 1 2.1 1.6-6.1 30.1-1.2-.3c.5-4.9.9-9.8 1.4-14.7l-1.4-.1c-1.3 8.6-2.4 17.1-3.4 25.3z"/><path d="m217.4 199.6 6.7-3.7 1.4.7-6.4 30.7.8.3 3.8-12 .4.4c-.8 4.6-1.6 9.1-2.5 14.1l-1.8.4 1.6 1.6-.9.6-2.2-4.7c-.3 4.1-.6 7.3-.8 10.6h-.7c.1 1.5.2 3 .3 4.7-.8 3.7-1.6 7.7-2.4 11.6-4.3-.1-6.2-3.4-4.9-8 .2-.8-.4-1.7-.6-2.6-.6.6-1.1 1.4-1.5 2.1-.4 1.2-.2 2.6-.7 3.7-.7 1.6-1.6 3.1-2.5 4.6-.9-1.2-1.8-2.3-2.9-3.9.7-.3.1-.1-.9.4.6-1.4 1.4-2.5 1.3-3.5-.2-1-.7-1.9-1.3-2.8.5-.7.9-1.5 1.2-2.3 1.2-7.2 2.3-14.5 3.4-21.7.5-3.5.9-7 1.7-10.4.5-2.1 1.5-4.1 3-5.6 2.3-2.1 5-3.6 7.4-5.3-.7.9-1.4 1.9-2 2.7.2 1 .4 2 .6 3.1l-2.4-.4c-.3 1.5-.5 2.8-.8 4.6l3.6-2.3c-.6 4-1.1 7.6-1.7 11.9 1.1-.7 1.7-.9 1.8-1.1.9-5.3 1.9-10.7 2.6-16 .1-.8-1.1-1.7-1.7-2.5z"/><path d="m175 529.4-1.1 1.9-.5-.8c-1.2.6-2.6.9-3.5 1.7-3.5 3.4-6.7 7.1-10.3 10.4-1 .9-3 .9-5.7 1.7l3-4.7c-2.7-4.2-3.5.4-5.1 1.2-1.2.7-2.3 1.4-3.4 2.2-.3-.5-1-1.3-.8-1.6.8-1.5 1.8-3 3-4.2 2.6-2.4 5.4-4.6 7.7-7.3-7.7 2.3-11.4 11-20 11.5l15-13.4-.9-.9-6 5.3c-.1-.3-.3-.8-.7-1.7l-10.4 9-.9-.3c1-1.7 1.7-3.7 2.9-5.2 3.7-4.4 7.7-8.5 11.5-12.8.2-.2 0-.8 0-1.9l-16.7 13.9-.7-.4c1.9-2.7 3.6-5.5 5.7-8.1 1.9-2.3 4.1-4.4 6.6-6.1 1.4-.9 3.5-.8 5.3-.9.5 0 1 1.3 1.5 2.1 3.3-3.2 6.7-.7 10.1.5 5.4 1.9 10.8 4 16.2 5.7 2.6.8 4.9 4.3 3.4 6.8-2 2.1-3.7 4.5-5.9 6.3s-4.9 2.9-8.1 4.8c-.2-8.4 7.9-8.9 8.8-14.7z"/><path d="m384.1 201.8c9.6 0 19.1-.1 28.6.1.9 0 2.3 1.8 2.5 2.9.3 2.6.3 5.3.1 7.9-.1 1.2-.6 2.2-1.5 3-3 2.3-6.3 4.4-9.5 6.7-5.7-5.8-6.2-5.8-14-.7-.6.4-3-1.3-4.1-2.5-1.5-1.4-2.8-3.1-3.5-5-.5-2.1-.6-4.3-.2-6.4.2-2 .8-4.1 1.6-6z"/><path d="m94 466.6c1.8 1 3.2 1.7 4.6 2.5 2.7 1.3 5.4 3 8.3 3.8 6 1.7 3.3 6.5 3.3 9.5.1 8.2-1 16.4-1.7 24.6-.2.9-.7 1.8-1.5 2.4-.2.1-1.2-.6-1.9-1-1.2-.6-2.4-1.9-3.5-1.8-5 .6-5.7-3.3-5.9-6.1-1-10.6-1.4-21.2-2-31.9 0-.7.1-1.3.3-2z"/><path d="m411.2 245.4c.7-.9.9-1.3 1.7-2.3-.3 2.8-.1 5.1-.8 7-1.8 4.9-4.1 9.6-6.1 14.4-.6 1.6-1.1 3.2-1.6 4.9-.1.4.1.9-.1 1.1-4.4 3.3-3 8.9-5.5 13.1-2.7 4.5-4.1 9.8-6.1 14.6-.2.6-.8 1.1-2.1 1.4.3-1.6.6-3.1.8-4.7 1.2-9.4 2.5-18.7 3.6-28.1.9-8.2 1.3-16.5 2.4-24.7.2-1.3 3.5-3.2 5.1-3 2.3.3 4.4 2.3 7 3.9l1.1-.9c.2.9.3 1.8.6 3.3z"/><path d="m392.4 235.8c0 2.5.1 4.3 0 6.1-1 12.2-1.9 24.4-3.2 36.5-.8 6.4-2 12.7-3.8 18.8-.5-3.6-1.1-7.1-1.5-10.7-1.1-9.9-2.1-19.8-3.1-29.6-.4-4.1-.5-8.2-.9-12.2-.3-2.9.9-4.3 3.6-5.2s5-2.1 8.9-3.7z"/><path d="m81.3 536.7c6.7-8 13.2-14.9 18.7-22.5 2.7-3.7 3.5-2.1 5.9-.2 2.9 2.4 5.5 5 4.7 8.7-1.1 4.5-2.3 9.6-5.2 12.8-2.3 2.4-7.3 3-11.2 3.2-4.1.1-8.2-1.2-12.9-2z"/><path d="m414 509.2 1.9-1c0-.3 0-.6-.1-.9-1 .1-2.4-.2-3 .3s-.7 1.9-1.2 3.5c-.8-1.1-1.1-1.6-1.4-2.1l-2.1 2.6-1.1-3.4-7.3 3.7-.7-1.3 15.8-11.7-1.3-1 .4-.8 2.4 1.1c3.5-6.1 8.3-6.6 13.5-1.3 2.7 2.8 5.5 5.4 8 8.3.6.6 1 2.2.6 2.7-.8.8-1.8 1.2-2.9 1.3-6.1.9-12.1 1.7-18.2 2.3-1.2.1-2.4-.6-3.6-.9z"/><path d="m468.3 43c2.4-.4 4.9-1 5.2 2.7l-1.5-2v4.5l2.8-.5c-.8 1.8-1.3 3.1-2 4.7l2 1.4c.1-1.6.2-2.9.3-4.3l1.5-.2 2.6 8.9-12.8-6.5c.2-.8.1-.3-.2.7l-1.2-2.3-2.5 1-.2-.5 1.7-1.4-3.4-2.3c-.3.9-.5 1.6-.5 1.4l-15.4-5.6-.1.4-5.7-2.2-.1.1-23.7-8.4c-.1.2-.1.5-.2.7l-27.7-12c3.1-8.4 6.3-2.6 9.3-1.1l-.8 1.2c2.8 1.6 5.7 3.1 8.6 4.5 11 4.3 22.1 8.6 33.3 12.6 6.9 2.5 14 4.3 21 6.5 3.8 1.1 7.5 2.2 11.7 3.4v-3.2l-4.2-1z"/><path d="m77.1 527.9-2.1.2 4.5-5.8c-.9.1-2.2-.1-2.8.4-2.1 2-3.8 4.3-5.8 6.4-.5.4-1.1.5-1.7.4-4.8-3.5-4.6-7.5.6-10.4 2.6-1.4 4.9-4.8 8.7-2 .3.2 1.7-1.2 2.6-1.7 1.8-1 3.6-1.9 6.8-3.6l-3.2 4.7-.8-.1-4.2 4.7 1.1 1c2.3-2.2 5.1-4.1 7-6.7 3.2-4.3 7-5.4 12.2-2.3l-4.1 3c-2.4 3.4-3.7 5.9-5.7 7.9s-5.2 3.3-7.2 5.5c-1.5 1.6-2.1 4.1-3.3 6.8-1.5-.8-4.5-1.4-4.7-2.5-.3-1.9 1.3-4 2.1-5.9 3.8-2.3 7.7-4.5 11.5-6.8.5-.3.5-1.4.7-2.1 0-.1-1-.6-1.1-.5-1.7 1.4-3.3 3-5 4.5l-.1-.2z"/><path d="m365 509.9-2.4-.8c.1.8 0 1.6-.1 2.4-.9 2.3-2 4.6-3.2 7.4-6.6-.1-14 .7-20.4-3.8-1-.9-1.4-2.2-1.2-3.5.4-1.6 1.4-3 2.8-4 1.9-.9 4-1.4 6-1.5.7-.1 1.6.8 3.3 1.7.6-1.3 1.1-3.6 2.5-4.6s3.7-.8 5.6-.6c4.1.4 6.4 2.9 7.1 7.3zm-12.5 4-.6-1.9c-1 0-2.2-.4-2.9.1-1.4 1.1-2.7 2.3-3.8 3.6l3.2 1.6.8-2.8 1.9.2c.1.9.3 1.7.5 3l2.9-2.3.7 3.2c2.4-2.6 4.3-4.5 5.9-6.5.4-.5-.1-1.7-.2-2.8z"/><path d="m452.7 319 .9-5.6h.7c.3 2.8.7 5.6.8 8.4.2 6.3.8 12.7.2 19-.3 3.1-3 6-4.2 9.1-1.9 4.7-3.6 9.4-5 14.2s-2.3 9.7-3.5 14.6c-.1.5-.7.9-1.2 1.6-1.3-5.2 9.4-42.9 11.8-43.4.3-2.8.7-5.5 1-8.3l-2.2.6c.5-.7.9-1.5 1.3-2.2.2-.9.3-1.8.2-2.8 0-.1-1-.5-1.1-.3-.7.6-1.3 1.4-1.6 2.3-.8 3.4-1.2 6.9-2.2 10.2-.7 2.2-2.3 4-3.2 6.2-1.5 3.5-2.8 7.2-4.2 10.8-.4.8-1.1 1.4-2 1.5.4-1.3.8-2.5 1.4-4.3l-2.1 1.1 2.6-4.6-.2-.2 11.6-28z"/><path d="m460.6 20 2.4-2 3.6 4.7-1.2 1.2c-1.7-.6-4-.7-5-1.9-4.1-4.9-9.9-4-15.1-5-13.4-2.5-26.9-4.7-40.4-7-.5-.1-.9-.3-1.4-.5.1-.5.2-1 .3-1.5 8.6 1.3 17.2 2.5 25.7 3.9s17.2 3.1 26.6 4.9c-.7-1.6-1.1-2.4-1.5-3.4l-2 .9c.1-.4.2-.8.2-1.2l-33.2-7c.1-.5.1-1 .2-1.4 7.5 1.1 14.9 2.5 22.4 3.3 8.3.8 14.2 5 18.4 12z"/><path d="m368.6 511c2-3.7 5.1-5.5 9.2-6.6 2.7-.7 5.3-1.9 7.6-3.5.6-.4-.2-2.8-.4-4.3-.1-.6-.2-1.8-.1-1.8 1.4-.5 2.8-.7 4.3-.7.8.1 1.5 1.4 1.9 1.8l-4.3 7.6-.4-.6c-2.1 2-4.4 3.8-6.4 6-1 1.2-1.4 2.9-2.1 4.4l4.5-2.1c-1.2 4.5-11.2 9.2-17.8 7.7.8-1.5 1.7-2.9 2.5-4.4.5-1.3 1-2.4 1.5-3.5z"/><path d="m445.2 25.7-28.9-7.6v-.6c6 .7 12.1.8 17.8 2.2 9.3 2.4 18.4 5.2 27.3 8.6 5.6 2.1 12.7 2.6 15.3 9.6.3.7.6 1.4 1 2.2l-3.8-.3 2.2-2.4-4.2-.2v.9l-25.8-14.5c-.5 1.3-.9 2.1-.9 2.1z"/><path d="m396.8 380h-16.1c-.1.4-.1.8-.2 1.2l2.1 1.3-.9 1.1-5.2-4.3 6.5-3.3-2.1-.9 6.7-12.8c3 6.1 6.1 12 9.2 17.7z"/><path d="m344.8 429.5c1-1.4 1.9-2.8 2.8-4.2 1.7-2.4 3.7-4.6 5.2-7.2 3.9-6.7 7.6-13.6 11.4-20.4 1.6-2.9 3.5-5.8 5.6-9.3-.1 1.7-.2 2.8-.3 4.4.5-.2 1.4-.4 1.7-.9.9-1.6 1.6-3.4 2.5-4.9.6-.9 1.4-1.7 2.3-2.4.1-.1 1.4.8 1.4 1.1-.3 1-.7 2-1.3 2.8-2.4 3.3-4.9 6.5-7.3 9.7-3.8 5.1-7.6 10-11.2 15.2s-6.9 10.5-10.2 15.8c-.3.6-.4 1.2-.5 1.8z"/><path d="m421.5 44.4c-7.8-3.2-15.9-6-23.4-9.8-5.5-2.9-10.7-6.5-15.4-10.6-2.6-2.3-4.1-5.9-5.9-9-.2-.4.5-1.8 1.2-2.3.4-.3 1.5.3 2.2.5l7.1 1.5c-1 .2-1.9.5-2.9.9-1 .6-2.3 1.1-2.6 2s.1 2.8.8 3.3c7.2 4.8 14.5 9.5 22 13.9 4.2 2.5 8.8 4.6 13.2 6.7 1.4.6 2.8 1.1 4.3 1.5-.2.4-.5.9-.6 1.4z"/><path d="m441.6 401.5-2.3-17h13.6l-9.6 17.4z"/><path d="m468.4 43-5.1-1.8c-.1.4-.3 1-.5 1.9l-2.2-.8 2.8-2.4-19.7-7.6c-6.5-2.3-12.7-5.1-18.7-8.3 7.7 2.2 15.5 4 23.1 6.7 7.3 2.6 14.3 5.9 21.7 9l-1.4 3.2z"/><path d="m42.4 369.9c-.8-19.3 8.1-36.4 11.3-54.8l2 .5c-4.5 18.1-8.9 36.2-13.3 54.3z"/><path d="m277.6 386.7c-.1 6.1-6.5 15.2-10.4 15.5-.7 0-2.3-1.6-2.2-1.9 2.7-5.4 5.5-10.7 8.5-16 .4-.6 2.5-1 2.7-.7.6 1 1.1 2 1.4 3.1z"/><path d="m406.8 501.7-1-1.3-7.8 9.6c-4.7-2.3-4.7-3.4-.2-7.1 2.8-2.4 5.9-4.5 9.1-6.3 1.3-.7 3.4.2 5.1.4.1 0 .2 1.3 0 1.4-1.6 1.2-3.3 2.1-5.2 3.3z"/><path d="m424.6 306.4-1.4.2 5-11.6 1.2.3c-.5 3.5-1 6.9-1.6 10.7l.8.7-3.2 5.8 1 2-1.3-.6-7.2 10.9z"/><path d="m374.1 248c2.9 4.6 2.6 31.9 0 34.5z"/><path d="m349.4 384.7 11.6-24.8 1.5.7-1.5 3.4 1.6-.3-11.7 21.7z"/><path d="m329.3 270.6c-5.4 9.8-8.4 21-17.9 28.2z"/><path d="m366.5 50.2c2.9-3.5 6.3-6.7 8.5-10.5 2-3.5 2.8-7.8 4.1-11.9 3 1.6 3.5 3 1.4 5.7-2.6 3.4-4.3 7.5-6.9 10.9-1.8 2.4-4.4 4.2-6.6 6.3z"/><path d="m421.8 277.3 6.7 3.1c-.5.7-1 1.9-1.6 1.9-3 .2-5.9.1-8.9-.1-.8-.2-1.5-.7-1.9-1.5 0-.9.5-1.7 1.2-2.2 1.3-.3 2.7-.5 4-.5z"/><path d="m369.5 36.6c0 .9.5 2.3-.1 3-4 5.6-8.1 11-12.2 16.5l-1.3-.9z"/><path d="m439.8 256.9c-.6-.9-.9-1.9-1.1-3-.1-3.6-.1-7.3 0-10.9.2-.9.6-1.8 1.1-2.6.6.7 1.7 1.4 1.7 2.1.2 4.7.1 9.4.1 14.1z"/><path d="m452.8 277.2-5 6.4-.9-.6c1.2-5.1 2.5-10.2 4-16.5.7 4 1.2 6.8 1.9 10.7z"/><path d="m395 490.5c-2.8.6-6.4-7.9-4.6-11.4.5-1 1-2 2-3.9.9 5.6 1.7 10.4 2.6 15.3z"/><path d="m427.9 30-26.4-7.9.3-1c3.5.9 7 1.6 10.4 2.6 4.6 1.4 9.1 3 13.6 4.6.7.5 1.4 1.1 2.1 1.7z"/><path d="m453 295.8-4.5 15.4-1.8-.5 4.5-15.4z"/><path d="m445.6 298.6 5.7-18.2c1.7 3.6-2.6 15.7-5.7 18.2z"/><path d="m369.2 272v17.2l-1.7-.1c.4-5.7.9-11.4 1.3-17.2z"/><path d="m434.2 236.8-4 7.7 3 .7-4.7 2.1c.6-3.9 1-7.2 1.7-10.4 0-.4 2.3-.1 4-.1z"/><path d="m426.5 332.9v-3.2l-1.7.3c1.5-3.9 2.9-7.5 4.2-11.2l1.2.2-3 13.8z"/><path d="m429.1 416c2.6 1.5 4.9 2.4 1.7 5.4-1.6 1.5-2 4.2-4 6.2.8-3.8 1.6-7.6 2.3-11.6z"/><path d="m404.7 303.4c-1.6 6.1-3.2 12.1-4.8 18.2l-1.2-.2-.3-3.6.9.2c.5-.9 1-1.8 1.3-2.8 1-4.1 1.8-8.2 2.7-12.2z"/><path d="m130.3 526 8.2-9.1 1.6 1.4-8.3 8.9z"/><path d="m445.6 298.5c-1.1 3.3-2.1 6.6-3.3 9.9-.7 1.7-1.5 3.3-2.4 4.9l-1.5-.7c2.4-4.7 4.8-9.4 7.2-14.1z"/><path d="m371.9 368.2-3.6 6.9 1.9-.1c-1 2.3-2 4.4-3 6.5l-1.5-.5 4.5-13.4z"/><path d="m427.8 30 21.2 7c-.1.4-.3.8-.5 1.2l-4.4-1.7-.1.2z"/><path d="m372.6 432.1c-2.4 5.1-4.9 10.3-7.4 15.4l-1.1-.5c2.4-5.2 4.8-10.4 7.2-15.5z"/><path d="m268.6 344.5-4.3 5.8-1.1-.8 7.2-10.3 1.8 1.2-3 4.2z"/><path d="m447.8 250.2 1.8 10.2-2.3.3-.9-10.3z"/><path d="m409.4 329.8c-.8 4.1-1.6 8.1-2.4 12.2l-1.3-.2 2.1-12.2z"/><path d="m376 282.7c.1 2.8.3 5.6.5 8.8l-3 1.8c.5-4.2 1-7.4 1.4-10.6z"/><path d="m373.5 406.4c1.4-2.9 2.7-5.8 4-8.6l1.5.7-6.6 12.2-.6-4.2z"/><path d="m335.5 286.4-3.1 11.8-1.4-.4 3-11.9z"/><path d="m340.2 67.7-6.6 8.4c-.9-3.6 1.4-7.3 5-8.2.5-.1 1-.2 1.6-.2z"/><path d="m350 24.6-8.9 11.4c-.1-3.4 6.2-11.3 8.9-11.4z"/><path d="m371.9 245.7c-.6 3.9-1.2 7.9-1.8 11.8l-1.2-.1 1.2-11.9z"/><path d="m363.9 243c-.7 4.7-1.5 9.5-2.2 14.2l-1-.1c.6-4.7 1.2-9.4 1.7-14.1z"/></g><path d="m368 158.3c-.2-1.2-.3-2.1-.4-2.9 1.1.4 2.8.4 3.4 1.2 7.6 10.8 18.1 15.6 31.4 15.5 5.2 0 10.4.6 14.8-2.5 4.1-2.8 7.9-6 11.8-9 1.1-.9 2-2.4 3.1-2.6.9-.1 3 1.3 3 2 0 1.5-.7 3.5-1.8 4.4-6.9 5.2-13.2 11.4-22 13.2-2.9.6-5.9 0-8.9.1-12.2.6-22.7-3.1-31.2-11.7-2-1.9-5.2-4.1-3.2-7.7z"/><path d="m390.8 95.2c-.5 6.2-.2 11.5-1.5 16.4-.8 3.2-3.8 6-6.2 8.6-.3.4-3.8-.8-4.1-1.9-2.3-6.7-2.6-13.4.6-20 .8-1.6.5-4 1.6-5.1 1.6-1.6 4.5-3.7 6-3.2 1.8.6 2.8 3.7 3.6 5.2z"/><path d="m437.1 104.4c-1.6 5.5-2.9 11-4.9 16.3-.4 1.2-3.2 2.6-4.3 2.2-1.7-.7-3-2.2-3.5-4-.5-5.3-1.1-10.7-.1-15.8.7-3.5 3.7-6.7 6-9.8.5-.7 2.4-.8 3.3-.5.9.6 1.5 1.6 1.6 2.6.4 2.8.6 5.8.9 8.6z"/><path d="m148.6 392c1.4 2.5 3.2 4.9 4.2 7.5 4.3 11.7 8.3 23.5 12.3 35.3.6 1.7.9 3.6 1.4 6 .1-.1-.3.5-.8 1.5-10.3-15.3-12.8-33-19-49.4z"/><path d="m114.2 451c-5.8-7.8-9.4-43.1-5.1-46.5 1 7.3 1.9 14.1 2.9 21l-.3-.1c.3 4.2.6 8.5 1 12.7s1 8.7 1.5 12.9z"/><path d="m75.7 409.7c-1.8 9.9-3.6 19.3-5.5 29.7-3.5-9.1-.2-26 5.5-29.7z"/><path d="m150.7 195.9c-7.9-1.4-16.2-1.8-23.6-4.6-8.7-3.2-17.3-7.7-21.4-16.9-.4-1 .6-2.6 1-3.9 1 .7 2.1 1.4 3.1 2.1 4.8 3.8 9.2 8.2 14.5 11.2 10.9 6.2 23.2 7.2 35.3 5.2 8.3-1.4 14.7-7.2 20.5-13.2.8-.9 2.7-.7 4.1-1.1.1 1.5 1 3.6.3 4.4-8.9 9.9-19.3 16.9-33.8 16.8z"/><path d="m185 125.6c.2 2.1.1 4.2-.1 6.4-1 6-6.9 9.3-10.3 5.7-1.8-1.9-2.5-5.7-2.1-8.4.9-5 2.3-9.9 4.1-14.6.5-1.3 2.4-2.3 3.8-3 .4-.2 1.9 1.6 2.4 2.7 1.2 2.4 2.2 4.9 2.8 7.5.2 1.1-1.1 2.5-1.7 3.8z"/><path d="m83.6 81.4 2.6 4.3-2.4 1.2c-.6.2-1.1.5-1.6.9-.8.8-1.5 1.7-2.2 2.6-.8-.8-2.4-1.9-2.3-2.2.7-1.4 1.6-2.6 2.7-3.7.8-1 1.7-1.8 3.2-3.1z"/><path d="m75.4 88 1.9 2.5-.7 1.7 5.6-1.5c-.8.9-1.6 1.8-2.3 2.8-.6 1.1-1.1 2.2-1.6 3.3-.2.4-.1 1.3-.4 1.3-.8.2-1.8.5-2.3.2s-.8-1.5-1.4-3l2.1 1.3c-1-2.8-4.7-5.3-.9-8.6z"/><path d="m170.7 75.6c-.3 2.5-.4 3.3-.6 4.9l-1.6-2.9 5.6-6.1c.4 2.9.9 6 1.2 9 .1.4-.7.9-1 1.4-.4-.4-.8-.9-1.1-1.4-.7-1.1-1.2-2.3-2.5-4.9z"/><path d="m178.8 70.9c-1.6-1.7-2-2.3-2.9-3.2 1.2-.8 2.6-1.4 3.4-2.4 1.3-1.8 2.1-3.9 3.3-5.8.7-.8 1.5-1.6 2.4-2.3.3 1 .6 1.9 1 3.2h-.9z"/><path d="m174.2 40.6-1.7-1.1c-.2.9-.4 1.6-.6 2.6l4 .7c-.2.7-.3 1.3-.6 2.2l-1.6-1.5-.6.9-5.4-4.7 3.6-1.2-1.3-.8.6-.9 4.4 2.7z"/><path d="m111.6 95 4.2 2.2c-1.6.3-2.8.7-2.9.6-.5-1.3-1.5-3.1-1-3.8 1.5-2 3.6-3.4 5.7-5.4l1.3 1.8c-.8 1.1-1.8 2.3-1.8 2.4z"/><path d="m110.6 88.9 3.9-2.4-2.6-1.7 1.9-1.7-.9-4.5.8-.2c.7 2.4 1.4 4.8 2.4 8l-4.4 4z"/><path d="m146.4 43.5c0-1.6-.2-2.6 0-2.7 2.6-1.2 5.3-2.2 8-3.2.5-.2 1.4 1 2.1 1.6-.8.2-1.5.5-2.2.7-2 .5-4 1-6.7 1.6z"/><path d="m93.5 145c-2.4.8-4.8 2.7-6.6-1.1-.2-.5-2.3-.1-3.7-1.3 1.8-.1 3.5-.1 5.3 0 1.8.3 3.6.7 5.3 1.1.1 0-.1.6-.3 1.3z"/><path d="m94.3 132.4c2.4-2.1 4.7-4.3 7.2-6.3.4-.3 1.5 0 3 .1-2.9 2.5-4.9 4.4-7.1 6-.7.5-2 .2-3.1.2z"/><path d="m132.1 78.2c-1.5.9-2.1 1.3-3.7 2.3l4.8-8 .8 1.6 2.2-2.5 1 .8z"/><path d="m95 71.2 1.1-6.9 1.4.4c-.4 1-.8 2-1.3 3.3l5 2.1-4 1.1 1.7 2.8z"/><path d="m92.1 230.6-4.6 3.4c.2-.9.3-1.5.4-2.2h-1.9l-.8 1.4 6.4 3.8-1.4.5c-.9 2.1-1.6 3.9-2.4 5.8l3-.3-.3-1.8h.5v7.9l-2.6-4.9-2.1.4-1.5 2.7c-1.2-.7-2.4-1.4-3.6-2.2-1-.6-1.9-1.3-2.8-1.9-1.2-.8-3.1-1.3-3.7-2.5-1.1-2.6-2.1-5.3-2.8-8.1l.6.1-2.8-7.4c-.9-6.9-1.6-12.4-2.4-17.9-.4-3.1-1.3-6.1-1.6-9.2-.1-1.1 1.5-2.3 1.8-3.6.7-2.9 1-5.9 1.5-9.1.2.3 1.8 1.2 1.9 2.2.4 5.7.2 11.4.6 17.1.3 4.2.4 8.7 2.2 12.4 1.1 2.4 3 4.1 2.4 7-.2 1.3-.3 2.7-.3 4l2.4-.6v-15l-5.4-3.2c5.9-.1 7.9 3.1 7.1 7.6-.6 3.2.3 6.7 1.7 10 0-3-.1-6 0-9 .3-5.2.7-10.5 1.1-15.7 0-.3.7-.5 1.1-.8.2.4.7.8.7 1.2.3 8.5.5 17 .9 25.5.1 1.1 1.4 2.1 2.3 3.5l2.8-3.4-3.5.4 2-3.4z"/><path d="m95.7 249.6 1.2-2-1.8-1.4.8-.2c0-11.3 0-22.4.1-33.5 0-.2 1.2-.3 1.5-.4l1.4-1.9c.4.6.7 1.3.9 2.1.6 6.9 1.3 13.7 1.4 20.6 0 5.4-.8 10.7-1.5 16.1-.1.8-1 1.6-1.6 2.3z"/><path d="m87.6 221c.6-2.2 1-3.8 1.3-5.3l1.2-.4c.8 3.1 1.7 6.2 2.5 9.2h-5z"/><path d="m109 232 .3 3-1.5.1c.1-2.1.1-4.2.3-6.4.1-1.4.3-2.8.6-4.2.1-.6.4-1.2.7-1.8.1-.2 1.1 0 1.1.1.1.6.2 1.2.1 1.8-.3 2.5-.8 5-1.1 7.4z"/><path d="m105.5 226.6-1.6 13-1.5-.2c.6-4.3 1.2-8.7 1.8-13z"/><path d="m237.3 108.7c1.1 6.5 2.1 13 3.2 19.6l1-.1-1.4 7.1-2.4-.7-1.9 1.8-3.3-5.8c4.4-2.8-1.3-5 .1-8.2 1 1 1.9 2.1 2.6 3.3.5 1.6.7 3.2.9 4.8l2.1-1-3.1-6.8 1.1-.8-7.6-37.1c.5-4.9-5.1-9.7-9.4-14.9l3-5.2c-.4 5.5 2.4 6.9 6.8 6.3 3.2 12.7 6.3 25.2 9.4 37.6z"/><path d="m227.9 117.7c-.4.2-.8.4-1.3.5-.2 0-.4 0-.5-.1-.3-1.2-.6-2.2-.9-3.3l-.7.1.5-2.4-.8.2c-2.2-6.9-4.4-13.8-6.6-20.7l1.2-.5 4.2 10.5c.6 2.1 1.4 5.1 2.1 7.8l1.5-1.3z"/><path d="m241.8 136.3-2.7 7.6 1.9-.6c.2 1.1.5 2.2.8 3.6l-4.4 1c.2-2 .4-3.6.6-5.1.1-.5.1-1-.1-1.5-2.5-3.8-2.5-3.8 3.9-5z"/><path d="m218 75.4c.4 1.4.9 2.8 1.6 5.1-.6-.3-.1-.1.2.1l-4.8 2.5s-.8-1-1.4-1.8c.8-.5 2.8-1.4 2.8-2-.5-3.2-1.2-6.3-2.1-9.4-.1.3.2-.6 1.1-2.8 1.2 3.6 1.9 5.9 2.6 8.3z"/><path d="m218.8 83 3.9 3.2-1.3 1.1 4.5 5.9-2.2 1.4 1.2 1.8c-.9-.2-1.6-.3-1.8-.5-1.8-4.2-3.5-8.3-5.2-12.5z"/><path d="m249.6 137.3c-4.2-2-3.5-5.2-2.4-8.2.2-.6 2.1-.6 3.4-1-.4 3.5-.7 6.3-1 9.2z"/><path d="m245.5 113.6 1.1 5.6-1.7.4c-1.3-4.8-2.6-9.6-3.9-14.5l1.6-.4c.5 2.5 1.1 5.1 1.6 7.6l.9.4.8-2.2.9.7z"/><path d="m227.9 117.7c.7 1.7 1.4 3.4 2 5.2.3.7.4 1.5.9 3.1l-1.4 3.7c-1.1-4.1-1.9-6.8-2.6-9.5.3-.9.7-1.7 1.1-2.5z"/><path d="m189.1 221.6v2.4l2.4-.6c-.7 3.5-1.3 6.6-1.8 9.6-1 5.8-1.9 11.7-2.9 17.5-.1.5-.8.9-1.1 1.4-.7-.8-1.8-1.5-2-2.3-.3-1.9-.1-3.8-1.3-6-.3.9-.8 1.8-1.4 2.6-.8.5-1.7.8-2.6 1-.6-1.7-1.6-3.5-1.6-5.2.1-2 1-4.1 1.6-6.1 1.5-5.5 3-10.9 5.7-16.2-.8 5.3-1.6 10.6-2.4 15.4.8 1 2.2 2 2.1 2.7-.3 1.3-1.4 2.4-2.2 3.6l1.4.9 2.6-2.8c-.1-2.3-3.3-4.9-.1-7.5.6-2.9 1.1-5.9 1.8-8.8.3-.6 1.3-1 1.8-1.6z"/><path d="m194.6 234.4c-.1.8-.1 1.6-.1 2.4.2 1.8.6 3.7.6 5.5-.2.9-.5 1.9-1 2.7-.8-.4-2.4-.9-2.4-1.3.3-3.2.9-6.3 1.3-9.5z"/><path d="m217.4 199.6c.6.8 1.8 1.7 1.7 2.4-.7 5.4-1.7 10.7-2.6 16-.1.3-.7.5-1.8 1.1.6-4.3 1.1-7.9 1.7-11.9l-3.6 2.3c.3-1.9.6-3.1.8-4.6l2.4.4c-.2-1.1-.4-2.1-.6-3.1.6-.7 1.3-1.7 2-2.6z"/><path d="m77.1 527.9 5.9-5.1.1.2c1.7-1.5 3.3-3 5-4.5.2-.1 1.1.3 1.1.5-.1.7-.2 1.8-.7 2.1-3.7 2.3-7.6 4.5-11.4 6.8z"/><path d="m352.5 513.9 8.2-4.7c.1 1.1.6 2.3.2 2.8-1.6 2.1-3.5 4-5.9 6.6l-.7-3.2-2.9 2.3c-.2-1.3-.3-2.1-.5-3l-1.9-.2-.8 2.8-3.2-1.6c1.2-1.3 2.5-2.5 3.8-3.6.7-.5 1.9-.1 2.9-.1z"/></svg>